<svg id="Layer_1" data-name="Layer 1" xmlns="http://www.w3.org/2000/svg" viewBox="0 0 500 500"><defs><style>.cls-1{fill:#737374;}.cls-2{fill:#f8a58f;}.cls-3{fill:#f68e77;}.cls-4{fill:#b74626;}.cls-5{fill:#92361e;}.cls-16,.cls-6{fill:#f37325;}.cls-18,.cls-7{fill:#2e383f;}.cls-8{fill:#fff;}.cls-9{fill:#da5726;}.cls-10{fill:#435478;}.cls-11{fill:#c4d4d9;}.cls-12{fill:#96a4b2;}.cls-13{fill:#fbc8c3;}.cls-14{fill:#faae7e;}.cls-15{fill:#424e56;}.cls-16{font-size:39.32px;font-family:MyriadPro-Regular, Myriad Pro;}.cls-17{fill:#fccaaf;}.cls-18{opacity:0.3;}.cls-19{fill:#404f6d;}.cls-20{fill:#f68c4c;}</style></defs><ellipse class="cls-1" cx="247.47" cy="435.92" rx="223.12" ry="7.5"/><path class="cls-2" d="M142.93,197.29H128.77a4.78,4.78,0,0,0-4.77,4.78v8.84a4.77,4.77,0,0,0,4.77,4.77h11.46v-3.51h0a13,13,0,0,0,9.21-3.82l1.72-1.72Z"/><polygon class="cls-2" points="142.93 197.29 151.16 206.63 186.51 198.41 181.62 185.33 142.93 197.29"/><polygon class="cls-3" points="181.62 185.33 179.9 185.87 179.34 200.08 186.51 198.41 181.62 185.33"/><path class="cls-4" d="M249.31,134.75h0a11.09,11.09,0,0,0-15.25,1.48l-36.67,42.54L190.76,181l6.16,16.47,3.48-.75a28.07,28.07,0,0,0,14.4-8.09l35.7-37.51A11.09,11.09,0,0,0,249.31,134.75Z"/><path class="cls-5" d="M197.12,198l-.2-.53L190.76,181l-.6-1.62a1.81,1.81,0,0,0-2.33-1.06l-6.06,2.26a1.82,1.82,0,0,0-1.06,2.33l.5,1.32,5.76,15.4.71,1.9a1.82,1.82,0,0,0,2.32,1.06l6.06-2.27A1.81,1.81,0,0,0,197.12,198Z"/><path class="cls-6" d="M236.38,138a11.18,11.18,0,0,1,13.72-2.56c-.25-.24-.51-.47-.79-.69h0a11.09,11.09,0,0,0-15.25,1.48l-36.67,42.54L190.76,181l1,2.65,7.45-2.51Z"/><path class="cls-7" d="M236.55,223.26,160.11,243.6A20.56,20.56,0,0,0,147.77,274l44.56,74.29,24.8-11-35.65-67.79,72.6-15.17a23.79,23.79,0,0,0,17.61-31.1H236.55Z"/><path class="cls-2" d="M213.92,342.39l-1.86-2.82L198,345.83l3.32,6L217,347.46C216,345.74,215,344,213.92,342.39Z"/><path class="cls-8" d="M210.05,354.56l-1.32,3.34,1.76-1.23a4.09,4.09,0,0,1,2.37-.75h8.23a80.32,80.32,0,0,0-4.09-8.46l-15.72,4.41.95,1.73h7.16A.7.7,0,0,1,210.05,354.56Z"/><path class="cls-7" d="M192,369h33.3l-.6-2.35a79.75,79.75,0,0,0-3.59-10.68h-8.23a4.09,4.09,0,0,0-2.37.75l-1.76,1.23,1.32-3.34a.7.7,0,0,0-.66-1h-7.16l-5.29,5a12.93,12.93,0,0,1-8.85,3.5h-3.6a9.32,9.32,0,0,0-8.2,4.88l6.87,1.22A50.13,50.13,0,0,0,192,369Z"/><path class="cls-8" d="M192,369a50.13,50.13,0,0,1-8.82-.78L176.29,367a9.34,9.34,0,0,0-1.14,4.13l10.49.95c1.66.16,3.33.23,5,.23h35.51l-.86-3.31Z"/><polygon class="cls-7" points="212.06 339.57 197.96 345.83 199.49 348.6 214.84 343.81 212.06 339.57"/><path class="cls-9" d="M118.62,216.42H115l-9.28,32.85a103.73,103.73,0,0,0,8.17,76.79l4.53,1.71Z"/><path class="cls-6" d="M105.73,249.27,115,216.42h-3.38L92.57,287.17A14.6,14.6,0,0,1,78.48,298a.9.9,0,0,0-.9.9v13.51l36.32,13.68A103.73,103.73,0,0,1,105.73,249.27Z"/><circle class="cls-7" cx="75.09" cy="383.43" r="50.74"/><circle class="cls-10" cx="75.09" cy="383.43" r="36.54"/><circle class="cls-11" cx="75.09" cy="383.43" r="29.83"/><path class="cls-12" d="M75.09,353.6a29.7,29.7,0,0,0-15.39,4.27,26.36,26.36,0,1,1,6.48,51.92A26.09,26.09,0,0,1,59.7,409,29.83,29.83,0,1,0,75.09,353.6Z"/><circle class="cls-12" cx="75.09" cy="383.43" r="13.16"/><circle class="cls-9" cx="75.09" cy="383.43" r="8.91" transform="translate(-249.13 165.4) rotate(-45)"/><circle class="cls-7" cx="335.75" cy="383.43" r="50.74"/><circle class="cls-10" cx="335.75" cy="383.43" r="36.54"/><circle class="cls-11" cx="335.75" cy="383.43" r="29.83"/><path class="cls-12" d="M335.75,353.6a29.71,29.71,0,0,0-15.4,4.27,26.36,26.36,0,1,1,6.48,51.92,26.09,26.09,0,0,1-6.48-.81,29.83,29.83,0,1,0,15.4-55.38Z"/><circle class="cls-12" cx="335.75" cy="383.43" r="13.16"/><circle class="cls-9" cx="335.75" cy="383.43" r="8.91" transform="translate(-172.79 349.71) rotate(-45)"/><path class="cls-8" d="M77.54,316.22C103.68,317,126,335.34,133,360.54l1.13,4.1,1.23.6L133,356.7c-6.95-25.21-29.3-43.5-55.44-44.32-.67,0-1.35,0-2,0A62.83,62.83,0,0,0,44,320.76l1.73,2.88a62.85,62.85,0,0,1,29.8-7.45C76.19,316.19,76.87,316.2,77.54,316.22Z"/><path class="cls-13" d="M82.31,339.18l51.8,25.46-1.13-4.1c-6.95-25.2-29.3-43.5-55.44-44.32-.67,0-1.35,0-2,0a62.85,62.85,0,0,0-29.8,7.45L55,339.18Z"/><path class="cls-6" d="M137.79,369.09H113.58a41.08,41.08,0,0,1-29-12h0a41,41,0,0,0-29-12H26.83L35.92,336a56,56,0,0,1,39.59-16.4h0a56,56,0,0,1,47.22,25.89Z"/><path class="cls-6" d="M118.62,216.42l-9.28,32.85a103.71,103.71,0,0,0,9.09,78.5l4.63,8.37a74.5,74.5,0,0,0,65.15,38.38H416.77l-8.19-29.72a120.56,120.56,0,0,0-52.79-70.51L341,265.13H213.84v5.56a8.6,8.6,0,0,0,5.85,8.14h0a37.32,37.32,0,0,1,25.12,30.82h0a37.3,37.3,0,0,1-37,41.83H189.19a52.06,52.06,0,0,1-44-24.16l-8.62-13.57a67.67,67.67,0,0,1-9.06-50.41l10-46.92Z"/><path class="cls-7" d="M341,265.13H203.57V248.82H313.15a28.33,28.33,0,0,1,20.25,8.53Z"/><path class="cls-13" d="M261.1,376.77H199.4a76.78,76.78,0,0,1-67.13-39.54l-4.63-8.37a105.3,105.3,0,0,1-9.29-80.2,34.4,34.4,0,0,0-3.14-26.12,2.26,2.26,0,1,1,3.93-2.23,39,39,0,0,1,3.55,29.58,100.89,100.89,0,0,0,8.89,76.79l4.64,8.36a72.25,72.25,0,0,0,63.18,37.22h61.7a2.26,2.26,0,0,1,0,4.51Z"/><path class="cls-9" d="M263.33,365.68H404.7l-2.16,2.17a18.48,18.48,0,0,1-13,5.4H278.22a18.43,18.43,0,0,1-14.89-7.57Z"/><circle class="cls-12" cx="325.07" cy="358.34" r="30.58"/><path class="cls-10" d="M325.07,381.86a23.52,23.52,0,1,1,23.52-23.52A23.55,23.55,0,0,1,325.07,381.86Zm0-44.54a21,21,0,1,0,21,21A21,21,0,0,0,325.07,337.32Z"/><path class="cls-10" d="M340.34,359.59H309.8a1.25,1.25,0,0,1,0-2.5h30.54a1.25,1.25,0,1,1,0,2.5Z"/><path class="cls-10" d="M337.71,354.58H312.43a1.25,1.25,0,0,1,0-2.5h25.28a1.25,1.25,0,1,1,0,2.5Z"/><path class="cls-10" d="M334.18,349.58H316a1.25,1.25,0,0,1,0-2.5h18.22a1.25,1.25,0,0,1,0,2.5Z"/><path class="cls-10" d="M330,344.58h-9.82a1.25,1.25,0,0,1,0-2.5H330a1.25,1.25,0,0,1,0,2.5Z"/><path class="cls-10" d="M337.71,364.59H312.43a1.25,1.25,0,0,1,0-2.5h25.28a1.25,1.25,0,1,1,0,2.5Z"/><path class="cls-10" d="M334.18,369.6H316a1.26,1.26,0,0,1,0-2.51h18.22a1.26,1.26,0,0,1,0,2.51Z"/><path class="cls-10" d="M330,374.6h-9.82a1.25,1.25,0,1,1,0-2.5H330a1.25,1.25,0,0,1,0,2.5Z"/><path class="cls-14" d="M358.07,292.11h0a92.92,92.92,0,0,0-48.27-13.52h-5.71c-29,0-53.58,23.72-53.57,52.72a52.49,52.49,0,0,0,12.81,34.37H404.7l-5.41-19.28A93,93,0,0,0,358.07,292.11Z"/><path class="cls-6" d="M349.92,311.81h0a68,68,0,0,0-35.35-9.9h-4.18c-21.23,0-39.24,17.37-39.23,38.6a38.43,38.43,0,0,0,9.38,25.17H384.06l-4-14.12A68.06,68.06,0,0,0,349.92,311.81Z"/><path class="cls-10" d="M350.57,357.9H303a1.36,1.36,0,1,1,0-2.71h47.59a1.36,1.36,0,0,1,0,2.71Z"/><path class="cls-10" d="M349.1,352.54H301.51a1.36,1.36,0,0,1,0-2.71H349.1a1.36,1.36,0,0,1,0,2.71Z"/><path class="cls-10" d="M347.63,347.18H300.05a1.36,1.36,0,1,1,0-2.71h47.58a1.36,1.36,0,1,1,0,2.71Z"/><path class="cls-10" d="M346.17,341.82H298.58a1.35,1.35,0,0,1,0-2.7h47.59a1.35,1.35,0,0,1,0,2.7Z"/><path class="cls-10" d="M344.7,336.47H297.11a1.36,1.36,0,0,1,0-2.71H344.7a1.36,1.36,0,1,1,0,2.71Z"/><path class="cls-9" d="M213.84,265.13H341a15,15,0,0,1-10.61,4.4H225.61a18,18,0,0,1-11.77-4.4Z"/><path class="cls-6" d="M137.57,216.42H99.68V192.14h8.22a48.44,48.44,0,0,1,20.44,4.53l6.08,2.84a8.93,8.93,0,0,1,4.86,10.36Z"/><rect class="cls-13" x="95.69" y="192.14" width="3.98" height="24.28"/><rect class="cls-8" x="93.66" y="192.14" width="2.03" height="24.28"/><path class="cls-11" d="M400.89,261.65a1.35,1.35,0,1,0-1.92-1.91l-11.33,11.33h3.83Z"/><path class="cls-8" d="M387.64,271.07l-18.35,18.36a1.35,1.35,0,0,0,0,1.91,1.34,1.34,0,0,0,1.91,0l20.27-20.27Z"/><path class="cls-8" d="M332.21,276.22H256a2.26,2.26,0,1,1,0-4.51h76.26a20.26,20.26,0,0,0,14.42-6,24.74,24.74,0,0,1,17.61-7.3h74.18a2.26,2.26,0,1,1,0,4.51H364.24a20.26,20.26,0,0,0-14.42,6A24.73,24.73,0,0,1,332.21,276.22Z"/><polygon class="cls-9" points="118.62 216.42 137.57 216.42 137.13 218.46 118.04 218.46 118.62 216.42"/><rect class="cls-7" x="337.25" y="159.81" width="133.35" height="98.63"/><rect class="cls-7" x="333.43" y="143.72" width="140.98" height="16.09"/><rect class="cls-15" x="337.25" y="159.81" width="133.35" height="7.82"/><text class="cls-16" transform="translate(354.19 220.19) scale(0.65 1)">SELF-SHIP</text><polygon class="cls-6" points="353.89 179.44 353.28 181.99 403.92 181.99 422.06 179.44 353.89 179.44"/><polygon class="cls-6" points="354.8 175.45 354.19 177.99 442.99 177.99 461.12 175.45 354.8 175.45"/><polygon class="cls-6" points="353.89 234.02 353.28 236.57 403.92 236.57 422.06 234.02 353.89 234.02"/><polygon class="cls-6" points="354.8 230.03 354.19 232.57 442.99 232.57 461.12 230.03 354.8 230.03"/><path class="cls-15" d="M236.55,223.26,172.8,242.31a22.56,22.56,0,0,0-12.88,33.21l43.67,72.81,24.81-11-35.65-67.79,72.59-15.17A23.8,23.8,0,0,0,283,223.26H236.55Z"/><path class="cls-17" d="M225.19,342.39l-1.87-2.82-14.09,6.26,3.32,6,15.71-4.41C227.29,345.74,226.28,344,225.19,342.39Z"/><path class="cls-8" d="M221.31,354.56,220,357.9l1.75-1.23a4.09,4.09,0,0,1,2.37-.75h8.23a80.32,80.32,0,0,0-4.09-8.46l-15.71,4.41.94,1.73h7.16A.7.7,0,0,1,221.31,354.56Z"/><path class="cls-7" d="M203.24,369h33.31l-.61-2.35a79.75,79.75,0,0,0-3.59-10.68h-8.23a4.09,4.09,0,0,0-2.37.75L220,357.9l1.31-3.34a.7.7,0,0,0-.66-1h-7.16l-5.29,5a12.91,12.91,0,0,1-8.85,3.5h-3.6a9.34,9.34,0,0,0-8.2,4.88l6.87,1.22A50.21,50.21,0,0,0,203.24,369Z"/><path class="cls-8" d="M203.24,369a50.21,50.21,0,0,1-8.82-.78L187.55,367a9.33,9.33,0,0,0-1.13,4.13l10.49.95c1.66.16,3.32.23,5,.23h35.5l-.85-3.31Z"/><polygon class="cls-7" points="223.32 339.57 209.23 345.83 210.75 348.6 226.1 343.81 223.32 339.57"/><path class="cls-17" d="M222.4,110.49l-1.93-10.95a7.66,7.66,0,0,0-7.55-6.33h-11l1,5.19a28.14,28.14,0,0,1-.2,11.38l-.48,2.12a1.43,1.43,0,0,0,1.4,1.75h2.22a15.26,15.26,0,0,0,24,8l13.62-10.47-7.23,5.06A8.89,8.89,0,0,1,222.4,110.49Z"/><path class="cls-2" d="M201.23,89.46l.71,3.75h11a7.66,7.66,0,0,1,7.55,6.33l1.93,10.95a8.89,8.89,0,0,0,13.83,5.74l7.23-5.06h0V89.46Z"/><polygon class="cls-7" points="243.46 111.17 229.84 121.64 231.65 126.84 243.46 111.17 243.46 111.17"/><polygon class="cls-17" points="253 125.62 243.46 111.17 231.65 126.84 234.74 135.71 253 125.62"/><path class="cls-7" d="M210.13,101.84c.21,1.26-.17,2.36-.85,2.47s-1.39-.81-1.6-2.06.18-2.36.85-2.47S209.93,100.59,210.13,101.84Z"/><path class="cls-7" d="M206.9,97.43a3.25,3.25,0,0,1,3.48.16c1.06.7,2-1,1-1.7a5.21,5.21,0,0,0-5.46-.15,1,1,0,0,0,1,1.69Z"/><path class="cls-8" d="M209.58,109.5l2.2.75a16.78,16.78,0,0,0,10,.31l5.49-1.55L226,106.44l-4.2,1.17a16.86,16.86,0,0,1-10-.31l-2.2-.76a40,40,0,0,0-6-1.54l-.79-.14-.72,2.86,1.51.23A40,40,0,0,1,209.58,109.5Z"/><path class="cls-15" d="M227.26,109l-5.49,1.55a16.78,16.78,0,0,1-10-.31l-2.2-.75a40,40,0,0,0-6-1.55l-1.51-.23-.24.94a8.45,8.45,0,0,0,.26,5l1.23,3.4a15.81,15.81,0,0,0,14,10.4h0a15.82,15.82,0,0,0,10.89-3.55l4.58-3.74Z"/><path class="cls-18" d="M221.89,107.57l.51,2.92a8.86,8.86,0,0,0,9.27,7.31L226,106.44Z"/><path class="cls-19" d="M229.84,113.58l-4.16,11.85a.56.56,0,0,0,.59.75h0a9.93,9.93,0,0,0,7.43-4.9l5.28-9.15Z"/><path class="cls-6" d="M225.77,95.46l2.29,13a3.61,3.61,0,0,0,4.81,2.76l22.59-8.37V86.67A30.07,30.07,0,0,0,225.38,56.6h0a30.07,30.07,0,0,0-30.06,29.17h18.9A11.72,11.72,0,0,1,225.77,95.46Z"/><path class="cls-8" d="M244.06,81a4.07,4.07,0,0,1-3.6-2.18,17,17,0,0,0-15.08-9.16,4.06,4.06,0,0,1,0-8.12,25.06,25.06,0,0,1,22.27,13.52,4.05,4.05,0,0,1-1.71,5.47A4,4,0,0,1,244.06,81Z"/><path class="cls-8" d="M213,73.69a4.06,4.06,0,0,1-2.4-7.34l.19-.14a4.06,4.06,0,0,1,4.73,6.6l-.13.09A4,4,0,0,1,213,73.69Z"/><path class="cls-9" d="M232.87,111.21a3.61,3.61,0,0,1-4.81-2.76l-2.29-13a11.72,11.72,0,0,0-11.55-9.69h-18.9c0,.3,0,.6,0,.9v2.79h17.92a9,9,0,0,1,8.88,7.45l2.28,12.89a7.21,7.21,0,0,0,10,5.35l18.92-8.29a3.62,3.62,0,0,0,2.16-3.31v-.71Z"/><path class="cls-6" d="M231,216.32l5.53-24.18-7.94-43.5a12.24,12.24,0,0,1,6.13-12.93L253,125.62a6.57,6.57,0,0,1,7.43.76h0a76,76,0,0,1,26.22,50.87l3.43,38.22a7.14,7.14,0,0,1-7.11,7.79H236.55A5.67,5.67,0,0,1,231,216.32Z"/><path class="cls-4" d="M258.54,143.71l.16.59a26.17,26.17,0,0,1-3.85,21.52l-18.3,26.32-3.72-20.39Z"/><polygon class="cls-6" points="233.03 130.79 228.01 133.39 233.03 138.8 234.74 135.71 233.03 130.79"/><polygon class="cls-4" points="228.01 133.39 226.88 142.63 232.04 137.74 228.01 133.39"/><polygon class="cls-20" points="255.95 124.81 250.63 120.12 231.65 130.49 234.24 141.47 255.95 124.81"/><path class="cls-17" d="M148.78,201.82H134.62a4.78,4.78,0,0,0-4.77,4.77v8.85a4.78,4.78,0,0,0,4.77,4.77h11.46v-3.52h0a13,13,0,0,0,9.21-3.81l1.72-1.72Z"/><polygon class="cls-17" points="148.78 201.82 157.01 211.16 192.37 202.94 187.47 189.86 148.78 201.82"/><polygon class="cls-2" points="187.47 189.86 185.75 190.39 185.19 204.6 192.37 202.94 187.47 189.86"/><path class="cls-6" d="M255.16,139.27h0a11.09,11.09,0,0,0-15.24,1.49L203.25,183.3l-6.63,2.23L202.78,202l3.47-.75a28.1,28.1,0,0,0,14.4-8.09l35.7-37.51A11.1,11.1,0,0,0,255.16,139.27Z"/><path class="cls-4" d="M203,202.52l-.19-.52-6.16-16.47L196,183.9a1.81,1.81,0,0,0-2.32-1.06l-6.06,2.27a1.8,1.8,0,0,0-1.06,2.32l.49,1.32,5.76,15.4.71,1.9a1.8,1.8,0,0,0,2.32,1.06l6.06-2.27A1.79,1.79,0,0,0,203,202.52Z"/><path class="cls-20" d="M242.24,142.53A11.17,11.17,0,0,1,256,140c-.25-.23-.51-.47-.79-.69h0a11.09,11.09,0,0,0-15.24,1.49L203.25,183.3l-6.63,2.23,1,2.64,7.44-2.51Z"/><path class="cls-7" d="M150.73,216.67a4.06,4.06,0,0,1,5.51-1.61h0c-.08,0-.15-.12-.24-.17l-9.08-5a4.06,4.06,0,0,0-3.9,7.12l9.06,5A4.06,4.06,0,0,1,150.73,216.67Z"/><path class="cls-10" d="M154.07,222.52a4,4,0,0,0,2.19-7.45h0a4.05,4.05,0,0,0-4.14,7h0A4,4,0,0,0,154.07,222.52Z"/></svg>