<svg xmlns="http://www.w3.org/2000/svg" xmlns:xlink="http://www.w3.org/1999/xlink" viewBox="0 0 202 147"><defs><style>.cls-1{isolation:isolate;}.cls-2{fill:#d04f27;}.cls-3{fill:#fff;}.cls-4{fill:#f5f6f6;opacity:0.9;}.cls-5{mix-blend-mode:multiply;}.cls-6{fill:url(#linear-gradient);}</style><linearGradient id="linear-gradient" x1="8.28" y1="143" x2="-13.96" y2="212.05" gradientTransform="translate(-16.51 108.64) rotate(-90)" gradientUnits="userSpaceOnUse"><stop offset="0.25" stop-color="#676767"/><stop offset="0.34" stop-color="#5b5b5b"/><stop offset="0.49" stop-color="#3b3b3b"/><stop offset="0.7" stop-color="#080808"/><stop offset="0.72" stop-color="#030303"/><stop offset="0.99"/></linearGradient></defs><g class="cls-1"><g id="Layer_1" data-name="Layer 1"><rect class="cls-2" width="202" height="147" rx="11.98"/><path class="cls-3" d="M115.84,17.05H22.13c-6,0-10.81,6-10.81,13.35V88.26c0,7.36,4.85,13.35,10.81,13.35h93.71c6,0,10.82-6,10.82-13.35V30.4C126.66,23,121.8,17.05,115.84,17.05Zm3.61,71.21c0,2.45-1.62,4.45-3.61,4.45H22.13c-2,0-3.6-2-3.6-4.45V30.4c0-2.45,1.61-4.45,3.6-4.45h93.71c2,0,3.61,2,3.61,4.45Zm1.8,22.25H83.4c0,2.45-1.61,4.45-3.6,4.45H58.17c-2,0-3.6-2-3.6-4.45H16.72c-3,0-5.4,3-5.4,6.67s2.42,6.68,5.4,6.68H121.25c3,0,5.41-3,5.41-6.68S124.23,110.51,121.25,110.51Z"/><path class="cls-2" d="M120,29c0-2.94-2-5.32-4.47-5.32H23c-2.47,0-4.46,2.38-4.46,5.32V87.39c0,2.94,2,5.32,4.46,5.32h92.52c2.47,0,4.47-2.38,4.47-5.32Z"/><rect class="cls-4" x="25.66" y="28.96" width="38.49" height="4.75"/><rect class="cls-4" x="72.99" y="29.46" width="38.49" height="13.33"/><rect class="cls-4" x="25.66" y="38.55" width="38.49" height="4.75"/><rect class="cls-4" x="25.66" y="48.14" width="38.49" height="4.75"/><rect class="cls-4" x="25.66" y="57.73" width="38.49" height="4.75"/><path class="cls-3" d="M176.4,7.74H145.6a3.65,3.65,0,0,0-3.7,3.57V75.38a3.64,3.64,0,0,0,3.7,3.56h30.8a3.64,3.64,0,0,0,3.7-3.56V11.31A3.65,3.65,0,0,0,176.4,7.74Zm-20.78,5.55h10.76V14H155.62ZM161,75.21a2.07,2.07,0,1,1,2.07-2.07A2.07,2.07,0,0,1,161,75.21Zm16.57-7.75H144.43V18.33h33.14Z"/><rect class="cls-2" x="144.43" y="18.33" width="33.14" height="49.12"/><rect class="cls-4" x="146.33" y="22.86" width="29.27" height="2.9"/><rect class="cls-4" x="146.33" y="29.52" width="29.27" height="2.89"/><rect class="cls-4" x="146.33" y="36.17" width="29.27" height="2.9"/><rect class="cls-4" x="146.33" y="46.55" width="29.27" height="14.61"/><g id="_226._iPad" data-name="226. iPad" class="cls-5"><path class="cls-6" d="M178.64,84.34H143.36a5.43,5.43,0,0,0-5.42,5.43v43.41a5.43,5.43,0,0,0,5.42,5.43h35.28a5.43,5.43,0,0,0,5.42-5.43V89.77A5.43,5.43,0,0,0,178.64,84.34ZM161,135.9a2.72,2.72,0,1,1,2.71-2.72A2.71,2.71,0,0,1,161,135.9Zm17.64-8.15H143.36v-38h35.28Z"/></g><rect class="cls-2" x="143.36" y="89.77" width="35.27" height="37.99"/><rect class="cls-4" x="147.08" y="92.39" width="12.08" height="3.39"/><rect class="cls-4" x="147.08" y="98.23" width="26.96" height="2.32"/><rect class="cls-4" x="147.08" y="103.31" width="26.96" height="2.33"/><rect class="cls-4" x="147.08" y="108.38" width="26.96" height="2.33"/><rect class="cls-4" x="147.08" y="113.46" width="26.96" height="2.32"/><rect class="cls-4" x="147.08" y="118.54" width="26.96" height="2.32"/><g id="_226._iPad-2" data-name="226. iPad"><path class="cls-3" d="M178.64,84.34H143.36a5.43,5.43,0,0,0-5.42,5.43v43.41a5.43,5.43,0,0,0,5.42,5.43h35.28a5.43,5.43,0,0,0,5.42-5.43V89.77A5.43,5.43,0,0,0,178.64,84.34ZM161,135.9a2.72,2.72,0,1,1,2.71-2.72A2.71,2.71,0,0,1,161,135.9Zm17.64-8.15H143.36v-38h35.28Z"/></g></g></g></svg>