<svg id="Layer_1" data-name="Layer 1" xmlns="http://www.w3.org/2000/svg" viewBox="0 0 87.91 125.24"><defs><style>.cls-1{fill:#fff;}</style></defs><path class="cls-1" d="M7,26.93H70.3v93.85H7ZM59.68,53.71c-1.93-10.8-8.22-17.08-18.87-19-.22-2.37-.73-3.21-2-3.21-.46,0-1.14.13-1.32.43a22.34,22.34,0,0,0-1.19,2.82C25.83,36.67,19.56,43,17.66,53.7c-.89,0-1.79,0-2.69,0a2.06,2.06,0,0,0-2.05,2.9q1,3.26,2.13,6.5a2.08,2.08,0,0,0,2.25,1.62c1.49,0,3,0,4.47,0H59.68c1.67,0,2.2-.39,2.72-2,.67-2,1.35-4.07,2-6.11a2,2,0,0,0-2.09-2.93C61.42,53.69,60.52,53.71,59.68,53.71ZM38.62,70.59H28c-3.15,0-6.31,0-9.46,0a2.06,2.06,0,0,0-2.28,2.32c.13,1.15,1,1.78,2.5,1.79H50.05c2.91,0,5.82,0,8.73,0A2,2,0,0,0,61,72.33c-.15-1.12-1-1.74-2.43-1.74Q48.6,70.57,38.62,70.59Zm0,13.92h3c5.71,0,11.43,0,17.14,0a2,2,0,0,0,2.27-2,2.06,2.06,0,0,0-2.23-2.08c-.21,0-.41,0-.62,0h-39a8.64,8.64,0,0,0-1.14,0,2,2,0,0,0-1.78,2.38c.16,1.1,1,1.7,2.46,1.7Zm-.07,9.77H58.17a9.07,9.07,0,0,0,1,0A2,2,0,0,0,61,92.32a2,2,0,0,0-1.65-2.07,6.13,6.13,0,0,0-1.13-.07H19.38a7.75,7.75,0,0,0-1.45.07,2,2,0,0,0-1.65,2.26,2,2,0,0,0,2.3,1.76Zm.06,9.78H58.12c1.94,0,2.88-.66,2.9-2s-1-2.08-2.85-2.08h-39a6.89,6.89,0,0,0-1.44.11,2,2,0,0,0,.15,4,6,6,0,0,0,1,0Zm0,9.77H58.12c2,0,2.88-.64,2.9-2s-.93-2.07-2.85-2.07H18.9a5.74,5.74,0,0,0-.93,0,2,2,0,0,0,.57,4Z"/><path class="cls-1" d="M82.13,103.15H74.47V25.78c0-2.44-.57-3-3-3h-48l0-.2L82.13,8.79Z"/><path class="cls-1" d="M28.14,3.24,70.71,7l0,.22-42.59,10Z"/><path class="cls-1" d="M55.32,53.61H22a16.79,16.79,0,0,1,33.34,0Z"/><path class="cls-1" d="M59.62,57.86a16.28,16.28,0,0,1-.79,2.33c-.12.24-.66.39-1,.39q-6.34,0-12.68,0c-8.41,0-16.83,0-25.25,0-1,0-1.62-.22-1.78-1.3a8.92,8.92,0,0,0-.46-1.46Z"/></svg>