<svg xmlns="http://www.w3.org/2000/svg" viewBox="0 0 11.52 7.26"><defs><style>.cls-1{fill:#f05023;}.cls-2{fill:#ae3324;}.cls-3{fill:#e2b740;}.cls-4{fill:#e0a637;}.cls-5{fill:#db8f2c;}.cls-6{fill:#e4b63e;}.cls-7{fill:#e1a637;}.cls-8{fill:#dc9431;}.cls-9{fill:#524a60;}.cls-10{fill:#ead154;}.cls-11{fill:#dc9330;}.cls-12{fill:#031f1e;}</style></defs><g id="Layer_2" data-name="Layer 2"><path class="cls-1" d="M5.37,6.53l.15,0a3.39,3.39,0,0,1,.84,0,1.42,1.42,0,0,1,.45.08l.07,0s0,0,0,0a1.09,1.09,0,0,0,0-.18.17.17,0,0,1,0-.07h0l0,0s0,0,0,0a1.5,1.5,0,0,1,0,.3.45.45,0,0,1-.07.18.26.26,0,0,1-.15.12H6.66a1.07,1.07,0,0,1-.25,0H6.24a1.63,1.63,0,0,1-.31,0,.78.78,0,0,1-.32-.12A.66.66,0,0,1,5.37,6.53Z"/><path class="cls-2" d="M5.37,6.53a.66.66,0,0,0,.24.23.78.78,0,0,0,.32.12,1.63,1.63,0,0,0,.31,0h.17a1.07,1.07,0,0,0,.25,0h.07a.34.34,0,0,1-.14,0L6.52,7H6.41L6.19,7,5.91,7H5.58l0,0L5.47,7l-.2,0a.42.42,0,0,1-.2-.17A.63.63,0,0,1,5,6.55a0,0,0,0,1,0,0s0,0,0,0,0,.06,0,.09l.06,0A.63.63,0,0,1,5.37,6.53Z"/><path class="cls-3" d="M9.66,4.05c0-.07,0-.13,0-.19a4.86,4.86,0,0,1,0-.54v0a.08.08,0,0,0,.08.06h.41l.27,0h.75a.62.62,0,0,1,0,.13c0,.12-.07.24-.11.36A1,1,0,0,0,11,3.9a.65.65,0,0,1-.2,0l-.15,0-.18,0-.25,0h0A1,1,0,0,1,10,4H9.78A.25.25,0,0,0,9.66,4.05Z"/><path class="cls-3" d="M11,2.67l0,.05.14.22,0,.05v.15h-.32a.38.38,0,0,1-.15,0h-.62l-.32,0a.17.17,0,0,0-.1,0,1.77,1.77,0,0,1,0-.23l.06-.34s0,0,0,0h.73l.2,0,.23,0Z"/><path class="cls-4" d="M11.33,4s0,.07,0,.1a1.46,1.46,0,0,1-.16.44l0,0-.06,0-.07,0a3,3,0,0,1-.4.12,1.24,1.24,0,0,1-.38,0H9.78v0A1.18,1.18,0,0,0,10,4.64l.09,0a1.77,1.77,0,0,0,.31-.15l.17-.13a.8.8,0,0,0,.22-.23s0,0,0,0L11,4l.22,0Z"/><path class="cls-3" d="M10.86,4.05s0,0,0,0a.8.8,0,0,1-.22.23l-.17.13a1.77,1.77,0,0,1-.31.15l-.09,0a1.18,1.18,0,0,1-.27.06l0-.12-.06-.4v0h.55l.09,0h0l.22,0Z"/><path class="cls-4" d="M11,4.7a.05.05,0,0,1,0,0,1.3,1.3,0,0,1-.89.5,1.15,1.15,0,0,1-.41,0H9.66a.07.07,0,0,1,0-.06.06.06,0,0,1,.06,0h.05l.11,0H9.9s0,0,0-.07a1,1,0,0,1-.06-.18h.5l.14,0a1.4,1.4,0,0,0,.34-.08Z"/><path class="cls-3" d="M9.77,2.51a.68.68,0,0,1,.08-.24.08.08,0,0,0,0,0c0-.07.07-.08.11-.11a0,0,0,0,1,0,0,.07.07,0,0,0,.06,0,1.16,1.16,0,0,1,.32.08h0l.06,0a1.57,1.57,0,0,1,.3.2l0,0h-.12l-.33,0H9.77Z"/><path class="cls-5" d="M10.86,4.05l-.28,0-.22,0h0l-.09,0H9.67v-.1a.25.25,0,0,1,.12,0H10a1,1,0,0,0,.17,0h0l.25,0,.18,0,.15,0a.65.65,0,0,0,.2,0h.09l.21,0h.07a.28.28,0,0,1,0,.13L11.2,4,11,4Z"/><path class="cls-5" d="M9.66,3.24a.17.17,0,0,1,.1,0l.32,0h.62a.38.38,0,0,0,.15,0h.39l0,.11h-.87l-.27,0H9.73a.08.08,0,0,1-.08-.06Z"/><path class="cls-6" d="M10.37,1.22A.37.37,0,0,1,10.78,1a.22.22,0,0,1,.11.05l0,.11a.25.25,0,0,1-.09.27.26.26,0,0,1-.19.05h0a.08.08,0,0,1-.09,0,.38.38,0,0,1-.13-.18S10.38,1.23,10.37,1.22Zm.15,0s0,.05,0,.07a.08.08,0,0,0,.12,0l.06-.06a.08.08,0,0,0,0-.1.08.08,0,0,0-.09,0A.12.12,0,0,0,10.52,1.21Z"/><path class="cls-5" d="M11,4.7l-.23.08a1.4,1.4,0,0,1-.34.08l-.14,0h-.5l0-.12h.45a1.24,1.24,0,0,0,.38,0,3,3,0,0,0,.4-.12l.07,0,.06,0A.39.39,0,0,1,11,4.7Z"/><path class="cls-4" d="M11.16,3.26h.12a.58.58,0,0,1,0,.18,1.13,1.13,0,0,1,0,.41h-.07l-.21,0H11A1,1,0,0,1,11,3.75c0-.12.08-.24.11-.36A.62.62,0,0,0,11.16,3.26Z"/><path class="cls-7" d="M10.37,1.22s0,0,0,0a.38.38,0,0,0,.13.18.08.08,0,0,0,.09,0h0a.26.26,0,0,0,.19-.05.25.25,0,0,0,.09-.27l0-.11a.28.28,0,0,1,.16.16.69.69,0,0,1,0,.2.36.36,0,0,1-.14.18l-.16,0h-.08l-.08,0a.23.23,0,0,1-.11-.08.33.33,0,0,1-.07-.13l0-.06A.27.27,0,0,1,10.37,1.22Z"/><path class="cls-5" d="M9.77,2.51h.61l.33,0h.12a.5.5,0,0,1,.14.15H10.9l-.23,0-.2,0H9.74A.2.2,0,0,1,9.77,2.51Z"/><path class="cls-8" d="M10.34,1.34l0,.06a.33.33,0,0,0,.07.13.23.23,0,0,0,.11.08l.08,0h.08l.16,0A.36.36,0,0,0,11,1.4a.69.69,0,0,0,0-.2.33.33,0,0,1,0,.24.37.37,0,0,1-.35.3H10.6l-.06,0a.35.35,0,0,1-.2-.33Z"/><path class="cls-9" d="M10.6,1.73h.06a.43.43,0,0,1,0,.11.09.09,0,0,1-.12.07l-.1,0a.08.08,0,0,1,0,0l.08.06a.12.12,0,0,1,0,.15s0,.09-.05.14l-.06,0a.53.53,0,0,0,.05-.18.12.12,0,0,1-.05,0,.47.47,0,0,1-.1-.1l0,0a0,0,0,0,1,0-.06h.08l.07,0h.06S10.58,1.77,10.6,1.73Z"/><path class="cls-4" d="M11.24,3.14h-.07V3A.39.39,0,0,1,11.24,3.14Z"/><path class="cls-10" d="M10.52,1.21a.12.12,0,0,1,.12-.12.08.08,0,0,1,.09,0,.08.08,0,0,1,0,.1l-.06.06a.08.08,0,0,1-.12,0S10.51,1.24,10.52,1.21Z"/><path class="cls-3" d="M1.92,3.87a.24.24,0,0,1,0,.08A4.48,4.48,0,0,1,2,4.59v0H1.89l-.32,0-.24,0H.7s0-.06,0-.08A2.69,2.69,0,0,1,.5,4.32a.84.84,0,0,1-.07-.24.27.27,0,0,1,.13,0L.72,4,1,4H1l.22,0,.24,0h0l.31,0h.09A.06.06,0,0,0,1.92,3.87Z"/><path class="cls-3" d="M1.74,3.24a.08.08,0,0,0,0,0c.06.18.11.36.16.55v0a.1.1,0,0,0-.12,0H1.45l-.24,0L1,3.89H1l-.2,0-.19,0L.4,4a.13.13,0,0,1,0-.06.19.19,0,0,0,0-.08v0a1.06,1.06,0,0,1,.16-.34h0l.21-.07.29-.07.21,0,.25,0A.69.69,0,0,0,1.74,3.24Z"/><path class="cls-4" d="M.64,5.35.54,5.2a1,1,0,0,1-.15-.32.19.19,0,0,1,0-.07,1,1,0,0,1,.3,0H.84A.86.86,0,0,0,1,5a1.14,1.14,0,0,0,.23.15,1.28,1.28,0,0,0,.37.14,1.2,1.2,0,0,0,.38,0H2v.06H2a1.7,1.7,0,0,1-.31.06,1.38,1.38,0,0,1-.2,0,2.09,2.09,0,0,0-.25,0L1,5.42l-.11,0L.69,5.34S.66,5.33.64,5.35Z"/><path class="cls-3" d="M2,5.29H2a1.2,1.2,0,0,1-.38,0,1.28,1.28,0,0,1-.37-.14A1.14,1.14,0,0,1,1,5a.86.86,0,0,1-.14-.13h.72l.24,0,.23,0s0,.06,0,.08,0,.25,0,.37S2,5.26,2,5.29Z"/><path class="cls-4" d="M2,5.48a.57.57,0,0,1,0,.18v.06s0,0,.05,0l.13,0h.06s0,.06,0,.09l-.07,0A1.25,1.25,0,0,1,.81,5.53l0,0,.1,0,.21,0,.25,0a.26.26,0,0,0,.15,0h.17l.25,0Z"/><path class="cls-3" d="M.64,3.3l0-.07A1.7,1.7,0,0,1,.93,3S1,3,1,3L1,3a1.36,1.36,0,0,1,.28-.11l.07,0a0,0,0,0,1,.06,0l.05,0a.1.1,0,0,1,.06.05s0,0,0,.06l.1.18a.06.06,0,0,1,0,0H1.56a1.84,1.84,0,0,0-.33,0l-.31.05Z"/><path class="cls-5" d="M2,4.74l-.23,0-.24,0H.67a1,1,0,0,0-.3,0,.74.74,0,0,1,0-.14l.16,0h.84l.24,0,.32,0H2A.22.22,0,0,1,2,4.74Z"/><path class="cls-5" d="M.4,4l.18,0,.19,0,.2,0H1l.22,0,.24,0H1.8a.1.1,0,0,1,.12,0h0a.06.06,0,0,1,0,.06H1.78L1.47,4h0L1.22,4,1,4H1L.72,4l-.16,0a.27.27,0,0,0-.13,0H.31A.25.25,0,0,1,.33,4S.38,4,.4,4Z"/><path class="cls-6" d="M.35,1.85A.35.35,0,0,1,.6,1.76a.36.36,0,0,1,.3.17V2a.94.94,0,0,1-.06.15.23.23,0,0,1-.32.11.26.26,0,0,1-.15-.31.11.11,0,0,1,0,0Zm.27,0h0a.07.07,0,0,0-.07.06c0,.06,0,.12.07.14l.06,0S.78,2,.77,2s0-.07-.07-.1A.07.07,0,0,0,.62,1.85Z"/><path class="cls-5" d="M2,5.48H1.9l-.25,0H1.48a.26.26,0,0,1-.15,0l-.25,0-.21,0-.1,0a.86.86,0,0,1-.13-.14s0,0,0,0l.24.06.11,0,.19,0a2.09,2.09,0,0,1,.25,0,1.38,1.38,0,0,0,.2,0A1.7,1.7,0,0,0,2,5.35H2A.61.61,0,0,1,2,5.48Z"/><path class="cls-4" d="M.31,4.09H.43a.84.84,0,0,0,.07.24,2.69,2.69,0,0,0,.16.29s0,0,0,.08H.49l-.16,0,0-.13a1.55,1.55,0,0,1,0-.43A0,0,0,0,1,.31,4.09Z"/><path class="cls-5" d="M.64,3.3l.28-.08.31-.05a1.84,1.84,0,0,1,.33,0h.13a.37.37,0,0,1,.05.11.69.69,0,0,1-.2,0l-.25,0-.21,0-.29.07-.21.07h0A.46.46,0,0,1,.64,3.3Z"/><path class="cls-7" d="M.35,1.85h0a.11.11,0,0,0,0,0,.26.26,0,0,0,.15.31.23.23,0,0,0,.32-.11A.94.94,0,0,0,.89,2v0a.27.27,0,0,1,0,.15h0a1.15,1.15,0,0,1-.06.17.23.23,0,0,1-.15.12.41.41,0,0,1-.19,0,.2.2,0,0,1-.14-.06.36.36,0,0,1-.13-.19A.51.51,0,0,1,.24,2,.26.26,0,0,1,.35,1.85Z"/><path class="cls-11" d="M.24,2a.51.51,0,0,0,0,.13.36.36,0,0,0,.13.19.2.2,0,0,0,.14.06.41.41,0,0,0,.19,0,.23.23,0,0,0,.15-.12,1.15,1.15,0,0,0,.06-.17H1a.34.34,0,0,1-.14.36l-.05,0-.07,0H.62a.36.36,0,0,1-.4-.43A.08.08,0,0,1,.24,2Z"/><path class="cls-1" d="M.69,2.5l.07,0a.22.22,0,0,0,.05.11h0l.09,0,.06,0a0,0,0,0,1,.06.06.17.17,0,0,1,0,.05L1,2.75a.1.1,0,0,1,0,0A.67.67,0,0,0,1,3S1,3,.93,3L.86,2.87a.11.11,0,0,1,0-.14l.06-.06s0,0,0,0h0l-.05,0s-.1,0-.13,0Z"/><path class="cls-4" d="M.4,4S.35,4,.33,4a.28.28,0,0,1,0-.15.19.19,0,0,1,0,.08A.13.13,0,0,0,.4,4Z"/><path class="cls-10" d="M.62,1.85a.07.07,0,0,1,.08,0s.07,0,.07.1-.06.12-.11.1l-.06,0C.53,2,.52,2,.53,1.91A.07.07,0,0,1,.6,1.85Z"/><path class="cls-1" d="M4.88.51l.3,0,.7,0c.37,0,.75,0,1.13,0l.67,0A6.78,6.78,0,0,1,8.77.58a2.54,2.54,0,0,1,.44.15,1.27,1.27,0,0,1,.63.6,2.43,2.43,0,0,1,.17.52c.05.23.08.46.11.69a11.36,11.36,0,0,1,0,1.3c0,.21,0,.41,0,.62a4.76,4.76,0,0,1-.14.92,2.43,2.43,0,0,1-.13.38,1.27,1.27,0,0,1-.63.64,1.77,1.77,0,0,1-.46.15l-.17,0H8.35a.18.18,0,0,1-.1,0H7.32a1.29,1.29,0,0,0-.28,0l-.21,0H6.6a.86.86,0,0,1-.16,0H6.28a1.22,1.22,0,0,0-.33,0H4.41a1.23,1.23,0,0,1-.2,0,1.87,1.87,0,0,1-.25,0l-.25,0a3,3,0,0,1-.5-.17L3.09,6.3a1.61,1.61,0,0,1-.3-.21c0-.06-.11-.12-.15-.18a1.32,1.32,0,0,1-.19-.29,1.59,1.59,0,0,1-.12-.27c0-.1-.06-.2-.09-.29a3.34,3.34,0,0,1-.1-.43c0-.09,0-.18-.05-.27s0-.12,0-.18v0a.59.59,0,0,1,0-.13s0-.08,0-.13V3.24a.31.31,0,0,0,0-.1.08.08,0,0,1,0,0c0-.05,0-.11,0-.16a2.33,2.33,0,0,1,.05-.28,2.64,2.64,0,0,1,.12-.4,3,3,0,0,1,.25-.47,2.51,2.51,0,0,1,.26-.31l.09-.08L3,1.29A3.06,3.06,0,0,1,3.48,1L3.6.94A3.29,3.29,0,0,1,4,.77L4.4.64c.15,0,.3-.08.46-.1C4.87.54,4.87.53,4.88.51ZM4.67,6.26h.71l.26,0,.49,0,.78,0,.68,0,.34,0A.6.6,0,0,0,8.12,6h0a.92.92,0,0,0,.61-.56A1.69,1.69,0,0,0,8.86,5a5.16,5.16,0,0,0,.08-.79c0-.31,0-.62,0-.94a3.43,3.43,0,0,0-.07-.56,1.66,1.66,0,0,0-.14-.43.92.92,0,0,0-.47-.44,1.9,1.9,0,0,0-.39-.11,5.36,5.36,0,0,0-.7-.09c-.29,0-.58,0-.87,0H6l-.44,0-.5,0-.23,0H4.75l-.51.07a5.42,5.42,0,0,0-.7.14,2.39,2.39,0,0,0-.44.18.93.93,0,0,0-.39.46l-.06.17a2.24,2.24,0,0,0-.06.52A5.3,5.3,0,0,0,2.6,4c0,.21,0,.43.06.64s.08.46.14.69A2.07,2.07,0,0,0,3,5.75a.82.82,0,0,0,.2.25,1,1,0,0,0,.42.22,1.86,1.86,0,0,0,.34,0A4.45,4.45,0,0,0,4.67,6.26Z"/><path class="cls-2" d="M4.88.51s0,0,0,0c-.16,0-.31.07-.46.1L4,.77A3.29,3.29,0,0,0,3.6.94L3.48,1a3.06,3.06,0,0,0-.49.3l-.13.11-.09.08a2.51,2.51,0,0,0-.26.31,3,3,0,0,0-.25.47,2.64,2.64,0,0,0-.12.4,2.33,2.33,0,0,0-.05.28c0,.05,0,.11,0,.16a.08.08,0,0,0,0,0,.31.31,0,0,1,0,.1V3.9c0,.05,0,.09,0,.13a.59.59,0,0,0,0,.13v0c0,.06,0,.12,0,.18s0,.18.05.27a3.34,3.34,0,0,0,.1.43c0,.09,0,.19.09.29a1.59,1.59,0,0,0,.12.27,1.32,1.32,0,0,0,.19.29c0,.06.1.12.15.18a1.61,1.61,0,0,0,.3.21l.12.07a3,3,0,0,0,.5.17l.25,0a1.87,1.87,0,0,0,.25,0,1.23,1.23,0,0,0,.2,0H6a1.22,1.22,0,0,1,.33,0h.16a.86.86,0,0,0,.16,0h.23l.21,0a1.29,1.29,0,0,1,.28,0h.93a.18.18,0,0,0,.1,0h.26l-.16,0-.52,0-.63,0-.61,0L6,6.77l-.53,0-.69,0-.48,0-.56,0a4.34,4.34,0,0,1-.72,0,2,2,0,0,1-.53-.13A1.34,1.34,0,0,1,2,6.22a2.62,2.62,0,0,1-.22-.48A5.83,5.83,0,0,1,1.55,5a6.49,6.49,0,0,1-.11-.77c0-.26-.05-.53-.07-.8s0-.5,0-.75A3.27,3.27,0,0,1,1.45,2a1.35,1.35,0,0,1,.11-.34A1.21,1.21,0,0,1,2,1.14,2.12,2.12,0,0,1,2.5.91,6.31,6.31,0,0,1,3.22.73C3.49.67,3.75.64,4,.6l.44,0,.32,0Z"/><path class="cls-12" d="M8.94,4.2A5.16,5.16,0,0,1,8.86,5a1.69,1.69,0,0,1-.12.44A.9.9,0,0,1,8.13,6h0a.6.6,0,0,1-.19.06l-.34,0-.68,0-.78,0-.49,0-.26,0H4.67a4.45,4.45,0,0,1-.73,0,1.86,1.86,0,0,1-.34,0A1,1,0,0,1,3.18,6,.82.82,0,0,1,3,5.75a2.07,2.07,0,0,1-.18-.47c-.06-.23-.1-.46-.14-.69S2.61,4.16,2.6,4a5.3,5.3,0,0,1,0-.69,2.24,2.24,0,0,1,.06-.52l.06-.17a.93.93,0,0,1,.39-.46,2.39,2.39,0,0,1,.44-.18,5.42,5.42,0,0,1,.7-.14l.51-.07h.08l.23,0,.5,0,.44,0h.27c.29,0,.58,0,.87,0a5.36,5.36,0,0,1,.7.09,1.9,1.9,0,0,1,.39.11.92.92,0,0,1,.47.44,1.66,1.66,0,0,1,.14.43,3.43,3.43,0,0,1,.07.56C8.94,3.58,8.94,3.89,8.94,4.2Z"/><path class="cls-3" d="M7.93,3a.28.28,0,0,1-.24.25.69.69,0,0,1-.2,0,1.34,1.34,0,0,1-.26-.09C7.11,3.05,7,3,6.87,2.92a.69.69,0,0,1-.13-.11.34.34,0,0,1-.08-.27.49.49,0,0,1,.08-.18.14.14,0,0,1,.08-.07.14.14,0,0,1,.14,0L7,2.3l.6.29.13.06.08.06A.24.24,0,0,1,7.93,3Z"/><path class="cls-3" d="M4.55,3.38a.32.32,0,0,1-.13.29l-.16.07a2.42,2.42,0,0,1-.45.1l-.28,0a.8.8,0,0,1-.15,0,.22.22,0,0,1-.15-.16.29.29,0,0,1,0-.3l0,0a.21.21,0,0,1,.13-.07l.19,0,.48-.09.17,0a.22.22,0,0,1,.27.17A.41.41,0,0,1,4.55,3.38Z"/><path class="cls-3" d="M6,4.63a.17.17,0,0,1,0-.07,0,0,0,0,1,0,0l0,0a0,0,0,0,1,0,0A.54.54,0,0,1,6,5a.4.4,0,0,1-.25.16.37.37,0,0,1-.3-.08.55.55,0,0,1-.21-.41,0,0,0,0,1,0,0l0,0,0,0s0,0,0,.08a.55.55,0,0,0,.06.18A.5.5,0,0,0,5.51,5a.32.32,0,0,0,.37,0A.44.44,0,0,0,6,4.83.69.69,0,0,0,6,4.63Z"/><path class="cls-3" d="M8.32,4.55a.9.9,0,0,1-.09.32,1,1,0,0,1-.76.56,1,1,0,0,1-.58-2h0a.68.68,0,0,1,.23-.07A1,1,0,0,1,8.25,4,1,1,0,0,1,8.32,4.55Z"/><path class="cls-3" d="M5,5a.74.74,0,0,1-.51.58.79.79,0,0,1-1-.61.8.8,0,0,1,.49-.87H4a.74.74,0,0,1,.72.08A.8.8,0,0,1,5,5Z"/><circle class="cls-12" cx="4.23" cy="4.84" r="0.43"/><circle class="cls-12" cx="7.28" cy="4.43" r="0.63"/></g></svg>