<svg xmlns="http://www.w3.org/2000/svg" xmlns:xlink="http://www.w3.org/1999/xlink" viewBox="0 0 354 316.13"><defs><style>.cls-1{isolation:isolate;}.cls-2{mix-blend-mode:overlay;}.cls-3{fill:#fff;}.cls-4{mix-blend-mode:color-burn;fill:url(#radial-gradient);}.cls-5{fill:url(#linear-gradient);}.cls-6{fill:#f05023;}.cls-7{fill:#ae3324;}.cls-8{fill:#da912d;}.cls-9{fill:#e1b541;}.cls-10{fill:#da8f2d;}.cls-11{fill:#785e65;}.cls-12{fill:#db912e;}.cls-13{fill:#031f1e;}.cls-14{fill:#e1b53e;}.cls-15{fill:#e2b740;}.cls-16{fill:#db8f2c;}.cls-17{fill:#e0a637;}.cls-18{fill:#e0b440;}.cls-19{fill:#d88e2d;}.cls-20{fill:#e4b63e;}.cls-21{fill:#e1a637;}.cls-22{fill:#dc9431;}.cls-23{fill:#524a60;}.cls-24{fill:#ead154;}.cls-25{fill:#dc9330;}.cls-26{fill:#ffd200;}.cls-27{fill:#fcb017;}.cls-28{fill:#cda02c;}.cls-29,.cls-58{fill:#010101;}.cls-29{opacity:0.2;}.cls-30{fill:#ee302c;}.cls-31{fill:#e71e25;}.cls-32{fill:#b92025;}.cls-33{fill:#9c4522;}.cls-34{fill:#812c19;}.cls-35{fill:#f9d468;}.cls-36{fill:#d9b450;}.cls-37{fill:#f6b45b;}.cls-38{fill:#ca8e42;}.cls-39{fill:#8b181b;}.cls-40{fill:#ffeb00;}.cls-41{fill:#cf2d28;}.cls-42{fill:#febf10;}.cls-43{fill:#ebe3d7;}.cls-44{fill:#8b2b1c;}.cls-45{fill:#69160e;}.cls-46{fill:#ed1c24;}.cls-47{fill:#e8a722;}.cls-48{fill:#ffc60a;}.cls-49{fill:#6f9c40;}.cls-50{fill:#f99e27;}.cls-51{fill:#f58220;}.cls-52,.cls-54{fill:#9c8c78;}.cls-52{opacity:0.6;}.cls-53{fill:#cdb08a;}.cls-55{fill:#951a1d;}.cls-56{fill:#e44445;opacity:0.5;}.cls-57,.cls-61{fill:#5e4f4d;}.cls-59{fill:#7c706e;}.cls-60{fill:#fff3d4;}.cls-61{opacity:0.4;}.cls-62{opacity:0.8;}.cls-63{fill:#e49f24;}</style><radialGradient id="radial-gradient" cx="238.9" cy="97.65" r="31.94" gradientTransform="translate(343.71 -144.7) rotate(90)" gradientUnits="userSpaceOnUse"><stop offset="0.2" stop-color="#4e4e4e"/><stop offset="0.58" stop-color="#a9a9a9"/><stop offset="0.86" stop-color="#e7e7e7"/><stop offset="1" stop-color="#fff"/></radialGradient><linearGradient id="linear-gradient" x1="239.03" y1="106.5" x2="239.03" y2="67.56" gradientTransform="translate(505.37 143.33) rotate(170.78)" gradientUnits="userSpaceOnUse"><stop offset="0" stop-color="#f68a1f"/><stop offset="1" stop-color="#febc11"/></linearGradient></defs><g class="cls-1"><g id="Layer_3" data-name="Layer 3"><g class="cls-2"><path class="cls-3" d="M43.82,204a6.8,6.8,0,1,1,6.79,6.8A6.8,6.8,0,0,1,43.82,204Zm12.66,0a5.87,5.87,0,1,0-5.87,5.87A5.87,5.87,0,0,0,56.48,204Z"/></g><circle class="cls-4" cx="246.05" cy="94.2" r="31.94"/><circle class="cls-5" cx="255.27" cy="94.32" r="23.34" transform="matrix(0.16, -0.99, 0.99, 0.16, 121.27, 331.18)"/></g><g id="Layer_2" data-name="Layer 2"><path class="cls-6" d="M214,301c1.18,0,2.37-.1,3.55-.11,2.24,0,4.47,0,6.7-.09a2.25,2.25,0,0,1,1.88.8,7.89,7.89,0,0,1,.65.76,13.94,13.94,0,0,1,2.68,8.8h-1.86c-4.24.07-8.48.16-12.72.21-3.19.05-6.39.06-9.58.07-2.24,0-4.48,0-6.72,0a.56.56,0,0,0-.42-.52l-1.38-.32a18.41,18.41,0,0,1-5.22-2.28,16,16,0,0,1-3.72-3.52,6.87,6.87,0,0,1-1.63-3.29l2.05-.13c.47,0,.95.07,1.42.06,3.2-.07,6.39-.17,9.58-.22C204.12,301.13,209,301.08,214,301Z"/><path class="cls-7" d="M200.1,232.43a23.2,23.2,0,0,1,.39,6.28,9.21,9.21,0,0,1-3.09-.43,21.06,21.06,0,0,1-5.1-1.8c-.32-.17-.66-.44-1.06-.18-.05.08-.13.16-.13.24a10,10,0,0,0,.16,3.27,3.24,3.24,0,0,1,.08,1q0,10.37,0,20.75a9.72,9.72,0,0,1-3.07-.59,5.57,5.57,0,0,1-1.17-3.44c0-.81,0-1.62,0-2.43q0-10,0-20c0-2.28,0-4.57,0-6.85a6.15,6.15,0,0,1,1.21-3.85l.22-.25,0,0,.26-.25,0,0,.5-.34h0l.6-.27h0l.27.09c.11,1,.25,2.06.3,3.1a1.51,1.51,0,0,0,.83,1.37c1,.55,2,1.11,3,1.64,1.22.63,2.46,1.22,3.69,1.85C198.7,231.66,199.4,232.05,200.1,232.43Z"/><path class="cls-6" d="M200.53,267.4c.05.67.15,1.33.16,2,.05,1.9.08,3.8.11,5.7.06,4.09.13,8.18.17,12.27,0,.95-.09,1.89-.13,2.84l-5.22-.22c-.94,0-1.88,0-2.82,0,0-2.19,0-4.38,0-6.57,0-.43,0-.85-.08-1.28s-.16-1.12-.18-1.69c-.13-2.89.12-5.78-.25-8.68a45,45,0,0,1,0-5.57,1.49,1.49,0,0,1,.06-.56,4.59,4.59,0,0,0,.21-2,5.35,5.35,0,0,1,.31-1.95l2.52-.12c.16.44.32.89.49,1.33a9.94,9.94,0,0,0,1.56,2.86A4,4,0,0,0,200.53,267.4Z"/><path class="cls-7" d="M198.53,311.42c2.24,0,4.48,0,6.72,0,3.19,0,6.39,0,9.58-.07,4.24-.05,8.48-.14,12.72-.21h1.86a5.75,5.75,0,0,1-.58,3.19.82.82,0,0,1-.78.53h-.85l-43.75.65c-1.62,0-3.24.08-4.86.1-1.11,0-1.29-.12-1.63-1.19a7.3,7.3,0,0,1-.45-2.66l1.72-.05c4.58,0,9.16,0,13.74-.07,2.14,0,4.28-.16,6.42-.25Z"/><path class="cls-7" d="M192.8,261.66a5.35,5.35,0,0,0-.31,1.95,4.59,4.59,0,0,1-.21,2,1.49,1.49,0,0,0-.06.56,45,45,0,0,0,0,5.57c.37,2.9.12,5.79.25,8.68,0,.57.12,1.13.18,1.69s.08.85.08,1.28c0,2.19,0,4.38,0,6.57a15.44,15.44,0,0,0-3.46.33l-2.21.06c0-1.23-.13-2.47-.16-3.7-.18-6.62-.46-13.23-.21-19.85a15.73,15.73,0,0,1,.59-4.09,3.33,3.33,0,0,1,.92-1.73,9.72,9.72,0,0,0,3.07.59Z"/><path class="cls-6" d="M192.8,261.66l-1.46-.11q0-10.38,0-20.75a3.24,3.24,0,0,0-.08-1,10,10,0,0,1-.16-3.27c0-.08.08-.16.13-.24.4-.26.74,0,1.06.18a21.06,21.06,0,0,0,5.1,1.8,9.21,9.21,0,0,0,3.09.43c0,1.18.07,2.35.07,3.53,0,1.93,0,3.86-.06,5.79a3.82,3.82,0,0,0-4.1,2.17,11.11,11.11,0,0,0-.77,1.68,15.52,15.52,0,0,0-.7,7c.11.89.26,1.77.39,2.66Z"/><path class="cls-7" d="M198.53,311.42l-.14,0c-2.14.09-4.28.22-6.42.25-4.58.05-9.16.05-13.74.07l-1.72.05a19.67,19.67,0,0,1,.24-7.49,18,18,0,0,1,.56-1.76,1.39,1.39,0,0,1,1.5-1.05c.57,0,1.14,0,1.71-.06l1.83,0,3.81,0a6.87,6.87,0,0,0,1.63,3.29,16,16,0,0,0,3.72,3.52,18.41,18.41,0,0,0,5.22,2.28l1.38.32A.56.56,0,0,1,198.53,311.42Z"/><path class="cls-6" d="M189.34,290.27a15.44,15.44,0,0,1,3.46-.33c.94,0,1.88,0,2.82,0l5.22.22,1.51.37a4.91,4.91,0,0,1,4,4.4,7.8,7.8,0,0,1,0,2.81,17.43,17.43,0,0,0-4.2-.72c-3.94-.12-7.88,0-11.82,0-.15,0-.29,0-.43.06l-.26-.11a5.36,5.36,0,0,1,1-.2c1,0,2.09,0,3.13,0a3.41,3.41,0,0,0,1.16-.09,2.59,2.59,0,0,0-.37-.32,14.07,14.07,0,0,1-2.73-1.75c-.53-.43-.84-1-1.31-1.46A3.54,3.54,0,0,1,189.34,290.27Z"/><path class="cls-7" d="M200.79,248.22a4.23,4.23,0,0,1,2.14,1.81,10.54,10.54,0,0,1,1.58,3.5,18.35,18.35,0,0,1,.27,8.37,7.24,7.24,0,0,1-1.93,4c-.18-.05-.42-.05-.53-.16a20.06,20.06,0,0,1-2.07-2.16,9.1,9.1,0,0,1-1.68-4.93,21,21,0,0,1,.2-6,9.5,9.5,0,0,1,1.34-3.41C200.35,249,200.57,248.59,200.79,248.22Z"/><path class="cls-8" d="M200.79,248.22c-.22.37-.44.74-.68,1.09a9.5,9.5,0,0,0-1.34,3.41,21,21,0,0,0-.2,6,9.1,9.1,0,0,0,1.68,4.93,20.06,20.06,0,0,0,2.07,2.16c.11.11.35.11.53.16a3.37,3.37,0,0,1-2.32,1.46,4,4,0,0,1-3.16-1.67,9.94,9.94,0,0,1-1.56-2.86c-.17-.44-.33-.89-.49-1.33-.13-.89-.28-1.77-.39-2.66a15.52,15.52,0,0,1,.7-7,11.11,11.11,0,0,1,.77-1.68,3.82,3.82,0,0,1,4.1-2.17Z"/><path class="cls-9" d="M189.9,297.16c.14,0,.28-.05.43-.06,3.94-.08,7.88-.16,11.82,0a17.43,17.43,0,0,1,4.2.72,3.41,3.41,0,0,1,1.33,3.13,6.37,6.37,0,0,0,2.16.13c.66,0,1.32,0,2,0H214c-4.91.06-9.83.11-14.74.18-3.19.05-6.38.15-9.58.22-.47,0-.95,0-1.42-.06a1.42,1.42,0,0,1,1.08-.22l4.85,0c.21,0,.42,0,.79,0-.23-.2-.32-.32-.43-.35a9.48,9.48,0,0,1-3.07-1.76A3.23,3.23,0,0,1,189.9,297.16Z"/><path class="cls-6" d="M189.34,290.27a3.54,3.54,0,0,0,1.13,3c.47.46.78,1,1.31,1.46a14.07,14.07,0,0,0,2.73,1.75,2.59,2.59,0,0,1,.37.32,3.41,3.41,0,0,1-1.16.09c-1,0-2.09,0-3.13,0a5.36,5.36,0,0,0-1,.2c-.84,0-1.69,0-2.53.12-1.86.18-3.78.12-5.5,1a9.69,9.69,0,0,1-.06-3.68,4.07,4.07,0,0,1,2.74-3.35c.7-.27,1.46-.41,2.18-.61.23-.06.44-.15.66-.23Z"/><path class="cls-6" d="M200.1,232.43c-.7-.38-1.4-.77-2.11-1.13-1.23-.63-2.47-1.22-3.69-1.85-1-.53-2-1.09-3-1.64a1.51,1.51,0,0,1-.83-1.37c0-1-.19-2.06-.3-3.1l2.86-.06a7.33,7.33,0,0,1,3.16,1.82A11.5,11.5,0,0,1,200.1,232.43Z"/><path class="cls-10" d="M181.61,298.2c1.72-.91,3.64-.85,5.5-1,.84-.08,1.69-.08,2.53-.12l.26.11a3.23,3.23,0,0,0,1.53,1.81,9.48,9.48,0,0,0,3.07,1.76c.11,0,.2.15.43.35-.37,0-.58,0-.79,0l-4.85,0a1.42,1.42,0,0,0-1.08.22l-2.05.13-3.81,0-1.83,0A3.31,3.31,0,0,1,181.61,298.2Z"/><path class="cls-11" d="M193,223.28l-2.86.06-.27-.09A3.48,3.48,0,0,1,193,223.28Z"/><path class="cls-11" d="M189.33,223.52l-.5.34Z"/><path class="cls-11" d="M189.92,223.25l-.6.27A.51.51,0,0,1,189.92,223.25Z"/><path class="cls-11" d="M188.51,224.17l-.22.25Z"/><path class="cls-11" d="M188.8,223.89l-.26.25Z"/><path class="cls-6" d="M91.59,286.58a4.12,4.12,0,0,1,.18-.53,14.83,14.83,0,0,1,5.44-5.73c.37-.22.76-.4,1.14-.59a2.88,2.88,0,0,1,2.84.12c4.24,2.27,8.52,4.46,12.78,6.68.55.28,1.12.53,1.67.8.32.2.63.42,1,.6q3.29,1.72,6.58,3.42c1.14.59,2.29,1.15,3.44,1.72q3.28,1.73,6.56,3.48c.5.26,1,.57,1.47.86-.44.35-.87.73-1.32,1.06a14.91,14.91,0,0,1-7.55,2.65,10.89,10.89,0,0,1-2.42-.07c-1.35-.19-2.69-.49-4-.72-.14,0-.32.15-.48.23-.91-.41-1.83-.79-2.71-1.24-3.68-1.89-7.35-3.81-11-5.7L92.2,287C92,286.84,91.79,286.7,91.59,286.58Z"/><path class="cls-7" d="M166.4,225.83a2.33,2.33,0,0,1,.81,1.62,6,6,0,0,1-.45,3.47q-6.27,12.51-12.48,25c-.41.81-.87,1.59-1.35,2.36a3.48,3.48,0,0,1-1.78,1.58,4.42,4.42,0,0,1-3.08-.54,3.18,3.18,0,0,1,.59-1.73q4.6-9.1,9.24-18.2c.18-.34.41-.64.59-1a5.27,5.27,0,0,0,.85-2c-.3,0-.53-.05-.76,0a20.73,20.73,0,0,1-6.32-.84c-.82-.23-1.66-.41-2.48-.62l.09-.27.13-.23a22.53,22.53,0,0,1,2.67-4.64l.25-.33.15-.22h6.87a14.88,14.88,0,0,0,3.12-.25,1.92,1.92,0,0,0,1.36-.89c.37-.61.79-1.19,1.17-1.79A1,1,0,0,1,166.4,225.83Z"/><path class="cls-6" d="M126.54,280.62c.2-.48.36-1,.6-1.45q4.67-9,9.36-18c.13-.25.31-.48.46-.72a4.43,4.43,0,0,0,4.23-.45,20.74,20.74,0,0,0,1.95-1.43c.41-.33.77-.71,1.15-1.07l2.09,1.23a8,8,0,0,1-.87,2.84c-.94,2-1.8,4.07-2.94,6-1.34,2.24-2.53,4.56-3.75,6.86-1.35,2.56-2.67,5.14-4,7.71-.33.62-.71,1.23-1.06,1.85a1.4,1.4,0,0,1-.28-.06Z"/><path class="cls-7" d="M91.59,286.58c.2.12.4.26.61.37l12.92,6.67c3.67,1.89,7.34,3.81,11,5.7.88.45,1.8.83,2.71,1.24a3.64,3.64,0,0,0,.55.42l5.82,3q6.22,3.19,12.44,6.4c.3.15.58.33.87.49a8.67,8.67,0,0,1-1.72,2.27c-.66.63-.85.65-1.64.27-.43-.2-.85-.43-1.28-.65L92,291.06c-1.56-.81-1.65-1-1.22-2.68A3.68,3.68,0,0,1,91.59,286.58Z"/><path class="cls-7" d="M133.75,284c.35-.62.73-1.23,1.06-1.85,1.34-2.57,2.66-5.15,4-7.71,1.22-2.3,2.41-4.62,3.75-6.86,1.14-1.93,2-4,2.94-6a8,8,0,0,0,.87-2.84l1.69.63a4.42,4.42,0,0,0,3.08.54,3.35,3.35,0,0,0-.17.81,8.47,8.47,0,0,1-.67,3.48c-.48,1.23-1,2.48-1.57,3.66-2.82,5.45-5.67,10.87-8.51,16.31-.5,1-1,1.94-1.51,2.91L136.91,286c-.18-.13-.35-.29-.55-.41C135.49,285,134.62,284.5,133.75,284Z"/><path class="cls-6" d="M148.07,259.35l-1.69-.63-2.09-1.22c.24-.36.47-.72.72-1.06a17.5,17.5,0,0,0,3.22-7.1,7.27,7.27,0,0,0-.15-4,2.83,2.83,0,0,0-2.27-2.11,1.09,1.09,0,0,0-.1-.25q1.62-3.33,3.25-6.65c.18-.38.42-.73.64-1.1l.19-.32h0c.82.21,1.66.39,2.48.62a20.73,20.73,0,0,0,6.32.84c.23,0,.46,0,.76,0a5.27,5.27,0,0,1-.85,2c-.18.33-.41.63-.59,1q-4.62,9.09-9.24,18.2A3.18,3.18,0,0,0,148.07,259.35Z"/><path class="cls-7" d="M138.53,310.91c-.29-.16-.57-.34-.87-.49q-6.21-3.21-12.44-6.4l-5.82-3a3.64,3.64,0,0,1-.55-.42c.16-.08.34-.25.48-.23,1.34.23,2.68.53,4,.72a10.89,10.89,0,0,0,2.42.07,14.91,14.91,0,0,0,7.55-2.65c.45-.33.88-.71,1.32-1.06l1.89.89,3,1.48c.58.32,1.15.66,1.75,1A1.16,1.16,0,0,1,142,302a16.11,16.11,0,0,1-.28,2A20.49,20.49,0,0,1,138.53,310.91Z"/><path class="cls-6" d="M133.75,284c.87.52,1.74,1,2.61,1.56.2.12.37.28.55.41-1.19,1.72-3,2.32-4.89,2.87a14.82,14.82,0,0,1-3.51.33c-.39-.17-.79-.32-1.17-.51-1.8-.86-3.59-1.74-5.4-2.58a10.71,10.71,0,0,0-3.83-1,24.67,24.67,0,0,1,1.26-2.52,4.65,4.65,0,0,1,4.95-2.29c.74.11,1.48.27,2.22.41l6.93,3.3A1.4,1.4,0,0,0,133.75,284Z"/><path class="cls-7" d="M145.71,243a1.09,1.09,0,0,1,.1.25c-.38.26-.3.66-.31,1a16.63,16.63,0,0,1-.11,2.55,20.76,20.76,0,0,1-2.7,6.53,13.32,13.32,0,0,1-2.55,2.85,6.71,6.71,0,0,1-4.6,2,5.24,5.24,0,0,1-.22-3.08A17,17,0,0,1,140.94,245,6.7,6.7,0,0,1,145.71,243Z"/><path class="cls-8" d="M135.54,258.2a6.71,6.71,0,0,0,4.6-2,13.32,13.32,0,0,0,2.55-2.85,20.76,20.76,0,0,0,2.7-6.53,16.63,16.63,0,0,0,.11-2.55c0-.37-.07-.77.31-1a2.83,2.83,0,0,1,2.27,2.11,7.27,7.27,0,0,1,.15,4,17.5,17.5,0,0,1-3.22,7.1c-.25.34-.48.7-.72,1.06s-.74.73-1.15,1.06a20.74,20.74,0,0,1-1.95,1.43,4.43,4.43,0,0,1-4.23.45A4.12,4.12,0,0,1,135.54,258.2Z"/><path class="cls-6" d="M128.51,289.15a14.82,14.82,0,0,0,3.51-.33c1.87-.55,3.7-1.15,4.89-2.87l1.81,1.11c.62.52,1.27,1,1.85,1.56a4.19,4.19,0,0,1,1.08,4.94,8.39,8.39,0,0,1-1.59,2.82,15.09,15.09,0,0,0-1.62-1.58,33.46,33.46,0,0,0-5.26-3l-1.34-.77Z"/><path class="cls-9" d="M128.51,289.15l3.33,1.84,1.34.77a6.31,6.31,0,0,1-3.77,1.08c-.67,0-1.33,0-2,0a3.21,3.21,0,0,0-.79.22c-1.15-.57-2.3-1.13-3.44-1.72q-3.3-1.69-6.58-3.42c-.33-.18-.64-.4-1-.6.07-.18.12-.35.19-.53a2.59,2.59,0,0,1,2.28-1.78,10.71,10.71,0,0,1,3.83,1c1.81.84,3.6,1.72,5.4,2.58C127.72,288.83,128.12,289,128.51,289.15Z"/><path class="cls-6" d="M166.4,225.83a1,1,0,0,0-.81.51c-.38.6-.8,1.18-1.17,1.79a1.92,1.92,0,0,1-1.36.89,14.88,14.88,0,0,1-3.12.25h-6.87a11.53,11.53,0,0,1,8.42-5.09,5.73,5.73,0,0,1,4.57,1.2A2.46,2.46,0,0,1,166.4,225.83Z"/><path class="cls-8" d="M126.62,293.07a3.21,3.21,0,0,1,.79-.22c.67,0,1.33,0,2,0a6.31,6.31,0,0,0,3.77-1.08,33.46,33.46,0,0,1,5.26,3,15.09,15.09,0,0,1,1.62,1.58,3.16,3.16,0,0,1-.52,3.4l-3-1.48-1.89-.89c-.49-.29-1-.6-1.47-.86Q129.91,294.79,126.62,293.07Z"/><path class="cls-6" d="M152.92,229.5l-.25.33Z"/><path class="cls-6" d="M150,234.47l-.13.23Z"/><path class="cls-6" d="M149.79,235l-.19.32Z"/><path class="cls-6" d="M237.16,238.08l3.53.21c-.23.51-.43,1-.71,1.53a20.75,20.75,0,0,1-4.16,5.56,6.5,6.5,0,0,1-6.48,1.48,13.51,13.51,0,0,1-5.86-3.65,2.92,2.92,0,0,1-1-1.84,8.21,8.21,0,0,1,1.22.23c1,.34,2,.75,3.08,1.08a7.53,7.53,0,0,0,7.23-1.13,8.49,8.49,0,0,0,1.8-1.79C236.26,239.18,236.72,238.64,237.16,238.08Z"/><path class="cls-6" d="M224.38,220.27l-.38.6c-.37.09-.49.41-.65.7-.37.66-.74,1.33-1.12,2l-1.62,0a12.55,12.55,0,0,0-4.63.65,4,4,0,0,0-1.95,1.38,4.54,4.54,0,0,0-.88,3.37,15.42,15.42,0,0,1,.1,1.6c-.18.14-.24.24-.32.25a6.5,6.5,0,0,1-1,.18,1,1,0,0,0-.82.5,10.93,10.93,0,0,1-.49-1.31,13.08,13.08,0,0,1,0-5.64A5,5,0,0,1,215,220.2a28.26,28.26,0,0,1,3.68-.32A22,22,0,0,1,224.38,220.27Z"/><path class="cls-6" d="M211.13,231.51a1,1,0,0,1,.82-.5,6.5,6.5,0,0,0,1-.18c.08,0,.14-.11.32-.25a15.42,15.42,0,0,0-.1-1.6,4.54,4.54,0,0,1,.88-3.37,4,4,0,0,1,1.95-1.38,12.55,12.55,0,0,1,4.63-.65l1.62,0c.38-.7.75-1.37,1.12-2,.16-.29.28-.61.65-.7-.08.16-.15.34-.25.5a13.12,13.12,0,0,0-2,5.49,2.83,2.83,0,0,1-.21.52c-.89,0-1.8-.06-2.69,0s-1.07.39-1.1,1.2c0,.42,0,.85,0,1.28a13.46,13.46,0,0,1,0,1.42,2.6,2.6,0,0,1-2,2.34,3.63,3.63,0,0,1-4.46-1.78l-.16-.35Z"/><path class="cls-6" d="M237.16,238.08c-.44.56-.9,1.1-1.32,1.68a8.49,8.49,0,0,1-1.8,1.79,7.53,7.53,0,0,1-7.23,1.13c-1-.33-2.05-.74-3.08-1.08a8.21,8.21,0,0,0-1.22-.23,2.58,2.58,0,0,1,.32-2.29,3.84,3.84,0,0,1,1.79-1.77,2.82,2.82,0,0,1,2.71.27,16.1,16.1,0,0,1,1.71,1.27c1.35,1.13,1.73,1,2.91-.34a18.42,18.42,0,0,0,1.35-2l.87.27A9.07,9.07,0,0,0,237.16,238.08Z"/><path class="cls-10" d="M227.51,237.89a15.52,15.52,0,0,1-6.47-6.22c-.17-.29-.32-.58-.48-.87a2.54,2.54,0,0,0-.1-.55,13.35,13.35,0,0,1-1.11-5.75,5.46,5.46,0,0,0,0-.56c0-.23,0-.47,0-.7.15-.54.29-1.09.46-1.63a9.09,9.09,0,0,1,2.4-4.1,2.06,2.06,0,0,0,.66.19c1.47,0,2.93-.08,4.41,0a17.94,17.94,0,0,1,5.08,1.26,6.94,6.94,0,0,1,1.86,1,14.16,14.16,0,0,1,4.5,5.27,13.07,13.07,0,0,1,.95,3.26,7.92,7.92,0,0,1-.73,4.31,5.83,5.83,0,0,1-3,3.31c-.26.11-.48.31-.75.4a13.09,13.09,0,0,1-2.16.66c-.66.1-1.31.28-1.95.36a11.69,11.69,0,0,1-2.12-.11,3.3,3.3,0,0,0-1,.09C227.79,237.6,227.65,237.78,227.51,237.89Zm-5.13-11.1a7.93,7.93,0,0,0,1.56,4.62c.87,1.16,2.11,1.19,3.38,1,1-.18,1.11-1.1,1.41-1.83a2.33,2.33,0,0,0,0-1.54,16.3,16.3,0,0,1-1-4.14,3.54,3.54,0,0,0-.47-1.33c-.76-1.55-2.14-1.75-3.35-.53A5.44,5.44,0,0,0,222.38,226.79Z"/><path class="cls-6" d="M242.82,208a3.41,3.41,0,0,1-2.64.05,14.47,14.47,0,0,1-2.39-.94,76.13,76.13,0,0,1-7.83-4.4,16.9,16.9,0,0,1-2.86-2.34,7.78,7.78,0,0,1-2.18-4.25,6.58,6.58,0,0,1,.91-4.78l2,.61,2.17.65a24.53,24.53,0,0,1,3.5,1.1c2.66,1.24,5.46,2.2,7.9,3.92a18.39,18.39,0,0,1,2.58,2c.63.64,1.21,1.33,1.82,2l-1,1.38A6.91,6.91,0,0,0,242.82,208Z"/><path class="cls-6" d="M244.91,196.83a7,7,0,0,1,5.37-.6,2.58,2.58,0,0,0,.55,1.44,6.09,6.09,0,0,1,.77,2.29,17,17,0,0,1-.59,7.61,35.15,35.15,0,0,1-4.45,9.21,4.17,4.17,0,0,1-.65.56c-.51-.62-.93-1.19-1.42-1.7A12.39,12.39,0,0,0,239,212.4c-.72-.21-1.48-.31-2.21-.46a39.58,39.58,0,0,0,4-6.88c.51-1.17,1-2.35,1.49-3.54A15.47,15.47,0,0,1,244.91,196.83Z"/><path class="cls-7" d="M236.82,211.94c.73.15,1.49.25,2.21.46a12.39,12.39,0,0,1,5.46,3.24c.49.51.91,1.08,1.42,1.7a4.17,4.17,0,0,0,.65-.56,35.15,35.15,0,0,0,4.45-9.21,17,17,0,0,0,.59-7.61,6.09,6.09,0,0,0-.77-2.29,2.58,2.58,0,0,1-.55-1.44l1.71.27.85.41a16.1,16.1,0,0,0,0,3.8,6.26,6.26,0,0,0,.77,2.54,2.16,2.16,0,0,0,1.68,1.35c.59.38,1.13,0,1.69-.11a15.25,15.25,0,0,1-1,4,45.15,45.15,0,0,1-9.66,15.31c-.16.17-.36.31-.53.46-.11-.21-.22-.42-.32-.63a15.94,15.94,0,0,0-9.59-9c-.31-.11-.6-.27-.89-.4Z"/><path class="cls-10" d="M227.51,237.89c.14-.11.28-.29.44-.32a3.3,3.3,0,0,1,1-.09,11.69,11.69,0,0,0,2.12.11c.64-.08,1.29-.26,1.95-.36a13.09,13.09,0,0,0,2.16-.66c.27-.09.49-.29.75-.4a5.83,5.83,0,0,0,3-3.31,7.92,7.92,0,0,0,.73-4.31,13.07,13.07,0,0,0-.95-3.26,14.16,14.16,0,0,0-4.5-5.27,6.94,6.94,0,0,0-1.86-1,17.94,17.94,0,0,0-5.08-1.26c-1.48-.1-2.94-.06-4.41,0a2.06,2.06,0,0,1-.66-.19,4.47,4.47,0,0,1,1.88-1.59l5.14-.26a7.8,7.8,0,0,1,1.28,0,19.2,19.2,0,0,1,3.75.84,13.34,13.34,0,0,1,4.73,2.55,13.55,13.55,0,0,1,3.53,5,16.73,16.73,0,0,1,1.15,4.39,10.48,10.48,0,0,1-.79,5.3,9.4,9.4,0,0,1-4.07,4.81,12.59,12.59,0,0,0-1.14.82l-.83.37c-.76,0-1.52.07-2.27.07A13.47,13.47,0,0,1,227.51,237.89Z"/><path class="cls-10" d="M237.64,239.34a12.59,12.59,0,0,1,1.14-.82,9.4,9.4,0,0,0,4.07-4.81,10.48,10.48,0,0,0,.79-5.3,16.73,16.73,0,0,0-1.15-4.39,13.55,13.55,0,0,0-3.53-5,13.34,13.34,0,0,0-4.73-2.55,19.2,19.2,0,0,0-3.75-.84,7.8,7.8,0,0,0-1.28,0l-5.14.26a9.18,9.18,0,0,1,4.51-1.94,13.68,13.68,0,0,1,5.37.08c.32.06.65.1,1,.15s.58.29.89.4a15.94,15.94,0,0,1,9.59,9c.1.21.21.42.32.63.13.6.28,1.2.39,1.8a11.44,11.44,0,0,1-2.41,9.87c-.06.07-.11.16-.17.23-.92.74-1.85,1.47-2.78,2.19A9.46,9.46,0,0,1,237.64,239.34Z"/><path class="cls-7" d="M246.6,201l-.76.57c-.61-.67-1.19-1.36-1.82-2a18.39,18.39,0,0,0-2.58-2c-2.44-1.72-5.24-2.68-7.9-3.92a24.53,24.53,0,0,0-3.5-1.1l-2.17-.65-2-.61a5.75,5.75,0,0,1,5.63-3.36,7.23,7.23,0,0,1,1.95.32,46.27,46.27,0,0,1,9.59,4.28,3.54,3.54,0,0,1,.45.34,2.33,2.33,0,0,0-.79,2.84,6.12,6.12,0,0,0,1.78,3.19C245.1,199.7,245.87,200.34,246.6,201Z"/><path class="cls-12" d="M241.93,195.51a2.29,2.29,0,0,1,.78-3.23,8.88,8.88,0,0,1,6.13.79,23.28,23.28,0,0,1,8.57,6.25,7.59,7.59,0,0,1,1.77,3.49c-.12.63,0,1.38-.76,1.72-.45-.44-.91-.87-1.34-1.31-.7-.72-1.35-1.48-2.08-2.17a22,22,0,0,0-6.38-4,13.09,13.09,0,0,0-4.81-1.25A15.72,15.72,0,0,1,241.93,195.51Z"/><path class="cls-6" d="M266.16,255.53l.34-.18Z"/><path class="cls-13" d="M222.38,226.79a5.44,5.44,0,0,1,1.47-3.79c1.21-1.22,2.59-1,3.35.53a3.54,3.54,0,0,1,.47,1.33,16.3,16.3,0,0,0,1,4.14,2.33,2.33,0,0,1,0,1.54c-.3.73-.45,1.65-1.41,1.83-1.27.23-2.51.2-3.38-1A7.93,7.93,0,0,1,222.38,226.79Z"/><path class="cls-14" d="M241.93,195.51a15.72,15.72,0,0,0,1.88.32,13.09,13.09,0,0,1,4.81,1.25,22,22,0,0,1,6.38,4c.73.69,1.38,1.45,2.08,2.17.43.44.89.87,1.34,1.31a2.71,2.71,0,0,1-2.56.8,10.38,10.38,0,0,1-3.53-.86,26.83,26.83,0,0,1-4.62-2.44c-1-.87-2.13-1.7-3.08-2.63A8.61,8.61,0,0,1,241.93,195.51Z"/><path class="cls-6" d="M114.38,240l-3.54.2c.24.51.44,1,.72,1.53a20.19,20.19,0,0,0,4.16,5.56,6.46,6.46,0,0,0,6.47,1.48,13.36,13.36,0,0,0,5.86-3.65,2.93,2.93,0,0,0,1-1.84,8.34,8.34,0,0,0-1.23.23c-1,.34-2,.75-3.07,1.08a7.55,7.55,0,0,1-7.24-1.13,8.73,8.73,0,0,1-1.8-1.79C115.28,241.08,114.82,240.53,114.38,240Z"/><path class="cls-6" d="M127.16,222.17l.37.59c.38.09.5.42.66.7.36.67.73,1.33,1.11,2h1.62a12.12,12.12,0,0,1,4.63.65,3.9,3.9,0,0,1,1.95,1.37,4.5,4.5,0,0,1,.88,3.37,15.29,15.29,0,0,0-.09,1.6c.17.14.23.24.31.26a8.37,8.37,0,0,0,1,.17,1,1,0,0,1,.82.5,9.33,9.33,0,0,0,.49-1.3,13.29,13.29,0,0,0,.05-5.65,5,5,0,0,0-4.45-4.36,28.26,28.26,0,0,0-3.68-.32A21.88,21.88,0,0,0,127.16,222.17Z"/><path class="cls-6" d="M140.4,233.4a1,1,0,0,0-.82-.5,8.37,8.37,0,0,1-1-.17c-.08,0-.14-.12-.31-.26a15.29,15.29,0,0,1,.09-1.6,4.5,4.5,0,0,0-.88-3.37,3.9,3.9,0,0,0-1.95-1.37,12.12,12.12,0,0,0-4.63-.65H129.3c-.38-.7-.75-1.36-1.11-2-.16-.28-.28-.61-.66-.7a4.66,4.66,0,0,0,.25.5,13.27,13.27,0,0,1,2.05,5.49,2.07,2.07,0,0,0,.2.52c.9,0,1.8-.06,2.69,0s1.07.39,1.11,1.2c0,.42,0,.85,0,1.28a11.21,11.21,0,0,0,0,1.42,2.61,2.61,0,0,0,2,2.34,3.61,3.61,0,0,0,4.45-1.78l.17-.34Z"/><path class="cls-6" d="M114.38,240c.44.55.9,1.1,1.31,1.67a8.73,8.73,0,0,0,1.8,1.79,7.55,7.55,0,0,0,7.24,1.13c1-.33,2-.74,3.07-1.08a8.34,8.34,0,0,1,1.23-.23,2.59,2.59,0,0,0-.33-2.29,3.91,3.91,0,0,0-1.78-1.77,2.84,2.84,0,0,0-2.72.27,16.1,16.1,0,0,0-1.71,1.27c-1.35,1.13-1.73,1-2.91-.34a18.34,18.34,0,0,1-1.34-2l-.87.28A9.38,9.38,0,0,1,114.38,240Z"/><path class="cls-10" d="M123.58,239.46a4.1,4.1,0,0,0-1-.09,11.62,11.62,0,0,1-2.11.11c-.65-.08-1.29-.26-2-.36a12.91,12.91,0,0,1-2.17-.66c-.26-.09-.49-.29-.75-.4a5.83,5.83,0,0,1-3-3.31,7.82,7.82,0,0,1-.72-4.31,13.17,13.17,0,0,1,.94-3.26,14.16,14.16,0,0,1,4.5-5.27,6.91,6.91,0,0,1,1.86-1,17.94,17.94,0,0,1,5.09-1.27,43.06,43.06,0,0,1,4.4,0,2.74,2.74,0,0,0,.66-.19,8.92,8.92,0,0,1,2.4,4.09c.17.54.31,1.09.46,1.63,0,.24,0,.47,0,.7a5.54,5.54,0,0,0,0,.56,13.2,13.2,0,0,1-1.11,5.75,3.33,3.33,0,0,0-.1.55c-.16.29-.31.59-.48.87a15.49,15.49,0,0,1-6.46,6.22C123.88,239.67,123.75,239.49,123.58,239.46Zm4.11-14.57c-1.22-1.22-2.59-1-3.36.53a3.54,3.54,0,0,0-.47,1.33,16.3,16.3,0,0,1-1,4.14,2.36,2.36,0,0,0,0,1.55c.31.73.45,1.64,1.42,1.82,1.26.23,2.5.2,3.37-1a7.93,7.93,0,0,0,1.56-4.62A5.5,5.5,0,0,0,127.69,224.89Z"/><path class="cls-6" d="M108.72,209.89a3.45,3.45,0,0,0,2.64.06,15.74,15.74,0,0,0,2.38-.95,74.3,74.3,0,0,0,7.83-4.4,16.51,16.51,0,0,0,2.86-2.34,7.78,7.78,0,0,0,2.18-4.25,6.58,6.58,0,0,0-.91-4.78l-2,.61-2.17.65a24.26,24.26,0,0,0-3.51,1.1c-2.66,1.24-5.46,2.21-7.89,3.92a19.28,19.28,0,0,0-2.59,2c-.63.64-1.21,1.33-1.82,2l1,1.38A7,7,0,0,1,108.72,209.89Z"/><path class="cls-6" d="M106.62,198.72a7,7,0,0,0-5.36-.6,2.65,2.65,0,0,1-.56,1.45,5.86,5.86,0,0,0-.76,2.28,16.9,16.9,0,0,0,.58,7.61,34.87,34.87,0,0,0,4.46,9.21,3,3,0,0,0,.64.56c.52-.62.94-1.19,1.43-1.7a12.19,12.19,0,0,1,5.45-3.23c.72-.21,1.48-.31,2.22-.47a39.63,39.63,0,0,1-4-6.88c-.51-1.17-1-2.35-1.49-3.54A15.47,15.47,0,0,0,106.62,198.72Z"/><path class="cls-7" d="M114.72,213.83c-.74.16-1.5.26-2.22.47a12.19,12.19,0,0,0-5.45,3.23c-.49.51-.91,1.08-1.43,1.7a3,3,0,0,1-.64-.56,34.87,34.87,0,0,1-4.46-9.21,16.9,16.9,0,0,1-.58-7.61,5.86,5.86,0,0,1,.76-2.28,2.65,2.65,0,0,0,.56-1.45l-1.71.27-.86.41a16.1,16.1,0,0,1,0,3.8,6.26,6.26,0,0,1-.77,2.54,2.19,2.19,0,0,1-1.68,1.36c-.59.37-1.13,0-1.68-.12a14.75,14.75,0,0,0,1,4,45.2,45.2,0,0,0,9.66,15.31,6,6,0,0,0,.54.46l.31-.63a15.94,15.94,0,0,1,9.59-9c.31-.11.6-.27.9-.4Z"/><path class="cls-10" d="M124,239.78c-.15-.11-.28-.29-.45-.32a4.1,4.1,0,0,0-1-.09,11.62,11.62,0,0,1-2.11.11c-.65-.08-1.29-.26-2-.36a12.91,12.91,0,0,1-2.17-.66c-.26-.09-.49-.29-.75-.4a5.83,5.83,0,0,1-3-3.31,7.82,7.82,0,0,1-.72-4.31,13.17,13.17,0,0,1,.94-3.26,14.16,14.16,0,0,1,4.5-5.27,6.91,6.91,0,0,1,1.86-1,17.94,17.94,0,0,1,5.09-1.27,43.06,43.06,0,0,1,4.4,0,2.74,2.74,0,0,0,.66-.19,4.37,4.37,0,0,0-1.88-1.6l-5.14-.26a7.8,7.8,0,0,0-1.28,0,19.12,19.12,0,0,0-3.74.85,13.15,13.15,0,0,0-4.74,2.55,13.64,13.64,0,0,0-3.53,4.94,17.13,17.13,0,0,0-1.15,4.39,10.48,10.48,0,0,0,.8,5.3,9.34,9.34,0,0,0,4.06,4.81,12.59,12.59,0,0,1,1.14.82l.83.37c.76,0,1.52.07,2.28.07A13.49,13.49,0,0,0,124,239.78Z"/><path class="cls-10" d="M113.89,241.23a12.59,12.59,0,0,0-1.14-.82,9.34,9.34,0,0,1-4.06-4.81,10.48,10.48,0,0,1-.8-5.3,17.13,17.13,0,0,1,1.15-4.39,13.64,13.64,0,0,1,3.53-4.94,13.15,13.15,0,0,1,4.74-2.55,19.12,19.12,0,0,1,3.74-.85,7.8,7.8,0,0,1,1.28,0l5.14.26a9,9,0,0,0-4.5-1.93,13.54,13.54,0,0,0-5.38.07c-.32.06-.65.1-1,.15s-.59.29-.9.4a15.94,15.94,0,0,0-9.59,9l-.31.63c-.14.6-.29,1.2-.4,1.81a11.43,11.43,0,0,0,2.42,9.86c.06.08.11.16.16.24l2.78,2.19A9.29,9.29,0,0,0,113.89,241.23Z"/><path class="cls-7" d="M104.93,202.92l.76.57c.61-.67,1.19-1.36,1.82-2a19.28,19.28,0,0,1,2.59-2c2.43-1.71,5.23-2.68,7.89-3.92a24.26,24.26,0,0,1,3.51-1.1l2.17-.65,2-.61a5.74,5.74,0,0,0-5.62-3.36,7.24,7.24,0,0,0-2,.32,46.81,46.81,0,0,0-9.59,4.28,4.83,4.83,0,0,0-.45.34,2.36,2.36,0,0,1,.8,2.85,6.14,6.14,0,0,1-1.79,3.18A28.32,28.32,0,0,1,104.93,202.92Z"/><path class="cls-12" d="M109.6,197.4a2.29,2.29,0,0,0-.77-3.23,9,9,0,0,0-6.14.79,23.35,23.35,0,0,0-8.56,6.25,7.52,7.52,0,0,0-1.78,3.49c.12.64,0,1.39.76,1.72.45-.43.91-.87,1.35-1.31.7-.72,1.35-1.47,2.08-2.17a22.33,22.33,0,0,1,6.37-4,13.28,13.28,0,0,1,4.81-1.25A15.72,15.72,0,0,0,109.6,197.4Z"/><path class="cls-6" d="M85.37,257.42l-.34-.18Z"/><path class="cls-13" d="M129.15,228.68a5.5,5.5,0,0,0-1.46-3.79c-1.22-1.22-2.59-1-3.36.53a3.54,3.54,0,0,0-.47,1.33,16.3,16.3,0,0,1-1,4.14,2.36,2.36,0,0,0,0,1.55c.31.73.45,1.64,1.42,1.82,1.26.23,2.5.2,3.37-1A7.93,7.93,0,0,0,129.15,228.68Z"/><path class="cls-14" d="M109.6,197.4a15.72,15.72,0,0,1-1.88.32,13.28,13.28,0,0,0-4.81,1.25,22.33,22.33,0,0,0-6.37,4c-.73.7-1.38,1.45-2.08,2.17-.44.44-.9.88-1.35,1.31a2.71,2.71,0,0,0,2.56.8,10.32,10.32,0,0,0,3.53-.86,26.46,26.46,0,0,0,4.62-2.44c1-.87,2.14-1.7,3.09-2.63A8.66,8.66,0,0,0,109.6,197.4Z"/><path class="cls-6" d="M148.48,198l-.85-1.7a17.64,17.64,0,0,0-3.41-4.38,1.56,1.56,0,0,0-1.19-1,5.1,5.1,0,0,0-.67-.72,8.79,8.79,0,0,0-5.38-2l.19-.72h5.47a1,1,0,0,1,.42.06,4.72,4.72,0,0,0,2,.21h26.31c.62,0,1.24.05,1.85.07l-1.27.48a7.89,7.89,0,0,0-1,.18A17.33,17.33,0,0,0,159.15,208a16.64,16.64,0,0,0,11.46,13.5c6.44,2.23,12.32.88,17.48-3.55a8.42,8.42,0,0,0,.8-1h0l.31-.31,0,0,.42-.37c.26-.28.53-.55.76-.85a16.65,16.65,0,0,0,3.28-12.8c-1.09-7-5.06-11.76-11.76-14.17-.76-.27-1.55-.46-2.32-.69.57,0,1.14-.09,1.71-.09h10a4.17,4.17,0,0,0,1.28-.07,7.55,7.55,0,0,1,2.41-.21h26.43a5.22,5.22,0,0,0,1.43,0,9.91,9.91,0,0,1,3-.22c1.91,0,3.81,0,5.72,0a15.85,15.85,0,0,1,.19,4.56,37.83,37.83,0,0,1-3.49,12.89A58.25,58.25,0,0,1,216,222.24c-1.29,1.27-2.72,2.39-4.08,3.58a16.15,16.15,0,0,1-1.69.18c-6.28,0-12.56-.09-18.85-.12l-13.14,0c-.38,0-.76,0-1.14,0a2.46,2.46,0,0,0-.62-.28c-1.2-.25-2.42-.44-3.61-.72a70.5,70.5,0,0,1-8.18-2.44,39.56,39.56,0,0,1-6.17-2.93,52.29,52.29,0,0,1-5-3.46,5.19,5.19,0,0,1-1.64-1.75l.06-1.6a1.82,1.82,0,0,0,.15-1.51,17.6,17.6,0,0,0-.32-4,5.4,5.4,0,0,0-.63-2.32c-.07-.36.06-.79-.31-1.07"/><path class="cls-6" d="M173.19,187.79c-.61,0-1.23-.07-1.85-.07H145a4.72,4.72,0,0,1-2-.21,1,1,0,0,0-.42-.06h-5.47c-.08.28-.13.5-.19.72a4.63,4.63,0,0,0-3.21,1.75,4.75,4.75,0,0,0-1.33,2.11,9.2,9.2,0,0,0-.67,3.7,2.26,2.26,0,0,0-.07,1.75c0,.47.07.94.1,1.41a20.13,20.13,0,0,0,.95,4.85c.15.4.12.87.5,1.17a3.83,3.83,0,0,0,.08.69,24.16,24.16,0,0,0,2.5,5.32,2.39,2.39,0,0,0,.82,1.16,1.69,1.69,0,0,0,.12.4,18.76,18.76,0,0,0,3.92,4.46l1.46,1.11a7.09,7.09,0,0,0,3.09,1.35,4.52,4.52,0,0,0,3.65-.66,5.47,5.47,0,0,0,2.49-3.78l.44-.73a5.19,5.19,0,0,0,1.64,1.75,52.29,52.29,0,0,0,5,3.46,39.56,39.56,0,0,0,6.17,2.93,70.5,70.5,0,0,0,8.18,2.44c1.19.28,2.41.47,3.61.72a2.46,2.46,0,0,1,.62.28c-.52,0-1,0-1.57,0h-9.29l-4,0c-.29,0-.57-.06-.85-.06h-11.3l-11,0A53.49,53.49,0,0,1,126.2,211a51.57,51.57,0,0,1-5.65-12.61,32.19,32.19,0,0,1-1.27-8.45,26.1,26.1,0,0,1,.85-6.21,3.2,3.2,0,0,1,1.81-.24h36.84c.57,0,1.14,0,1.71-.07s.95,0,1.43,0l67.17.05c.38,0,.77,0,1.15,0a3.62,3.62,0,0,1,.67.2c.15.74.31,1.47.44,2.2.07.42.08.84.12,1.25-1.91,0-3.81,0-5.72,0a9.91,9.91,0,0,0-3,.22,5.22,5.22,0,0,1-1.43,0H194.92a7.55,7.55,0,0,0-2.41.21,4.17,4.17,0,0,1-1.28.07h-10c-.57,0-1.14.05-1.71.09A30.44,30.44,0,0,0,173.19,187.79Z"/><path class="cls-7" d="M230.91,183.68a3.62,3.62,0,0,0-.67-.2c-.38,0-.77,0-1.15,0l-67.17-.05c-.48,0-1,0-1.43,0-.06-.25-.17-.46-.44-.5s-.48,0-.71,0c-2.28-.09-4.57.21-6.83-.28a2.06,2.06,0,0,0-.43,0,28.11,28.11,0,0,1-5.93-.56,21,21,0,0,1-7.23-2.5,8.71,8.71,0,0,1-3.14-2.41c.52,0,1.05-.09,1.57-.09,3.29,0,6.58.05,9.87.06H163l46.52-.05H231.1a1.36,1.36,0,0,1,1.16.9,5.69,5.69,0,0,1-.16,4.9A1.51,1.51,0,0,1,230.91,183.68Z"/><path class="cls-15" d="M231.1,177H209.49l-46.52.05H147.22c-3.29,0-6.58-.05-9.87-.06-.52,0-1,.06-1.57.09s-.94-.08-1.42-.08h-14.3c.48,0,1,0,1.42,0h22.29c.56,0,1.12-.11,1.69-.16h4.27l11.27,0c4.71.17,13.79.1,15.13-.17-.7-.06-1.18,0-1.63-.13a27.93,27.93,0,0,1-4.93-1.37,14.55,14.55,0,0,1-5.33-3.23,6.73,6.73,0,0,1-2-5.4c.05-.57.18-1.12.28-1.68.55-.08,1.09-.19,1.64-.24.79-.06,1.58-.08,2.37-.12.38,0,.75.07,1.13.07l16.78,0c.43,0,.85,0,1.28-.06.71,0,1.43.06,2.14.07a62.83,62.83,0,0,1,8.12.58,16.8,16.8,0,0,1,7.91,3.07,10.81,10.81,0,0,1,4.15,6.47c.15.69.27,1.39.42,2.19a9.82,9.82,0,0,0,1.09.12c2.52,0,5.05,0,7.58,0Z"/><path class="cls-7" d="M162.22,225.88l4,0h9.29c.53,0,1.05,0,1.57,0s.76,0,1.14,0l13.14,0c6.29,0,12.57.09,18.85.12a16.15,16.15,0,0,0,1.69-.18,5.25,5.25,0,0,1,.79,2.42,6.13,6.13,0,0,1-.07,1.42c-.21,1.2-.59,1.48-1.84,1.48l-27.2,0L142.65,231c-.52,0-1-.07-1.56-.1H176l.86,0a.28.28,0,0,0,.13,0s0-.05.06-.08c-.74-.14-1.48-.28-2.22-.4a49.26,49.26,0,0,1-8.79-2.32c-1.12-.41-2.19-.94-3.27-1.42A.79.79,0,0,1,162.22,225.88Z"/><path class="cls-6" d="M162.85,148.17c1-.25,1.92-.54,2.89-.73a69.54,69.54,0,0,1,16.79-1.18,31.45,31.45,0,0,1,8.94,1.76c.44.16.88.3,1.43.48a4.58,4.58,0,0,0,.18-.88c0-1.24-.06-2.48-.07-3.72a4.84,4.84,0,0,1,.09-1.26.69.69,0,0,1,.54-.36.81.81,0,0,1,.53.38,1,1,0,0,1,.12.54,27.24,27.24,0,0,1,0,5.85,8.42,8.42,0,0,1-1.25,3.61,5.48,5.48,0,0,1-3.07,2.42,9.58,9.58,0,0,0-1.42.06,22.15,22.15,0,0,1-5.07.51c-1.1,0-2.19,0-3.29,0a27.61,27.61,0,0,1-6.21-.55,18.29,18.29,0,0,1-6.37-2.31A13.5,13.5,0,0,1,162.85,148.17Z"/><path class="cls-7" d="M120.06,177h14.3c.48,0,.95.05,1.42.08a8.71,8.71,0,0,0,3.14,2.41,21,21,0,0,0,7.23,2.5,28.11,28.11,0,0,0,5.93.56,2.06,2.06,0,0,1,.43,0c2.26.49,4.55.19,6.83.28.23,0,.47,0,.71,0s.38.25.44.5c-.57,0-1.14.07-1.71.07H121.94a3.2,3.2,0,0,0-1.81.24,3,3,0,0,1-1.56-2.39,5.75,5.75,0,0,1,.37-3.33A1.43,1.43,0,0,1,120.06,177Z"/><path class="cls-7" d="M162.22,225.88a.79.79,0,0,0,.54.77c1.08.48,2.15,1,3.27,1.42a49.26,49.26,0,0,0,8.79,2.32c.74.12,1.48.26,2.22.4,0,0,0,.07-.06.08a.28.28,0,0,1-.13,0l-.86,0H139.42a3.64,3.64,0,0,1-.87-3.23c.12-.65.34-1.28.51-1.92l11,0h11.3C161.65,225.82,161.93,225.86,162.22,225.88Z"/><path class="cls-7" d="M162.85,148.17a13.5,13.5,0,0,0,4.73,4.62A18.29,18.29,0,0,0,174,155.1a27.61,27.61,0,0,0,6.21.55c1.1,0,2.19,0,3.29,0a22.15,22.15,0,0,0,5.07-.51,9.58,9.58,0,0,1,1.42-.06,9,9,0,0,1-2.88,1.07c-.45.13-.91.24-1.36.36-.72,0-1.43,0-2.14.09-1.46.14-2.92.34-4.38.46-1.85.15-3.7.26-5.55.38-2.23,0-4.47,0-6.71,0a2.28,2.28,0,0,0-.67.22c-.51-.09-1-.21-1.53-.26a16.84,16.84,0,0,1-4-.92,7.67,7.67,0,0,1-3.94-3.36,12.63,12.63,0,0,1-1.46-4.56c-.1-.57.06-.83.42-.93s.69.1.86.71.29,1.19.46,1.88l1.1-.5A15.08,15.08,0,0,1,162.85,148.17Z"/><path class="cls-16" d="M161,176.79l-11.27,0h-4.27c.12-4.07,1.78-7.24,5.41-9.24a18.38,18.38,0,0,1,7.3-2.24,3.76,3.76,0,0,1-.17.68,9.26,9.26,0,0,0-.68,4.29,1.31,1.31,0,0,1,0,.28,4.08,4.08,0,0,0,.38,2.07,6.73,6.73,0,0,0,1.83,2.81C160,175.89,160.51,176.35,161,176.79Z"/><path class="cls-6" d="M173.63,157.44c1.85-.12,3.7-.23,5.55-.38,1.46-.12,2.92-.32,4.38-.46.71-.07,1.42-.06,2.14-.09q0,4,0,8c-.43,0-.85.06-1.28.06l-16.78,0c-.38,0-.75,0-1.13-.07l.06-.5a4.28,4.28,0,0,0,1.08.27c1.71,0,3.42,0,5.13,0a3.31,3.31,0,0,0,.77-.17,2.36,2.36,0,0,0,.1-.49C173.64,161.52,173.63,159.48,173.63,157.44Z"/><path class="cls-17" d="M161,176.79c-.49-.44-1-.9-1.47-1.32a6.73,6.73,0,0,1-1.83-2.81,4.08,4.08,0,0,1-.38-2.07,1.31,1.31,0,0,0,0-.28A9.26,9.26,0,0,1,158,166a3.76,3.76,0,0,0,.17-.68,14.24,14.24,0,0,1,4.31-.53c-.1.56-.23,1.11-.28,1.68a6.73,6.73,0,0,0,2,5.4,14.55,14.55,0,0,0,5.33,3.23,27.93,27.93,0,0,0,4.93,1.37c.45.09.93.07,1.63.13C174.79,176.89,165.71,177,161,176.79Z"/><path class="cls-6" d="M173.63,157.44c0,2,0,4.08,0,6.12a2.36,2.36,0,0,1-.1.49,3.31,3.31,0,0,1-.77.17c-1.71,0-3.42,0-5.13,0a4.28,4.28,0,0,1-1.08-.27l-.3-6.32a2.28,2.28,0,0,1,.67-.22C169.16,157.41,171.4,157.43,173.63,157.44Z"/><path class="cls-18" d="M173.19,187.79a30.44,30.44,0,0,1,6.33,0c.77.23,1.56.42,2.32.69,6.7,2.41,10.67,7.18,11.76,14.17a16.65,16.65,0,0,1-3.28,12.8c-.23.3-.5.57-.76.85l-.42.37,0,0-.31.31h0a1.51,1.51,0,0,0-1.07.31,19.65,19.65,0,0,1-4.89,1.94,14.68,14.68,0,0,1-3.35.57,4.12,4.12,0,0,0-1,.11,5.4,5.4,0,0,1-2.68,0,2.15,2.15,0,0,0-.55-.11,10.27,10.27,0,0,1-3.35-.59,12.61,12.61,0,0,1-3.51-1.53,14.22,14.22,0,0,1-4.1-3.89,14.43,14.43,0,0,1-2.79-8.38,20.32,20.32,0,0,1,.28-3.39,15.13,15.13,0,0,1,2-5.47,24.7,24.7,0,0,1,6.48-6.92c.56-.4,1.26-.69,1.6-1.36Zm1.06,3.29a10.87,10.87,0,0,0-1.41.19,14.21,14.21,0,1,0,8.73,27,12.56,12.56,0,0,0,6.36-5.07,6.66,6.66,0,0,0,.53-.66,14.09,14.09,0,0,0,1.7-11A14.22,14.22,0,0,0,178.34,191,9.12,9.12,0,0,0,174.25,191.08Z"/><path class="cls-19" d="M171.92,188.27c-.34.67-1,1-1.6,1.36a24.7,24.7,0,0,0-6.48,6.92,15.13,15.13,0,0,0-2,5.47,20.32,20.32,0,0,0-.28,3.39,14.43,14.43,0,0,0,2.79,8.38,14.22,14.22,0,0,0,4.1,3.89,12.61,12.61,0,0,0,3.51,1.53,10.27,10.27,0,0,0,3.35.59,2.15,2.15,0,0,1,.55.11,5.4,5.4,0,0,0,2.68,0,4.12,4.12,0,0,1,1-.11,14.68,14.68,0,0,0,3.35-.57,19.65,19.65,0,0,0,4.89-1.94,1.51,1.51,0,0,1,1.07-.31,8.42,8.42,0,0,1-.8,1c-5.16,4.43-11,5.78-17.48,3.55A16.64,16.64,0,0,1,159.15,208,17.33,17.33,0,0,1,171,188.45,7.89,7.89,0,0,1,171.92,188.27Z"/><path class="cls-13" d="M174.25,191.08a9.12,9.12,0,0,1,4.09-.12,14.22,14.22,0,0,1,11.82,10.59,14.09,14.09,0,0,1-1.7,11,6.66,6.66,0,0,1-.53.66,11.41,11.41,0,0,0-1.27.61,12,12,0,0,1-5.31,1.95,12.21,12.21,0,0,1-8.15-2,11.47,11.47,0,0,1-3.1-3.11,10.84,10.84,0,0,1-2.19-6.22c0-.76,0-1.53,0-2.29a11.52,11.52,0,0,1,1.7-5.67,14.55,14.55,0,0,1,2.49-3.1C172.86,192.65,173.54,191.85,174.25,191.08Zm12.28,11.48.08,0c-.13-.74-.21-1.5-.41-2.22a8.75,8.75,0,0,0-3.57-5,4.71,4.71,0,0,0-2.68-.77,2.91,2.91,0,0,0-2.61,2.55,6.46,6.46,0,0,0,.92,3.53,23.74,23.74,0,0,0,1.82,2.71,7.39,7.39,0,0,0,2.89,2.48,2.06,2.06,0,0,0,1.24.16,3,3,0,0,0,2.31-2.58A8,8,0,0,0,186.53,202.56Zm-3.15,7.1a2.14,2.14,0,0,0,2.06,2.07,2.22,2.22,0,0,0,2-2.23,1.89,1.89,0,0,0-2-2A1.91,1.91,0,0,0,183.38,209.66Z"/><path class="cls-13" d="M174.25,191.08c-.71.77-1.39,1.57-2.14,2.29a14.55,14.55,0,0,0-2.49,3.1,11.52,11.52,0,0,0-1.7,5.67c0,.76,0,1.53,0,2.29a10.84,10.84,0,0,0,2.19,6.22,11.47,11.47,0,0,0,3.1,3.11,12.21,12.21,0,0,0,8.15,2,12,12,0,0,0,5.31-1.95,11.41,11.41,0,0,1,1.27-.61,12.56,12.56,0,0,1-6.36,5.07,14.21,14.21,0,1,1-8.73-27A10.87,10.87,0,0,1,174.25,191.08Z"/><path class="cls-15" d="M186.53,202.56a8,8,0,0,1,0,.85,3,3,0,0,1-2.31,2.58,2.06,2.06,0,0,1-1.24-.16,7.39,7.39,0,0,1-2.89-2.48,23.74,23.74,0,0,1-1.82-2.71,6.46,6.46,0,0,1-.92-3.53,2.91,2.91,0,0,1,2.61-2.55,4.71,4.71,0,0,1,2.68.77,8.75,8.75,0,0,1,3.57,5c.2.72.28,1.48.41,2.22Z"/><path class="cls-15" d="M183.38,209.66a1.91,1.91,0,0,1,2-2.2,1.89,1.89,0,0,1,2,2,2.22,2.22,0,0,1-2,2.23A2.14,2.14,0,0,1,183.38,209.66Z"/><path class="cls-15" d="M248.5,98.55c-.13-1.23-.36-2.45-.37-3.68,0-3.62,0-7.25,0-10.88a6.86,6.86,0,0,1,.18-1,1.31,1.31,0,0,0,1.51,1.17,26,26,0,0,0,3.42-.09,26.3,26.3,0,0,1,3.54-.23,6.14,6.14,0,0,0,1.14-.05c1.82-.4,3.68-.21,5.52-.46,1.68-.22,3.4-.11,5.11-.27,2.26-.22,4.55,0,6.82-.3a24.85,24.85,0,0,1,3,0,8.59,8.59,0,0,1-.24,2.67,34.65,34.65,0,0,1-2.23,7.17c-.42,1-.81,2-1.22,3a16,16,0,0,1-4.15.86c-1,.16-2,.23-2.95.35-1.22.16-2.43.38-3.65.49-1.65.15-3.3.22-5,.33a1.46,1.46,0,0,0-.42,0,12.7,12.7,0,0,1-3.25.25,4.76,4.76,0,0,0-1,0,13.08,13.08,0,0,1-3.53.24A7.37,7.37,0,0,0,248.5,98.55Z"/><path class="cls-15" d="M274.59,71c.34.39.7.75,1,1.16a28.24,28.24,0,0,1,2.76,4.4c.15.29.23.61.35.91l-.06,3-5.29,0a4.78,4.78,0,0,0-1.14,0,12,12,0,0,1-3,.21,25.68,25.68,0,0,0-3.29.09,25.49,25.49,0,0,1-3.26.21,7.43,7.43,0,0,0-1.57.06,17,17,0,0,1-3.41.24,6.69,6.69,0,0,0-1,0c-2.06.39-4.17.22-6.24.48a4.14,4.14,0,0,0-2.14.66c.11-1.56.14-3.13.34-4.67.3-2.26.71-4.5,1.08-6.74a9.5,9.5,0,0,1,.28-.95l6.85-.34a1.35,1.35,0,0,0,.28,0,6.69,6.69,0,0,1,2.27-.2h4.15a8.27,8.27,0,0,1,1,.05c1.32.15,2.63.39,4,.48a45.2,45.2,0,0,1,4.64.72C273.65,70.9,274.12,70.94,274.59,71Z"/><path class="cls-17" d="M281.75,97.05c-.08.65-.12,1.31-.25,2a31.51,31.51,0,0,1-3.12,8.78,3.45,3.45,0,0,1-.33.45,2.54,2.54,0,0,0-1.34.41c-.47.23-.93.49-1.41.68a60.26,60.26,0,0,1-8,2.56,28,28,0,0,1-7.57,1c-1.71-.07-3.42,0-5.13,0a8.16,8.16,0,0,1-2.69-.23,3.86,3.86,0,0,0-1.13,0c-.07-.29-.15-.59-.22-.88a30.39,30.39,0,0,0,5.5-1.32c.54-.2,1.08-.36,1.62-.54a26.39,26.39,0,0,0,6.24-3.06c1.19-.78,2.31-1.66,3.44-2.52a27.1,27.1,0,0,0,4.45-4.57,4.26,4.26,0,0,0,.5-1.15,12.5,12.5,0,0,0,2.36-.3c1.47-.3,2.95-.55,4.42-.8C280,97.29,280.87,97.18,281.75,97.05Z"/><path class="cls-15" d="M272.33,98.54a4.26,4.26,0,0,1-.5,1.15,27.1,27.1,0,0,1-4.45,4.57c-1.13.86-2.25,1.74-3.44,2.52a26.39,26.39,0,0,1-6.24,3.06c-.54.18-1.08.34-1.62.54a30.39,30.39,0,0,1-5.5,1.32,26.57,26.57,0,0,1-.69-2.58c-.45-2.61-.83-5.22-1.23-7.83a3.63,3.63,0,0,1,0-.57,6.25,6.25,0,0,0,1.56,0,13.14,13.14,0,0,1,2.41-.2l6.41-.32.43,0c.66-.08,1.31-.16,2-.22.33,0,.67,0,1-.05,1.46-.16,2.92-.38,4.38-.51A46.16,46.16,0,0,0,272.33,98.54Z"/><path class="cls-17" d="M275.82,111.69c-.15.24-.27.5-.44.72a26,26,0,0,1-17.7,10,24.49,24.49,0,0,1-8.23-.53,4,4,0,0,1-.95-.33,1.06,1.06,0,0,1-.6-1.18,1.11,1.11,0,0,1,1.11-.92,5.6,5.6,0,0,1,1,.13c.7.13,1.4.29,2.11.39a8.06,8.06,0,0,0,1.1,0c.11-.58-.23-1-.4-1.39a16.68,16.68,0,0,1-1.27-3.48l2.71,0a3.66,3.66,0,0,1,1,.08,4.75,4.75,0,0,0,1.83.19,23.3,23.3,0,0,0,4.41-.23c.91-.19,1.88-.14,2.82-.29a47.68,47.68,0,0,0,6.92-1.63C272.77,112.76,274.29,112.21,275.82,111.69Z"/><path class="cls-15" d="M250.6,67.86a16.17,16.17,0,0,1,1.57-4.7,2.93,2.93,0,0,0,.42-.9c.1-1.41,1.35-1.57,2.24-2.09a.89.89,0,0,1,1,.31A1.72,1.72,0,0,0,257,61a24.42,24.42,0,0,1,6.33,1.6,6.76,6.76,0,0,0,.68.17c.27.45.75.51,1.19.64a28.61,28.61,0,0,1,6,4,7.63,7.63,0,0,1,.66.73c-.85-.1-1.69-.17-2.53-.3a40.56,40.56,0,0,0-6.51-.54c-1.9,0-3.8,0-5.71,0a10.88,10.88,0,0,0-1.13.07l-2,.2c-.47,0-1,0-1.42.07C251.91,67.69,251.26,67.78,250.6,67.86Z"/><path class="cls-16" d="M272.33,98.54a46.16,46.16,0,0,1-5.48.83c-1.46.13-2.92.35-4.38.51-.33,0-.67,0-1,.05-.66.06-1.31.14-2,.22l-.43,0-6.41.32a13.14,13.14,0,0,0-2.41.2,6.25,6.25,0,0,1-1.56,0c-.06-.72-.13-1.44-.19-2.17a7.37,7.37,0,0,1,2.24-.33,13.08,13.08,0,0,0,3.53-.24,4.76,4.76,0,0,1,1,0,12.7,12.7,0,0,0,3.25-.25,1.46,1.46,0,0,1,.42,0c1.66-.11,3.31-.18,5-.33,1.22-.11,2.43-.33,3.65-.49,1-.12,2-.19,2.95-.35a16,16,0,0,0,4.15-.86,12,12,0,0,0,1.7-.06c1.43-.27,2.85-.63,4.28-.92a13.33,13.33,0,0,1,1.4-.16,6.89,6.89,0,0,1-.28,2.55c-.88.13-1.76.24-2.64.39-1.47.25-2.95.5-4.42.8A12.5,12.5,0,0,1,272.33,98.54Z"/><path class="cls-16" d="M248.33,82.51a4.14,4.14,0,0,1,2.14-.66c2.07-.26,4.18-.09,6.24-.48a6.69,6.69,0,0,1,1,0,17,17,0,0,0,3.41-.24,7.43,7.43,0,0,1,1.57-.06,25.49,25.49,0,0,0,3.26-.21,25.68,25.68,0,0,1,3.29-.09,12,12,0,0,0,3-.21,4.78,4.78,0,0,1,1.14,0l5.29,0,1.37,0c.23.75.47,1.5.71,2.26l-2.39,0a24.85,24.85,0,0,0-3,0c-2.27.28-4.56.08-6.82.3-1.71.16-3.43,0-5.11.27-1.84.25-3.7.06-5.52.46a6.14,6.14,0,0,1-1.14.05,26.3,26.3,0,0,0-3.54.23,26,26,0,0,1-3.42.09A1.31,1.31,0,0,1,248.29,83C248.3,82.85,248.32,82.68,248.33,82.51Z"/><path class="cls-20" d="M262.65,42.06c.8-2.68,4.39-5.13,8.07-4.43a4.53,4.53,0,0,1,2.24.83c.21.78.41,1.56.64,2.33a5.1,5.1,0,0,1-1.84,5.3A5,5,0,0,1,268,47.21a2.06,2.06,0,0,0-.43,0,2.52,2.52,0,0,1-1.91-.78,8.27,8.27,0,0,1-2.53-3.73C263.09,42.46,262.83,42.27,262.65,42.06Zm2.83-.08a1.76,1.76,0,0,0,.4,1.46,1.94,1.94,0,0,0,2.48.3,5.07,5.07,0,0,0,1.25-1.15,1.9,1.9,0,0,0,.24-2.14,1.74,1.74,0,0,0-1.86-1A2.6,2.6,0,0,0,265.48,42Z"/><path class="cls-16" d="M275.82,111.69c-1.53.52-3.05,1.07-4.59,1.56a47.68,47.68,0,0,1-6.92,1.63c-.94.15-1.91.1-2.82.29a23.3,23.3,0,0,1-4.41.23,4.75,4.75,0,0,1-1.83-.19,3.66,3.66,0,0,0-1-.08l-2.71,0c-.25-.84-.49-1.68-.74-2.52a3.86,3.86,0,0,1,1.13,0,8.16,8.16,0,0,0,2.69.23c1.71,0,3.42,0,5.13,0a28,28,0,0,0,7.57-1,60.26,60.26,0,0,0,8-2.56c.48-.19.94-.45,1.41-.68a2.54,2.54,0,0,1,1.34-.41A12.09,12.09,0,0,1,275.82,111.69Z"/><path class="cls-17" d="M278.34,82.78l2.39,0a12.86,12.86,0,0,1,.91,3.56A27.92,27.92,0,0,1,282,94.5a13.33,13.33,0,0,0-1.4.16c-1.43.29-2.85.65-4.28.92a12,12,0,0,1-1.7.06c.41-1,.8-2,1.22-3a34.65,34.65,0,0,0,2.23-7.17A8.59,8.59,0,0,0,278.34,82.78Z"/><path class="cls-21" d="M262.65,42.06c.18.21.44.4.52.64a8.27,8.27,0,0,0,2.53,3.73,2.52,2.52,0,0,0,1.91.78,2.06,2.06,0,0,1,.43,0,5,5,0,0,0,3.72-1.12,5.1,5.1,0,0,0,1.84-5.3c-.23-.77-.43-1.55-.64-2.33a5.92,5.92,0,0,1,3.13,3.28,9.77,9.77,0,0,1-.59,3.93,6,6,0,0,1-2.83,3.62,10,10,0,0,1-3.09,1,5.18,5.18,0,0,1-1.57,0c-.56-.09-1.09-.32-1.65-.44a3.49,3.49,0,0,1-2.15-1.55,10.4,10.4,0,0,1-1.51-2.58,5.25,5.25,0,0,0-.65-1.08A4.15,4.15,0,0,1,262.65,42.06Z"/><path class="cls-16" d="M250.6,67.86c.66-.08,1.31-.17,2-.23.47,0,1,0,1.42-.07l2-.2a10.88,10.88,0,0,1,1.13-.07c1.91,0,3.81,0,5.71,0a40.56,40.56,0,0,1,6.51.54c.84.13,1.68.2,2.53.3A11.76,11.76,0,0,1,274.59,71c-.47,0-.94-.09-1.41-.17a45.2,45.2,0,0,0-4.64-.72c-1.33-.09-2.64-.33-4-.48a8.27,8.27,0,0,0-1-.05h-4.15a6.69,6.69,0,0,0-2.27.2,1.35,1.35,0,0,1-.28,0l-6.85.34A5.86,5.86,0,0,1,250.6,67.86Z"/><path class="cls-22" d="M262.05,44.63a5.25,5.25,0,0,1,.65,1.08,10.4,10.4,0,0,0,1.51,2.58,3.49,3.49,0,0,0,2.15,1.55c.56.12,1.09.35,1.65.44a5.18,5.18,0,0,0,1.57,0,10,10,0,0,0,3.09-1,6,6,0,0,0,2.83-3.62,9.77,9.77,0,0,0,.59-3.93,6.29,6.29,0,0,1,.73,4.77,7.5,7.5,0,0,1-7.11,6.06c-.43,0-.85,0-1.28,0l-1.28-.28c-.39-.18-.78-.34-1.15-.55A7.43,7.43,0,0,1,262,45.18,2.65,2.65,0,0,1,262.05,44.63Z"/><path class="cls-23" d="M267.15,52.28l1.28.28c-.16.7-.26,1.41-.48,2.08a1.87,1.87,0,0,1-2.42,1.41c-.59-.11-1.18-.27-1.92-.44.1.32.1.52.21.62a13.27,13.27,0,0,0,1.49,1.32,2.25,2.25,0,0,1,.89,2.86c-.34,1-.66,2-1,3-.44-.13-.92-.19-1.19-.64a16.36,16.36,0,0,0,1-3.62c-.35-.3-.72-.59-1.06-.92-.68-.66-1.37-1.32-2-2a2.48,2.48,0,0,1-.52-1,.91.91,0,0,1,.86-1.2,5.17,5.17,0,0,1,1.41.15c.51.1,1,.3,1.5.42a8.37,8.37,0,0,0,1.12.15C267,54,266.83,53.06,267.15,52.28Z"/><path class="cls-17" d="M280,80.47l-1.37,0,.06-3A8.71,8.71,0,0,1,280,80.47Z"/><path class="cls-24" d="M265.48,42A2.6,2.6,0,0,1,268,39.45a1.74,1.74,0,0,1,1.86,1,1.9,1.9,0,0,1-.24,2.14,5.07,5.07,0,0,1-1.25,1.15,1.94,1.94,0,0,1-2.48-.3A1.76,1.76,0,0,1,265.48,42Z"/><path class="cls-15" d="M93.92,95.07c.14.5.3,1,.4,1.5A88,88,0,0,1,96,109.4c0,.29,0,.57,0,.85-.91,0-1.82,0-2.72.06-2.07.25-4.16.4-6.24.57-1.61.14-3.22.23-4.84.27a2.36,2.36,0,0,0-.28,0c-.71.07-1.42.19-2.13.2q-3.15,0-6.3,0c-1.28,0-2.57,0-3.86-.06a2.38,2.38,0,0,0-.77-1.63,29.52,29.52,0,0,1-3.2-5.69,18.06,18.06,0,0,1-1.54-4.71,8.6,8.6,0,0,1,2.61-.53c1.07-.15,2.17-.19,3.24-.34A43.34,43.34,0,0,1,75,97.91a5.48,5.48,0,0,0,.57,0c1.46-.17,2.91-.36,4.37-.49s3.21-.22,4.82-.33l.14,0c2.07-.27,4.14-.46,6.22-.54a13.32,13.32,0,0,0,1.68-.24A1.28,1.28,0,0,0,93.92,95.07Z"/><path class="cls-15" d="M90.24,82.45a6,6,0,0,1,.43.88,95.38,95.38,0,0,1,3.17,10.88,2.69,2.69,0,0,1,0,.57A2.23,2.23,0,0,0,91.46,94c-.52.07-1,.19-1.55.23-1.7.12-3.41.22-5.12.33l-.28,0c-1.61.17-3.21.35-4.81.5s-2.94.22-4.41.33c-.14,0-.28.06-.42.07l-3.81.47-4,.49-3.54.38a6,6,0,0,1-.26-1.23,3.89,3.89,0,0,0-.36-1.51,1.93,1.93,0,0,1,0-.42,24.65,24.65,0,0,1,3.17-6.87,5.26,5.26,0,0,0,1-.13c1.4-.44,2.79-.94,4.19-1.37a48.13,48.13,0,0,1,5.8-1.43c1.4-.23,2.8-.43,4.21-.61,1.64-.22,3.3-.34,5-.47A22.82,22.82,0,0,0,90.24,82.45Z"/><path class="cls-17" d="M68.44,124.56c-.72-1-1.49-2-2.16-3a29.48,29.48,0,0,1-3-6.32c-.18-.49-.27-1-.4-1.51,2,0,4.09-.25,6.11.23a2.79,2.79,0,0,0,.71,0h2.71a16,16,0,0,0,2.75,2.65,28.55,28.55,0,0,0,4.62,3,30,30,0,0,0,7.28,2.79,26.37,26.37,0,0,0,7.7,1c.38,0,.76,0,1.14,0,0,.39-.06.78-.08,1.17a2.18,2.18,0,0,0-.57,0q-3,.75-6.12,1.24a22.28,22.28,0,0,1-4.08.47c-1.61,0-3.23,0-4.85,0-1.27-.05-2.54-.2-3.81-.35-.75-.08-1.5-.22-2.24-.36a34.94,34.94,0,0,1-4.81-1.22A.75.75,0,0,0,68.44,124.56Z"/><path class="cls-15" d="M95.91,123.45c-.38,0-.76,0-1.14,0a26.37,26.37,0,0,1-7.7-1,30,30,0,0,1-7.28-2.79,28.55,28.55,0,0,1-4.62-3A16,16,0,0,1,72.42,114c.86,0,1.72,0,2.57,0,.43,0,.86,0,1.28-.06.62,0,1.23-.15,1.84-.17,1.28,0,2.57,0,3.85,0a3.67,3.67,0,0,0,1,0,9.89,9.89,0,0,1,2.54-.22c.43,0,.86,0,1.29,0,1.55-.16,3.1-.36,4.65-.51s3.12-.26,4.68-.38c0,.52.11,1,.11,1.56,0,2.48,0,5-.07,7.45A16.32,16.32,0,0,1,95.91,123.45Z"/><path class="cls-17" d="M95.41,127.14a14.5,14.5,0,0,1-.71,3.63l-.29,1.16c.39.36.73.17,1,.08.91-.28,1.81-.61,2.7-.94a1.32,1.32,0,0,1,1.1,0,1.09,1.09,0,0,1,.22,1.88,5.41,5.41,0,0,1-1.28.62,24.58,24.58,0,0,1-16.28.5,26.79,26.79,0,0,1-10.19-5.91,7.65,7.65,0,0,1-.65-.74l2,.3c1.41.2,2.82.42,4.22.66,1.6.27,3.21.16,4.81.44a7.89,7.89,0,0,0,3.12-.17c1.1-.24,2.26,0,3.39-.32,1.66-.4,3.37-.58,5-1A10.33,10.33,0,0,1,95.41,127.14Z"/><path class="cls-15" d="M68.39,83.59c.31-.41.6-.86.94-1.24A31.23,31.23,0,0,1,74.2,78a1.9,1.9,0,0,0,1.11-.81,7.38,7.38,0,0,0,.91-.4,24.69,24.69,0,0,1,5.48-2.31,2.36,2.36,0,0,0,1.43-.84,1,1,0,0,1,1.29-.27,8.1,8.1,0,0,0,.92.38,1.47,1.47,0,0,1,1.09,1,8.62,8.62,0,0,0,.64,1.09c.7,1.24,1.39,2.48,2.06,3.73a2.43,2.43,0,0,1,.16.67c-.84.08-1.68.21-2.53.22a64.22,64.22,0,0,0-6.63.57,53,53,0,0,0-6.26,1.14C72,82.59,70.22,83.1,68.39,83.59Z"/><path class="cls-16" d="M96.12,112.47c-1.56.12-3.12.23-4.68.38s-3.1.35-4.65.51c-.43,0-.86,0-1.29,0a9.89,9.89,0,0,0-2.54.22,3.67,3.67,0,0,1-1,0c-1.28,0-2.57,0-3.85,0-.61,0-1.22.12-1.84.17-.42,0-.85.06-1.28.06-.85,0-1.71,0-2.57,0H69.71a2.79,2.79,0,0,1-.71,0c-2-.48-4.07-.19-6.11-.23a7.59,7.59,0,0,1-.69-2.61,23.17,23.17,0,0,1,3.12.26c1.42.09,2.86,0,4.29,0s2.58.06,3.86.06q3.15,0,6.3,0c.71,0,1.42-.13,2.13-.2a2.36,2.36,0,0,1,.28,0c1.62,0,3.23-.13,4.84-.27,2.08-.17,4.17-.32,6.24-.57.9-.11,1.81,0,2.72-.06A4.77,4.77,0,0,1,96.12,112.47Z"/><path class="cls-16" d="M63.56,96.8l3.54-.38,4-.49,3.81-.47c.14,0,.28-.06.42-.07,1.47-.11,2.94-.2,4.41-.33s3.2-.33,4.81-.5l.28,0c1.71-.11,3.42-.21,5.12-.33.52,0,1-.16,1.55-.23a2.23,2.23,0,0,1,2.42.81l0,.29a1.28,1.28,0,0,1-1.09,1.17,13.32,13.32,0,0,1-1.68.24c-2.08.08-4.15.27-6.22.54l-.14,0c-1.61.11-3.22.19-4.82.33s-2.91.32-4.37.49a5.48,5.48,0,0,1-.57,0,43.34,43.34,0,0,0-5.08.55c-1.07.15-2.17.19-3.24.34a8.6,8.6,0,0,0-2.61.53l-2.34,0a6.06,6.06,0,0,1,.39-2.27C62.63,97,63.16,97.24,63.56,96.8Z"/><path class="cls-20" d="M62.67,54.64a6.53,6.53,0,0,1,5-1.66,6.89,6.89,0,0,1,5.87,3.43c-.07.17-.15.34-.21.51a27.17,27.17,0,0,1-1,2.95,5.37,5.37,0,0,1-2.4,2.38,4.62,4.62,0,0,1-4.13-.08c-2.25-1-3.93-3.93-3-6.23a3.91,3.91,0,0,0,.22-1C62.91,54.87,62.75,54.75,62.67,54.64Zm5.38,0a2.62,2.62,0,0,0-.57,0,1.57,1.57,0,0,0-1.28,1.2,2.37,2.37,0,0,0,1.4,2.93,6.77,6.77,0,0,0,1.07.37,2.06,2.06,0,0,0,2.3-2.1c-.1-.87-.79-1.37-1.35-2A1.74,1.74,0,0,0,68.05,54.68Z"/><path class="cls-16" d="M95.41,127.14a10.33,10.33,0,0,0-1.83.25c-1.66.37-3.37.55-5,1-1.13.28-2.29.08-3.39.32a7.89,7.89,0,0,1-3.12.17c-1.6-.28-3.21-.17-4.81-.44-1.4-.24-2.81-.46-4.22-.66l-2-.3a11.7,11.7,0,0,1-2.61-2.87.75.75,0,0,1,.91-.2,34.94,34.94,0,0,0,4.81,1.22c.74.14,1.49.28,2.24.36,1.27.15,2.54.3,3.81.35,1.62.06,3.24,0,4.85,0a22.28,22.28,0,0,0,4.08-.47q3.09-.5,6.12-1.24a2.18,2.18,0,0,1,.57,0A8.7,8.7,0,0,1,95.41,127.14Z"/><path class="cls-17" d="M61.76,99.35l2.34,0A18.06,18.06,0,0,0,65.64,104a29.52,29.52,0,0,0,3.2,5.69,2.38,2.38,0,0,1,.77,1.63c-1.43,0-2.87.1-4.29,0a23.17,23.17,0,0,0-3.12-.26c-.18-.88-.41-1.76-.54-2.65a33,33,0,0,1,0-8.71A1.47,1.47,0,0,1,61.76,99.35Z"/><path class="cls-16" d="M68.39,83.59c1.83-.49,3.65-1,5.48-1.46A53,53,0,0,1,80.13,81a64.22,64.22,0,0,1,6.63-.57c.85,0,1.69-.14,2.53-.22a5.42,5.42,0,0,1,.95,2.25,22.82,22.82,0,0,1-4,.31c-1.65.13-3.31.25-5,.47-1.41.18-2.81.38-4.21.61a48.13,48.13,0,0,0-5.8,1.43c-1.4.43-2.79.93-4.19,1.37a5.26,5.26,0,0,1-1,.13A11.59,11.59,0,0,1,68.39,83.59Z"/><path class="cls-21" d="M62.67,54.64c.08.11.24.23.23.33a3.91,3.91,0,0,1-.22,1c-.89,2.3.79,5.26,3,6.23a4.62,4.62,0,0,0,4.13.08,5.37,5.37,0,0,0,2.4-2.38,27.17,27.17,0,0,0,1-2.95c.06-.17.14-.34.21-.51a5.18,5.18,0,0,1,1.13,2.84c-.14.1-.4.19-.41.32a11.41,11.41,0,0,1-1.3,3.29,4.58,4.58,0,0,1-3,2.41,10.16,10.16,0,0,1-3.8.24,4.89,4.89,0,0,1-2.72-1.14,7.59,7.59,0,0,1-2.63-3.79,10,10,0,0,1-.4-2.65A5,5,0,0,1,62.67,54.64Z"/><path class="cls-25" d="M60.38,57.93a10,10,0,0,0,.4,2.65,7.59,7.59,0,0,0,2.63,3.79,4.89,4.89,0,0,0,2.72,1.14,10.16,10.16,0,0,0,3.8-.24,4.58,4.58,0,0,0,3-2.41,11.41,11.41,0,0,0,1.3-3.29c0-.13.27-.22.41-.32a7.19,7.19,0,0,1-2.91,7.27c-.33.27-.7.5-1,.74a2,2,0,0,0-1.25.53L68,68a7.52,7.52,0,0,1-8.15-8.73A2,2,0,0,1,60.38,57.93Z"/><path class="cls-6" d="M69.44,67.79a2,2,0,0,1,1.25-.53,7.45,7.45,0,0,0,1.06,2.28,5.13,5.13,0,0,0,.89-.2c.58-.21,1.13-.5,1.71-.72a6,6,0,0,1,1.22-.4,1,1,0,0,1,1.18,1.21,2.9,2.9,0,0,1-.42,1c-.54.78-1.13,1.53-1.71,2.28-.26.33-.56.64-.86,1a18.42,18.42,0,0,0,1.55,3.4A1.9,1.9,0,0,1,74.2,78L72.73,75a2.14,2.14,0,0,1,.45-2.73A15.35,15.35,0,0,0,74.3,71c.15-.19.22-.42.07-.57s-.42-.11-.59-.05a9.68,9.68,0,0,0-1.06.41,1.81,1.81,0,0,1-2.49-1C69.92,69.14,69.7,68.45,69.44,67.79Z"/><path class="cls-17" d="M63.56,96.8c-.4.44-.93.2-1.41.28a7.36,7.36,0,0,1,.79-3,3.89,3.89,0,0,1,.36,1.51A6,6,0,0,0,63.56,96.8Z"/><path class="cls-24" d="M68.05,54.68a1.74,1.74,0,0,1,1.57.44c.56.59,1.25,1.09,1.35,2a2.06,2.06,0,0,1-2.3,2.1,6.77,6.77,0,0,1-1.07-.37,2.37,2.37,0,0,1-1.4-2.93,1.57,1.57,0,0,1,1.28-1.2A2.62,2.62,0,0,1,68.05,54.68Z"/><path class="cls-6" d="M152.92,28.05c2-.19,4.08-.43,6.12-.56,4.62-.31,9.24-.6,13.86-.83q11.31-.59,22.61-.41c4.44.06,8.88.14,13.31.38a130.54,130.54,0,0,1,21.83,2.8,47.41,47.41,0,0,1,8.68,2.85A25,25,0,0,1,252,44.43a45.1,45.1,0,0,1,3.49,10.27,110,110,0,0,1,2.07,13.87,233,233,0,0,1,1,25.89c-.06,4.1-.21,8.21-.49,12.3a99.86,99.86,0,0,1-2.81,18.52,46.91,46.91,0,0,1-2.64,7.55,25.61,25.61,0,0,1-12.43,12.74,38,38,0,0,1-9.21,3.06c-1.16.24-2.34.39-3.51.58a1.07,1.07,0,0,0-.93-.27H223a2.37,2.37,0,0,0-.85.07,5.33,5.33,0,0,1-2,.2H204.73c-.52,0-1,.05-1.56.1s-1,.15-1.55.17a43.19,43.19,0,0,0-5.56.25c-1.34.24-2.73.1-4.11.29-1.54.21-3.12,0-4.69.3a20.66,20.66,0,0,1-3.15,0,3.25,3.25,0,0,0-1.13.07,6.92,6.92,0,0,1-2.12.21c-2.19.1-4.39-.24-6.56.27a3.35,3.35,0,0,1-.71,0H149a4.12,4.12,0,0,1-1.27-.09,6,6,0,0,0-1.84-.19,9.59,9.59,0,0,1-2.28-.07c-1.31-.35-2.68,0-3.95-.5a39.56,39.56,0,0,1-5.07-.68,45.77,45.77,0,0,1-4.86-1,49.94,49.94,0,0,1-10-3.44c-.87-.39-1.66-.93-2.5-1.37a28.07,28.07,0,0,1-5.86-4.28,30,30,0,0,1-3.18-3.47,36.89,36.89,0,0,1-3.68-5.77,47.83,47.83,0,0,1-2.41-5.49c-.71-1.92-1.29-3.88-1.89-5.84-.84-2.77-1.35-5.63-1.93-8.46-.37-1.81-.64-3.64-.9-5.47-.16-1.18-.21-2.36-.31-3.55a1.47,1.47,0,0,0,0-.42,7.84,7.84,0,0,1-.24-2.55c-.07-.85-.26-1.69-.26-2.54,0-4.06,0-8.12,0-12.18a3.51,3.51,0,0,1,.08-1.13,5.75,5.75,0,0,0,.2-1.84,6.12,6.12,0,0,1,0-.86c.16-1.07.43-2.14.5-3.22a35.14,35.14,0,0,1,1-5.6,52.58,52.58,0,0,1,2.4-7.91,49.43,49.43,0,0,1,4.87-9.35,52.66,52.66,0,0,1,5.31-6.33,16.44,16.44,0,0,1,1.73-1.48c.87-.74,1.7-1.53,2.6-2.23a71.27,71.27,0,0,1,9.82-6.07c.75-.4,1.58-.66,2.35-1a64.72,64.72,0,0,1,7.9-3.27c2.7-.94,5.42-1.82,8.18-2.53,3-.77,5.95-1.64,9-2.11C152.79,28.51,152.87,28.29,152.92,28.05Zm-4,114.79c.62,0,1.24,0,1.86,0,1.14,0,2.28-.13,3.43-.18,2.9-.12,5.81-.23,8.72-.37,1.76-.08,3.52-.17,5.29-.3,3.23-.23,6.46-.52,9.7-.72q7.79-.47,15.57-.84c4.53-.22,9.06-.42,13.56-.92,2.32-.25,4.64-.59,6.93-1a12.94,12.94,0,0,0,3.7-1.05,1.2,1.2,0,0,0,.28,0,19.12,19.12,0,0,0,12.13-11.15,42.77,42.77,0,0,0,2.46-8.8,100.78,100.78,0,0,0,1.44-15.8,180.32,180.32,0,0,0-.48-18.74A95.86,95.86,0,0,0,232,71.59a33.64,33.64,0,0,0-2.76-8.4,18,18,0,0,0-9.38-8.82,39.27,39.27,0,0,0-7.8-2.31,101.51,101.51,0,0,0-13.91-1.64c-5.76-.31-11.53-.41-17.31-.27-.42,0-.84.09-1.27.13a2.61,2.61,0,0,0-.55-.08q-1.86.06-3.72.15c-2.91.12-5.81.22-8.72.4-3.33.21-6.65.48-10,.78a23.79,23.79,0,0,0-4.52.57c-.53,0-1.06,0-1.57,0-3.46.43-6.91.86-10.36,1.34a100.37,100.37,0,0,0-13.84,2.9,38.27,38.27,0,0,0-8.74,3.52,17.64,17.64,0,0,0-7.92,9.1,30.52,30.52,0,0,0-1.11,3.39,48.16,48.16,0,0,0-1.34,10.49,123.34,123.34,0,0,0,.3,13.73c.27,4.29.71,8.56,1.28,12.82a103.36,103.36,0,0,0,2.67,13.75,41.13,41.13,0,0,0,3.69,9.44,19.5,19.5,0,0,0,3.86,4.94,20,20,0,0,0,8.54,4.47,36.16,36.16,0,0,0,6.64,1A111.24,111.24,0,0,0,148.89,142.84Zm99.7-85.34a11.83,11.83,0,0,0-.92-4.73A15.32,15.32,0,0,0,246,49.6a36.67,36.67,0,0,0-3-4,38.59,38.59,0,0,0-6.31-5.8,32.66,32.66,0,0,0-7.27-3.91,32.9,32.9,0,0,0-8-1.54,3.7,3.7,0,0,0-1,.1,7.91,7.91,0,0,1-.85.13,10.63,10.63,0,0,0-4.5,1.23,5.57,5.57,0,0,0-1.86,1.54,3.55,3.55,0,0,0-.14,4.49,3.31,3.31,0,0,0,.9.89c.89.45,1.76,1,2.67,1.35,1.49.64,3,1.17,4.51,1.8a29.41,29.41,0,0,1,6.16,3.87,15.2,15.2,0,0,1,2.86,2.57c1.46,1.88,2.93,3.76,4.34,5.67a29.27,29.27,0,0,0,3.56,3.9,8,8,0,0,0,2.68,1.63,5.54,5.54,0,0,0,3.34.31,4.87,4.87,0,0,0,3.15-2A7.13,7.13,0,0,0,248.59,57.5Zm-1.21,20.1a3,3,0,0,0,2.88-1.23,1.89,1.89,0,0,1,.2-.2,4.35,4.35,0,0,0,1.21-3.93,5.09,5.09,0,0,0-2.16-3.57,4.56,4.56,0,0,0-4.46-.5c-1.78.69-2.67,3.27-2.45,4.61a7,7,0,0,0,1.07,2.91A3.89,3.89,0,0,0,247.38,77.6Z"/><path class="cls-7" d="M152.92,28.05c0,.24-.13.46-.42.5-3.05.47-6,1.34-9,2.11-2.76.71-5.48,1.59-8.18,2.53a64.72,64.72,0,0,0-7.9,3.27c-.77.39-1.6.65-2.35,1a71.27,71.27,0,0,0-9.82,6.07c-.9.7-1.73,1.49-2.6,2.23a16.44,16.44,0,0,0-1.73,1.48,52.66,52.66,0,0,0-5.31,6.33A49.43,49.43,0,0,0,100.74,63a52.58,52.58,0,0,0-2.4,7.91,35.14,35.14,0,0,0-1,5.6c-.07,1.08-.34,2.15-.5,3.22a6.12,6.12,0,0,0,0,.86,5.75,5.75,0,0,1-.2,1.84,3.51,3.51,0,0,0-.08,1.13c0,4.06,0,8.12,0,12.18,0,.85.19,1.69.26,2.54A7.84,7.84,0,0,0,97,100.8a1.47,1.47,0,0,1,0,.42c.1,1.19.15,2.37.31,3.55.26,1.83.53,3.66.9,5.47.58,2.83,1.09,5.69,1.93,8.46.6,2,1.18,3.92,1.89,5.84a47.83,47.83,0,0,0,2.41,5.49,36.89,36.89,0,0,0,3.68,5.77,30,30,0,0,0,3.18,3.47,28.07,28.07,0,0,0,5.86,4.28c.84.44,1.63,1,2.5,1.37a49.94,49.94,0,0,0,10,3.44,45.77,45.77,0,0,0,4.86,1,39.56,39.56,0,0,0,5.07.68c1.27.47,2.64.15,3.95.5a9.59,9.59,0,0,0,2.28.07,6,6,0,0,1,1.84.19,4.12,4.12,0,0,0,1.27.09h24.63a3.35,3.35,0,0,0,.71,0c2.17-.51,4.37-.17,6.56-.27a6.92,6.92,0,0,0,2.12-.21,3.25,3.25,0,0,1,1.13-.07,20.66,20.66,0,0,0,3.15,0c1.57-.27,3.15-.09,4.69-.3,1.38-.19,2.77,0,4.11-.29a43.19,43.19,0,0,1,5.56-.25c.52,0,1-.12,1.55-.17s1-.1,1.56-.1H220.2a5.33,5.33,0,0,0,2-.2A2.37,2.37,0,0,1,223,149h3.43a1.07,1.07,0,0,1,.93.27c-1,.17-2.06.41-3.1.52-3.47.34-6.93.67-10.41.92-4.19.31-8.38.53-12.57.77s-8.1.45-12.15.66c-4.34.22-8.68.41-13,.78-3.52.3-7,.48-10.57.68q-6.87.39-13.73.73-4.86.22-9.72.4l-11,.42a102.4,102.4,0,0,1-14.44-.47,34.94,34.94,0,0,1-10.61-2.77,25.23,25.23,0,0,1-11.49-10,46.38,46.38,0,0,1-4.37-9.46A103.5,103.5,0,0,1,86.5,118c-1-5.06-1.68-10.17-2.24-15.29-.58-5.36-1-10.74-1.29-16.13-.24-5-.31-9.93-.17-14.89a68.54,68.54,0,0,1,1.67-14.05A35.17,35.17,0,0,1,86.73,51a24.39,24.39,0,0,1,9.08-10.44,43.68,43.68,0,0,1,9.69-4.54,115.16,115.16,0,0,1,14.39-3.73c5.28-1.07,10.61-1.84,16-2.51,2.94-.37,5.88-.64,8.82-1,2.09-.23,4.17-.48,6.26-.69C151.59,28.09,152.26,28.08,152.92,28.05Z"/><path class="cls-13" d="M179.56,50.28c.43,0,.85-.12,1.27-.13,5.78-.14,11.55,0,17.31.27a101.51,101.51,0,0,1,13.91,1.64,39.27,39.27,0,0,1,7.8,2.31,18,18,0,0,1,9.38,8.82,33.64,33.64,0,0,1,2.76,8.4,95.86,95.86,0,0,1,1.49,11.34,180.32,180.32,0,0,1,.48,18.74,100.78,100.78,0,0,1-1.44,15.8,42.77,42.77,0,0,1-2.46,8.8,19.12,19.12,0,0,1-12.13,11.15,1.2,1.2,0,0,1-.28,0,2.45,2.45,0,0,0-2.06-.17,8.77,8.77,0,0,1-1.83.2,3.28,3.28,0,0,0-1,.07,5.75,5.75,0,0,1-2,.22,2.38,2.38,0,0,0-.85.06,6.46,6.46,0,0,1-2.27.22,3.25,3.25,0,0,0-1,0,11.53,11.53,0,0,1-3.26.25,2.91,2.91,0,0,0-1,.08,5.57,5.57,0,0,1-2,.2h-3.3a11,11,0,0,0-1.13.09,13.63,13.63,0,0,1-1.55.18h-14a3.25,3.25,0,0,1-1,0,10.27,10.27,0,0,0-3.12-.25,3.67,3.67,0,0,1-1-.05,7.49,7.49,0,0,0-2.4-.24,2.38,2.38,0,0,1-.85-.06,5,5,0,0,0-1.83-.22,7.89,7.89,0,0,1-.85-.09c-1.17-.16-2.34-.33-3.52-.48-1-.14-2.07-.24-3.1-.4-.84-.12-1.67-.32-2.51-.45-1.4-.23-2.83-.34-4.21-.65-3.19-.72-6.41-1.26-9.56-2.18a43.51,43.51,0,0,1-8.14-3,20.1,20.1,0,0,1-7.11-6,27,27,0,0,1-3.45-6.39,43.93,43.93,0,0,1-3-13.87,1.46,1.46,0,0,0-.06-.56,4.92,4.92,0,0,1-.22-2V98.65a3.28,3.28,0,0,1,.07-1,7.57,7.57,0,0,0,.22-2.12c.09-1.23.18-2.46.36-3.68.21-1.4.47-2.8.8-4.18A56.29,56.29,0,0,1,127.55,82a32.82,32.82,0,0,1,3.29-7,23.28,23.28,0,0,1,2.67-3.69,42.39,42.39,0,0,1,5.9-5.38,53.42,53.42,0,0,1,5.88-3.78c2.36-1.24,4.78-2.36,7.2-3.48a80.32,80.32,0,0,1,8-3.13c3.37-1.14,6.77-2.22,10.23-3.1,2.8-.72,5.6-1.43,8.46-1.9C179.3,50.6,179.43,50.4,179.56,50.28Zm45.82,20.65a7.62,7.62,0,0,0-.58-3.15,17,17,0,0,0-3.43-5.21A21.87,21.87,0,0,0,213.69,57a10,10,0,0,0-6.21-.92A6.39,6.39,0,0,0,205,57.19a2.34,2.34,0,0,0-.77,1.16,2.87,2.87,0,0,0,1.47,3.52,7.36,7.36,0,0,0,.89.44c.67.26,1.35.48,2,.75a8.12,8.12,0,0,1,2.84,1.87,29.6,29.6,0,0,1,3,3.77c.77,1.15,1.5,2.32,2.31,3.44a7.25,7.25,0,0,0,4,3,3.59,3.59,0,0,0,4.21-2.1A4.42,4.42,0,0,0,225.38,70.93Zm-3.72,8.41A2.87,2.87,0,0,0,222.74,82a3.83,3.83,0,0,0,2.31,1,2.34,2.34,0,0,0,2.32-1.13,3.09,3.09,0,0,0-.35-3.94,3.49,3.49,0,0,0-3.47-1.17.87.87,0,0,0-.4.14C222.37,77.57,221.41,78.16,221.66,79.34Z"/><path class="cls-13" d="M179.56,50.28c-.13.12-.26.32-.41.34-2.86.47-5.66,1.18-8.46,1.9-3.46.88-6.86,2-10.23,3.1a80.32,80.32,0,0,0-8,3.13c-2.42,1.12-4.84,2.24-7.2,3.48A53.42,53.42,0,0,0,139.41,66a42.39,42.39,0,0,0-5.9,5.38,23.28,23.28,0,0,0-2.67,3.69,32.82,32.82,0,0,0-3.29,7A56.29,56.29,0,0,0,126,87.67c-.33,1.38-.59,2.78-.8,4.18-.18,1.22-.27,2.45-.36,3.68a7.57,7.57,0,0,1-.22,2.12,3.28,3.28,0,0,0-.07,1v3.29a4.92,4.92,0,0,0,.22,2,1.46,1.46,0,0,1,.06.56,43.93,43.93,0,0,0,3,13.87,27,27,0,0,0,3.45,6.39,20.1,20.1,0,0,0,7.11,6,43.51,43.51,0,0,0,8.14,3c3.15.92,6.37,1.46,9.56,2.18,1.38.31,2.81.42,4.21.65.84.13,1.67.33,2.51.45,1,.16,2.07.26,3.1.4,1.18.15,2.35.32,3.52.48a7.89,7.89,0,0,0,.85.09,5,5,0,0,1,1.83.22,2.38,2.38,0,0,0,.85.06,7.49,7.49,0,0,1,2.4.24,3.67,3.67,0,0,0,1,.05,10.27,10.27,0,0,1,3.12.25,3.25,3.25,0,0,0,1,0h14a13.63,13.63,0,0,0,1.55-.18,11,11,0,0,1,1.13-.09h3.3a5.57,5.57,0,0,0,2-.2,2.91,2.91,0,0,1,1-.08,11.53,11.53,0,0,0,3.26-.25,3.25,3.25,0,0,1,1,0,6.46,6.46,0,0,0,2.27-.22,2.38,2.38,0,0,1,.85-.06,5.75,5.75,0,0,0,2-.22,3.28,3.28,0,0,1,1-.07,8.77,8.77,0,0,0,1.83-.2,2.45,2.45,0,0,1,2.06.17,12.94,12.94,0,0,1-3.7,1.05c-2.29.4-4.61.74-6.93,1-4.5.5-9,.7-13.56.92q-7.78.38-15.57.84c-3.24.2-6.47.49-9.7.72-1.77.13-3.53.22-5.29.3-2.91.14-5.82.25-8.72.37-1.15.05-2.29.13-3.43.18-.62,0-1.24,0-1.86,0a5.64,5.64,0,0,0-.81-.2c-1.08-.13-2.17-.18-3.24-.37-1.63-.31-3.26-.65-4.86-1.08a35.74,35.74,0,0,1-10.06-3.9,21.56,21.56,0,0,1-4.72-3.66c-1-1.08-1.83-2.29-2.71-3.47a20.94,20.94,0,0,1-2.16-4,46,46,0,0,1-2.63-7.38,64.06,64.06,0,0,1-1.81-8.33,30.62,30.62,0,0,1-.49-3.8,6,6,0,0,0-.1-.85c-.06-.52-.13-1-.18-1.55a4.9,4.9,0,0,0,0-.86,17.09,17.09,0,0,1-.27-4.4,4.92,4.92,0,0,0-.06-1.28,7.56,7.56,0,0,1-.22-2.41c0-1.72,0-3.43,0-5.15a3,3,0,0,1,0-1,9.92,9.92,0,0,0,.23-3c0-.48,0-1,.06-1.43.15-1.13.35-2.24.51-3.37.13-.89.17-1.8.36-2.67a35.15,35.15,0,0,1,2-6.83,21.56,21.56,0,0,1,2.5-4.47c1-1.27,2.15-2.3,3.21-3.45a15.33,15.33,0,0,1,2.64-2.17,41.94,41.94,0,0,1,8.42-4.47,72.1,72.1,0,0,1,8.08-2.8c2.61-.71,5.22-1.41,7.88-1.9a2.92,2.92,0,0,0,1.6-.51,23.79,23.79,0,0,1,4.52-.57c3.33-.3,6.65-.57,10-.78,2.91-.18,5.81-.28,8.72-.4q1.86-.09,3.72-.15A2.61,2.61,0,0,1,179.56,50.28Z"/><path class="cls-13" d="M152.07,52.1a2.92,2.92,0,0,1-1.6.51c-2.66.49-5.27,1.19-7.88,1.9a72.1,72.1,0,0,0-8.08,2.8,41.94,41.94,0,0,0-8.42,4.47A15.33,15.33,0,0,0,123.45,64c-1.06,1.15-2.25,2.18-3.21,3.45a21.56,21.56,0,0,0-2.5,4.47,35.15,35.15,0,0,0-2,6.83c-.19.87-.23,1.78-.36,2.67-.16,1.13-.36,2.24-.51,3.37-.06.47,0,1-.06,1.43a9.92,9.92,0,0,1-.23,3,3,3,0,0,0,0,1c0,1.72,0,3.43,0,5.15a7.56,7.56,0,0,0,.22,2.41,4.92,4.92,0,0,1,.06,1.28,17.09,17.09,0,0,0,.27,4.4,4.9,4.9,0,0,1,0,.86c0,.52.12,1,.18,1.55a6,6,0,0,1,.1.85,30.62,30.62,0,0,0,.49,3.8,64.06,64.06,0,0,0,1.81,8.33,46,46,0,0,0,2.63,7.38,20.94,20.94,0,0,0,2.16,4c.88,1.18,1.73,2.39,2.71,3.47a21.56,21.56,0,0,0,4.72,3.66,35.74,35.74,0,0,0,10.06,3.9c1.6.43,3.23.77,4.86,1.08,1.07.19,2.16.24,3.24.37a5.64,5.64,0,0,1,.81.2,111.24,111.24,0,0,1-14.72.16,36.16,36.16,0,0,1-6.64-1,20,20,0,0,1-8.54-4.47,19.5,19.5,0,0,1-3.86-4.94,41.13,41.13,0,0,1-3.69-9.44,103.36,103.36,0,0,1-2.67-13.75c-.57-4.26-1-8.53-1.28-12.82a123.34,123.34,0,0,1-.3-13.73,48.16,48.16,0,0,1,1.34-10.49A30.52,30.52,0,0,1,109.64,69a17.64,17.64,0,0,1,7.92-9.1,38.27,38.27,0,0,1,8.74-3.52,100.37,100.37,0,0,1,13.84-2.9c3.45-.48,6.9-.91,10.36-1.34C151,52.09,151.54,52.11,152.07,52.1Z"/><path class="cls-6" d="M248.59,57.5a7.13,7.13,0,0,1-1.22,4.32,4.87,4.87,0,0,1-3.15,2,5.54,5.54,0,0,1-3.34-.31,8,8,0,0,1-2.68-1.63,29.27,29.27,0,0,1-3.56-3.9c-1.41-1.91-2.88-3.79-4.34-5.67a15.2,15.2,0,0,0-2.86-2.57,29.41,29.41,0,0,0-6.16-3.87c-1.49-.63-3-1.16-4.51-1.8-.91-.39-1.78-.9-2.67-1.35a3.31,3.31,0,0,1-.9-.89,3.55,3.55,0,0,1,.14-4.49,5.57,5.57,0,0,1,1.86-1.54,10.63,10.63,0,0,1,4.5-1.23,7.91,7.91,0,0,0,.85-.13,3.7,3.7,0,0,1,1-.1,32.9,32.9,0,0,1,8,1.54,32.66,32.66,0,0,1,7.27,3.91,38.59,38.59,0,0,1,6.31,5.8,36.67,36.67,0,0,1,3,4,15.32,15.32,0,0,1,1.63,3.17A11.83,11.83,0,0,1,248.59,57.5Z"/><path class="cls-6" d="M247.38,77.6a3.89,3.89,0,0,1-3.71-1.91,7,7,0,0,1-1.07-2.91c-.22-1.34.67-3.92,2.45-4.61a4.56,4.56,0,0,1,4.46.5,5.09,5.09,0,0,1,2.16,3.57,4.35,4.35,0,0,1-1.21,3.93,1.89,1.89,0,0,0-.2.2A3,3,0,0,1,247.38,77.6Z"/><path class="cls-13" d="M225.38,70.93a4.42,4.42,0,0,1-.34,2.14,3.59,3.59,0,0,1-4.21,2.1,7.25,7.25,0,0,1-4-3c-.81-1.12-1.54-2.29-2.31-3.44a29.6,29.6,0,0,0-3-3.77,8.12,8.12,0,0,0-2.84-1.87c-.65-.27-1.33-.49-2-.75a7.36,7.36,0,0,1-.89-.44,2.87,2.87,0,0,1-1.47-3.52,2.34,2.34,0,0,1,.77-1.16,6.39,6.39,0,0,1,2.44-1.11,10,10,0,0,1,6.21.92,21.87,21.87,0,0,1,7.68,5.57,17,17,0,0,1,3.43,5.21A7.62,7.62,0,0,1,225.38,70.93Z"/><path class="cls-13" d="M221.66,79.34c-.25-1.18.71-1.77,1.49-2.45a.87.87,0,0,1,.4-.14A3.49,3.49,0,0,1,227,77.92a3.09,3.09,0,0,1,.35,3.94A2.34,2.34,0,0,1,225.05,83a3.83,3.83,0,0,1-2.31-1A2.87,2.87,0,0,1,221.66,79.34Z"/><path class="cls-15" d="M191.63,63.54a2.91,2.91,0,0,1,2.83-.41,7.84,7.84,0,0,1,1.45.58l12,5.72c.9.43,1.81.86,2.68,1.35a9.15,9.15,0,0,1,1.62,1.15,5.15,5.15,0,0,1,1.74,5.39l-.93.33a5.86,5.86,0,0,1-1.49.47,14.71,14.71,0,0,1-5.36-.44,40.81,40.81,0,0,1-7.51-3.06,17.74,17.74,0,0,1-4.48-3.23,8,8,0,0,1-2.51-6.14C191.65,64.68,191.63,64.11,191.63,63.54Z"/><path class="cls-15" d="M191.63,63.54c0,.57,0,1.14,0,1.71a8,8,0,0,0,2.51,6.14,17.74,17.74,0,0,0,4.48,3.23,40.81,40.81,0,0,0,7.51,3.06,14.71,14.71,0,0,0,5.36.44,5.86,5.86,0,0,0,1.49-.47l.93-.33a5.43,5.43,0,0,1-1.35,3.08,4.63,4.63,0,0,1-3.46,1.77,11.81,11.81,0,0,1-4-.45,36.28,36.28,0,0,1-5.23-1.89A51,51,0,0,1,192.72,76a11.78,11.78,0,0,1-2.52-2.1,6.21,6.21,0,0,1-1.57-5.43,8,8,0,0,1,1.44-3.54A3.05,3.05,0,0,1,191.63,63.54Z"/><path class="cls-15" d="M120.24,77.06a4.36,4.36,0,0,1,2-2.15c1.12-.71,2.3-1.34,3.49-2,2.88-1.47,5.78-2.9,8.67-4.37,1-.52,2-1.09,3-1.64,2.81-1.55,4.76-.49,6.09,1.65a5.92,5.92,0,0,1,.85,2.1,25.75,25.75,0,0,1-2.95,3.65,28.42,28.42,0,0,1-6.81,4.87c-1.34.7-2.74,1.29-4.15,1.86a13.61,13.61,0,0,1-4.89.81,4.54,4.54,0,0,1-4.13-2.1A9,9,0,0,1,120.24,77.06Z"/><path class="cls-15" d="M120.24,77.06a9,9,0,0,0,1.18,2.73,4.54,4.54,0,0,0,4.13,2.1,13.61,13.61,0,0,0,4.89-.81c1.41-.57,2.81-1.16,4.15-1.86a28.42,28.42,0,0,0,6.81-4.87,25.75,25.75,0,0,0,2.95-3.65,6,6,0,0,1-.92,6.17,11,11,0,0,1-2.52,2.29,53.83,53.83,0,0,1-8.09,4.51,32.35,32.35,0,0,1-5.24,1.87,9.88,9.88,0,0,1-3,.31,4.76,4.76,0,0,1-3.94-2.23,6.29,6.29,0,0,1-.82-6A3.17,3.17,0,0,1,120.24,77.06Z"/><path class="cls-15" d="M178.85,119.24c0-.48-.08-.95-.06-1.43a.55.55,0,0,1,.53-.57.62.62,0,0,1,.68.41,3.48,3.48,0,0,1,.12.56,11.18,11.18,0,0,1-2.05,8.27,7.55,7.55,0,0,1-4.95,3.13,7.33,7.33,0,0,1-5.92-1.56,11,11,0,0,1-4.18-8.3.83.83,0,0,1,.08-.55.87.87,0,0,1,.56-.36.69.69,0,0,1,.55.35,9.73,9.73,0,0,1,.28,1.54,10.29,10.29,0,0,0,1.34,3.75,8.45,8.45,0,0,0,2.74,2.87,6,6,0,0,0,7.41-.6,8.16,8.16,0,0,0,2.31-3.57A10.35,10.35,0,0,0,178.85,119.24Z"/><path class="cls-15" d="M193.37,87.09a14.51,14.51,0,0,1,4.63-1.4A20.53,20.53,0,0,1,220.28,98a19.49,19.49,0,0,1,1.39,10.51,1.9,1.9,0,0,0-.62.31c-.39.47-.67,1-1.1,1.48a28.19,28.19,0,0,1-3.35,3.3,19,19,0,0,1-8.16,3.59,15.38,15.38,0,0,1-5,.11,18.8,18.8,0,0,1-7.61-2.67,13.29,13.29,0,0,1-6.21-8.86,21.43,21.43,0,0,1-.58-4.64c0-.66.25-1.32.26-2a13.93,13.93,0,0,1,.49-3.09,29.64,29.64,0,0,1,2.36-6.42C192.6,88.83,193,88,193.37,87.09Z"/><path class="cls-15" d="M192.77,88.39a10.69,10.69,0,0,0,.66,2.59c.09.25.18.51.3.77a5,5,0,0,0,.34.63c.19.3.27.61.45.93a26.46,26.46,0,0,0,1.61,2.32,17.34,17.34,0,0,0,3.14,3.16,21.06,21.06,0,0,0,3,1.94,32.6,32.6,0,0,0,5.84,2.39,22.11,22.11,0,0,0,3.58.79,22.91,22.91,0,0,0,5.75.11,20.14,20.14,0,0,0,2.35-.5c.29-.07.51-.19.78-.26a1.32,1.32,0,0,1,.38,0,15.37,15.37,0,0,1,.29,7.2,1.39,1.39,0,0,0-.35.28c-.23.34-.42.74-.67,1.06a22,22,0,0,1-2,2.46,18.38,18.38,0,0,1-14.11,7.48,19.05,19.05,0,0,1-9.11-1.83,17.11,17.11,0,0,1-4.49-3.07,16.81,16.81,0,0,1-4.06-6.15,20.55,20.55,0,0,1-1.32-5.28,24,24,0,0,1-.06-3.06,16.41,16.41,0,0,1,.82-4.72,18.93,18.93,0,0,1,5.54-8.61c.49-.43,1-.85,1.51-1.24a.91.91,0,0,1,.17-.09C193,87.94,192.89,88.17,192.77,88.39Z"/><path class="cls-15" d="M193.37,87.09c-.4.87-.77,1.74-1.19,2.59a29.64,29.64,0,0,0-2.36,6.42,13.93,13.93,0,0,0-.49,3.09c0,.65-.23,1.31-.26,2a21.43,21.43,0,0,0,.58,4.64,13.29,13.29,0,0,0,6.21,8.86,18.8,18.8,0,0,0,7.61,2.67,15.38,15.38,0,0,0,5-.11,19,19,0,0,0,8.16-3.59,28.19,28.19,0,0,0,3.35-3.3c.43-.44.71-1,1.1-1.48a1.9,1.9,0,0,1,.62-.31,17.26,17.26,0,0,1-1.87,6.4,20,20,0,0,1-15.09,11.27,20.54,20.54,0,0,1-11.62-39.07A2.74,2.74,0,0,1,193.37,87.09Z"/><circle class="cls-13" cx="201.36" cy="106.01" r="13.98"/><path class="cls-15" d="M132.44,92.26a14.53,14.53,0,0,1,4.63-1.41,20.52,20.52,0,0,1,22.28,12.35,19.47,19.47,0,0,1,1.39,10.5,1.9,1.9,0,0,0-.62.31c-.39.48-.67,1-1.09,1.49a29.9,29.9,0,0,1-3.36,3.3,19.13,19.13,0,0,1-8.16,3.59,15.67,15.67,0,0,1-5,.11,18.8,18.8,0,0,1-7.61-2.67,13.76,13.76,0,0,1-3.53-3.09,13.42,13.42,0,0,1-2.68-5.77,21.45,21.45,0,0,1-.58-4.65c0-.66.25-1.31.26-2a13.84,13.84,0,0,1,.49-3.08,29.26,29.26,0,0,1,2.36-6.42C131.67,94,132,93.12,132.44,92.26Z"/><path class="cls-15" d="M131.84,93.55a10.64,10.64,0,0,0,.66,2.6c.09.25.18.5.3.76a4.86,4.86,0,0,0,.34.63c.19.31.27.62.45.93a25,25,0,0,0,1.61,2.32,17,17,0,0,0,3.14,3.16,19.46,19.46,0,0,0,3,1.94,31.88,31.88,0,0,0,5.84,2.39,21.1,21.1,0,0,0,3.58.79,23,23,0,0,0,5.75.12,20.08,20.08,0,0,0,2.35-.51c.29-.06.51-.18.78-.26a1.8,1.8,0,0,1,.38,0,15.4,15.4,0,0,1,.29,7.21,1.36,1.36,0,0,0-.35.27c-.23.35-.42.74-.67,1.07a21.9,21.9,0,0,1-2,2.45,18.62,18.62,0,0,1-8.32,6.31,19.13,19.13,0,0,1-14.9-.66,16.63,16.63,0,0,1-8.55-9.22,20.57,20.57,0,0,1-1.32-5.27,24.08,24.08,0,0,1-.06-3.06,16.7,16.7,0,0,1,.82-4.72,18.88,18.88,0,0,1,5.54-8.61c.49-.44,1-.86,1.51-1.25a.89.89,0,0,1,.17-.08C132.05,93.11,132,93.34,131.84,93.55Z"/><path class="cls-15" d="M132.44,92.26c-.4.86-.77,1.74-1.19,2.59a29.26,29.26,0,0,0-2.36,6.42,13.84,13.84,0,0,0-.49,3.08c0,.66-.23,1.31-.26,2a21.45,21.45,0,0,0,.58,4.65,13.42,13.42,0,0,0,2.68,5.77,13.76,13.76,0,0,0,3.53,3.09,18.8,18.8,0,0,0,7.61,2.67,15.67,15.67,0,0,0,5-.11,19.13,19.13,0,0,0,8.16-3.59,29.9,29.9,0,0,0,3.36-3.3c.42-.45.7-1,1.09-1.49a1.9,1.9,0,0,1,.62-.31,17.2,17.2,0,0,1-1.87,6.4,20,20,0,0,1-15.09,11.28,20.54,20.54,0,0,1-11.62-39.07A.92.92,0,0,1,132.44,92.26Z"/><circle class="cls-13" cx="140.43" cy="111.18" r="12.3"/><ellipse class="cls-6" cx="141.97" cy="203.3" rx="10.31" ry="17.35" transform="matrix(0.96, -0.28, 0.28, 0.96, -52.05, 48.89)"/></g><g id="Layer_1" data-name="Layer 1"><path class="cls-26" d="M31.87,200.12H11.26v52.07h0a1,1,0,0,0,0,.17c0,2.1,4.61,3.79,10.31,3.79s10.3-1.69,10.3-3.79a1,1,0,0,0,0-.17h0Z"/><path class="cls-27" d="M31.87,200.12c0,2.1-4.61,3.79-10.3,3.79s-10.31-1.69-10.31-3.79,4.61-3.79,10.31-3.79S31.87,198,31.87,200.12Z"/><path class="cls-26" d="M29,195.67H14.17v2.72h0s0,.08,0,.12c0,1.5,3.31,2.72,7.4,2.72S29,200,29,198.51a.49.49,0,0,0,0-.12h0Z"/><path class="cls-27" d="M29,195.67c0,1.5-3.31,2.72-7.39,2.72s-7.4-1.22-7.4-2.72,3.31-2.73,7.4-2.73S29,194.16,29,195.67Z"/><polygon class="cls-26" points="23.48 194.66 19.65 194.66 20.48 180.69 22.65 180.69 23.48 194.66"/><path class="cls-26" d="M23.48,194.65c0-.27-.85-.5-1.91-.5s-1.92.23-1.92.5.86.51,1.92.51S23.48,194.93,23.48,194.65Z"/><path class="cls-28" d="M22.64,180.69c0-.18-.49-.32-1.09-.32s-1.09.14-1.09.32.49.31,1.09.31S22.64,180.86,22.64,180.69Z"/><path class="cls-29" d="M21.57,180.37h0c-.6,0-1.09.14-1.09.32l0,.05L19.75,193c-3.21.3-5.58,1.37-5.58,2.64v1.81c-1.8.68-2.91,1.61-2.91,2.64v52.07h0a1,1,0,0,0,0,.17c0,2.1,4.61,3.79,10.31,3.79Z"/><path class="cls-6" d="M61.5,200.41H40.89v52.07h0a1,1,0,0,0,0,.17c0,2.09,4.61,3.79,10.3,3.79s10.31-1.7,10.31-3.79c0-.06,0-.11,0-.17h0Z"/><ellipse class="cls-30" cx="51.19" cy="200.54" rx="10.31" ry="3.79"/><path class="cls-6" d="M58.59,196.08H43.8v2.73h0a.37.37,0,0,0,0,.11c0,1.51,3.31,2.73,7.39,2.73s7.4-1.22,7.4-2.73c0,0,0-.08,0-.11h0Z"/><path class="cls-30" d="M58.59,196.08c0,1.51-3.31,2.73-7.4,2.73s-7.39-1.22-7.39-2.73,3.31-2.72,7.39-2.72S58.59,194.58,58.59,196.08Z"/><polygon class="cls-6" points="53.11 195.07 49.27 195.07 50.11 181.1 52.27 181.1 53.11 195.07"/><path class="cls-31" d="M53.11,195.07c0-.28-.86-.5-1.92-.5s-1.92.22-1.92.5.86.51,1.92.51S53.11,195.35,53.11,195.07Z"/><ellipse class="cls-32" cx="51.18" cy="181.1" rx="1.09" ry="0.32"/><path class="cls-29" d="M51.19,180.79h0c-.6,0-1.09.14-1.09.31a.08.08,0,0,0,0,.05l-.74,12.3c-3.2.3-5.57,1.36-5.57,2.63v1.82c-1.8.68-2.91,1.61-2.91,2.64v52.07h0a1,1,0,0,0,0,.17c0,2.09,4.61,3.79,10.3,3.79Z"/><path class="cls-33" d="M225.38,215.59s-4.73-5.14,1.53-9.45c0,0-2.09-4.87,3.61-5.84s1.11-5.29,1.11-5.29,6.68-.28,6.54,8.07c0,0,4.45-.28,2.92,5.42,0,0,5.28.7,1,5.7S225.38,215.59,225.38,215.59Z"/><path class="cls-34" d="M235.41,214.2c-4.69-.14-5.45-6.28-2.23-8.28a4.41,4.41,0,0,1-3.37-5.47c-4.8,1.25-2.9,5.69-2.9,5.69-6.26,4.31-1.53,9.45-1.53,9.45a35.07,35.07,0,0,0,9.18,1.26A4.69,4.69,0,0,1,235.41,214.2Z"/><polygon class="cls-35" points="224.4 216.29 227.04 232.56 240.25 232.56 242.9 216.29 224.4 216.29"/><polygon class="cls-36" points="224.4 216.29 227.04 232.56 233.71 232.56 233.65 216.29 224.4 216.29"/><path class="cls-37" d="M244.91,216.29a2.08,2.08,0,0,1-2.08,2.08H224.47a2.08,2.08,0,0,1-2.08-2.08h0a2.09,2.09,0,0,1,2.08-2.09h18.36a2.09,2.09,0,0,1,2.08,2.09Z"/><path class="cls-38" d="M234.8,214.2H224.47a2.09,2.09,0,0,0,0,4.17H235C235,217,234.91,215.59,234.8,214.2Z"/><ellipse class="cls-39" cx="207.09" cy="213" rx="5.68" ry="11.83" transform="translate(-8.81 417.07) rotate(-89.19)"/><polygon class="cls-26" points="201.85 224.56 199.23 224.78 196.04 201.58 197.5 201.46 198.87 202.85 201.85 224.56"/><polygon class="cls-27" points="199.23 224.78 197.92 224.88 194.73 201.68 196.04 201.58 199.23 224.78"/><polygon class="cls-40" points="198.87 202.85 196.25 203.06 194.73 201.68 197.5 201.46 198.87 202.85"/><polygon class="cls-26" points="203.13 218.38 200.5 218.26 202.21 194.97 203.67 195.03 204.73 196.58 203.13 218.38"/><polygon class="cls-27" points="200.5 218.26 199.19 218.21 200.9 194.91 202.21 194.97 200.5 218.26"/><polygon class="cls-40" points="204.73 196.58 202.1 196.46 200.9 194.91 203.67 195.03 204.73 196.58"/><polygon class="cls-26" points="208.36 221.99 205.73 221.88 207.44 198.59 208.9 198.65 209.96 200.19 208.36 221.99"/><polygon class="cls-27" points="205.73 221.88 204.42 221.82 206.12 198.53 207.44 198.59 205.73 221.88"/><polygon class="cls-40" points="209.96 200.19 207.33 200.08 206.12 198.53 208.9 198.65 209.96 200.19"/><polygon class="cls-26" points="211.06 220.7 208.45 220.42 212.71 197.32 214.15 197.48 215.04 199.09 211.06 220.7"/><polygon class="cls-27" points="208.45 220.42 207.14 220.28 211.4 197.18 212.71 197.32 208.45 220.42"/><polygon class="cls-40" points="215.04 199.09 212.43 198.8 211.4 197.18 214.15 197.48 215.04 199.09"/><polygon class="cls-26" points="215.78 223.5 213.18 223.08 217.19 200.1 218.63 200.33 219.53 201.99 215.78 223.5"/><polygon class="cls-27" points="213.18 223.08 211.88 222.87 215.89 199.88 217.19 200.1 213.18 223.08"/><polygon class="cls-40" points="219.53 201.99 216.93 201.57 215.89 199.88 218.63 200.33 219.53 201.99"/><polygon class="cls-26" points="215.81 220.59 213.18 220.67 211.94 197.36 213.41 197.32 214.65 198.77 215.81 220.59"/><polygon class="cls-27" points="213.18 220.67 211.87 220.71 210.63 197.4 211.94 197.36 213.18 220.67"/><polygon class="cls-40" points="214.65 198.77 212.02 198.85 210.63 197.4 213.41 197.32 214.65 198.77"/><polygon class="cls-26" points="206.34 226.1 203.71 226.14 203.16 202.82 204.62 202.79 205.82 204.27 206.34 226.1"/><polygon class="cls-27" points="203.71 226.14 202.39 226.16 201.84 202.83 203.16 202.82 203.71 226.14"/><polygon class="cls-40" points="205.82 204.27 203.19 204.31 201.84 202.83 204.62 202.79 205.82 204.27"/><path class="cls-41" d="M207,217.83c-2.28-.06-8.91-.63-11.76-5l2.09,19.35a12.88,12.88,0,0,0,9.42,3.15,12.88,12.88,0,0,0,9.51-2.89l2.63-19.27C215.94,217.45,209.3,217.83,207,217.83Z"/><path class="cls-42" d="M201.79,225.16a5.13,5.13,0,1,0,5.2-5A5.12,5.12,0,0,0,201.79,225.16Z"/><path class="cls-29" d="M206.91,217.83c-2.37-.08-8.84-.69-11.65-5l2.09,19.35a12.89,12.89,0,0,0,9.32,3.16Z"/><rect class="cls-43" x="200.94" y="224.05" width="11.94" height="2.49"/><path class="cls-44" d="M189.25,221.49c0,2.49-1.56,4.52-3.47,4.52H157.21c-1.92,0-3.47-2-3.47-4.52h0c0-2.5,1.55-4.52,3.47-4.52h28.57c1.91,0,3.47,2,3.47,4.52Z"/><path class="cls-45" d="M189,222.4H160.38c-1.92,0-3.47-2-3.47-4.52a5.29,5.29,0,0,1,.07-.9c-1.81.16-3.24,2.11-3.24,4.51s1.55,4.52,3.47,4.52h28.57c1.68,0,3.08-1.56,3.4-3.63Z"/><path class="cls-46" d="M187.18,217c0,1.69-4.53,3.05-10.13,3.05s-10.14-1.36-10.14-3.05,4.54-3,10.14-3S187.18,215.3,187.18,217Z"/><polygon class="cls-47" points="156.91 216.97 164.07 222.96 172.91 216.41 156.91 216.97"/><polygon class="cls-48" points="157.44 216.74 164.6 222.73 173.44 216.18 157.44 216.74"/><path class="cls-49" d="M165.44,215.72s-.25,3,2.4,2.74,4.25-1,6.63,0,4.69,2.17,6.75-1.38,8.44,6.73,7.31-2.18S165.44,215.72,165.44,215.72Z"/><path class="cls-49" d="M170.79,216.15c-.08-.14-.16-.29-.25-.42-.27-.31-.54-.6-.82-.89a4.11,4.11,0,0,1-1.18-3.15,93.27,93.27,0,0,0-14.71,4,2.42,2.42,0,0,0,2.85,2.74c3.14-.27,5-1,7.85,0,2.58.89,5.1,2,7.38-.6A4.5,4.5,0,0,1,170.79,216.15Z"/><path class="cls-50" d="M153.1,217h36.79c0-10.16-8.24-16.8-18.4-16.8S153.1,206.81,153.1,217Z"/><path class="cls-51" d="M171.49,200.17c-10.16,0-18.39,6.64-18.39,16.8h18.39Z"/><path class="cls-50" d="M160.41,232.62h22.16c4.44-1.41,7.32-3.71,7.32-6.61H153.1C153.1,228.91,156,231.21,160.41,232.62Z"/><path class="cls-51" d="M160.41,232.62h11.08V226H153.1C153.1,228.91,156,231.21,160.41,232.62Z"/><path class="cls-41" d="M119.22,181.9l4.62,50.78c0,1.78,20.37,1.61,20.35-.17l3.52-50.86Z"/><circle class="cls-42" cx="133.31" cy="200.03" r="7.76" transform="translate(-102.4 152.85) rotate(-45)"/><rect class="cls-43" x="123.31" y="198.58" width="20" height="4.17"/><path class="cls-29" d="M134,181.77l-14.74.13,4.62,50.78c0,.89,5.06,1.29,10.12,1.25Z"/><path class="cls-3" d="M135.09,162.47a1.23,1.23,0,0,0-.73-1.23c-4.06-2.07-5.64-3-9.7-5.1-1.35-.69-2.21,1.5-.87,2.18,3.81,2,9,4.72,9,4.72l-.45,15c.05,1.14,2.26,1.39,2.33.27C135,172.5,134.93,167.76,135.09,162.47Z"/><path class="cls-46" d="M123.42,156.38l10.87,5.77-.54,16.92a1.17,1.17,0,0,0,.27,0l.54-17-11-5.8A.86.86,0,0,0,123.42,156.38Z"/><path class="cls-46" d="M133.18,162.77l-.45,16a1.23,1.23,0,0,0,.25.14l.46-16.32-10.32-5.48a1.51,1.51,0,0,0,0,.3Z"/><path class="cls-29" d="M133.89,162.24l-10.62-5.65a1.26,1.26,0,0,0,.52,1.73c3.81,2,9,4.72,9,4.72l-.45,15a1.15,1.15,0,0,0,1.08,1Z"/><rect class="cls-43" x="121.98" y="176.18" width="22.97" height="2.88"/><rect class="cls-52" x="121.98" y="176.18" width="11.98" height="2.88"/><rect class="cls-53" x="117.41" y="178.53" width="32.1" height="4.63"/><rect class="cls-54" x="117.41" y="178.53" width="16.54" height="4.63"/><path class="cls-55" d="M273.38,232.57c0,3.48-4,6.31-5.34,6.31H86.6c-1.34,0-4.61-2.83-4.61-6.31H273.38Z"/><path class="cls-56" d="M272.31,235.72a5.65,5.65,0,0,0,1.07-3.15H82a6.47,6.47,0,0,0,.88,3.15Z"/><rect class="cls-57" x="308.69" y="179.65" width="15.87" height="10.52"/><rect class="cls-58" x="292.28" y="159.24" width="46.99" height="19.25" rx="5.8"/><path class="cls-59" d="M333.48,161.74a3.3,3.3,0,0,1,3.29,3.29v7.66a3.3,3.3,0,0,1-3.29,3.3h-35.4a3.3,3.3,0,0,1-3.3-3.3V165a3.3,3.3,0,0,1,3.3-3.29h35.4m0-5h-35.4a8.29,8.29,0,0,0-8.3,8.29v7.66a8.3,8.3,0,0,0,8.3,8.3h35.4a8.3,8.3,0,0,0,8.29-8.3V165a8.29,8.29,0,0,0-8.29-8.29Z"/><rect class="cls-59" x="277.95" y="187.8" width="73.68" height="70.62" rx="7.11"/><path class="cls-57" d="M344.52,187.8H333.68a7.11,7.11,0,0,1,7.11,7.11v56.41a7.11,7.11,0,0,1-7.11,7.11h10.84a7.11,7.11,0,0,0,7.11-7.11V194.91A7.11,7.11,0,0,0,344.52,187.8Z"/><rect class="cls-57" x="296.23" y="207.79" width="34.83" height="5.04"/><rect class="cls-58" x="298.27" y="209.08" width="31.04" height="1.29"/><rect class="cls-60" x="299.84" y="209.66" width="27.61" height="24.67"/><rect class="cls-61" x="302.53" y="214.54" width="22.03" height="0.82"/><rect class="cls-61" x="302.53" y="220.37" width="22.03" height="0.82"/><rect class="cls-61" x="302.53" y="226.2" width="22.03" height="0.82"/><g class="cls-62"><path class="cls-3" d="M305.1,168a1.65,1.65,0,0,1-.71-.67,2,2,0,0,1-.24-1,2.1,2.1,0,0,1,.55-1.53,1.94,1.94,0,0,1,1.47-.57,1.83,1.83,0,0,1,1.5.61,2.23,2.23,0,0,1,.52,1.48,2.16,2.16,0,0,1-.25,1,1.66,1.66,0,0,1-.68.66,2,2,0,0,1,.86.79,2.47,2.47,0,0,1,.28,1.24,3,3,0,0,1-.28,1.34,2,2,0,0,1-1.9,1.19,2.1,2.1,0,0,1-1.6-.67A2.55,2.55,0,0,1,304,170a2.68,2.68,0,0,1,.29-1.27A2,2,0,0,1,305.1,168Zm.15,1.93a1.56,1.56,0,0,0,.28,1,.82.82,0,0,0,.67.36.81.81,0,0,0,.66-.34,1.64,1.64,0,0,0,.26-1,1.42,1.42,0,0,0-.27-.92.82.82,0,0,0-1.33,0A1.43,1.43,0,0,0,305.25,169.88Zm.12-3.51a1.09,1.09,0,0,0,.23.74.72.72,0,0,0,.57.25.74.74,0,0,0,.58-.25,1.09,1.09,0,0,0,.23-.74,1,1,0,0,0-.23-.71.73.73,0,0,0-.56-.26.76.76,0,0,0-.59.26A1,1,0,0,0,305.37,166.37Z"/><path class="cls-3" d="M309.46,170.8h1.28v1.13a3.45,3.45,0,0,1-.22,1.42,1.72,1.72,0,0,1-.91.85l-.26-.65a1.06,1.06,0,0,0,.55-.42,1.55,1.55,0,0,0,.18-.76h-.62Z"/><path class="cls-3" d="M311.85,170.27l1.28-.17a1.34,1.34,0,0,0,.33.84.81.81,0,0,0,.61.31.84.84,0,0,0,.69-.39,2.08,2.08,0,0,0,.28-1.21,1.88,1.88,0,0,0-.28-1.14.89.89,0,0,0-.72-.37,1.26,1.26,0,0,0-1,.6l-1-.18.66-4.26h3.4v1.46h-2.42l-.21,1.4a1.64,1.64,0,0,1,.88-.27,1.73,1.73,0,0,1,1.35.63,3.05,3.05,0,0,1,.7,2.11,3.59,3.59,0,0,1-.59,2,1.93,1.93,0,0,1-1.71.9,2.05,2.05,0,0,1-1.49-.58A2.64,2.64,0,0,1,311.85,170.27Z"/><path class="cls-3" d="M319.22,164.16a1.82,1.82,0,0,1,1.58.93,8.94,8.94,0,0,1,0,6.49,1.8,1.8,0,0,1-3.15,0,6.24,6.24,0,0,1-.61-3.27,6.17,6.17,0,0,1,.61-3.23A1.8,1.8,0,0,1,319.22,164.16Zm0,1.3c-.25,0-.45.17-.6.5a7.13,7.13,0,0,0-.23,2.38,7.06,7.06,0,0,0,.23,2.37c.15.34.35.5.6.5a.68.68,0,0,0,.61-.5,12.38,12.38,0,0,0,0-4.75A.68.68,0,0,0,319.22,165.46Z"/><path class="cls-3" d="M326.72,171.16v-2.34a2.4,2.4,0,0,1-1.74-2.49,2.37,2.37,0,0,1,.49-1.56,1.84,1.84,0,0,1,1.25-.69v-.56h.66v.56a1.91,1.91,0,0,1,1.15.59,2.53,2.53,0,0,1,.56,1.35l-1.16.19a1.12,1.12,0,0,0-.55-.9v2.19a2.92,2.92,0,0,1,1.45.86,2.57,2.57,0,0,1,.45,1.56,2.74,2.74,0,0,1-.52,1.73,2.16,2.16,0,0,1-1.38.83v1h-.66v-1c-1.1-.16-1.74-1-1.92-2.42l1.19-.16a2,2,0,0,0,.28.77A1.2,1.2,0,0,0,326.72,171.16Zm0-5.86a1,1,0,0,0-.43.36,1.09,1.09,0,0,0-.16.59,1,1,0,0,0,.59,1Zm.66,5.94a.87.87,0,0,0,.55-.38,1.17,1.17,0,0,0,.22-.73,1,1,0,0,0-.77-1.07Z"/></g><rect class="cls-42" y="252.26" width="355.37" height="12.33"/><rect class="cls-63" y="257.03" width="355.37" height="7.56"/><rect class="cls-6" y="264.59" width="355.37" height="52.8"/><rect class="cls-7" y="264.59" width="355.37" height="15.13"/></g></g></svg>