<svg xmlns="http://www.w3.org/2000/svg" viewBox="0 0 258 335"><defs><style>.cls-1{fill:#ebebeb;}.cls-2{fill:none;stroke:#ebebeb;stroke-miterlimit:10;}.cls-3{fill:#1a2f36;}.cls-4{fill:#f48268;}.cls-5{fill:#fff;}.cls-6{fill:#9a2b21;}.cls-7{fill:#c7c7c6;}.cls-8{fill:#f05023;}.cls-9{fill:#dcdbdb;}.cls-10{fill:#455b64;}.cls-11{fill:#a6a5a5;}.cls-12{fill:#263238;}.cls-13{fill:#ae3324;}.cls-14{fill:#da912d;}.cls-15{fill:#e1b541;}.cls-16{fill:#da8f2d;}.cls-17{fill:#785e65;}.cls-18{fill:#db912e;}.cls-19{fill:#031f1e;}.cls-20{fill:#e1b53e;}.cls-21{fill:#c28539;}.cls-22{fill:#e2b740;}.cls-23{fill:#db8f2c;}.cls-24{fill:#e0a637;}.cls-25{fill:#e0b440;}.cls-26{fill:#d88e2d;}.cls-27{fill:#e4b63e;}.cls-28{fill:#e1a637;}.cls-29{fill:#dc9431;}.cls-30{fill:#524a60;}.cls-31{fill:#ead154;}.cls-32{fill:#dc9330;}</style></defs><g id="Layer_9" data-name="Layer 9"><rect class="cls-1" x="21.21" y="97.66" width="20.23" height="6.44"/><rect class="cls-2" x="216.48" y="148.61" width="20.23" height="6.44"/><path class="cls-1" d="M30.15,89.54l-10.23.3-5,.12-5,0,.46-.46,0,6.44-.5-.5L20,95.55c1.68,0,3.37.06,5.06.09l5,.11-.23.23Zm0,0L30.39,96v.24h-.25l-5,.11c-1.69,0-3.38.08-5.06.08l-10.12.07h-.5V96l0-6.44v-.46h.45l5.14,0,5.1.12C23.55,89.32,26.89,89.44,30.15,89.54Z"/><path class="cls-1" d="M64,243.1l-10.24.3-5,.12-5,0,.45-.46.05,6.44-.5-.5,10.11.07c1.69,0,3.38.06,5.06.09l5.06.11-.24.23Zm0,0,.24,6.44v.23H64l-5.06.11c-1.68,0-3.37.08-5.06.08L43.74,250h-.51v-.51l0-6.44v-.46h.46l5.13,0,5.11.12C57.37,242.88,60.7,243,64,243.1Z"/><path class="cls-1" d="M52.68,235l-10.23.3-5,.12-5,0,.46-.46,0,6.44-.5-.5,10.12.07c1.68,0,3.37.06,5.06.09l5,.1-.23.24Zm0,0,.24,6.44v.23h-.25l-5,.11c-1.69,0-3.38.08-5.06.08l-10.12.07H32v-.51L32,235v-.46h.45l5.14,0,5.1.12C46.08,234.76,49.42,234.88,52.68,235Z"/><rect class="cls-1" x="21.21" y="243.1" width="20.23" height="6.44"/><rect class="cls-1" x="227.77" y="89.54" width="20.23" height="6.44"/><rect class="cls-1" x="216.48" y="315.12" width="20.23" height="6.44"/><path class="cls-1" d="M248,307l-10.24.29-5,.12-5,0,.45-.46.05,6.44-.5-.5,10.11.07c1.69,0,3.38.06,5.06.08l5.06.11-.24.24Zm0,0,.24,6.44v.23H248l-5.06.11c-1.68,0-3.37.08-5.06.08l-10.11.07h-.51v-.5l0-6.44v-.46h.46l5.13,0,5.1.12C241.4,306.78,244.73,306.9,248,307Z"/><path class="cls-1" d="M30.15,315.12l-10.23.29-5,.12-5,.05.46-.46,0,6.44-.5-.5,10.12.07c1.68,0,3.37.06,5.06.08l5,.11-.23.24Zm0,0,.24,6.44v.23h-.25l-5,.11c-1.69,0-3.38.08-5.06.08l-10.12.07h-.5v-.5l0-6.44v-.46h.45l5.14,0,5.1.12C23.55,314.9,26.89,315,30.15,315.12Z"/><polygon class="cls-3" points="10.72 328.45 40.28 328.21 69.84 328.07 128.96 327.95 188.08 328.06 217.64 328.2 247.21 328.45 217.64 328.69 188.08 328.83 128.96 328.95 69.84 328.83 40.28 328.69 10.72 328.45"/><rect class="cls-4" x="15.05" y="128.74" width="227.82" height="152.42" rx="12.89" transform="translate(333.92 76) rotate(90)"/><rect class="cls-5" x="59.36" y="106.99" width="139.38" height="196.07"/><rect class="cls-6" x="127.77" y="83.71" width="2.37" height="33.17" rx="0.86" transform="translate(229.26 -28.66) rotate(90)"/><circle class="cls-6" cx="128.96" cy="310.76" r="4.29" transform="translate(-181.97 182.21) rotate(-45)"/><rect class="cls-5" x="59.36" y="106.99" width="139.38" height="196.07"/><rect class="cls-6" x="59.36" y="106.99" width="139.38" height="4.79"/><path class="cls-7" d="M63.64,109.38a1,1,0,1,1-1-1A1,1,0,0,1,63.64,109.38Z"/><path class="cls-5" d="M67.74,109.38a1,1,0,1,1-1-1A1,1,0,0,1,67.74,109.38Z"/><path class="cls-8" d="M71.84,109.38a1,1,0,1,1-1-1A1,1,0,0,1,71.84,109.38Z"/><path class="cls-6" d="M148.44,150.92a10.35,10.35,0,1,1-5-19.42v10.35Z"/><path class="cls-8" d="M149.59,133.52l-6.13,8.33V131.5A10.29,10.29,0,0,1,149.59,133.52Z"/><path class="cls-9" d="M153.8,141.85a10.29,10.29,0,0,1-2.74,7l-7.6-7,6.13-8.33A10.3,10.3,0,0,1,153.8,141.85Z"/><path class="cls-10" d="M154.78,153.66a10.29,10.29,0,0,1-2.62,2.06l-5-9.07Z"/><path class="cls-9" d="M115.52,131.89l-2.84,10V152.2a10.35,10.35,0,0,1,0-20.7A10.59,10.59,0,0,1,115.52,131.89Z"/><path class="cls-6" d="M118.81,150.18a10.26,10.26,0,0,1-6.13,2V141.85Z"/><path class="cls-10" d="M123,141.85a10.31,10.31,0,0,1-4.22,8.33l-6.13-8.33,8-6.51A10.3,10.3,0,0,1,123,141.85Z"/><path class="cls-8" d="M123,132l-8,6.5,2.84-10A10.36,10.36,0,0,1,123,132Z"/><path class="cls-10" d="M81.9,131.5v10.35l-7,7.64a10.34,10.34,0,0,1,7-18Z"/><path class="cls-8" d="M89.31,134.62l-7.41,7.23V131.5A10.34,10.34,0,0,1,89.31,134.62Z"/><path class="cls-9" d="M92.25,141.85a10.32,10.32,0,0,1-3.81,8l-6.54-8,7.41-7.23A10.33,10.33,0,0,1,92.25,141.85Z"/><path class="cls-6" d="M88.44,152.58a10.33,10.33,0,0,1-13.5-.37l7-7.65Z"/><path class="cls-8" d="M174.23,131.5v20.7a10.35,10.35,0,0,1,0-20.7Z"/><path class="cls-6" d="M176.84,131.83l-2.61,10V131.5A10.66,10.66,0,0,1,176.84,131.83Z"/><path class="cls-10" d="M186.36,141.25a10.43,10.43,0,0,1-.71,3.8l-9.63-3.8,2.61-10A10.34,10.34,0,0,1,186.36,141.25Z"/><path class="cls-9" d="M183.86,145.64a10.35,10.35,0,0,1-9.63,6.56V141.85Z"/><rect class="cls-1" x="78.65" y="159.5" width="12.08" height="1.16"/><rect class="cls-1" x="78.65" y="161.92" width="8.02" height="1.16"/><rect class="cls-10" x="73.08" y="159.48" width="3.62" height="3.62"/><rect class="cls-1" x="109.43" y="159.5" width="12.08" height="1.16"/><rect class="cls-1" x="109.43" y="161.92" width="8.02" height="1.16"/><rect class="cls-9" x="103.85" y="159.48" width="3.62" height="3.62"/><rect class="cls-1" x="140.69" y="159.5" width="12.08" height="1.16"/><rect class="cls-1" x="140.69" y="161.92" width="8.02" height="1.16"/><rect class="cls-6" x="135.12" y="159.48" width="3.62" height="3.62"/><rect class="cls-1" x="171.87" y="159.5" width="12.08" height="1.16"/><rect class="cls-1" x="171.87" y="161.92" width="8.02" height="1.16"/><rect class="cls-8" x="166.29" y="159.48" width="3.62" height="3.62"/><path class="cls-8" d="M104.16,257.09a15.32,15.32,0,0,1-9.34,14.11l-6-14.11Z"/><path class="cls-8" d="M86.87,256l6,14.11s0,0,0,0q-.7.29-1.41.51a15.31,15.31,0,0,1-4.55.69,15.56,15.56,0,0,1-4.55-.69,15.35,15.35,0,0,1-10.07-10.09,15.35,15.35,0,0,1,0-9.1,15.28,15.28,0,0,1,10.07-10.07,15.35,15.35,0,0,1,9.1,0,15.31,15.31,0,0,1,10.09,10.07,15.56,15.56,0,0,1,.69,4.55Z"/><path class="cls-9" d="M86.87,256l6,14.11s0,0,0,0q-.7.29-1.41.51a15.31,15.31,0,0,1-4.55.69A15.33,15.33,0,1,1,102.2,256Z"/><path class="cls-10" d="M86.88,256l-10,11.62A15.32,15.32,0,1,1,102.2,256Z"/><polygon class="cls-6" points="112.09 276.35 100.51 276.35 86.18 262.01 86.39 261.8 100.64 276.05 112.09 276.05 112.09 276.35"/><rect class="cls-6" x="85.48" y="261.1" width="1.61" height="1.61"/><polygon class="cls-6" points="112.09 265.26 99.04 265.26 92.85 259.06 93.06 258.86 99.17 264.96 112.09 264.96 112.09 265.26"/><rect class="cls-6" x="92.15" y="258.15" width="1.61" height="1.61"/><rect class="cls-6" x="92.36" y="254.28" width="19.73" height="0.3"/><rect class="cls-6" x="91.34" y="253.62" width="1.61" height="1.61"/><rect class="cls-1" x="116.58" y="252.81" width="14.33" height="1.33"/><rect class="cls-1" x="116.58" y="255.6" width="18.59" height="1.33"/><rect class="cls-1" x="116.58" y="258.38" width="9.94" height="1.33"/><rect class="cls-10" x="110.47" y="252.81" width="3.23" height="3.23"/><rect class="cls-1" x="116.58" y="263.58" width="16.07" height="1.33"/><rect class="cls-1" x="116.58" y="266.37" width="13.4" height="1.33"/><rect class="cls-1" x="116.58" y="269.15" width="18.59" height="1.33"/><rect class="cls-8" x="110.47" y="263.58" width="3.23" height="3.23"/><rect class="cls-1" x="116.58" y="274.35" width="16.07" height="1.33"/><rect class="cls-1" x="116.58" y="277.14" width="13.4" height="1.33"/><rect class="cls-1" x="116.58" y="279.92" width="18.59" height="1.33"/><rect class="cls-9" x="110.47" y="274.35" width="3.23" height="3.23"/><path class="cls-9" d="M71.56,175.24l39-.09c13,0,26,0,39,.09-13,.09-26,.07-39,.1Z"/><path class="cls-9" d="M71.56,178.16l39-.1c13,0,26,0,39,.1-13,.08-26,.06-39,.09Z"/><path class="cls-9" d="M71.56,181.07l39-.09c13,0,26,0,39,.09-13,.08-26,.06-39,.1Z"/><path class="cls-9" d="M71.56,184l39-.1c13,0,26,0,39,.1-13,.08-26,.06-39,.09Z"/><path class="cls-9" d="M71.56,186.9l39-.09c13,0,26,0,39,.09-13,.08-26,.06-39,.1Z"/><path class="cls-9" d="M71.56,189.82l39-.1c13,0,26,0,39,.1-13,.08-26,.06-39,.09Z"/><path class="cls-9" d="M71.56,192.73l39-.09c13,0,26,0,39,.09-13,.08-26,.06-39,.1Z"/><path class="cls-9" d="M71.56,195.65l39-.1c13,0,26,0,39,.1-13,.08-26,.06-39,.09Z"/><path class="cls-9" d="M71.56,198.56l39-.1c13,0,26,0,39,.1-13,.08-26,.06-39,.09Z"/><path class="cls-9" d="M71.56,201.47l39-.09c13,0,26,0,39,.09-13,.09-26,.07-39,.1Z"/><path class="cls-9" d="M71.56,204.39l39-.1c13,0,26,0,39,.1-13,.08-26,.06-39,.09Z"/><path class="cls-9" d="M71.56,207.3l39-.09c13,0,26,0,39,.09-13,.09-26,.06-39,.1Z"/><path class="cls-9" d="M71.56,210.22l39-.1c13,0,26,0,39,.1-13,.08-26,.06-39,.09Z"/><path class="cls-9" d="M71.56,213.13l39-.09c13,0,26,0,39,.09-13,.08-26,.06-39,.1Z"/><path class="cls-9" d="M71.56,216.05l39-.1c13,0,26,0,39,.1-13,.08-26,.06-39,.09Z"/><rect class="cls-8" x="79.81" y="195.65" width="5.92" height="23.8"/><rect class="cls-6" x="90.79" y="185.58" width="5.92" height="33.87"/><rect class="cls-9" x="101.76" y="192.83" width="5.92" height="26.61"/><rect class="cls-8" x="112.74" y="183.99" width="5.92" height="35.46"/><rect class="cls-6" x="123.72" y="188.74" width="5.92" height="30.7"/><rect class="cls-9" x="134.7" y="206.14" width="5.92" height="13.31"/><path class="cls-9" d="M73.68,173.2l.16,11.56L74,196.32q.1,11.56.11,23.12l-.38-.35h19l19,0,19,.12,19,.2-19,.21-19,.12-19,0H73.29v-.36q0-11.55.11-23.12l.11-11.56Z"/><rect class="cls-9" x="79.81" y="221.89" width="5.92" height="0.49"/><rect class="cls-9" x="90.79" y="221.89" width="5.92" height="0.49"/><rect class="cls-9" x="101.76" y="221.89" width="5.92" height="0.49"/><rect class="cls-9" x="112.74" y="221.89" width="5.92" height="0.49"/><rect class="cls-9" x="123.72" y="221.89" width="5.92" height="0.49"/><rect class="cls-9" x="134.7" y="221.89" width="5.92" height="0.49"/><rect class="cls-1" x="164.25" y="177.05" width="21.36" height="1.16"/><rect class="cls-1" x="164.25" y="179.47" width="17.3" height="1.16"/><rect class="cls-8" x="158.06" y="177.03" width="3.62" height="3.62"/><rect class="cls-1" x="164.25" y="188.94" width="21.36" height="1.16"/><rect class="cls-1" x="164.25" y="191.37" width="17.3" height="1.16"/><rect class="cls-6" x="158.06" y="188.93" width="3.62" height="3.62"/><rect class="cls-1" x="164.25" y="200.84" width="21.36" height="1.16"/><rect class="cls-1" x="164.25" y="203.26" width="17.3" height="1.16"/><rect class="cls-9" x="158.06" y="200.82" width="3.62" height="3.62"/><path class="cls-10" d="M163.65,242.84a6.37,6.37,0,0,1-.08,1,6.56,6.56,0,1,1,.08-1Z"/><path class="cls-8" d="M163.65,242.84a6.37,6.37,0,0,1-.08,1l-6.64-1v-6.72a6.72,6.72,0,0,1,6.72,6.72Z"/><circle class="cls-5" cx="156.93" cy="242.84" r="4.65"/><rect class="cls-6" x="154.99" y="241.81" width="3.87" height="0.55"/><rect class="cls-11" x="154.04" y="243.32" width="5.78" height="0.55"/><path class="cls-10" d="M163.65,260.18a6.73,6.73,0,0,1-4.31,6.28,6.87,6.87,0,0,1-2.41.44,6.72,6.72,0,1,1,6.72-6.72Z"/><path class="cls-8" d="M163.65,260.18a6.73,6.73,0,0,1-4.31,6.28l-2.41-6.28v-6.71a6.71,6.71,0,0,1,6.72,6.71Z"/><circle class="cls-5" cx="156.93" cy="260.18" r="4.65"/><rect class="cls-6" x="154.99" y="259.15" width="3.87" height="0.55"/><rect class="cls-11" x="154.04" y="260.67" width="5.78" height="0.55"/><path class="cls-10" d="M163.65,277.53a6.72,6.72,0,1,1-.89-3.34A6.77,6.77,0,0,1,163.65,277.53Z"/><path class="cls-8" d="M163.65,277.53a6.72,6.72,0,0,1-11.08,5.11l4.36-5.11v-6.72a6.72,6.72,0,0,1,6.72,6.72Z"/><circle class="cls-5" cx="156.93" cy="277.53" r="4.65" transform="translate(-137.67 399.44) rotate(-83)"/><rect class="cls-6" x="154.99" y="276.5" width="3.87" height="0.55"/><rect class="cls-11" x="154.04" y="278.02" width="5.78" height="0.55"/><rect class="cls-1" x="167.74" y="240.77" width="18.62" height="0.52"/><rect class="cls-1" x="167.74" y="242.58" width="18.62" height="0.52"/><rect class="cls-1" x="167.74" y="244.39" width="18.62" height="0.52"/><rect class="cls-1" x="167.74" y="258.12" width="18.62" height="0.52"/><rect class="cls-1" x="167.74" y="259.93" width="18.62" height="0.52"/><rect class="cls-1" x="167.74" y="261.74" width="18.62" height="0.52"/><rect class="cls-1" x="167.74" y="275.46" width="18.62" height="0.52"/><rect class="cls-1" x="167.74" y="277.27" width="18.62" height="0.52"/><rect class="cls-1" x="167.74" y="279.08" width="18.62" height="0.52"/><rect class="cls-5" x="172.8" y="209.71" width="53.8" height="52.1"/><path class="cls-12" d="M226.6,209.71l.16,26,.08,26.12v.24h-.24l-53.8.13h-.37v-.37l.12-52.1v-.25h.25l27,.08Zm0,0-27,.17L172.8,210l.25-.25.12,52.1-.37-.37,53.8.12-.25.25.08-26Z"/><rect class="cls-6" x="172.8" y="209.71" width="53.8" height="3.3"/><path class="cls-7" d="M175.92,211.36a.63.63,0,1,1-.63-.62A.63.63,0,0,1,175.92,211.36Z"/><path class="cls-5" d="M178.48,211.36a.63.63,0,1,1-.63-.62A.63.63,0,0,1,178.48,211.36Z"/><path class="cls-8" d="M181,211.36a.63.63,0,1,1-.63-.62A.63.63,0,0,1,181,211.36Z"/><path class="cls-8" d="M201.78,221.31l-3.54,12.39v12.87a12.88,12.88,0,1,1,3.54-25.26Z"/><path class="cls-7" d="M205.87,244.07a12.82,12.82,0,0,1-7.63,2.5V233.7Z"/><path class="cls-8" d="M211.12,233.7a12.88,12.88,0,0,1-5.25,10.37l-7.63-10.37,10-8.1A12.82,12.82,0,0,1,211.12,233.7Z"/><path class="cls-6" d="M211.12,221.43l-10,8.09,3.53-12.38A12.88,12.88,0,0,1,211.12,221.43Z"/><rect class="cls-6" x="185.1" y="252.82" width="2.08" height="2.08"/><rect class="cls-10" x="188.62" y="252.82" width="22.77" height="0.61"/><rect class="cls-10" x="188.62" y="254.28" width="14.71" height="0.61"/><rect class="cls-5" x="10.72" y="146.13" width="67.02" height="52.1"/><path class="cls-12" d="M77.74,146.13l.16,26L78,198.23v.24h-.24l-67,.13h-.37v-.37l.12-52.1v-.24h.25L44.3,146Zm0,0-33.58.17-33.44.08.24-.25.12,52.1-.36-.37,67,.12-.25.25.08-26Z"/><rect class="cls-8" x="31.08" y="189.21" width="2.08" height="2.08"/><rect class="cls-10" x="34.6" y="189.21" width="22.77" height="0.61"/><rect class="cls-10" x="34.6" y="190.67" width="14.71" height="0.61"/><path class="cls-10" d="M18.19,160c8.68-.05,17.36,0,26-.06s17.35,0,26,.06c-8.68,0-17.35,0-26,.06S26.87,160,18.19,160Z"/><path class="cls-10" d="M18.19,165c8.68,0,17.36,0,26-.06s17.35,0,26,.06c-8.68.05-17.35,0-26,.06S26.87,165.06,18.19,165Z"/><path class="cls-10" d="M18.19,170.06c8.68-.06,17.36,0,26-.06s17.35,0,26,.06c-8.68.05-17.35,0-26,.06S26.87,170.11,18.19,170.06Z"/><path class="cls-10" d="M18.19,175.11c8.68-.06,17.36,0,26-.07s17.35,0,26,.07c-8.68,0-17.35,0-26,.06S26.87,175.16,18.19,175.11Z"/><path class="cls-10" d="M18.19,180.16c8.68-.06,17.36,0,26-.07s17.35,0,26,.07c-8.68.05-17.35,0-26,.06S26.87,180.21,18.19,180.16Z"/><path class="cls-10" d="M28.67,156.68c.08,4.72.06,9.43.09,14.15s0,9.43-.09,14.15c-.07-4.72-.05-9.43-.09-14.15S28.6,161.4,28.67,156.68Z"/><path class="cls-10" d="M37.68,156.68c.07,4.72.06,9.43.09,14.15s0,9.43-.09,14.15c-.08-4.72-.06-9.43-.09-14.15S37.6,161.4,37.68,156.68Z"/><path class="cls-10" d="M46.68,156.68c.08,4.72.06,9.43.09,14.15s0,9.43-.09,14.15c-.07-4.72,0-9.43-.09-14.15S46.61,161.4,46.68,156.68Z"/><path class="cls-10" d="M55.69,156.68c.08,4.72.06,9.43.09,14.15s0,9.43-.09,14.15c-.08-4.72-.06-9.43-.09-14.15S55.61,161.4,55.69,156.68Z"/><path class="cls-10" d="M64.69,156.68c.08,4.72.06,9.43.09,14.15s0,9.43-.09,14.15c-.07-4.72,0-9.43-.08-14.15S64.62,161.4,64.69,156.68Z"/><path class="cls-8" d="M19.5,176.49c1.59,0,2.54-5.13,4.79-5.13s2.49,3.75,4.38,3.75,1.84-6.58,4.39-6.58,1.95,2.67,4.62,2.67S39.34,165,42.12,165s1.66,8.53,4.56,8.53c1.84,0,2.55-2.71,4.74-2.71,1.45,0,2.31,1.36,4.21,1.36S57.94,167,60.31,167s2.64,3.09,4.38,3.09S67.06,165,70.26,165v20H19.5Z"/><path class="cls-8" d="M19.5,176.74v-.49c.48,0,1.14-1.2,1.63-2.08.83-1.5,1.69-3,3.16-3s2.11,1.14,2.73,2.14c.48.79,1,1.6,1.65,1.6s1.11-1.58,1.48-2.73c.62-1.89,1.25-3.84,2.91-3.84a2.87,2.87,0,0,1,2.56,1.44A2.31,2.31,0,0,0,37.68,171c1,0,1.42-1.44,1.81-2.84.46-1.65.93-3.35,2.63-3.35s2.12,2.14,2.58,4.41c.37,1.84.83,4.12,2,4.12.69,0,1.26-.56,1.86-1.16a4,4,0,0,1,2.88-1.55,4.12,4.12,0,0,1,2,.67,4.39,4.39,0,0,0,2.18.69c.66,0,1.26-1.24,1.74-2.24.71-1.46,1.44-3,2.94-3a3.51,3.51,0,0,1,2.88,1.85c.47.63.92,1.23,1.5,1.23s1.07-1,1.57-1.8c.86-1.45,1.92-3.25,4-3.25v.5c-1.6,0-2.52,1.56-3.34,2.93-.69,1.18-1.25,2.11-2.23,2.11s-1.56-.72-2.14-1.49-1.18-1.59-2.24-1.59-1.67,1.4-2.27,2.64-1.24,2.57-2.41,2.57a5.14,5.14,0,0,1-2.62-.8,3.45,3.45,0,0,0-1.59-.55,3.46,3.46,0,0,0-2.3,1.33,3.47,3.47,0,0,1-2.44,1.38c-1.77,0-2.22-2.21-2.69-4.55-.36-1.77-.8-4-1.87-4s-1.55,1.56-1.93,2.94c-.46,1.67-.9,3.25-2.51,3.25A3,3,0,0,1,35,170a2.21,2.21,0,0,0-1.93-1.18c-1.09,0-1.71,1.92-2.21,3.46-.57,1.74-1,3.11-2.18,3.11s-1.71-.92-2.31-1.9-1.13-1.84-2.07-1.84-1.82,1.52-2.5,2.74S20.47,176.74,19.5,176.74Z"/><path class="cls-10" d="M19.5,157c.06,4.67.11,9.34.11,14l.06,14-.17-.11,25.38,0,12.69,0,12.69.06-12.69.07-12.69,0-25.38,0h-.17V185l.06-14C19.39,166.32,19.44,161.65,19.5,157Z"/><rect class="cls-6" x="10.72" y="146.13" width="67.02" height="3.3"/><path class="cls-7" d="M13.84,147.78a.63.63,0,1,1-.63-.62A.63.63,0,0,1,13.84,147.78Z"/><path class="cls-5" d="M16.4,147.78a.63.63,0,1,1-.63-.62A.63.63,0,0,1,16.4,147.78Z"/><path class="cls-8" d="M19,147.78a.63.63,0,1,1-.63-.62A.63.63,0,0,1,19,147.78Z"/><g id="Layer_7_copy" data-name="Layer 7 copy"><path class="cls-8" d="M208.72,319.47c.75,0,1.51-.06,2.26-.07,1.42,0,2.84,0,4.26-.06a1.42,1.42,0,0,1,1.19.51,6.27,6.27,0,0,1,.42.48,8.86,8.86,0,0,1,1.7,5.6h-1.18l-8.09.14-6.09,0c-1.43,0-2.85,0-4.28,0,0-.16-.09-.29-.26-.33l-.88-.2a11.72,11.72,0,0,1-3.32-1.45,10.29,10.29,0,0,1-2.37-2.24,4.38,4.38,0,0,1-1-2.09l1.3-.08c.3,0,.6,0,.9,0,2,0,4.07-.1,6.1-.13C202.47,319.54,205.59,319.51,208.72,319.47Z"/><path class="cls-13" d="M199.91,275.84a14.92,14.92,0,0,1,.25,4,6,6,0,0,1-2-.27,13.46,13.46,0,0,1-3.24-1.15c-.2-.11-.42-.28-.68-.12,0,.06-.08.11-.08.16a6.34,6.34,0,0,0,.11,2.08,2.18,2.18,0,0,1,0,.63v13.19a5.87,5.87,0,0,1-2-.37,3.54,3.54,0,0,1-.75-2.19c0-.51,0-1,0-1.54l0-12.7c0-1.46,0-2.91,0-4.36a4,4,0,0,1,.77-2.45l.14-.16,0,0,.16-.16h0l.32-.22h0l.38-.17h0l.17.06c.07.65.16,1.31.19,2a1,1,0,0,0,.53.88c.64.34,1.26.71,1.9,1s1.57.78,2.35,1.17C199,275.35,199.47,275.6,199.91,275.84Z"/><path class="cls-8" d="M200.18,298.09c0,.42.1.84.11,1.26q0,1.81.06,3.63c0,2.6.09,5.2.11,7.8,0,.6-.05,1.21-.08,1.81l-3.32-.14-1.79,0c0-1.39,0-2.78,0-4.18,0-.27,0-.54-.05-.81s-.1-.71-.12-1.07c-.08-1.84.08-3.68-.15-5.53a27.85,27.85,0,0,1,0-3.54,1.08,1.08,0,0,1,0-.36,2.79,2.79,0,0,0,.13-1.25,3.56,3.56,0,0,1,.2-1.25l1.6-.07c.11.28.21.57.31.85a6.48,6.48,0,0,0,1,1.82A2.52,2.52,0,0,0,200.18,298.09Z"/><path class="cls-13" d="M198.91,326.08c1.43,0,2.85,0,4.28,0l6.09,0,8.09-.14h1.18a3.65,3.65,0,0,1-.36,2,.52.52,0,0,1-.5.33h-.55l-27.82.41c-1,0-2.06.06-3.09.07-.71,0-.82-.08-1-.76a4.43,4.43,0,0,1-.29-1.69l1.09,0c2.91,0,5.83,0,8.74-.05,1.36,0,2.72-.1,4.08-.15Z"/><path class="cls-13" d="M195.27,294.43a3.56,3.56,0,0,0-.2,1.25,2.79,2.79,0,0,1-.13,1.25,1.08,1.08,0,0,0,0,.36,27.85,27.85,0,0,0,0,3.54c.23,1.85.07,3.69.15,5.53,0,.36.08.71.12,1.07s.05.54.05.81c0,1.4,0,2.79,0,4.18a9.49,9.49,0,0,0-2.2.21l-1.41,0c0-.78-.08-1.57-.1-2.36-.11-4.2-.29-8.41-.13-12.62a10,10,0,0,1,.37-2.6,2.12,2.12,0,0,1,.59-1.1,5.87,5.87,0,0,0,2,.37Z"/><path class="cls-8" d="M195.27,294.43l-.93-.07V281.17a2.18,2.18,0,0,0,0-.63,6.34,6.34,0,0,1-.11-2.08s.06-.1.08-.16c.26-.16.48,0,.68.12a13.46,13.46,0,0,0,3.24,1.15,6,6,0,0,0,2,.27c0,.75,0,1.5,0,2.24,0,1.23,0,2.46,0,3.69a2.43,2.43,0,0,0-2.61,1.38,7.24,7.24,0,0,0-.49,1.06,9.92,9.92,0,0,0-.44,4.46c.06.56.16,1.12.24,1.69Z"/><path class="cls-13" d="M198.91,326.08l-.09,0c-1.36,0-2.72.14-4.08.15-2.91,0-5.83,0-8.74.05l-1.09,0a12.3,12.3,0,0,1,.15-4.76,9.12,9.12,0,0,1,.36-1.12.87.87,0,0,1,1-.67c.36,0,.73,0,1.09,0l1.16,0h2.43a4.38,4.38,0,0,0,1,2.09,10.29,10.29,0,0,0,2.37,2.24,11.72,11.72,0,0,0,3.32,1.45l.88.2C198.82,325.79,198.88,325.92,198.91,326.08Z"/><path class="cls-8" d="M193.07,312.63a9.49,9.49,0,0,1,2.2-.21l1.79,0,3.32.14,1,.23a3.11,3.11,0,0,1,2.54,2.8,4.9,4.9,0,0,1,0,1.79,11,11,0,0,0-2.67-.46c-2.51-.08-5,0-7.53,0a1.27,1.27,0,0,0-.26,0l-.17-.08a3.19,3.19,0,0,1,.6-.12c.67,0,1.33,0,2,0a2.41,2.41,0,0,0,.74-.05c-.11-.1-.16-.18-.23-.21a8.56,8.56,0,0,1-1.74-1.11,11.79,11.79,0,0,1-.83-.93A2.28,2.28,0,0,1,193.07,312.63Z"/><path class="cls-13" d="M200.35,285.89a2.74,2.74,0,0,1,1.36,1.15,6.53,6.53,0,0,1,1,2.23,11.76,11.76,0,0,1,.17,5.31,6,6,0,0,1-.68,1.88,6,6,0,0,1-.55.7c-.11,0-.26,0-.34-.11a11.3,11.3,0,0,1-1.31-1.37,5.75,5.75,0,0,1-1.07-3.13,13.11,13.11,0,0,1,.13-3.8,6.07,6.07,0,0,1,.85-2.17C200.07,286.36,200.21,286.12,200.35,285.89Z"/><path class="cls-14" d="M200.35,285.89c-.14.23-.28.47-.43.69a6.07,6.07,0,0,0-.85,2.17,13.11,13.11,0,0,0-.13,3.8,5.75,5.75,0,0,0,1.07,3.13,11.3,11.3,0,0,0,1.31,1.37c.08.08.23.08.34.11a2.19,2.19,0,0,1-1.48.93,2.52,2.52,0,0,1-2-1.06,6.48,6.48,0,0,1-1-1.82c-.1-.28-.2-.57-.31-.85-.08-.57-.18-1.13-.24-1.69a9.92,9.92,0,0,1,.44-4.46,7.24,7.24,0,0,1,.49-1.06,2.43,2.43,0,0,1,2.61-1.38Z"/><path class="cls-15" d="M193.43,317a1.27,1.27,0,0,1,.26,0c2.51-.05,5-.11,7.53,0a11,11,0,0,1,2.67.46,2.17,2.17,0,0,1,.84,2,4.28,4.28,0,0,0,1.37.08c.43,0,.85,0,1.27,0s.9,0,1.35,0c-3.13,0-6.25.07-9.37.12-2,0-4.07.09-6.1.13-.3,0-.6,0-.9,0,.2-.19.45-.14.69-.14l3.08,0,.51,0c-.16-.13-.21-.21-.28-.23a6,6,0,0,1-1.95-1.11A2,2,0,0,1,193.43,317Z"/><path class="cls-8" d="M193.07,312.63a2.28,2.28,0,0,0,.72,1.88,11.79,11.79,0,0,0,.83.93,8.56,8.56,0,0,0,1.74,1.11c.07,0,.12.11.23.21a2.41,2.41,0,0,1-.74.05c-.66,0-1.32,0-2,0a3.19,3.19,0,0,0-.6.12c-.54,0-1.08,0-1.61.08a8.93,8.93,0,0,0-3.5.66,6.14,6.14,0,0,1,0-2.34,2.59,2.59,0,0,1,1.73-2.14c.45-.16.93-.25,1.4-.39a3.31,3.31,0,0,0,.41-.14Z"/><path class="cls-8" d="M199.91,275.84c-.44-.24-.89-.49-1.34-.72-.78-.39-1.57-.77-2.35-1.17s-1.26-.7-1.9-1a1,1,0,0,1-.53-.88c0-.65-.12-1.31-.19-2l1.82-.05a4.79,4.79,0,0,1,2,1.16A7.38,7.38,0,0,1,199.91,275.84Z"/><path class="cls-16" d="M188.15,317.68a8.93,8.93,0,0,1,3.5-.66c.53,0,1.07,0,1.61-.08l.17.08a2,2,0,0,0,1,1.15,6,6,0,0,0,1.95,1.11c.07,0,.12.1.28.23l-.51,0-3.08,0c-.24,0-.49-.05-.69.14l-1.3.08h-2.43l-1.16,0A2.09,2.09,0,0,1,188.15,317.68Z"/><path class="cls-17" d="M195.42,270l-1.82.05-.17-.06A2.21,2.21,0,0,1,195.42,270Z"/><path class="cls-17" d="M193.06,270.18l-.32.22Z"/><path class="cls-17" d="M193.44,270l-.38.17A.31.31,0,0,1,193.44,270Z"/><path class="cls-17" d="M192.54,270.59l-.14.16Z"/><path class="cls-17" d="M192.72,270.41l-.16.16Z"/><path class="cls-8" d="M150.74,326a2.33,2.33,0,0,1-.06-.35,9.47,9.47,0,0,1,1.39-4.83c.15-.23.32-.45.48-.67a1.83,1.83,0,0,1,1.64-.76c3.05,0,6.11,0,9.17,0,.39,0,.78,0,1.18,0,.23,0,.47.06.71.06H170c.81,0,1.63,0,2.44,0l4.73,0,1.08.06c-.15.33-.28.67-.44,1a9.41,9.41,0,0,1-3.49,3.7,6.52,6.52,0,0,1-1.38.67c-.82.29-1.66.51-2.49.78-.09,0-.14.17-.2.26-.63,0-1.27.1-1.9.1-2.63,0-5.26,0-7.89,0l-9.25,0C151,326,150.89,326,150.74,326Z"/><path class="cls-13" d="M175.19,269.75a1.45,1.45,0,0,1,.93.68,3.78,3.78,0,0,1,.77,2.09c.08,5.93.19,11.86.27,17.79a16.49,16.49,0,0,1-.07,1.72,2.15,2.15,0,0,1-.54,1.42,2.82,2.82,0,0,1-1.9.59,2.06,2.06,0,0,1-.17-1.15q-.06-6.48-.11-13c0-.24,0-.48,0-.72a3.33,3.33,0,0,0-.1-1.36,4.69,4.69,0,0,0-.44.2,13.33,13.33,0,0,1-3.82,1.37c-.53.11-1.05.25-1.58.38l0-.18v-.17a14.34,14.34,0,0,1,.15-3.4l0-.26,0-.17,3.87-2a9,9,0,0,0,1.69-1.05,1.22,1.22,0,0,0,.51-.9c0-.45.1-.9.13-1.36A.62.62,0,0,1,175.19,269.75Z"/><path class="cls-8" d="M168.72,312.35c0-.33-.08-.66-.08-1q0-6.45,0-12.91c0-.18,0-.36,0-.54a2.84,2.84,0,0,0,2.26-1.49,13.59,13.59,0,0,0,.68-1.38c.13-.3.23-.62.34-.94l1.54.08a4.93,4.93,0,0,1,.33,1.86,40.2,40.2,0,0,1,.1,4.25c-.1,1.65-.09,3.31-.1,5,0,1.84,0,3.69,0,5.53,0,.45,0,.9-.05,1.35a.61.61,0,0,1-.18.05Z"/><path class="cls-13" d="M150.74,326c.15,0,.29,0,.44,0l9.25,0c2.63,0,5.26,0,7.89,0,.63,0,1.27-.06,1.9-.1a2.17,2.17,0,0,0,.43.08c1.39,0,2.79,0,4.18,0l8.89,0c.22,0,.43,0,.64,0a5.38,5.38,0,0,1-.31,1.78c-.19.55-.29.62-.85.64h-.9l-30,0c-1.11,0-1.21-.07-1.47-1.16A2.21,2.21,0,0,1,150.74,326Z"/><path class="cls-13" d="M173.78,312.14c0-.45.05-.9.05-1.35,0-1.84,0-3.69,0-5.53,0-1.66,0-3.32.1-5a40.2,40.2,0,0,0-.1-4.25,4.93,4.93,0,0,0-.33-1.86l1.13-.14a2.82,2.82,0,0,0,1.9-.59,2.44,2.44,0,0,0,.14.5,5.39,5.39,0,0,1,.64,2.16,23.9,23.9,0,0,1,.18,2.53c0,3.9,0,7.8,0,11.7v2.08l-1.35-.09c-.14,0-.29-.06-.43-.07Z"/><path class="cls-8" d="M174.65,294l-1.13.14L172,294.1c0-.27.05-.54.1-.8a11.18,11.18,0,0,0-.26-4.95,4.66,4.66,0,0,0-1.24-2.19,1.82,1.82,0,0,0-1.91-.53.47.47,0,0,0-.13-.11c0-1.57-.08-3.14-.11-4.7,0-.27,0-.54,0-.81l0-.24h0c.53-.13,1.05-.27,1.58-.38a13.33,13.33,0,0,0,3.82-1.37,4.69,4.69,0,0,1,.44-.2,3.33,3.33,0,0,1,.1,1.36c0,.24,0,.48,0,.72q.06,6.49.11,13A2.06,2.06,0,0,0,174.65,294Z"/><path class="cls-13" d="M184.36,326c-.21,0-.42,0-.64,0l-8.89,0c-1.39,0-2.79,0-4.18,0a2.17,2.17,0,0,1-.43-.08c.06-.09.11-.24.2-.26.83-.27,1.67-.49,2.49-.78a6.52,6.52,0,0,0,1.38-.67,9.41,9.41,0,0,0,3.49-3.7c.16-.32.29-.66.44-1l1.32,0,2.13,0,1.27,0a.73.73,0,0,1,.77.5,10.68,10.68,0,0,1,.42,1.2A13,13,0,0,1,184.36,326Z"/><path class="cls-8" d="M173.78,312.14l1.93.12c.14,0,.29.05.43.07a5.2,5.2,0,0,1-1.92,3.05,9.24,9.24,0,0,1-1.89,1.22l-.81,0c-1.27,0-2.54.07-3.8.12a6.76,6.76,0,0,0-2.47.54c0-.6-.08-1.2,0-1.8a3,3,0,0,1,2.13-2.74c.45-.15.92-.28,1.37-.42l4.88-.16A.61.61,0,0,0,173.78,312.14Z"/><path class="cls-13" d="M168.54,285.52a.47.47,0,0,1,.13.11c-.14.26,0,.46.13.68a9.85,9.85,0,0,1,.69,1.47,13.25,13.25,0,0,1,.38,4.48,8.29,8.29,0,0,1-.6,2.35,4.3,4.3,0,0,1-2,2.45,3.25,3.25,0,0,1-1-1.68,10.74,10.74,0,0,1,.2-7.37A4.25,4.25,0,0,1,168.54,285.52Z"/><path class="cls-14" d="M167.25,297.06a4.3,4.3,0,0,0,2-2.45,8.29,8.29,0,0,0,.6-2.35,13.25,13.25,0,0,0-.38-4.48,9.85,9.85,0,0,0-.69-1.47c-.1-.22-.27-.42-.13-.68a1.82,1.82,0,0,1,1.91.53,4.66,4.66,0,0,1,1.24,2.19,11.18,11.18,0,0,1,.26,4.95c-.05.26-.07.53-.1.8s-.21.64-.34.94a13.59,13.59,0,0,1-.68,1.38,2.84,2.84,0,0,1-2.26,1.49A2.54,2.54,0,0,1,167.25,297.06Z"/><path class="cls-8" d="M172.33,316.6a9.24,9.24,0,0,0,1.89-1.22,5.2,5.2,0,0,0,1.92-3.05l1.35.09c.5.12,1,.2,1.5.35a2.65,2.65,0,0,1,2,2.47,5.11,5.11,0,0,1-.07,2.06,9,9,0,0,0-1.37-.42,20.83,20.83,0,0,0-3.87-.17l-1,0Z"/><path class="cls-15" d="M172.33,316.6l2.42.06,1,0a4,4,0,0,1-1.81,1.7c-.38.2-.76.38-1.13.6a2.46,2.46,0,0,0-.38.35c-.81,0-1.63,0-2.44,0h-4.72c-.24,0-.48,0-.71-.06,0-.11,0-.23,0-.35a1.63,1.63,0,0,1,.76-1.67,6.76,6.76,0,0,1,2.47-.54c1.26,0,2.53-.08,3.8-.12Z"/><path class="cls-8" d="M175.19,269.75a.62.62,0,0,0-.31.52c0,.46-.1.91-.13,1.36a1.22,1.22,0,0,1-.51.9,9,9,0,0,1-1.69,1.05l-3.87,2a7.3,7.3,0,0,1,3.26-5.33,3.6,3.6,0,0,1,2.93-.67A1.87,1.87,0,0,1,175.19,269.75Z"/><path class="cls-14" d="M172.41,319.36a2.46,2.46,0,0,1,.38-.35c.37-.22.75-.4,1.13-.6a4,4,0,0,0,1.81-1.7,20.83,20.83,0,0,1,3.87.17,9,9,0,0,1,1.37.42,2,2,0,0,1,.7,2.07l-2.13,0-1.32,0-1.08-.06Z"/><path class="cls-8" d="M168.66,275.77l0,.26Z"/><path class="cls-8" d="M168.46,279.43v0Z"/><path class="cls-8" d="M168.49,279.77l0,.24Z"/><path class="cls-16" d="M116.74,239.2a9.81,9.81,0,0,1,4.17-3.9l.56-.27a2.08,2.08,0,0,0,.36-.05,8.43,8.43,0,0,1,3.69-.51,2.08,2.08,0,0,0,.35,0l.45,0,1,.35a5.86,5.86,0,0,1,2.52,1.66,1.77,1.77,0,0,0-.15.42c0,.93,0,1.86-.15,2.79a11.26,11.26,0,0,1-1,3.19,4.45,4.45,0,0,1-.72,1.15,9.06,9.06,0,0,1-3.5,2.68,8.12,8.12,0,0,1-2.1.49,4.94,4.94,0,0,1-2.71-.61,3.68,3.68,0,0,1-2-2,5.4,5.4,0,0,1-.23-.49,7.55,7.55,0,0,1-.35-1.4c0-.42-.13-.83-.16-1.25a7.51,7.51,0,0,1,.14-1.33,2.74,2.74,0,0,0,0-.64C116.91,239.39,116.8,239.3,116.74,239.2Zm7.22-2.88a5.08,5.08,0,0,0-3,.83,2,2,0,0,0-.72,2.11c.08.63.66.75,1.11,1a1.43,1.43,0,0,0,1,0,11,11,0,0,1,2.67-.51,2.16,2.16,0,0,0,.86-.25,1.21,1.21,0,0,0,.45-2.11A3.47,3.47,0,0,0,124,236.32Z"/><path class="cls-8" d="M142.23,251.64a2.15,2.15,0,0,1,1.5-.74,9.9,9.9,0,0,1,1.63-.09,47.23,47.23,0,0,1,5.7.44,10.6,10.6,0,0,1,2.28.58,5,5,0,0,1,2.39,1.87,4.18,4.18,0,0,1,.75,3l-1.33.19-1.43.2a16.63,16.63,0,0,1-2.31.31,31.86,31.86,0,0,1-5.61-.15,11.57,11.57,0,0,1-2-.45c-.54-.2-1.06-.44-1.58-.67.07-.36.15-.72.23-1.07A4.44,4.44,0,0,0,142.23,251.64Z"/><path class="cls-8" d="M142.23,251.64a4.44,4.44,0,0,1,.2,3.43,1.67,1.67,0,0,0-.94.3,3.85,3.85,0,0,1-1.47.41,10.83,10.83,0,0,1-4.82-.63,22.34,22.34,0,0,1-5.7-3.14,2.2,2.2,0,0,1-.33-.43c.41-.31.79-.55,1.12-.85a7.75,7.75,0,0,0,2.25-3.35c.15-.45.24-.93.36-1.39a25.69,25.69,0,0,0,4.24,2.76c.73.36,1.46.72,2.2,1.06A10,10,0,0,1,142.23,251.64Z"/><path class="cls-13" d="M132.9,246c-.12.46-.21.94-.36,1.39a7.75,7.75,0,0,1-2.25,3.35c-.33.3-.71.54-1.12.85a2.2,2.2,0,0,0,.33.43,22.34,22.34,0,0,0,5.7,3.14,10.83,10.83,0,0,0,4.82.63,3.85,3.85,0,0,0,1.47-.41,1.67,1.67,0,0,1,.94-.3c-.08.35-.16.71-.23,1.07l-.29.53a10.25,10.25,0,0,0-2.41-.15,4,4,0,0,0-1.64.4,1.42,1.42,0,0,0-.92,1c-.26.37-.06.72,0,1.08a10,10,0,0,1-2.5-.79,28.64,28.64,0,0,1-9.39-6.65,3.17,3.17,0,0,1-.28-.36l.42-.17a10.14,10.14,0,0,0,6-5.79c.08-.19.19-.37.29-.56Z"/><path class="cls-16" d="M116.74,239.2c.06.1.17.19.19.29a2.74,2.74,0,0,1,0,.64,7.51,7.51,0,0,0-.14,1.33c0,.42.12.83.16,1.25a7.55,7.55,0,0,0,.35,1.4,5.4,5.4,0,0,0,.23.49,3.68,3.68,0,0,0,2,2,4.94,4.94,0,0,0,2.71.61,8.12,8.12,0,0,0,2.1-.49,9.06,9.06,0,0,0,3.5-2.68,4.45,4.45,0,0,0,.72-1.15,11.26,11.26,0,0,0,1-3.19c.11-.93.13-1.86.15-2.79a1.77,1.77,0,0,1,.15-.42,2.93,2.93,0,0,1,.95,1.25c0,1.09,0,2.19,0,3.28a4.42,4.42,0,0,1-.06.81,12.08,12.08,0,0,1-.66,2.35,8,8,0,0,1-5,5,10.5,10.5,0,0,1-2.82.59,6.66,6.66,0,0,1-3.34-.69,5.94,5.94,0,0,1-2.92-2.74c-.14-.26-.32-.5-.48-.75l-.21-.54c0-.49,0-1,0-1.45A8.65,8.65,0,0,1,116.74,239.2Z"/><path class="cls-16" d="M115.48,245.59c.16.25.34.49.48.75a5.94,5.94,0,0,0,2.92,2.74,6.66,6.66,0,0,0,3.34.69,10.5,10.5,0,0,0,2.82-.59,8,8,0,0,0,5-5,12.08,12.08,0,0,0,.66-2.35,4.42,4.42,0,0,0,.06-.81c0-1.09,0-2.19,0-3.28a5.87,5.87,0,0,1,1.07,2.93,8.71,8.71,0,0,1-.22,3.41c0,.2-.09.41-.13.61s-.21.37-.29.56a10.14,10.14,0,0,1-6,5.79l-.42.17c-.39.07-.77.15-1.16.2a7.27,7.27,0,0,1-6.18-1.87l-.14-.11-1.3-1.85A5.82,5.82,0,0,1,115.48,245.59Z"/><path class="cls-13" d="M141.91,256.67l.29-.53c.52.23,1,.47,1.58.67a11.57,11.57,0,0,0,2,.45,31.86,31.86,0,0,0,5.61.15,16.63,16.63,0,0,0,2.31-.31l1.43-.2,1.33-.19a3.65,3.65,0,0,1-2.34,3.44,4.6,4.6,0,0,1-1.22.34,30.35,30.35,0,0,1-6.67.1c-.12,0-.23-.06-.35-.08a1.5,1.5,0,0,0-.31-1.86,3.89,3.89,0,0,0-1.88-1.36C143.13,257,142.51,256.87,141.91,256.67Z"/><path class="cls-8" d="M116,247.59l1.3,1.85c-.35.08-.7.19-1,.25a13.38,13.38,0,0,1-4.42.12,4.13,4.13,0,0,1-3.29-2.65,8.43,8.43,0,0,1-.49-4.36,1.77,1.77,0,0,1,.53-1.21,5.77,5.77,0,0,1,.36.7c.24.65.44,1.31.68,2a4.82,4.82,0,0,0,3.42,3.16,5.79,5.79,0,0,0,1.6.19C115.1,247.58,115.56,247.59,116,247.59Z"/><path class="cls-8" d="M126.32,234.49l-.45,0c-.16-.18-.38-.15-.59-.15l-1.47,0-.48-.91a8,8,0,0,0-1.76-2.4,2.5,2.5,0,0,0-1.36-.67,2.87,2.87,0,0,0-2.15.52c-.28.21-.61.38-.87.54a1.13,1.13,0,0,1-.24-.11,3.81,3.81,0,0,1-.39-.49.67.67,0,0,0-.53-.31,6.28,6.28,0,0,1,.59-.67,8.4,8.4,0,0,1,3.14-1.72,3.21,3.21,0,0,1,3.79,1.17,17,17,0,0,1,1.28,2A13.89,13.89,0,0,1,126.32,234.49Z"/><path class="cls-8" d="M116,230.46a.67.67,0,0,1,.53.31,3.81,3.81,0,0,0,.39.49,1.13,1.13,0,0,0,.24.11c.26-.16.59-.33.87-.54a2.87,2.87,0,0,1,2.15-.52,2.5,2.5,0,0,1,1.36.67,8,8,0,0,1,1.76,2.4l.48.91,1.47,0c.21,0,.43,0,.59.15a2.08,2.08,0,0,1-.35,0,8.43,8.43,0,0,0-3.69.51,2.08,2.08,0,0,1-.36.05c-.27-.51-.51-1-.82-1.51s-.54-.48-1-.25c-.24.11-.46.27-.7.4a6.09,6.09,0,0,1-.8.42,1.64,1.64,0,0,1-1.91-.4,2.3,2.3,0,0,1-.34-3l.14-.19Z"/><path class="cls-8" d="M116,247.59c-.45,0-.91,0-1.36,0a5.79,5.79,0,0,1-1.6-.19,4.82,4.82,0,0,1-3.42-3.16c-.24-.65-.44-1.31-.68-2a5.77,5.77,0,0,0-.36-.7,1.64,1.64,0,0,1,1.27-.75,2.4,2.4,0,0,1,1.58.2,1.78,1.78,0,0,1,.94,1.46,10.1,10.1,0,0,1,0,1.35c0,1.12.18,1.27,1.32,1.32a13.14,13.14,0,0,0,1.53-.12l.21.54A5.82,5.82,0,0,0,116,247.59Z"/><path class="cls-18" d="M145.59,258.65a1.5,1.5,0,0,1,.31,1.86,3.66,3.66,0,0,1-2.72,1.06,9.08,9.08,0,0,1-4.8-1.18A3.67,3.67,0,0,1,137,259c-.08-.36-.28-.71,0-1.08l.82.36c.43.21.85.44,1.29.62a8.56,8.56,0,0,0,3.44.53,5.22,5.22,0,0,0,2.26-.51A6,6,0,0,1,145.59,258.65Z"/><path class="cls-8" d="M116,230.47l-.14.19Z"/><path class="cls-19" d="M124,236.32a3.47,3.47,0,0,1,2.36,1.06,1.21,1.21,0,0,1-.45,2.11,2.16,2.16,0,0,1-.86.25,11,11,0,0,0-2.67.51,1.43,1.43,0,0,1-1,0c-.45-.21-1-.33-1.11-1a2,2,0,0,1,.72-2.11A5.08,5.08,0,0,1,124,236.32Z"/><path class="cls-20" d="M145.59,258.65a6,6,0,0,0-.84.29,5.22,5.22,0,0,1-2.26.51,8.56,8.56,0,0,1-3.44-.53c-.44-.18-.86-.41-1.29-.62l-.82-.36a1.42,1.42,0,0,1,.92-1,4,4,0,0,1,1.64-.4,10.25,10.25,0,0,1,2.41.15c.6.2,1.22.37,1.8.62A3.89,3.89,0,0,1,145.59,258.65Z"/><path class="cls-16" d="M230.1,285l-.64-.74a5.54,5.54,0,0,1-1.4-2.74,1.9,1.9,0,0,0,.33-.3c.24-.38.46-.78.69-1.17a9.91,9.91,0,0,1,3-3.3,8.26,8.26,0,0,1,4.7-1.45,7.3,7.3,0,0,1,2.81.6,4.76,4.76,0,0,1,1.47.87,5,5,0,0,1,1.6,2.78,4.11,4.11,0,0,1,0,1.78,9.28,9.28,0,0,1-1.7,3.57,1.32,1.32,0,0,0-.34.83,7.85,7.85,0,0,1-2.68,1.05,9.77,9.77,0,0,1-2.53.21l-.91,0-2.45-.69Zm5.56.35a2.1,2.1,0,0,0,1.4-.42,1.49,1.49,0,0,0,.28-2.27,2.8,2.8,0,0,0-1.4-.78,7.68,7.68,0,0,1-1.95-.7,2.58,2.58,0,0,0-1.59-.2.93.93,0,0,0-.83.74,2.07,2.07,0,0,0,.18,1.5,3.93,3.93,0,0,0,1.47,1.42A4.7,4.7,0,0,0,235.66,285.31Z"/><path class="cls-8" d="M225,262.32a3.92,3.92,0,0,1-2.61-.58,42.61,42.61,0,0,1-5.49-3.71A8,8,0,0,1,215,256a4.81,4.81,0,0,1-.36-4.52,5.1,5.1,0,0,1,.48-.76,2,2,0,0,1,.35.07l3.26,1.34a24.32,24.32,0,0,1,5.51,3,10.21,10.21,0,0,1,2.44,2.38,6.37,6.37,0,0,0,.6.67l-.94,1.07A3.6,3.6,0,0,0,225,262.32Z"/><path class="cls-8" d="M225,262.32a3.6,3.6,0,0,1,1.33-3.06,5.21,5.21,0,0,1,2.14.25A10.07,10.07,0,0,1,231,261a15.05,15.05,0,0,1,3,3.37,28.87,28.87,0,0,1,2.14,4,1.68,1.68,0,0,1,0,.29l-.35.09a14.69,14.69,0,0,0-2.11.48,8.53,8.53,0,0,0-2.66,1.54c-.38.33-.83.64-.87,1.22-.13-.33-.28-.66-.41-1a23.91,23.91,0,0,0-2.36-4.37l-1.54-2.24A6,6,0,0,1,225,262.32Z"/><path class="cls-13" d="M230.21,272c0-.58.49-.89.87-1.22a8.53,8.53,0,0,1,2.66-1.54,14.69,14.69,0,0,1,2.11-.48l.35-.09a1.68,1.68,0,0,0,0-.29,28.87,28.87,0,0,0-2.14-4,15.05,15.05,0,0,0-3-3.37,10.07,10.07,0,0,0-2.59-1.47,5.21,5.21,0,0,0-2.14-.25l.94-1.07.34-.21c.24.17.49.33.73.51a6.73,6.73,0,0,0,2.46,1.24,1.83,1.83,0,0,0,1.71-.22A.92.92,0,0,0,233,259l.21-.47a9.74,9.74,0,0,1,2,2.22,28.39,28.39,0,0,1,4,8.09c.25.8.43,1.63.63,2.45a3.38,3.38,0,0,1-.45,0,10.09,10.09,0,0,0-8,1.87l-.67.48Z"/><path class="cls-16" d="M240.65,285.69a1.32,1.32,0,0,1,.34-.83,9.28,9.28,0,0,0,1.7-3.57,4.11,4.11,0,0,0,0-1.78,5,5,0,0,0-1.6-2.78,4.76,4.76,0,0,0-1.47-.87,7.3,7.3,0,0,0-2.81-.6,8.26,8.26,0,0,0-4.7,1.45,9.91,9.91,0,0,0-3,3.3c-.23.39-.45.79-.69,1.17a1.9,1.9,0,0,1-.33.3,3.62,3.62,0,0,1-.25-1.84c.25,0,.3-.27.4-.45.26-.48.5-1,.77-1.44a11,11,0,0,1,2-2.42,10.68,10.68,0,0,1,1.59-1.33,7.92,7.92,0,0,1,6.59-1,9.82,9.82,0,0,1,3.19,1.5,5,5,0,0,1,1,.9,7.71,7.71,0,0,1,1.38,2.53,4,4,0,0,1,.25,1.51c0,.36,0,.73,0,1.09a.64.64,0,0,0-.11.75v0a9.17,9.17,0,0,1-3.23,3.8C241.35,285.35,241,285.5,240.65,285.69Z"/><path class="cls-18" d="M245,280.55c0-.36,0-.73,0-1.09a4,4,0,0,0-.25-1.51,7.71,7.71,0,0,0-1.38-2.53,5,5,0,0,0-1-.9,9.82,9.82,0,0,0-3.19-1.5,7.92,7.92,0,0,0-6.59,1,10.68,10.68,0,0,0-1.59,1.33,11,11,0,0,0-2,2.42c-.27.47-.51,1-.77,1.44-.1.18-.15.41-.4.45a5.65,5.65,0,0,1,.37-2.37,8.86,8.86,0,0,1,2.49-3.68l.67-.48a10.09,10.09,0,0,1,8-1.87,3.38,3.38,0,0,0,.45,0,19.81,19.81,0,0,1,1.85.74,7,7,0,0,1,3.54,4c.07.2.15.39.23.59.05.79.1,1.59.16,2.38-.14.54-.28,1.09-.41,1.63Z"/><path class="cls-13" d="M227.57,258l-.34.21a6.37,6.37,0,0,1-.6-.67,10.21,10.21,0,0,0-2.44-2.38,24.32,24.32,0,0,0-5.51-3l-3.26-1.34a2,2,0,0,0-.35-.07A3.73,3.73,0,0,1,219.2,249a10,10,0,0,1,1.69.61,31.06,31.06,0,0,1,5.22,3.07l-.29.34a1,1,0,0,0-.32.63,1.22,1.22,0,0,0-.05,1,4.88,4.88,0,0,0,.9,1.86C226.74,257,227.16,257.49,227.57,258Z"/><path class="cls-8" d="M230.1,285l2,1.28a.89.89,0,0,1,.11.68,6.33,6.33,0,0,0,.45,3.86,2.39,2.39,0,0,0,2.13,1.43c.42,0,.85,0,1.27,0a3.39,3.39,0,0,1,.56.09c0,.36,0,.69,0,1a.33.33,0,0,0,.25.33,6.33,6.33,0,0,1-.94.28,8.11,8.11,0,0,1-3.76-.21,3.16,3.16,0,0,1-2.31-2.64,16.09,16.09,0,0,1-.08-4.16C229.85,286.26,230,285.61,230.1,285Z"/><path class="cls-8" d="M245.57,278.92c-.06-.79-.11-1.59-.16-2.38a14.14,14.14,0,0,1,4.25,1.95,7.68,7.68,0,0,1,1.28,1.14,3.46,3.46,0,0,1,.92,2.58A7.46,7.46,0,0,1,250,287h0l-.18.19h0l-.18.18h0l-.21.15-.17,0c-.3-.18-.24-.48-.17-.73.16-.61.23-1.24.38-1.85a5.21,5.21,0,0,0-.58-3.57,1.09,1.09,0,0,0-.14-.23A6.67,6.67,0,0,0,245.57,278.92Z"/><path class="cls-8" d="M245.57,278.92a6.67,6.67,0,0,1,3.15,2.18,1.09,1.09,0,0,1,.14.23,5.21,5.21,0,0,1,.58,3.57c-.15.61-.22,1.24-.38,1.85-.07.25-.13.55.17.73l0,.13,0,.05h-.07l-.2.09a2.26,2.26,0,0,1-2.5-.8,1.43,1.43,0,0,1-.36-1.43,9.64,9.64,0,0,1,.51-1.25c.14-.3.34-.57.49-.87a.68.68,0,0,0-.23-1,4.6,4.6,0,0,0-.75-.49c-.38-.2-.77-.37-1.15-.55v0l.26-.75C245.29,280,245.43,279.46,245.57,278.92Z"/><path class="cls-8" d="M236.89,293.65a.33.33,0,0,1-.25-.33c0-.32,0-.65,0-1a3.39,3.39,0,0,0-.56-.09c-.42,0-.85,0-1.27,0a2.39,2.39,0,0,1-2.13-1.43,6.33,6.33,0,0,1-.45-3.86.89.89,0,0,0-.11-.68l2.45.69c0,.45-.07.91-.06,1.36a2.85,2.85,0,0,0,.12.7.43.43,0,0,0,.39.33c.3,0,.6,0,.9.05s.78,0,1.17.07a1.62,1.62,0,0,1,1.39,1.36,2.27,2.27,0,0,1-1.17,2.67l-.27.15-.05,0Z"/><path class="cls-18" d="M225.5,253.62a1,1,0,0,1,.32-.63l.29-.34a3.16,3.16,0,0,1,2.3.14,8.88,8.88,0,0,1,4.25,3.8,4.33,4.33,0,0,1,.53,1.9L233,259a.92.92,0,0,1-.51.55,6.66,6.66,0,0,0-2-3.05,11,11,0,0,0-1.18-.84,5.87,5.87,0,0,0-3.38-1.12c-.09,0-.17-.05-.3-.09Z"/><path class="cls-8" d="M249.2,287.61l0-.13.17,0Z"/><path class="cls-8" d="M248.89,287.74l.2-.09Z"/><path class="cls-8" d="M237,293.62l.27-.15Z"/><path class="cls-8" d="M250,287h0Z"/><path class="cls-8" d="M249.78,287.14h0Z"/><path class="cls-8" d="M249.61,287.31h0Z"/><path class="cls-19" d="M235.66,285.31a4.7,4.7,0,0,1-2.44-.71,3.93,3.93,0,0,1-1.47-1.42,2.07,2.07,0,0,1-.18-1.5.93.93,0,0,1,.83-.74,2.58,2.58,0,0,1,1.59.2,7.68,7.68,0,0,0,1.95.7,2.8,2.8,0,0,1,1.4.78,1.49,1.49,0,0,1-.28,2.27A2.1,2.1,0,0,1,235.66,285.31Z"/><path class="cls-20" d="M225.5,253.62l.08.79c.13,0,.21.1.3.09a5.87,5.87,0,0,1,3.38,1.12,11,11,0,0,1,1.18.84,6.66,6.66,0,0,1,2,3.05,1.83,1.83,0,0,1-1.71.22,6.73,6.73,0,0,1-2.46-1.24c-.24-.18-.49-.34-.73-.51-.41-.49-.83-1-1.22-1.46a4.88,4.88,0,0,1-.9-1.86A1.22,1.22,0,0,1,225.5,253.62Z"/><path class="cls-21" d="M245.16,280.55l-.26.75a.64.64,0,0,1,.11-.75Z"/><path class="cls-8" d="M167.08,252.93l-.54-1.08a11.22,11.22,0,0,0-2.17-2.78,1,1,0,0,0-.76-.67,3.61,3.61,0,0,0-.42-.45,5.62,5.62,0,0,0-3.42-1.26l.12-.46h3.47a.61.61,0,0,1,.27,0,3,3,0,0,0,1.26.13h16.73c.39,0,.79,0,1.18.05l-.81.3a4.52,4.52,0,0,0-.62.12,11,11,0,0,0-7.5,12.42,10.56,10.56,0,0,0,7.29,8.58,10.71,10.71,0,0,0,11.11-2.25,4.43,4.43,0,0,0,.51-.62h0l.2-.19,0,0,.27-.24c.16-.18.34-.35.48-.54a10.59,10.59,0,0,0,2.09-8.15,10.79,10.79,0,0,0-7.48-9c-.49-.18-1-.3-1.48-.45.37,0,.73-.05,1.09-.05h6.36a2.77,2.77,0,0,0,.82,0,4.59,4.59,0,0,1,1.52-.13h16.82a3.37,3.37,0,0,0,.9,0,6.71,6.71,0,0,1,1.89-.15h3.64a9.67,9.67,0,0,1,.12,2.89,23.86,23.86,0,0,1-2.22,8.2A37.1,37.1,0,0,1,210,268.37c-.82.8-1.73,1.52-2.6,2.27a7.61,7.61,0,0,1-1.07.11l-12-.07c-2.78,0-5.57,0-8.35,0l-.73,0a2,2,0,0,0-.39-.18c-.77-.16-1.54-.28-2.3-.45a47.09,47.09,0,0,1-5.2-1.56,25.56,25.56,0,0,1-3.92-1.86,35.67,35.67,0,0,1-3.21-2.2,3.42,3.42,0,0,1-1.05-1.12c0-.33,0-.67.05-1a1.22,1.22,0,0,0,.09-1,10.64,10.64,0,0,0-.21-2.52,3.3,3.3,0,0,0-.4-1.47c0-.24,0-.51-.19-.69"/><path class="cls-8" d="M182.8,246.46c-.39,0-.79-.05-1.18-.05H164.89a3,3,0,0,1-1.26-.13.61.61,0,0,0-.27,0h-3.47c0,.18-.09.32-.12.46a2.93,2.93,0,0,0-2,1.11,3.05,3.05,0,0,0-.85,1.35,5.7,5.7,0,0,0-.42,2.35,1.43,1.43,0,0,0-.05,1.11l.06.89a12.91,12.91,0,0,0,.6,3.09c.1.25.08.56.33.75a1.65,1.65,0,0,0,0,.44,15.33,15.33,0,0,0,1.59,3.38,1.42,1.42,0,0,0,.52.73.72.72,0,0,0,.08.26,11.83,11.83,0,0,0,2.49,2.84l.92.7a4.53,4.53,0,0,0,2,.86,2.86,2.86,0,0,0,2.32-.42,3.46,3.46,0,0,0,1.58-2.4l.28-.47a3.42,3.42,0,0,0,1.05,1.12,35.67,35.67,0,0,0,3.21,2.2,25.56,25.56,0,0,0,3.92,1.86,47.09,47.09,0,0,0,5.2,1.56c.76.17,1.53.29,2.3.45a2,2,0,0,1,.39.18c-.33,0-.66,0-1,0-2,0-3.94,0-5.91,0l-2.54,0c-.18,0-.36,0-.54,0h-7.19l-7,0a33.86,33.86,0,0,1-8.18-9.42,33,33,0,0,1-3.59-8,20.42,20.42,0,0,1-.81-5.37,16.5,16.5,0,0,1,.54-4,2.06,2.06,0,0,1,1.15-.15h23.43c.37,0,.73,0,1.09,0l.91,0,42.72,0c.24,0,.49,0,.73,0a3.38,3.38,0,0,1,.42.13c.1.47.21.93.29,1.4,0,.26.05.53.07.8h-3.64a6.71,6.71,0,0,0-1.89.15,3.37,3.37,0,0,1-.9,0H196.61a4.59,4.59,0,0,0-1.52.13,2.77,2.77,0,0,1-.82,0h-6.36c-.36,0-.72,0-1.09.05A19.29,19.29,0,0,0,182.8,246.46Z"/><path class="cls-13" d="M219.5,243.84a3.38,3.38,0,0,0-.42-.13c-.24,0-.49,0-.73,0l-42.72,0-.91,0c0-.16-.11-.29-.28-.32s-.3,0-.45,0a23.44,23.44,0,0,1-4.35-.18h-.27a18.39,18.39,0,0,1-3.77-.36,13.39,13.39,0,0,1-4.6-1.59,5.51,5.51,0,0,1-2-1.53c.33,0,.66-.06,1-.06l6.28,0h10l29.58,0h13.75a.87.87,0,0,1,.74.58,3.61,3.61,0,0,1-.11,3.11A1,1,0,0,1,219.5,243.84Z"/><path class="cls-22" d="M219.63,239.59H205.88l-29.58,0h-10l-6.28,0c-.33,0-.66,0-1,.06s-.61-.05-.91-.05H149l.9,0h14.17c.36,0,.72-.07,1.08-.1h2.72l7.16,0c3,.11,8.77.06,9.62-.11-.44,0-.74,0-1-.09a17.18,17.18,0,0,1-3.14-.86,9.36,9.36,0,0,1-3.38-2.06,4.24,4.24,0,0,1-1.3-3.43c0-.36.11-.72.17-1.07.35-.05.7-.13,1.05-.15.5,0,1-.05,1.51-.08.24,0,.48,0,.72,0l10.67,0c.27,0,.54,0,.81,0,.45,0,.91,0,1.36,0a42.5,42.5,0,0,1,5.17.37,10.75,10.75,0,0,1,5,2,6.91,6.91,0,0,1,2.63,4.12c.1.44.18.89.27,1.39a5.4,5.4,0,0,0,.69.08h13.74Z"/><path class="cls-13" d="M175.82,270.68l2.54,0c2,0,3.94,0,5.91,0,.34,0,.67,0,1,0l.73,0c2.78,0,5.57,0,8.35,0l12,.07a7.61,7.61,0,0,0,1.07-.11,3.28,3.28,0,0,1,.51,1.54,4.49,4.49,0,0,1,0,.9c-.14.77-.38.95-1.18.95l-17.29,0-26,0c-.33,0-.66,0-1-.06h22.75l.08,0,0-.05-1.4-.25a30.8,30.8,0,0,1-5.6-1.48c-.71-.26-1.39-.6-2.08-.9A.49.49,0,0,1,175.82,270.68Z"/><path class="cls-8" d="M176.22,221.26c.61-.16,1.22-.35,1.84-.47a44,44,0,0,1,10.68-.75,20.09,20.09,0,0,1,5.68,1.12l.91.31a3.08,3.08,0,0,0,.12-.57c0-.78,0-1.57,0-2.36a3.55,3.55,0,0,1,.06-.8.42.42,0,0,1,.34-.23.53.53,0,0,1,.34.24.67.67,0,0,1,.08.35,17.79,17.79,0,0,1,0,3.72,5.32,5.32,0,0,1-.8,2.29,3.44,3.44,0,0,1-2,1.54,5.38,5.38,0,0,0-.9,0,14.63,14.63,0,0,1-3.23.32c-.7,0-1.39,0-2.09,0a18.1,18.1,0,0,1-3.95-.36,11.54,11.54,0,0,1-4.05-1.47A8.62,8.62,0,0,1,176.22,221.26Z"/><path class="cls-13" d="M149,239.6h9.09c.3,0,.61,0,.91.05a5.51,5.51,0,0,0,2,1.53,13.39,13.39,0,0,0,4.6,1.59,18.39,18.39,0,0,0,3.77.36h.27a23.44,23.44,0,0,0,4.35.18c.15,0,.3,0,.45,0s.24.16.28.32c-.36,0-.72,0-1.09,0H150.2a2.06,2.06,0,0,0-1.15.15,1.9,1.9,0,0,1-1-1.52,3.54,3.54,0,0,1,.24-2.11A.89.89,0,0,1,149,239.6Z"/><path class="cls-13" d="M175.82,270.68a.49.49,0,0,0,.34.49c.69.3,1.37.64,2.08.9a30.8,30.8,0,0,0,5.6,1.48l1.4.25,0,.05-.08,0H161.32a2.32,2.32,0,0,1-.55-2.06c.07-.41.21-.81.32-1.22l7,0h7.19C175.46,270.64,175.64,270.67,175.82,270.68Z"/><path class="cls-13" d="M176.22,221.26a8.62,8.62,0,0,0,3,2.93,11.54,11.54,0,0,0,4.05,1.47,18.1,18.1,0,0,0,3.95.36c.7,0,1.39,0,2.09,0a14.63,14.63,0,0,0,3.23-.32,5.38,5.38,0,0,1,.9,0,5.78,5.78,0,0,1-1.83.68l-.87.23c-.45,0-.91,0-1.36.06-.93.08-1.85.21-2.79.29-1.17.1-2.35.16-3.52.24l-4.27,0a1.39,1.39,0,0,0-.42.14c-.33-.06-.65-.13-1-.17a10.57,10.57,0,0,1-2.56-.58,4.87,4.87,0,0,1-2.51-2.14,7.89,7.89,0,0,1-.93-2.9c-.06-.36,0-.52.27-.59s.44.07.54.46.19.75.3,1.19l.7-.32A9.57,9.57,0,0,1,176.22,221.26Z"/><path class="cls-23" d="M175,239.46l-7.16,0h-2.72a6.47,6.47,0,0,1,3.44-5.88,11.71,11.71,0,0,1,4.65-1.42c0,.14-.06.29-.11.43a5.93,5.93,0,0,0-.44,2.73.54.54,0,0,1,0,.18,2.67,2.67,0,0,0,.24,1.31,4.36,4.36,0,0,0,1.17,1.79C174.43,238.89,174.73,239.18,175,239.46Z"/><path class="cls-8" d="M183.08,227.15c1.17-.08,2.35-.14,3.52-.24.94-.08,1.86-.21,2.79-.29.45,0,.91,0,1.36-.06,0,1.69,0,3.38,0,5.07-.27,0-.54,0-.81,0l-10.67,0c-.24,0-.48,0-.72,0l0-.32a3.51,3.51,0,0,0,.69.18c1.09,0,2.18,0,3.26,0a2.5,2.5,0,0,0,.49-.1,2.05,2.05,0,0,0,.07-.31Z"/><path class="cls-24" d="M175,239.46c-.31-.28-.61-.57-.93-.84a4.36,4.36,0,0,1-1.17-1.79,2.67,2.67,0,0,1-.24-1.31.54.54,0,0,0,0-.18,5.93,5.93,0,0,1,.44-2.73c.05-.14.07-.29.11-.43a8.67,8.67,0,0,1,2.73-.34c-.06.35-.14.71-.17,1.07a4.24,4.24,0,0,0,1.3,3.43,9.36,9.36,0,0,0,3.38,2.06,17.18,17.18,0,0,0,3.14.86c.29.06.59.05,1,.09C183.81,239.52,178,239.57,175,239.46Z"/><path class="cls-8" d="M183.08,227.15v3.9a2.05,2.05,0,0,1-.07.31,2.5,2.5,0,0,1-.49.1c-1.08,0-2.17,0-3.26,0a3.51,3.51,0,0,1-.69-.18l-.18-4a1.39,1.39,0,0,1,.42-.14Z"/><path class="cls-25" d="M182.8,246.46a19.29,19.29,0,0,1,4,0c.5.15,1,.27,1.48.45a10.79,10.79,0,0,1,7.48,9,10.59,10.59,0,0,1-2.09,8.15c-.14.19-.32.36-.48.54l-.27.24,0,0-.2.19h0a1,1,0,0,0-.68.2,12.45,12.45,0,0,1-3.11,1.23,9.6,9.6,0,0,1-2.13.37,2.26,2.26,0,0,0-.63.07,3.49,3.49,0,0,1-1.7,0,2.41,2.41,0,0,0-.35-.07,6.67,6.67,0,0,1-2.13-.37,7.91,7.91,0,0,1-2.23-1,9.48,9.48,0,0,1-4.39-7.81,13.12,13.12,0,0,1,.18-2.16,9.5,9.5,0,0,1,1.24-3.47,15.71,15.71,0,0,1,4.12-4.4c.36-.26.8-.44,1-.87Zm.67,2.09a6.71,6.71,0,0,0-.9.12,9,9,0,1,0,5.55,17.16,8,8,0,0,0,4-3.22,3.29,3.29,0,0,0,.34-.42,8.93,8.93,0,0,0,1.08-7,9,9,0,0,0-7.52-6.74A5.72,5.72,0,0,0,183.47,248.55Z"/><path class="cls-26" d="M182,246.76c-.22.43-.66.61-1,.87a15.71,15.71,0,0,0-4.12,4.4,9.5,9.5,0,0,0-1.24,3.47,13.12,13.12,0,0,0-.18,2.16,9.48,9.48,0,0,0,4.39,7.81,7.91,7.91,0,0,0,2.23,1,6.67,6.67,0,0,0,2.13.37,2.41,2.41,0,0,1,.35.07,3.49,3.49,0,0,0,1.7,0,2.26,2.26,0,0,1,.63-.07,9.6,9.6,0,0,0,2.13-.37,12.45,12.45,0,0,0,3.11-1.23,1,1,0,0,1,.68-.2,4.43,4.43,0,0,1-.51.62,10.71,10.71,0,0,1-11.11,2.25,10.56,10.56,0,0,1-7.29-8.58,11,11,0,0,1,7.5-12.42A4.52,4.52,0,0,1,182,246.76Z"/><path class="cls-19" d="M183.47,248.55a5.72,5.72,0,0,1,2.6-.08,9,9,0,0,1,6.44,13.72,3.29,3.29,0,0,1-.34.42c-.27.13-.56.23-.81.38a7.68,7.68,0,0,1-3.37,1.25A7.84,7.84,0,0,1,182.8,263a7.42,7.42,0,0,1-2-2,6.81,6.81,0,0,1-1.39-3.95c0-.49,0-1,0-1.46a7.29,7.29,0,0,1,1.09-3.6,8.88,8.88,0,0,1,1.58-2C182.59,249.54,183,249,183.47,248.55Zm7.81,7.3h.05a13.63,13.63,0,0,0-.26-1.42,5.55,5.55,0,0,0-2.27-3.17,3,3,0,0,0-1.7-.49,1.84,1.84,0,0,0-1.66,1.62,4,4,0,0,0,.58,2.24,14.5,14.5,0,0,0,1.16,1.73,4.74,4.74,0,0,0,1.83,1.58,1.32,1.32,0,0,0,.8.1,1.93,1.93,0,0,0,1.47-1.64C191.29,256.21,191.28,256,191.28,255.85Zm-2,4.52a1.35,1.35,0,0,0,1.31,1.31,1.43,1.43,0,0,0,1.25-1.42,1.28,1.28,0,1,0-2.56.11Z"/><path class="cls-19" d="M183.47,248.55c-.45.48-.88,1-1.36,1.45a8.88,8.88,0,0,0-1.58,2,7.29,7.29,0,0,0-1.09,3.6c0,.49,0,1,0,1.46a6.81,6.81,0,0,0,1.39,3.95,7.42,7.42,0,0,0,2,2,7.84,7.84,0,0,0,5.19,1.27,7.68,7.68,0,0,0,3.37-1.25c.25-.15.54-.25.81-.38a8,8,0,0,1-4,3.22,9,9,0,1,1-5.55-17.16A6.71,6.71,0,0,1,183.47,248.55Z"/><path class="cls-22" d="M191.28,255.85c0,.18,0,.36,0,.54a1.93,1.93,0,0,1-1.47,1.64,1.32,1.32,0,0,1-.8-.1,4.74,4.74,0,0,1-1.83-1.58,14.5,14.5,0,0,1-1.16-1.73,4,4,0,0,1-.58-2.24,1.84,1.84,0,0,1,1.66-1.62,3,3,0,0,1,1.7.49,5.55,5.55,0,0,1,2.27,3.17,13.63,13.63,0,0,1,.26,1.42Z"/><path class="cls-22" d="M189.28,260.37a1.28,1.28,0,1,1,2.56-.11,1.43,1.43,0,0,1-1.25,1.42A1.35,1.35,0,0,1,189.28,260.37Z"/><path class="cls-22" d="M235.69,189.7c-.08-.78-.22-1.56-.23-2.34,0-2.31,0-4.61,0-6.92a3.36,3.36,0,0,1,.11-.62.83.83,0,0,0,1,.75,19.7,19.7,0,0,0,2.18-.06,17,17,0,0,1,2.25-.15,4.29,4.29,0,0,0,.72,0c1.16-.26,2.35-.14,3.51-.29s2.17-.07,3.25-.18c1.44-.14,2.9,0,4.34-.19a15.06,15.06,0,0,1,1.9,0,5.45,5.45,0,0,1-.15,1.7,21.7,21.7,0,0,1-1.42,4.56l-.78,1.92a9.85,9.85,0,0,1-2.63.54c-.62.1-1.26.15-1.88.23-.78.1-1.55.24-2.32.31-1.05.09-2.1.14-3.15.21a1.2,1.2,0,0,0-.27,0,8,8,0,0,1-2.07.17,2.2,2.2,0,0,0-.63,0,8.53,8.53,0,0,1-2.25.15A4.63,4.63,0,0,0,235.69,189.7Z"/><path class="cls-22" d="M252.29,172.17c.21.25.44.48.64.74a18,18,0,0,1,1.76,2.8,5,5,0,0,1,.21.58l0,1.89-3.37,0a3.45,3.45,0,0,0-.72,0,8.08,8.08,0,0,1-1.9.14,14.59,14.59,0,0,0-2.09,0,16,16,0,0,1-2.07.14,4.74,4.74,0,0,0-1,0,9.87,9.87,0,0,1-2.17.15,4.36,4.36,0,0,0-.63,0c-1.32.25-2.65.14-4,.31a2.57,2.57,0,0,0-1.36.42c.07-1,.09-2,.21-3,.19-1.43.45-2.86.69-4.28a4.27,4.27,0,0,1,.18-.61l4.35-.21a.52.52,0,0,0,.18,0,4.16,4.16,0,0,1,1.45-.13q1.32,0,2.64,0a4.43,4.43,0,0,1,.63,0c.84.1,1.68.25,2.52.3a29.18,29.18,0,0,1,2.95.46C251.69,172.11,252,172.14,252.29,172.17Z"/><path class="cls-24" d="M256.84,188.74c0,.42-.08.84-.16,1.25a20.26,20.26,0,0,1-2,5.59,2.92,2.92,0,0,1-.21.28,1.76,1.76,0,0,0-.86.26,9.13,9.13,0,0,1-.89.43,37.88,37.88,0,0,1-5.07,1.63,17.85,17.85,0,0,1-4.82.61c-1.09,0-2.18,0-3.27,0a5.42,5.42,0,0,1-1.7-.14,2.16,2.16,0,0,0-.72,0c0-.19-.1-.37-.14-.56a19.19,19.19,0,0,0,3.5-.84c.34-.13.68-.23,1-.34a16.83,16.83,0,0,0,4-1.95c.75-.49,1.46-1.05,2.18-1.6a17.64,17.64,0,0,0,2.83-2.9,2.59,2.59,0,0,0,.32-.74,7.6,7.6,0,0,0,1.5-.19c.94-.19,1.87-.35,2.81-.51Z"/><path class="cls-22" d="M250.85,189.69a2.59,2.59,0,0,1-.32.74,17.64,17.64,0,0,1-2.83,2.9c-.72.55-1.43,1.11-2.18,1.6a16.83,16.83,0,0,1-4,1.95c-.35.11-.69.21-1,.34a19.19,19.19,0,0,1-3.5.84,15.89,15.89,0,0,1-.44-1.64c-.29-1.66-.53-3.32-.78-5a2.17,2.17,0,0,1,0-.36,4.16,4.16,0,0,0,1,0,8.78,8.78,0,0,1,1.53-.13l4.08-.2.27,0c.42,0,.84-.1,1.26-.13.21,0,.42,0,.63,0,.93-.11,1.85-.25,2.78-.33A29.09,29.09,0,0,0,250.85,189.69Z"/><path class="cls-24" d="M253.07,198.05a4,4,0,0,1-.28.46,16.45,16.45,0,0,1-11.26,6.35,15.34,15.34,0,0,1-5.23-.33,2.37,2.37,0,0,1-.6-.21.68.68,0,0,1-.39-.75A.7.7,0,0,1,236,203a3.42,3.42,0,0,1,.63.09c.44.08.89.18,1.34.24a4.09,4.09,0,0,0,.7,0c.07-.37-.14-.61-.26-.89a11.23,11.23,0,0,1-.81-2.21l1.73,0a2.18,2.18,0,0,1,.63.06,3.34,3.34,0,0,0,1.17.12,15.58,15.58,0,0,0,2.81-.15c.58-.12,1.19-.09,1.79-.18a30,30,0,0,0,4.4-1.05C251.13,198.74,252.1,198.39,253.07,198.05Z"/><path class="cls-22" d="M237,170.18a10.43,10.43,0,0,1,1-3,2.11,2.11,0,0,0,.27-.57c.06-.9.85-1,1.42-1.33a.58.58,0,0,1,.66.19,1.07,1.07,0,0,0,.73.32,15.21,15.21,0,0,1,4,1,2.18,2.18,0,0,0,.44.11c.17.29.47.33.75.41a18.33,18.33,0,0,1,3.81,2.54,3.63,3.63,0,0,1,.41.46c-.53-.06-1.07-.11-1.61-.19a24.84,24.84,0,0,0-4.13-.34h-3.63l-.73.05-1.25.13-.91,0C237.86,170.07,237.45,170.13,237,170.18Z"/><path class="cls-23" d="M250.85,189.69a29.09,29.09,0,0,1-3.49.53c-.93.08-1.85.22-2.78.33-.21,0-.42,0-.63,0-.42,0-.84.09-1.26.13l-.27,0-4.08.2a8.78,8.78,0,0,0-1.53.13,4.16,4.16,0,0,1-1,0l-.12-1.38a4.63,4.63,0,0,1,1.43-.21,8.53,8.53,0,0,0,2.25-.15,2.2,2.2,0,0,1,.63,0,8,8,0,0,0,2.07-.17,1.2,1.2,0,0,1,.27,0c1-.07,2.1-.12,3.15-.21.77-.07,1.54-.21,2.32-.31.62-.08,1.26-.13,1.88-.23a9.85,9.85,0,0,0,2.63-.54,7.83,7.83,0,0,0,1.09,0c.91-.18,1.81-.4,2.72-.59a8.65,8.65,0,0,1,.89-.1,4.42,4.42,0,0,1-.18,1.62l-1.68.25c-.94.16-1.87.32-2.81.51A7.6,7.6,0,0,1,250.85,189.69Z"/><path class="cls-23" d="M235.59,179.5a2.57,2.57,0,0,1,1.36-.42c1.32-.17,2.65-.06,4-.31a4.36,4.36,0,0,1,.63,0,9.87,9.87,0,0,0,2.17-.15,4.74,4.74,0,0,1,1,0,16,16,0,0,0,2.07-.14,14.59,14.59,0,0,1,2.09,0,8.08,8.08,0,0,0,1.9-.14,3.45,3.45,0,0,1,.72,0l3.37,0,.87,0,.45,1.43-1.52,0a15.06,15.06,0,0,0-1.9,0c-1.44.18-2.9.05-4.34.19-1.08.11-2.18,0-3.25.18s-2.35,0-3.51.29a4.29,4.29,0,0,1-.72,0,17,17,0,0,0-2.25.15,19.7,19.7,0,0,1-2.18.06.83.83,0,0,1-1-.75Z"/><path class="cls-27" d="M244.69,153.77a4.66,4.66,0,0,1,5.14-2.82,2.93,2.93,0,0,1,1.42.53c.14.49.26,1,.41,1.48a3.24,3.24,0,0,1-1.18,3.37,3.16,3.16,0,0,1-2.36.72,1.22,1.22,0,0,0-.27,0,1.61,1.61,0,0,1-1.22-.5,5.32,5.32,0,0,1-1.61-2.37C245,154,244.81,153.91,244.69,153.77Zm1.8-.05a1.14,1.14,0,0,0,.26.93,1.24,1.24,0,0,0,1.58.19,3.23,3.23,0,0,0,.79-.73,1.21,1.21,0,0,0,.15-1.36,1.11,1.11,0,0,0-1.18-.64A1.66,1.66,0,0,0,246.49,153.72Z"/><path class="cls-23" d="M253.07,198.05c-1,.34-1.94.69-2.92,1a30,30,0,0,1-4.4,1.05c-.6.09-1.21.06-1.79.18a15.58,15.58,0,0,1-2.81.15,3.34,3.34,0,0,1-1.17-.12,2.18,2.18,0,0,0-.63-.06l-1.73,0-.46-1.6a2.16,2.16,0,0,1,.72,0,5.42,5.42,0,0,0,1.7.14c1.09,0,2.18,0,3.27,0a17.85,17.85,0,0,0,4.82-.61,37.88,37.88,0,0,0,5.07-1.63,9.13,9.13,0,0,0,.89-.43,1.76,1.76,0,0,1,.86-.26A7.71,7.71,0,0,1,253.07,198.05Z"/><path class="cls-24" d="M254.67,179.67l1.52,0a8.16,8.16,0,0,1,.58,2.27,17.93,17.93,0,0,1,.25,5.22,8.65,8.65,0,0,0-.89.1c-.91.19-1.81.41-2.72.59a7.83,7.83,0,0,1-1.09,0l.78-1.92a21.7,21.7,0,0,0,1.42-4.56A5.45,5.45,0,0,0,254.67,179.67Z"/><path class="cls-28" d="M244.69,153.77c.12.14.28.25.33.41a5.32,5.32,0,0,0,1.61,2.37,1.61,1.61,0,0,0,1.22.5,1.22,1.22,0,0,1,.27,0,3.16,3.16,0,0,0,2.36-.72,3.24,3.24,0,0,0,1.18-3.37c-.15-.49-.27-1-.41-1.48a3.75,3.75,0,0,1,2,2.09,6.24,6.24,0,0,1-.37,2.49,3.86,3.86,0,0,1-1.8,2.31,6.54,6.54,0,0,1-2,.66,3.37,3.37,0,0,1-1,0c-.35-.06-.69-.21-1-.28a2.23,2.23,0,0,1-1.38-1,6.51,6.51,0,0,1-1-1.64,3.54,3.54,0,0,0-.42-.69A2.67,2.67,0,0,1,244.69,153.77Z"/><path class="cls-23" d="M237,170.18c.42-.05.83-.11,1.25-.15l.91,0,1.25-.13.73-.05h3.63a24.84,24.84,0,0,1,4.13.34c.54.08,1.08.13,1.61.19a7.65,7.65,0,0,1,1.75,1.84c-.3,0-.6-.06-.9-.11a29.18,29.18,0,0,0-2.95-.46c-.84,0-1.68-.2-2.52-.3a4.43,4.43,0,0,0-.63,0q-1.32,0-2.64,0a4.16,4.16,0,0,0-1.45.13.52.52,0,0,1-.18,0l-4.35.21A3.65,3.65,0,0,1,237,170.18Z"/><path class="cls-29" d="M244.31,155.4a3.54,3.54,0,0,1,.42.69,6.51,6.51,0,0,0,1,1.64,2.23,2.23,0,0,0,1.38,1c.35.07.69.22,1,.28a3.37,3.37,0,0,0,1,0,6.54,6.54,0,0,0,2-.66,3.86,3.86,0,0,0,1.8-2.31,6.24,6.24,0,0,0,.37-2.49,4,4,0,0,1,.47,3,4.78,4.78,0,0,1-4.53,3.85c-.27,0-.54,0-.81,0l-.82-.18c-.24-.11-.49-.22-.73-.35a4.71,4.71,0,0,1-2.57-4.16A2.25,2.25,0,0,1,244.31,155.4Z"/><path class="cls-30" d="M247.55,160.27l.82.18c-.1.44-.17.89-.31,1.32a1.19,1.19,0,0,1-1.54.9c-.37-.07-.74-.17-1.21-.28.06.2.06.33.13.39a7.61,7.61,0,0,0,.95.84,1.43,1.43,0,0,1,.56,1.82c-.22.63-.42,1.26-.63,1.89-.28-.08-.58-.12-.75-.41a10.66,10.66,0,0,0,.62-2.3c-.23-.19-.46-.38-.68-.58-.43-.42-.87-.84-1.27-1.29a1.53,1.53,0,0,1-.33-.63.57.57,0,0,1,.55-.76,3.37,3.37,0,0,1,.89.09c.33.07.64.2,1,.27a5.52,5.52,0,0,0,.71.1C247.44,161.36,247.35,160.76,247.55,160.27Z"/><path class="cls-24" d="M255.74,178.2l-.87,0,0-1.89A5.29,5.29,0,0,1,255.74,178.2Z"/><path class="cls-31" d="M246.49,153.72a1.66,1.66,0,0,1,1.6-1.61,1.11,1.11,0,0,1,1.18.64,1.21,1.21,0,0,1-.15,1.36,3.23,3.23,0,0,1-.79.73,1.24,1.24,0,0,1-1.58-.19A1.14,1.14,0,0,1,246.49,153.72Z"/><path class="cls-22" d="M137.38,187.49c.09.31.19.63.26.95a57.48,57.48,0,0,1,1.06,8.16c0,.18,0,.36,0,.54a16.65,16.65,0,0,0-1.73,0c-1.32.16-2.64.25-4,.36-1,.09-2.05.15-3.08.17l-.18,0a12.33,12.33,0,0,1-1.35.13c-1.33,0-2.67,0-4,0l-2.46,0a1.51,1.51,0,0,0-.49-1,19.88,19.88,0,0,1-2-3.62,12,12,0,0,1-1-3,5.34,5.34,0,0,1,1.66-.34c.69-.1,1.38-.12,2.07-.22a29,29,0,0,1,3.23-.35l.36,0c.93-.11,1.85-.23,2.78-.31s2-.15,3.06-.21l.09,0c1.32-.17,2.64-.29,4-.34a9.5,9.5,0,0,0,1.07-.15A.82.82,0,0,0,137.38,187.49Z"/><path class="cls-22" d="M135,179.46a4.87,4.87,0,0,1,.28.56,63,63,0,0,1,2,6.92,1.43,1.43,0,0,1,0,.36,1.38,1.38,0,0,0-1.53-.51c-.33,0-.66.12-1,.14-1.08.08-2.17.14-3.25.21l-.19,0c-1,.11-2,.23-3.06.32s-1.86.14-2.8.21a2.51,2.51,0,0,0-.27,0l-2.42.3-2.51.31c-.75.09-1.5.16-2.26.24a4.36,4.36,0,0,1-.17-.78,2.29,2.29,0,0,0-.22-1,2.45,2.45,0,0,1,0-.27,16,16,0,0,1,2-4.36,3.09,3.09,0,0,0,.62-.09c.89-.28,1.77-.59,2.67-.87a30.89,30.89,0,0,1,3.68-.91c.89-.15,1.79-.27,2.68-.39,1-.14,2.1-.21,3.15-.29A15.2,15.2,0,0,0,135,179.46Z"/><path class="cls-24" d="M121.17,206.24c-.45-.64-.94-1.25-1.37-1.91a19.44,19.44,0,0,1-1.9-4c-.11-.32-.17-.65-.25-1a18,18,0,0,1,3.88.15,1.68,1.68,0,0,0,.45,0h1.73a10.38,10.38,0,0,0,1.75,1.69,18.39,18.39,0,0,0,2.94,1.93,19,19,0,0,0,4.62,1.77,16.58,16.58,0,0,0,4.9.64c.24,0,.48,0,.73,0l-.06.74a1.45,1.45,0,0,0-.36,0c-1.28.32-2.58.58-3.89.79a14.08,14.08,0,0,1-2.59.3c-1,0-2.06,0-3.09,0-.81,0-1.62-.13-2.42-.22-.48-.05-.95-.14-1.42-.23a21.57,21.57,0,0,1-3.07-.78A.48.48,0,0,0,121.17,206.24Z"/><path class="cls-22" d="M138.65,205.54c-.25,0-.49,0-.73,0a16.58,16.58,0,0,1-4.9-.64,19,19,0,0,1-4.62-1.77,18.39,18.39,0,0,1-2.94-1.93,10.38,10.38,0,0,1-1.75-1.69h1.63c.27,0,.55,0,.82,0s.78-.09,1.17-.1c.81,0,1.63,0,2.45,0a2.64,2.64,0,0,0,.63,0,6.31,6.31,0,0,1,1.62-.14c.27,0,.55,0,.82,0,1-.1,2-.23,3-.33s2-.16,3-.24c0,.33.07.66.07,1,0,1.58,0,3.16,0,4.74C138.8,204.7,138.7,205.12,138.65,205.54Z"/><path class="cls-24" d="M138.33,207.88a9.64,9.64,0,0,1-.45,2.31c-.06.25-.13.51-.19.73a.55.55,0,0,0,.65.06c.58-.18,1.15-.39,1.72-.6a.82.82,0,0,1,.7,0,.69.69,0,0,1,.14,1.19,3.66,3.66,0,0,1-.82.4,15.64,15.64,0,0,1-10.35.31,16.89,16.89,0,0,1-6.48-3.75c-.15-.14-.28-.32-.42-.48l1.25.19c.9.13,1.8.27,2.68.42s2,.11,3.07.29a5.14,5.14,0,0,0,2-.11c.7-.16,1.44,0,2.16-.2,1.05-.26,2.14-.37,3.19-.61A6.59,6.59,0,0,1,138.33,207.88Z"/><path class="cls-22" d="M121.15,180.18c.19-.26.37-.54.59-.79a20.53,20.53,0,0,1,3.1-2.79,1.23,1.23,0,0,0,.71-.51,5.86,5.86,0,0,0,.57-.26,16.24,16.24,0,0,1,3.49-1.47,1.5,1.5,0,0,0,.91-.53.65.65,0,0,1,.82-.17c.2.07.38.19.58.24a.94.94,0,0,1,.7.64,6.25,6.25,0,0,0,.41.69c.44.79.88,1.57,1.31,2.37a1.81,1.81,0,0,1,.1.43c-.54.05-1.07.13-1.61.14a39.59,39.59,0,0,0-4.22.36,33.56,33.56,0,0,0-4,.73C123.46,179.55,122.31,179.87,121.15,180.18Z"/><path class="cls-23" d="M138.78,198.55c-1,.08-2,.15-3,.24s-2,.23-3,.33c-.27,0-.55,0-.82,0a6.31,6.31,0,0,0-1.62.14,2.64,2.64,0,0,1-.63,0c-.82,0-1.64,0-2.45,0-.39,0-.78.07-1.17.1s-.55,0-.82,0H122a1.68,1.68,0,0,1-.45,0,18,18,0,0,0-3.88-.15,4.75,4.75,0,0,1-.44-1.65,14.55,14.55,0,0,1,2,.16c.91.06,1.82,0,2.73,0l2.46,0c1.33,0,2.67,0,4,0a12.33,12.33,0,0,0,1.35-.13l.18,0c1,0,2.06-.08,3.08-.17,1.33-.11,2.65-.2,4-.36a16.65,16.65,0,0,1,1.73,0A3.05,3.05,0,0,1,138.78,198.55Z"/><path class="cls-23" d="M118.07,188.58c.76-.08,1.51-.15,2.26-.24l2.51-.31,2.42-.3a2.51,2.51,0,0,1,.27,0c.94-.07,1.87-.13,2.8-.21s2-.21,3.06-.32l.19,0c1.08-.07,2.17-.13,3.25-.21.33,0,.66-.1,1-.14a1.38,1.38,0,0,1,1.53.51l0,.19a.82.82,0,0,1-.69.74,9.5,9.5,0,0,1-1.07.15c-1.32.05-2.64.17-4,.34l-.09,0c-1,.06-2,.12-3.06.21s-1.85.2-2.78.31l-.36,0a29,29,0,0,0-3.23.35c-.69.1-1.38.12-2.07.22a5.34,5.34,0,0,0-1.66.34h-1.48a3.79,3.79,0,0,1,.25-1.45C117.48,188.71,117.82,188.86,118.07,188.58Z"/><path class="cls-27" d="M117.51,161.77a4.1,4.1,0,0,1,3.16-1.05,4.36,4.36,0,0,1,3.73,2.18c0,.1-.09.21-.13.32a20,20,0,0,1-.67,1.88,3.47,3.47,0,0,1-1.52,1.51,3,3,0,0,1-2.64-.05,3.41,3.41,0,0,1-1.93-4,2.23,2.23,0,0,0,.14-.62C117.66,161.92,117.56,161.84,117.51,161.77Zm3.42,0a1.52,1.52,0,0,0-.36,0,1,1,0,0,0-.82.76,1.5,1.5,0,0,0,.89,1.86,4.23,4.23,0,0,0,.68.24,1.32,1.32,0,0,0,1.47-1.34c-.07-.55-.51-.87-.86-1.24A1.14,1.14,0,0,0,120.93,161.79Z"/><path class="cls-23" d="M138.33,207.88a6.59,6.59,0,0,0-1.17.16c-1,.24-2.14.35-3.19.61-.72.17-1.46,0-2.16.2a5.14,5.14,0,0,1-2,.11c-1-.18-2.05-.11-3.07-.29s-1.78-.29-2.68-.42l-1.25-.19a7.78,7.78,0,0,1-1.66-1.82.48.48,0,0,1,.58-.13,21.57,21.57,0,0,0,3.07.78c.47.09.94.18,1.42.23.8.09,1.61.19,2.42.22,1,0,2.06,0,3.09,0a14.08,14.08,0,0,0,2.59-.3c1.31-.21,2.61-.47,3.89-.79a1.45,1.45,0,0,1,.36,0A5.41,5.41,0,0,1,138.33,207.88Z"/><path class="cls-24" d="M116.93,190.21h1.48a12,12,0,0,0,1,3,19.88,19.88,0,0,0,2,3.62,1.51,1.51,0,0,1,.49,1c-.91,0-1.82.06-2.73,0a14.55,14.55,0,0,0-2-.16c-.12-.57-.27-1.12-.34-1.69a20.55,20.55,0,0,1,0-5.54A1.06,1.06,0,0,1,116.93,190.21Z"/><path class="cls-23" d="M121.15,180.18c1.16-.31,2.31-.63,3.48-.92a33.56,33.56,0,0,1,4-.73,39.59,39.59,0,0,1,4.22-.36c.54,0,1.07-.09,1.61-.14a3.49,3.49,0,0,1,.6,1.43,15.2,15.2,0,0,1-2.52.2c-1.05.08-2.1.15-3.15.29-.89.12-1.79.24-2.68.39a30.89,30.89,0,0,0-3.68.91c-.9.28-1.78.59-2.67.87a3.09,3.09,0,0,1-.62.09A7.18,7.18,0,0,1,121.15,180.18Z"/><path class="cls-28" d="M117.51,161.77c0,.07.15.15.14.21a2.23,2.23,0,0,1-.14.62,3.41,3.41,0,0,0,1.93,4,3,3,0,0,0,2.64.05,3.47,3.47,0,0,0,1.52-1.51,20,20,0,0,0,.67-1.88c0-.11.09-.22.13-.32a3.29,3.29,0,0,1,.72,1.8c-.09.07-.25.13-.26.2A7.48,7.48,0,0,1,124,167a2.92,2.92,0,0,1-1.91,1.53,6.37,6.37,0,0,1-2.42.16A3.16,3.16,0,0,1,118,168a4.91,4.91,0,0,1-1.68-2.41,6.46,6.46,0,0,1-.25-1.69A3.21,3.21,0,0,1,117.51,161.77Z"/><path class="cls-32" d="M116.05,163.86a6.46,6.46,0,0,0,.25,1.69A4.91,4.91,0,0,0,118,168a3.16,3.16,0,0,0,1.72.73,6.37,6.37,0,0,0,2.42-.16A2.92,2.92,0,0,0,124,167a7.48,7.48,0,0,0,.83-2.1c0-.07.17-.13.26-.2a4.59,4.59,0,0,1-1.85,4.63c-.21.17-.44.31-.67.47a1.3,1.3,0,0,0-.79.33l-.9.1a4.78,4.78,0,0,1-5.18-5.55A1.26,1.26,0,0,1,116.05,163.86Z"/><path class="cls-8" d="M121.81,170.13a1.3,1.3,0,0,1,.79-.33,5.14,5.14,0,0,0,.68,1.45,4.22,4.22,0,0,0,.57-.13c.37-.14.72-.32,1.08-.46a3.73,3.73,0,0,1,.78-.25.63.63,0,0,1,.75.76,1.58,1.58,0,0,1-.27.67c-.34.5-.71,1-1.09,1.45-.16.22-.35.41-.54.63a11.9,11.9,0,0,0,1,2.17,1.23,1.23,0,0,1-.71.51c-.31-.62-.62-1.24-.94-1.86a1.37,1.37,0,0,1,.29-1.74,9.28,9.28,0,0,0,.71-.82c.1-.13.14-.27,0-.37s-.26-.06-.37,0-.45.16-.67.26a1.16,1.16,0,0,1-1.59-.64C122.12,171,122,170.55,121.81,170.13Z"/><path class="cls-24" d="M118.07,188.58c-.25.28-.59.13-.89.18a4.6,4.6,0,0,1,.5-1.92,2.29,2.29,0,0,1,.22,1A4.36,4.36,0,0,0,118.07,188.58Z"/><path class="cls-31" d="M120.93,161.79a1.14,1.14,0,0,1,1,.29c.35.37.79.69.86,1.24a1.32,1.32,0,0,1-1.47,1.34,4.23,4.23,0,0,1-.68-.24,1.5,1.5,0,0,1-.89-1.86,1,1,0,0,1,.82-.76A1.52,1.52,0,0,1,120.93,161.79Z"/><path class="cls-8" d="M181.08,143.61c1.31.08,2.61.13,3.91.24q4.39.38,8.79.82,7.16.72,14.25,1.92c2.79.47,5.57.95,8.33,1.53A80.72,80.72,0,0,1,229.81,152a30.11,30.11,0,0,1,5.19,2.63,15.86,15.86,0,0,1,6.75,8.85,28.55,28.55,0,0,1,1.21,6.8,71.59,71.59,0,0,1,0,8.91A150,150,0,0,1,241,195.55c-.44,2.57-.93,5.14-1.5,7.69A63.21,63.21,0,0,1,236,214.61a30.66,30.66,0,0,1-2.39,4.49,16.31,16.31,0,0,1-9.05,6.81,24.12,24.12,0,0,1-6.08,1c-.75,0-1.51,0-2.26,0-.13-.21-.35-.22-.56-.25-.72-.11-1.44-.23-2.16-.33a1.66,1.66,0,0,0-.54,0,3.33,3.33,0,0,1-1.26-.06L202,224.79c-.32,0-.66-.07-1-.09s-.66,0-1,0a29.37,29.37,0,0,0-3.52-.38c-.86,0-1.73-.2-2.61-.21s-2-.29-3-.27a12.26,12.26,0,0,1-2-.28,2.22,2.22,0,0,0-.72-.06,4.7,4.7,0,0,1-1.35-.07,22.36,22.36,0,0,0-4.15-.47,2.32,2.32,0,0,1-.45-.06l-15.48-2.38a2.53,2.53,0,0,1-.79-.18,3.83,3.83,0,0,0-1.14-.29,6.58,6.58,0,0,1-1.43-.27,25,25,0,0,1-2.43-.69,25.43,25.43,0,0,1-3.12-.92,29.51,29.51,0,0,1-3-1.13,32.25,32.25,0,0,1-5.93-3.12c-.5-.33-1-.75-1.44-1.11a18.29,18.29,0,0,1-3.27-3.25,20.73,20.73,0,0,1-1.66-2.49,23.12,23.12,0,0,1-1.75-4,29.54,29.54,0,0,1-1-3.69c-.26-1.27-.44-2.56-.62-3.85-.26-1.83-.31-3.67-.4-5.51-.06-1.17-.05-2.35,0-3.52,0-.76.1-1.51.15-2.26a1.24,1.24,0,0,0,0-.27,5,5,0,0,1,.09-1.63c0-.54,0-1.09.08-1.62.38-2.56.78-5.11,1.17-7.66a2.24,2.24,0,0,1,.16-.7,3.79,3.79,0,0,0,.31-1.14,4.51,4.51,0,0,1,.1-.53c.21-.66.48-1.31.63-2a22.64,22.64,0,0,1,1.18-3.42,32.7,32.7,0,0,1,2.27-4.74,31,31,0,0,1,4-5.41,33.27,33.27,0,0,1,3.94-3.47,11,11,0,0,1,1.23-.76c.62-.39,1.22-.8,1.85-1.15a46.17,46.17,0,0,1,6.76-2.87c.51-.18,1.06-.26,1.58-.43a40,40,0,0,1,5.29-1.3c1.78-.33,3.57-.62,5.38-.8s3.9-.45,5.86-.45C181,143.89,181,143.76,181.08,143.61Zm-13.61,71.77,1.17.17,2.17.22,5.52.61c1.11.12,2.23.23,3.35.32,2.06.17,4.11.3,6.17.48,3.29.31,6.58.63,9.87,1,2.87.3,5.73.61,8.61.73,1.49.06,3,.08,4.46.05a8.29,8.29,0,0,0,2.42-.31.56.56,0,0,0,.18,0,12.13,12.13,0,0,0,8.7-5.84,27.1,27.1,0,0,0,2.4-5.29,64.67,64.67,0,0,0,2.43-9.8,117.12,117.12,0,0,0,1.51-11.82,58.82,58.82,0,0,0,.15-7.27,21.27,21.27,0,0,0-.92-5.55,11.5,11.5,0,0,0-5-6.45,24.75,24.75,0,0,0-4.69-2.2,63.78,63.78,0,0,0-8.58-2.38q-5.39-1.12-10.85-1.84a7.32,7.32,0,0,0-.81,0,2.35,2.35,0,0,0-.35-.11l-2.35-.26c-1.84-.2-3.67-.43-5.52-.59-2.11-.19-4.23-.34-6.34-.48a15.73,15.73,0,0,0-2.91-.07c-.33,0-.66-.11-1-.12-2.21-.06-4.42-.13-6.64-.16a65.75,65.75,0,0,0-9,.48,24.88,24.88,0,0,0-5.83,1.38,11.22,11.22,0,0,0-5.86,5,20.32,20.32,0,0,0-1,2,30.79,30.79,0,0,0-1.85,6.46,81.42,81.42,0,0,0-1.14,8.66q-.36,4.08-.43,8.18a66,66,0,0,0,.35,8.9,26.05,26.05,0,0,0,1.41,6.29,12.35,12.35,0,0,0,2,3.49,12.83,12.83,0,0,0,4.93,3.63,23.25,23.25,0,0,0,4.09,1.24A70.61,70.61,0,0,0,167.47,215.38Zm70.91-44a7.52,7.52,0,0,0-.12-3.06,9.88,9.88,0,0,0-.72-2.15,23.33,23.33,0,0,0-1.48-2.8,24.08,24.08,0,0,0-3.41-4.25,20.53,20.53,0,0,0-4.19-3.17,21.61,21.61,0,0,0-4.85-1.74,3.29,3.29,0,0,0-.63,0,3.37,3.37,0,0,1-.55,0,6.89,6.89,0,0,0-3,.34,3.8,3.8,0,0,0-1.31.79,2.25,2.25,0,0,0-.52,2.81,1.9,1.9,0,0,0,.48.65c.51.37,1,.77,1.54,1.1.88.55,1.79,1,2.66,1.57a18.42,18.42,0,0,1,3.5,3,9.7,9.7,0,0,1,1.55,1.89c.74,1.32,1.48,2.64,2.19,4a17.45,17.45,0,0,0,1.86,2.8A4.81,4.81,0,0,0,233,174.4a3.5,3.5,0,0,0,2.07.52,3.11,3.11,0,0,0,2.18-1A4.58,4.58,0,0,0,238.38,171.36Zm-2.7,12.52a1.92,1.92,0,0,0,1.93-.49l.14-.11a2.78,2.78,0,0,0,1.15-2.36,3.26,3.26,0,0,0-1-2.45,2.9,2.9,0,0,0-2.76-.74,3,3,0,0,0-2,2.66,4.45,4.45,0,0,0,.39,1.93A2.49,2.49,0,0,0,235.68,183.88Z"/><path class="cls-13" d="M181.08,143.61c-.05.15-.12.28-.31.28-2,0-3.91.26-5.86.45s-3.6.47-5.38.8a40,40,0,0,0-5.29,1.3c-.52.17-1.07.25-1.58.43a46.17,46.17,0,0,0-6.76,2.87c-.63.35-1.23.76-1.85,1.15a11,11,0,0,0-1.23.76,33.27,33.27,0,0,0-3.94,3.47,31,31,0,0,0-4,5.41,32.7,32.7,0,0,0-2.27,4.74,22.64,22.64,0,0,0-1.18,3.42c-.15.67-.42,1.32-.63,2a4.51,4.51,0,0,0-.1.53,3.79,3.79,0,0,1-.31,1.14,2.24,2.24,0,0,0-.16.7c-.39,2.55-.79,5.1-1.17,7.66-.07.53,0,1.08-.08,1.62a5,5,0,0,0-.09,1.63,1.24,1.24,0,0,1,0,.27c0,.75-.14,1.5-.15,2.26,0,1.17,0,2.35,0,3.52.09,1.84.14,3.68.4,5.51.18,1.29.36,2.58.62,3.85a29.54,29.54,0,0,0,1,3.69,23.12,23.12,0,0,0,1.75,4,20.73,20.73,0,0,0,1.66,2.49,18.29,18.29,0,0,0,3.27,3.25c.49.36.94.78,1.44,1.11a32.25,32.25,0,0,0,5.93,3.12,29.51,29.51,0,0,0,3,1.13,25.43,25.43,0,0,0,3.12.92,25,25,0,0,0,2.43.69,6.58,6.58,0,0,0,1.43.27,3.83,3.83,0,0,1,1.14.29,2.53,2.53,0,0,0,.79.18l15.48,2.38a2.32,2.32,0,0,0,.45.06,22.36,22.36,0,0,1,4.15.47,4.7,4.7,0,0,0,1.35.07,2.22,2.22,0,0,1,.72.06,12.26,12.26,0,0,0,2,.28c1,0,2,.25,3,.27s1.75.23,2.61.21a29.37,29.37,0,0,1,3.52.38c.33,0,.66,0,1,0s.67,0,1,.09l9.73,1.49a3.33,3.33,0,0,0,1.26.06,1.66,1.66,0,0,1,.54,0c.72.1,1.44.22,2.16.33.21,0,.43,0,.56.25-.67,0-1.34.07-2,0-2.21-.12-4.42-.24-6.63-.42-2.66-.21-5.32-.48-8-.73s-5.14-.5-7.7-.76c-2.75-.28-5.49-.58-8.25-.77-2.24-.15-4.48-.37-6.71-.59q-4.35-.42-8.7-.87c-2-.21-4.1-.45-6.15-.68l-7-.8a66.16,66.16,0,0,1-9-1.69,22.32,22.32,0,0,1-6.4-2.76,16.1,16.1,0,0,1-6.26-7.39,29.57,29.57,0,0,1-1.84-6.37,67.41,67.41,0,0,1-.94-9.41c-.13-3.27-.07-6.55.07-9.83s.4-6.84.75-10.26q.48-4.71,1.33-9.38a42.74,42.74,0,0,1,2.41-8.67,21.72,21.72,0,0,1,2.06-3.94A15.47,15.47,0,0,1,144,146a28.14,28.14,0,0,1,6.53-1.92,74.11,74.11,0,0,1,9.4-1c3.43-.16,6.86-.13,10.28,0,1.88.05,3.76.16,5.64.25,1.33.06,2.67.1,4,.17C180.24,143.51,180.66,143.57,181.08,143.61Z"/><path class="cls-19" d="M224.91,197.71a63.47,63.47,0,0,1-2.42,9.8,27.45,27.45,0,0,1-2.4,5.3,12.13,12.13,0,0,1-8.7,5.83s-.12,0-.18,0a8.63,8.63,0,0,1-2.42.3c-1.49,0-3,0-4.46-.05-2.87-.11-5.74-.43-8.61-.73q-4.93-.53-9.87-1c-2.06-.2-4.11-.32-6.17-.49-1.12-.09-2.24-.21-3.35-.32l-5.52-.61-2.17-.22c-.39,0-.79-.11-1.17-.17a72.06,72.06,0,0,1-9.27-1.31,22.49,22.49,0,0,1-4.09-1.26,12.81,12.81,0,0,1-4.94-3.62,12.57,12.57,0,0,1-1.94-3.49,26.08,26.08,0,0,1-1.41-6.28,66.26,66.26,0,0,1-.35-8.91c.05-2.73.19-5.45.43-8.18a79.42,79.42,0,0,1,1.14-8.67,30.7,30.7,0,0,1,1.85-6.45c.31-.69.65-1.38,1-2a11.34,11.34,0,0,1,5.87-5,25,25,0,0,1,5.83-1.37,64.25,64.25,0,0,1,9-.48c2.21,0,4.42.09,6.63.16.33,0,.67.07,1,.11a17.69,17.69,0,0,1,2.91.08c2.11.14,4.23.29,6.35.48,1.83.16,3.67.39,5.51.59.79.08,1.57.17,2.35.27a1.54,1.54,0,0,1,.35.1,7.32,7.32,0,0,1,.81,0q5.46.7,10.85,1.84a63.88,63.88,0,0,1,8.59,2.37,25.9,25.9,0,0,1,4.67,2.21,11.4,11.4,0,0,1,5,6.45,20.86,20.86,0,0,1,.92,5.55,58.86,58.86,0,0,1-.15,7.27A114.7,114.7,0,0,1,224.91,197.71Z"/><path class="cls-8" d="M238.38,171.36a4.58,4.58,0,0,1-1.18,2.6,3.11,3.11,0,0,1-2.18,1,3.5,3.5,0,0,1-2.07-.52,4.81,4.81,0,0,1-1.52-1.28,17.45,17.45,0,0,1-1.86-2.8c-.71-1.34-1.45-2.66-2.19-4a9.7,9.7,0,0,0-1.55-1.89,18.42,18.42,0,0,0-3.5-3c-.87-.54-1.78-1-2.66-1.57-.53-.33-1-.73-1.54-1.1a1.9,1.9,0,0,1-.48-.65,2.25,2.25,0,0,1,.52-2.81,3.8,3.8,0,0,1,1.31-.79,6.89,6.89,0,0,1,3-.34,3.37,3.37,0,0,0,.55,0,3.29,3.29,0,0,1,.63,0,21.61,21.61,0,0,1,4.85,1.74,20.53,20.53,0,0,1,4.19,3.17,24.08,24.08,0,0,1,3.41,4.25,23.33,23.33,0,0,1,1.48,2.8,9.88,9.88,0,0,1,.72,2.15A7.52,7.52,0,0,1,238.38,171.36Z"/><path class="cls-8" d="M235.68,183.88a2.49,2.49,0,0,1-2.15-1.56,4.45,4.45,0,0,1-.39-1.93,3,3,0,0,1,2-2.66,2.9,2.9,0,0,1,2.76.74,3.26,3.26,0,0,1,1,2.45,2.78,2.78,0,0,1-1.15,2.36l-.14.11A1.92,1.92,0,0,1,235.68,183.88Z"/><ellipse class="cls-8" cx="162.94" cy="256.32" rx="6.56" ry="11.03" transform="translate(-66.29 57.06) rotate(-16.56)"/><g id="Layer_8_copy" data-name="Layer 8 copy"><path class="cls-22" d="M185.06,195.67l-1.86-.06h-.36c-.51,0-.68.19-.81.7a7.19,7.19,0,0,0,.15,3.93,5.82,5.82,0,0,0,1,2,4.69,4.69,0,0,0,6.19,1.17,6.67,6.67,0,0,0,2.88-3.5,10.79,10.79,0,0,0,.41-1.58c.08-.4,0-.56-.37-.72-.75-.32-1.5-.64-2.27-.9A25.53,25.53,0,0,0,185.06,195.67Z"/><path class="cls-22" d="M171.56,163.67a3.21,3.21,0,0,0-2.54-.15,7.8,7.8,0,0,0-2,1,32.67,32.67,0,0,0-5.89,4.92,10.74,10.74,0,0,0-1.53,2,4.08,4.08,0,0,0-.57,1.7,2.74,2.74,0,0,0,.69,2.17c.1-.06.2-.18.3-.18a4.32,4.32,0,0,0,2.91-1.25c1.29-1.13,2.56-2.28,3.87-3.39s2.68-2.25,4-3.36a2.42,2.42,0,0,0,.89-2.65C171.62,164.21,171.6,163.94,171.56,163.67Z"/><path class="cls-22" d="M171.56,163.67c0,.27.06.54.12.8a2.42,2.42,0,0,1-.89,2.65c-1.35,1.11-2.7,2.22-4,3.36s-2.58,2.26-3.87,3.39a4.32,4.32,0,0,1-2.91,1.25c-.1,0-.2.12-.3.18a3.61,3.61,0,0,0,4.9,1.3,9.82,9.82,0,0,0,1.48-1c.94-.76,1.84-1.57,2.77-2.34l4.12-3.41a8.92,8.92,0,0,0,1.07-1,2.11,2.11,0,0,0,.42-2.36A4.68,4.68,0,0,0,171.56,163.67Z"/><path class="cls-22" d="M217.32,176.41a2.49,2.49,0,0,0-.82-1.57,20.05,20.05,0,0,0-1.66-1.53c-1.66-1.35-3.34-2.68-5-4-.59-.47-1.14-1-1.72-1.47a6.29,6.29,0,0,0-1-.66,2.15,2.15,0,0,0-2.24.06,4.15,4.15,0,0,0-1.77,2,2.06,2.06,0,0,1,.23.37,15.28,15.28,0,0,0,2.31,3.76,12.3,12.3,0,0,0,1.49,1.57,20.28,20.28,0,0,0,3.64,2.67,7.54,7.54,0,0,0,3.24,1A2.93,2.93,0,0,0,216,178,8.08,8.08,0,0,0,217.32,176.41Z"/><path class="cls-22" d="M217.32,176.41A8.08,8.08,0,0,1,216,178a2.93,2.93,0,0,1-1.93.61,7.54,7.54,0,0,1-3.24-1,20.28,20.28,0,0,1-3.64-2.67,12.3,12.3,0,0,1-1.49-1.57,15.28,15.28,0,0,1-2.31-3.76,2.06,2.06,0,0,0-.23-.37,3.75,3.75,0,0,0-.37,3.45,5.56,5.56,0,0,0,1.21,1.9,30,30,0,0,0,7,5.68,7.71,7.71,0,0,0,2.17.87,3.17,3.17,0,0,0,3.2-1,4.25,4.25,0,0,0,1.12-2.42A1.93,1.93,0,0,0,217.32,176.41Z"/><path class="cls-22" d="M173.1,181.9a19.12,19.12,0,0,1,1.72,6.06,6.61,6.61,0,0,1,.07,1.26c0,.45.1.91,0,1.35a12.19,12.19,0,0,1-1.79,5.34,8.29,8.29,0,0,1-2.48,2.35,11.28,11.28,0,0,1-5,1.63,15,15,0,0,1-3.61-.22,7.52,7.52,0,0,1-2.2-.78,13,13,0,0,1-2.38-1.48,8.19,8.19,0,0,1-1-1,18.28,18.28,0,0,1-2.14-2.81c-.06-.11-.21-.18-.32-.27a12,12,0,0,1,.92-5.32A13,13,0,0,1,168,179.94a11.77,11.77,0,0,1,5.07,1.52A1.56,1.56,0,0,0,173.1,181.9Z"/><path class="cls-22" d="M173.05,181.46a1.56,1.56,0,0,0,0,.44,19.12,19.12,0,0,1,1.72,6.06,6.61,6.61,0,0,1,.07,1.26c0,.45.1.91,0,1.35a12.19,12.19,0,0,1-1.79,5.34,8.29,8.29,0,0,1-2.48,2.35,11.28,11.28,0,0,1-5,1.63,15,15,0,0,1-3.61-.22,7.52,7.52,0,0,1-2.2-.78,13,13,0,0,1-2.38-1.48,8.19,8.19,0,0,1-1-1,18.28,18.28,0,0,1-2.14-2.81c-.06-.11-.21-.18-.32-.27a10.53,10.53,0,0,0,.79,4.15,12.82,12.82,0,0,0,9.21,8.1,13,13,0,0,0,9.61-23.88C173.38,181.61,173.22,181.54,173.05,181.46Z"/><circle class="cls-19" cx="163.21" cy="190.68" r="7.69"/><path class="cls-22" d="M214.28,185.9A19.14,19.14,0,0,1,216,192a6.61,6.61,0,0,1,.07,1.26c0,.45.1.91,0,1.35a12.32,12.32,0,0,1-1.79,5.34,8.32,8.32,0,0,1-2.49,2.35,11.24,11.24,0,0,1-5,1.63,15,15,0,0,1-3.61-.22,7.58,7.58,0,0,1-2.21-.78,13.24,13.24,0,0,1-2.37-1.48,7.58,7.58,0,0,1-1-1,18.28,18.28,0,0,1-2.14-2.81,1.49,1.49,0,0,0-.33-.27A12.26,12.26,0,0,1,196,192a13,13,0,0,1,13.13-8.07,11.81,11.81,0,0,1,5.08,1.52A1.27,1.27,0,0,0,214.28,185.9Z"/><path class="cls-22" d="M214.24,185.46a1.27,1.27,0,0,0,0,.44A19.14,19.14,0,0,1,216,192a6.61,6.61,0,0,1,.07,1.26c0,.45.1.91,0,1.35a12.32,12.32,0,0,1-1.79,5.34,8.32,8.32,0,0,1-2.49,2.35,11.24,11.24,0,0,1-5,1.63,15,15,0,0,1-3.61-.22,7.58,7.58,0,0,1-2.21-.78,13.24,13.24,0,0,1-2.37-1.48,7.58,7.58,0,0,1-1-1,18.28,18.28,0,0,1-2.14-2.81,1.49,1.49,0,0,0-.33-.27,10.54,10.54,0,0,0,.8,4.15,12.8,12.8,0,0,0,9.21,8.1,13,13,0,0,0,9.61-23.88C214.57,185.61,214.4,185.54,214.24,185.46Z"/><circle class="cls-19" cx="204.4" cy="194.68" r="7.69"/></g></g></g></svg>