<svg xmlns="http://www.w3.org/2000/svg" viewBox="0 0 307 307"><defs><style>.cls-1,.cls-17{fill:none;}.cls-1,.cls-17,.cls-18{stroke:#e0a635;stroke-miterlimit:10;}.cls-1{stroke-width:4px;}.cls-2{fill:#f05023;}.cls-3{fill:#ae3324;}.cls-4{fill:#da912d;}.cls-5{fill:#e1b541;}.cls-6{fill:#da8f2d;}.cls-7{fill:#785e65;}.cls-8{fill:#db912e;}.cls-9{fill:#031f1e;}.cls-10{fill:#e1b53e;}.cls-11{fill:#c28539;}.cls-12{fill:#e2b740;}.cls-13{fill:#db8f2c;}.cls-14{fill:#e0a637;}.cls-15{fill:#e0b440;}.cls-16{fill:#d88e2d;}.cls-17{stroke-width:3px;}.cls-18{fill:#e0a635;}</style></defs><g id="Layer_2" data-name="Layer 2"><path class="cls-1" d="M81.21,84.77c-2.4-7.2-6.89-24.16,1-39.88,12.09-24.22,44.24-27,62.62-28.66,13.52-1.18,60-5.27,76.63,23.37,6.88,11.82,6.18,24.9,4.82,33.14"/></g><g id="Layer_1" data-name="Layer 1"><path class="cls-2" d="M188.24,254.5c.92,0,1.84-.08,2.76-.09,1.74,0,3.47,0,5.21-.07a1.75,1.75,0,0,1,1.46.63,5.47,5.47,0,0,1,.5.58,10.8,10.8,0,0,1,2.09,6.85h-1.45c-3.29.05-6.59.12-9.89.16-2.48,0-5,.05-7.45.05-1.74,0-3.48,0-5.22,0,0-.19-.11-.35-.33-.4l-1.07-.25a14.69,14.69,0,0,1-4.06-1.77,12.34,12.34,0,0,1-2.89-2.74,5.36,5.36,0,0,1-1.27-2.55l1.59-.1c.37,0,.74,0,1.11,0,2.48-.05,5-.13,7.45-.17C180.6,254.58,184.42,254.54,188.24,254.5Z"/><path class="cls-3" d="M177.47,201.17a18.15,18.15,0,0,1,.3,4.88,7.22,7.22,0,0,1-2.4-.33,16.21,16.21,0,0,1-4-1.41c-.24-.13-.5-.34-.82-.14,0,.07-.1.13-.1.19a7.49,7.49,0,0,0,.13,2.54,2.46,2.46,0,0,1,0,.77v16.14a7.79,7.79,0,0,1-2.39-.46,4.34,4.34,0,0,1-.91-2.68c0-.62,0-1.25,0-1.88l0-15.53c0-1.78,0-3.55,0-5.33a4.85,4.85,0,0,1,.95-3l.17-.2,0,0,.2-.2,0,0,.39-.26h0l.46-.21h0l.21.07c.08.8.19,1.6.23,2.41a1.16,1.16,0,0,0,.65,1.06c.77.43,1.54.87,2.32,1.28.95.49,1.92,1,2.87,1.43Z"/><path class="cls-2" d="M177.8,228.36c0,.51.12,1,.13,1.54,0,1.48.06,3,.08,4.44q.08,4.77.14,9.54c0,.73-.07,1.47-.11,2.21l-4-.17c-.73,0-1.47,0-2.2,0,0-1.7,0-3.4,0-5.11,0-.33,0-.66-.06-1s-.12-.87-.14-1.31c-.1-2.25.09-4.5-.19-6.76a34.56,34.56,0,0,1,0-4.32,1.56,1.56,0,0,1,0-.44,3.5,3.5,0,0,0,.16-1.54,4.4,4.4,0,0,1,.24-1.52l2-.09.38,1a7.89,7.89,0,0,0,1.22,2.22A3.1,3.1,0,0,0,177.8,228.36Z"/><path class="cls-3" d="M176.25,262.58c1.74,0,3.48,0,5.22,0,2.49,0,5,0,7.45-.05,3.3,0,6.6-.11,9.89-.16h1.45a4.44,4.44,0,0,1-.45,2.48.65.65,0,0,1-.61.41h-.66l-34,.5c-1.26,0-2.52.07-3.78.08-.87,0-1-.09-1.27-.93a5.51,5.51,0,0,1-.35-2.06c.44,0,.89,0,1.33,0,3.56,0,7.12,0,10.69-.06,1.66,0,3.32-.12,5-.19Z"/><path class="cls-3" d="M171.79,223.89a4.4,4.4,0,0,0-.24,1.52,3.5,3.5,0,0,1-.16,1.54,1.56,1.56,0,0,0,0,.44,34.56,34.56,0,0,0,0,4.32c.28,2.26.09,4.51.19,6.76,0,.44.09.87.14,1.31s.06.66.06,1c0,1.71,0,3.41,0,5.11a11.63,11.63,0,0,0-2.69.26l-1.71.05c0-1-.1-1.92-.13-2.88-.14-5.15-.36-10.29-.16-15.44a11.74,11.74,0,0,1,.46-3.17,2.54,2.54,0,0,1,.71-1.35,7.79,7.79,0,0,0,2.39.46Z"/><path class="cls-2" d="M171.79,223.89l-1.13-.08V207.67a2.46,2.46,0,0,0,0-.77,7.49,7.49,0,0,1-.13-2.54c0-.06.06-.12.1-.19.32-.2.58,0,.82.14a16.21,16.21,0,0,0,4,1.41,7.22,7.22,0,0,0,2.4.33c0,.92.06,1.83.06,2.74,0,1.5,0,3-.05,4.51a3,3,0,0,0-3.19,1.69,7.62,7.62,0,0,0-.59,1.3,12.09,12.09,0,0,0-.55,5.44c.08.69.2,1.38.3,2.07Z"/><path class="cls-3" d="M176.25,262.58l-.11,0c-1.67.07-3.33.17-5,.19-3.57,0-7.13,0-10.69.06-.44,0-.89,0-1.33,0a15.05,15.05,0,0,1,.19-5.83,12,12,0,0,1,.43-1.37,1.09,1.09,0,0,1,1.17-.81c.44,0,.88,0,1.32,0l1.43,0,3,0a5.36,5.36,0,0,0,1.27,2.55,12.34,12.34,0,0,0,2.89,2.74,14.69,14.69,0,0,0,4.06,1.77l1.07.25C176.14,262.23,176.21,262.39,176.25,262.58Z"/><path class="cls-2" d="M169.1,246.14a11.63,11.63,0,0,1,2.69-.26c.73,0,1.47,0,2.2,0l4,.17,1.18.28a3.82,3.82,0,0,1,3.12,3.42,6.2,6.2,0,0,1,0,2.19,13.33,13.33,0,0,0-3.26-.56c-3.07-.1-6.13,0-9.2,0a1.88,1.88,0,0,0-.33.05l-.2-.09a4.85,4.85,0,0,1,.74-.15c.81,0,1.62,0,2.43,0a2.89,2.89,0,0,0,.9-.07,2.29,2.29,0,0,0-.28-.25,10.84,10.84,0,0,1-2.13-1.36c-.41-.34-.65-.78-1-1.14A2.79,2.79,0,0,1,169.1,246.14Z"/><path class="cls-3" d="M178,213.45a3.26,3.26,0,0,1,1.66,1.4,8.06,8.06,0,0,1,1.23,2.72,14.32,14.32,0,0,1,.21,6.51,7.24,7.24,0,0,1-.83,2.29,7.82,7.82,0,0,1-.67.85c-.14,0-.33,0-.42-.13a14.8,14.8,0,0,1-1.6-1.67,7,7,0,0,1-1.31-3.83,16.42,16.42,0,0,1,.16-4.64,7.46,7.46,0,0,1,1-2.66C177.67,214,177.83,213.73,178,213.45Z"/><path class="cls-4" d="M178,213.45c-.18.28-.34.57-.53.84a7.46,7.46,0,0,0-1,2.66,16.42,16.42,0,0,0-.16,4.64,7,7,0,0,0,1.31,3.83,14.8,14.8,0,0,0,1.6,1.67c.09.1.28.09.42.13a2.61,2.61,0,0,1-1.81,1.14,3.1,3.1,0,0,1-2.45-1.3,7.89,7.89,0,0,1-1.22-2.22l-.38-1c-.1-.69-.22-1.38-.3-2.07a12.09,12.09,0,0,1,.55-5.44,7.62,7.62,0,0,1,.59-1.3,3,3,0,0,1,3.19-1.69Z"/><path class="cls-5" d="M169.54,251.5a1.88,1.88,0,0,1,.33-.05c3.07-.06,6.13-.13,9.2,0a13.33,13.33,0,0,1,3.26.56,2.63,2.63,0,0,1,1,2.44,5.36,5.36,0,0,0,1.68.09c.52,0,1,0,1.55,0h1.65c-3.82,0-7.64.08-11.46.14-2.48,0-5,.12-7.45.17-.37,0-.74,0-1.11,0,.25-.24.55-.17.84-.18h3.77l.62,0c-.18-.16-.25-.26-.34-.28a7.25,7.25,0,0,1-2.38-1.37A2.5,2.5,0,0,1,169.54,251.5Z"/><path class="cls-2" d="M169.1,246.14a2.79,2.79,0,0,0,.88,2.29c.37.36.61.8,1,1.14a10.84,10.84,0,0,0,2.13,1.36,2.29,2.29,0,0,1,.28.25,2.89,2.89,0,0,1-.9.07c-.81,0-1.62,0-2.43,0a4.85,4.85,0,0,0-.74.15c-.66,0-1.32,0-2,.09a11.19,11.19,0,0,0-4.28.81,7.44,7.44,0,0,1,0-2.86,3.15,3.15,0,0,1,2.12-2.61c.55-.21,1.14-.32,1.71-.48a5.08,5.08,0,0,0,.51-.17Z"/><path class="cls-2" d="M177.47,201.17l-1.64-.89c-1-.48-1.92-.94-2.87-1.43-.78-.41-1.55-.85-2.32-1.28a1.16,1.16,0,0,1-.65-1.06c0-.81-.15-1.61-.23-2.41l2.22,0a5.66,5.66,0,0,1,2.45,1.42A8.91,8.91,0,0,1,177.47,201.17Z"/><path class="cls-6" d="M163.09,252.31a11.19,11.19,0,0,1,4.28-.81c.65-.06,1.31-.06,2-.09l.2.09a2.5,2.5,0,0,0,1.19,1.4,7.25,7.25,0,0,0,2.38,1.37c.09,0,.16.12.34.28l-.62,0h-3.77c-.29,0-.59-.06-.84.18l-1.59.1-3,0-1.43,0A2.59,2.59,0,0,1,163.09,252.31Z"/><path class="cls-7" d="M172,194.05l-2.22,0-.21-.07A2.7,2.7,0,0,1,172,194.05Z"/><path class="cls-7" d="M169.1,194.24l-.39.26Z"/><path class="cls-7" d="M169.55,194l-.46.21A.39.39,0,0,1,169.55,194Z"/><path class="cls-7" d="M168.46,194.74l-.17.2Z"/><path class="cls-7" d="M168.68,194.52l-.2.2Z"/><path class="cls-2" d="M93.1,243.27a2.47,2.47,0,0,1,.14-.41,11.55,11.55,0,0,1,4.23-4.46c.28-.17.59-.31.89-.46a2.27,2.27,0,0,1,2.21.1c3.29,1.76,6.62,3.47,9.93,5.19.43.22.87.42,1.3.62.25.16.49.33.75.47q2.55,1.34,5.11,2.66c.89.46,1.78.89,2.67,1.33l5.11,2.71c.39.21.76.45,1.14.67-.34.28-.67.57-1,.83a11.59,11.59,0,0,1-5.87,2,7.89,7.89,0,0,1-1.88,0c-1-.15-2.09-.38-3.13-.56-.11,0-.25.12-.38.18-.7-.32-1.42-.61-2.11-1-2.86-1.47-5.7-3-8.56-4.44l-10.05-5.18Z"/><path class="cls-3" d="M151.26,196a1.75,1.75,0,0,1,.63,1.25,4.67,4.67,0,0,1-.34,2.7c-3.25,6.48-6.47,13-9.71,19.47a19.63,19.63,0,0,1-1.05,1.83,2.68,2.68,0,0,1-1.38,1.23,3.47,3.47,0,0,1-2.4-.42,2.52,2.52,0,0,1,.46-1.35q3.59-7.08,7.19-14.15c.13-.26.32-.5.46-.76a4,4,0,0,0,.65-1.53c-.22,0-.41,0-.59,0a16.66,16.66,0,0,1-4.91-.65c-.64-.18-1.29-.33-1.93-.49l.07-.21.11-.18a17.42,17.42,0,0,1,2.07-3.6l.2-.26.12-.18h5.34a11,11,0,0,0,2.42-.2,1.46,1.46,0,0,0,1.06-.69c.28-.47.61-.92.91-1.39A.73.73,0,0,1,151.26,196Z"/><path class="cls-2" d="M120.28,238.64c.15-.38.28-.77.46-1.13q3.63-7,7.28-14a5.35,5.35,0,0,1,.36-.56,3.47,3.47,0,0,0,3.29-.35,16.37,16.37,0,0,0,1.51-1.12c.32-.25.6-.55.9-.82l1.62,1a6,6,0,0,1-.68,2.2,51.63,51.63,0,0,1-2.28,4.67c-1,1.74-2,3.55-2.92,5.34-1,2-2.07,4-3.12,6-.25.49-.54,1-.82,1.44a1.29,1.29,0,0,1-.21-.05Z"/><path class="cls-3" d="M93.1,243.27l.47.29,10.05,5.18c2.86,1.48,5.7,3,8.56,4.44.69.35,1.41.64,2.11,1a3.28,3.28,0,0,0,.43.33l4.53,2.36,9.67,5c.23.12.45.26.67.39a6.92,6.92,0,0,1-1.33,1.76c-.51.49-.66.51-1.28.21l-1-.5L93.43,246.75c-1.21-.63-1.29-.75-1-2.08A2.93,2.93,0,0,1,93.1,243.27Z"/><path class="cls-3" d="M125.88,241.25c.28-.48.57-.95.82-1.44,1-2,2.07-4,3.12-6,1-1.79,1.88-3.6,2.92-5.34a51.63,51.63,0,0,0,2.28-4.67,6,6,0,0,0,.68-2.2l1.31.49a3.47,3.47,0,0,0,2.4.42,2.36,2.36,0,0,0-.13.63,6.73,6.73,0,0,1-.52,2.7c-.38,1-.76,1.93-1.23,2.85-2.18,4.24-4.4,8.45-6.61,12.68l-1.17,2.26-1.41-.86c-.15-.1-.28-.22-.43-.32C127.24,242.05,126.56,241.65,125.88,241.25Z"/><path class="cls-2" d="M137,222.1l-1.31-.49-1.62-1c.18-.28.36-.56.56-.82a13.7,13.7,0,0,0,2.5-5.52,5.72,5.72,0,0,0-.11-3.07,2.22,2.22,0,0,0-1.78-1.65.62.62,0,0,0-.07-.19l2.52-5.17c.15-.3.34-.57.5-.86l.15-.24h0c.64.16,1.29.31,1.93.49a16.66,16.66,0,0,0,4.91.65c.18,0,.37,0,.59,0a4,4,0,0,1-.65,1.53c-.14.26-.33.5-.46.76q-3.6,7.08-7.19,14.15A2.52,2.52,0,0,0,137,222.1Z"/><path class="cls-3" d="M129.59,262.19c-.22-.13-.44-.27-.67-.39l-9.67-5-4.53-2.36a3.28,3.28,0,0,1-.43-.33c.13-.06.27-.2.38-.18,1,.18,2.08.41,3.13.56a7.89,7.89,0,0,0,1.88,0,11.59,11.59,0,0,0,5.87-2c.36-.26.69-.55,1-.83l1.47.69,2.33,1.15c.45.25.9.51,1.36.75a.89.89,0,0,1,.55,1,9.72,9.72,0,0,1-.22,1.53A15.62,15.62,0,0,1,129.59,262.19Z"/><path class="cls-2" d="M125.88,241.25c.68.4,1.36.8,2,1.21.15.1.28.22.43.32a6.32,6.32,0,0,1-3.81,2.23,11.34,11.34,0,0,1-2.73.26c-.3-.13-.61-.25-.91-.39-1.4-.67-2.79-1.36-4.2-2a8.3,8.3,0,0,0-3-.8,18.85,18.85,0,0,1,1-2,3.61,3.61,0,0,1,3.85-1.78c.58.08,1.15.21,1.73.32l5.39,2.56A1.29,1.29,0,0,0,125.88,241.25Z"/><path class="cls-3" d="M135.18,209.41a.62.62,0,0,1,.07.19c-.29.21-.22.52-.23.81a14.51,14.51,0,0,1-.09,2,16.36,16.36,0,0,1-2.1,5.08,10,10,0,0,1-2,2.21,5.22,5.22,0,0,1-3.56,1.53,4,4,0,0,1-.18-2.4,13.26,13.26,0,0,1,4.37-7.9A5.17,5.17,0,0,1,135.18,209.41Z"/><path class="cls-4" d="M127.28,221.21a5.22,5.22,0,0,0,3.56-1.53,10,10,0,0,0,2-2.21,16.36,16.36,0,0,0,2.1-5.08,14.51,14.51,0,0,0,.09-2c0-.29-.06-.6.23-.81a2.22,2.22,0,0,1,1.78,1.65,5.72,5.72,0,0,1,.11,3.07,13.7,13.7,0,0,1-2.5,5.52c-.2.26-.38.54-.56.82s-.58.57-.9.82a16.37,16.37,0,0,1-1.51,1.12,3.47,3.47,0,0,1-3.29.35A3.17,3.17,0,0,1,127.28,221.21Z"/><path class="cls-2" d="M121.8,245.27a11.34,11.34,0,0,0,2.73-.26,6.32,6.32,0,0,0,3.81-2.23l1.41.86c.48.4,1,.78,1.43,1.22a3.24,3.24,0,0,1,.84,3.83,6.23,6.23,0,0,1-1.24,2.2,10.27,10.27,0,0,0-1.25-1.22,26.05,26.05,0,0,0-4.09-2.37c-.35-.2-.7-.41-1-.6Z"/><path class="cls-5" d="M121.8,245.27l2.59,1.43c.35.19.7.4,1,.6a4.88,4.88,0,0,1-2.93.83c-.52,0-1,0-1.56,0a2.87,2.87,0,0,0-.62.17c-.89-.44-1.78-.87-2.67-1.33q-2.56-1.32-5.11-2.66c-.26-.14-.5-.31-.75-.47,0-.13.09-.27.14-.41a2,2,0,0,1,1.78-1.38,8.3,8.3,0,0,1,3,.8c1.41.66,2.8,1.35,4.2,2C121.19,245,121.5,245.14,121.8,245.27Z"/><path class="cls-2" d="M151.26,196a.73.73,0,0,0-.62.39c-.3.47-.63.92-.91,1.39a1.46,1.46,0,0,1-1.06.69,11,11,0,0,1-2.42.2h-5.34a9,9,0,0,1,6.54-4,4.44,4.44,0,0,1,3.55.93A1.52,1.52,0,0,1,151.26,196Z"/><path class="cls-4" d="M120.33,248.31a2.87,2.87,0,0,1,.62-.17c.52,0,1,0,1.56,0a4.88,4.88,0,0,0,2.93-.83,26.05,26.05,0,0,1,4.09,2.37,10.27,10.27,0,0,1,1.25,1.22,2.42,2.42,0,0,1-.4,2.64l-2.33-1.15-1.47-.69c-.38-.22-.75-.46-1.14-.67Z"/><path class="cls-2" d="M140.79,198.89l-.2.26Z"/><path class="cls-2" d="M138.52,202.75l-.11.18Z"/><path class="cls-2" d="M138.35,203.14l-.15.24Z"/><path class="cls-6" d="M75.79,157.59a12,12,0,0,1,5.09-4.76l.7-.35a1.54,1.54,0,0,0,.43,0,10.33,10.33,0,0,1,4.51-.62c.14,0,.29,0,.43,0l.55,0,1.24.43a7.05,7.05,0,0,1,3.08,2,1.7,1.7,0,0,0-.17.51c0,1.14-.05,2.27-.19,3.42a14,14,0,0,1-1.19,3.89,5.18,5.18,0,0,1-.89,1.41,11,11,0,0,1-4.27,3.27,10.08,10.08,0,0,1-2.58.6,6.1,6.1,0,0,1-3.31-.74,4.49,4.49,0,0,1-2.44-2.46,6.63,6.63,0,0,1-.29-.6,10.16,10.16,0,0,1-.42-1.71c0-.51-.16-1-.2-1.52a9.25,9.25,0,0,1,.18-1.64,3.4,3.4,0,0,0,0-.78C76,157.82,75.87,157.71,75.79,157.59Zm8.82-3.52a6.23,6.23,0,0,0-3.65,1,2.44,2.44,0,0,0-.88,2.59c.1.76.8.9,1.36,1.17a1.76,1.76,0,0,0,1.2,0,12.8,12.8,0,0,1,3.25-.62,2.63,2.63,0,0,0,1.06-.31,1.47,1.47,0,0,0,.55-2.58A4.22,4.22,0,0,0,84.61,154.07Z"/><path class="cls-2" d="M107,172.79a2.69,2.69,0,0,1,1.84-.9,12.08,12.08,0,0,1,2-.11,55.79,55.79,0,0,1,7,.54,13.28,13.28,0,0,1,2.79.71,6,6,0,0,1,2.92,2.29,5.06,5.06,0,0,1,.93,3.67l-1.64.23-1.74.26a21.09,21.09,0,0,1-2.83.37,39.19,39.19,0,0,1-6.85-.18,13.62,13.62,0,0,1-2.47-.56c-.66-.24-1.29-.54-1.94-.81.1-.44.19-.88.28-1.32A5.4,5.4,0,0,0,107,172.79Z"/><path class="cls-2" d="M107,172.79a5.4,5.4,0,0,1,.24,4.19,2,2,0,0,0-1.14.38,5,5,0,0,1-1.8.5,13.25,13.25,0,0,1-5.89-.77,27.41,27.41,0,0,1-7-3.84,2.63,2.63,0,0,1-.41-.53c.5-.37,1-.67,1.38-1a9.53,9.53,0,0,0,2.74-4.1c.19-.56.3-1.14.45-1.71a29.93,29.93,0,0,0,5.18,3.38c.89.45,1.78.89,2.68,1.3A12.32,12.32,0,0,1,107,172.79Z"/><path class="cls-3" d="M95.55,165.88c-.15.57-.26,1.15-.45,1.71a9.53,9.53,0,0,1-2.74,4.1c-.41.36-.88.66-1.38,1a2.63,2.63,0,0,0,.41.53,27.41,27.41,0,0,0,7,3.84,13.25,13.25,0,0,0,5.89.77,5,5,0,0,0,1.8-.5,2,2,0,0,1,1.14-.38c-.09.44-.18.88-.28,1.32l-.35.65a12.66,12.66,0,0,0-3-.19,4.76,4.76,0,0,0-2,.49,1.71,1.71,0,0,0-1.12,1.25c-.32.45-.08.88,0,1.32a12,12,0,0,1-3.05-1A35.13,35.13,0,0,1,86,172.72a4.58,4.58,0,0,1-.34-.43l.51-.22A12.37,12.37,0,0,0,93.52,165c.1-.23.23-.45.35-.67Z"/><path class="cls-6" d="M75.79,157.59c.08.12.21.23.23.35a3.4,3.4,0,0,1,0,.78,9.25,9.25,0,0,0-.18,1.64c0,.5.15,1,.2,1.52a10.16,10.16,0,0,0,.42,1.71,6.63,6.63,0,0,0,.29.6,4.49,4.49,0,0,0,2.44,2.46,6.1,6.1,0,0,0,3.31.74,10.08,10.08,0,0,0,2.58-.6,11,11,0,0,0,4.27-3.27,5.18,5.18,0,0,0,.89-1.41,14,14,0,0,0,1.19-3.89c.14-1.15.16-2.28.19-3.42a1.7,1.7,0,0,1,.17-.51A3.47,3.47,0,0,1,93,155.82c0,1.33,0,2.67,0,4a6.5,6.5,0,0,1-.07,1,15,15,0,0,1-.81,2.88,10.29,10.29,0,0,1-2.18,3.57,10.8,10.8,0,0,1-4,2.54,13.56,13.56,0,0,1-3.46.71,8.13,8.13,0,0,1-4.08-.84,7.31,7.31,0,0,1-3.57-3.35,10.2,10.2,0,0,0-.59-.92c-.08-.22-.16-.44-.25-.66,0-.59,0-1.18,0-1.77A10.46,10.46,0,0,1,75.79,157.59Z"/><path class="cls-6" d="M74.24,165.4a10.2,10.2,0,0,1,.59.92,7.31,7.31,0,0,0,3.57,3.35,8.13,8.13,0,0,0,4.08.84,13.56,13.56,0,0,0,3.46-.71,10.8,10.8,0,0,0,4-2.54,10.29,10.29,0,0,0,2.18-3.57,15,15,0,0,0,.81-2.88,6.5,6.5,0,0,0,.07-1c0-1.33,0-2.67,0-4a7.09,7.09,0,0,1,1.31,3.58,10.68,10.68,0,0,1-.27,4.17c-.07.24-.11.5-.16.75s-.25.44-.35.67a12.37,12.37,0,0,1-7.38,7.08l-.51.22c-.47.08-.94.17-1.41.23a8.92,8.92,0,0,1-7.57-2.28l-.17-.14-1.59-2.25A7.41,7.41,0,0,1,74.24,165.4Z"/><path class="cls-3" d="M106.56,179l.35-.65c.65.27,1.28.57,1.94.81a13.62,13.62,0,0,0,2.47.56,39.19,39.19,0,0,0,6.85.18,21.09,21.09,0,0,0,2.83-.37l1.74-.26,1.64-.23a4.49,4.49,0,0,1-2.87,4.21,5.43,5.43,0,0,1-1.48.41,35.93,35.93,0,0,1-8.16.12,3,3,0,0,1-.43-.09,1.84,1.84,0,0,0-.38-2.27,4.67,4.67,0,0,0-2.3-1.66C108.05,179.39,107.3,179.2,106.56,179Z"/><path class="cls-2" d="M74.89,167.85l1.59,2.25c-.43.11-.85.24-1.28.31a16,16,0,0,1-5.4.15,5.05,5.05,0,0,1-4-3.24,10.43,10.43,0,0,1-.6-5.33,2.26,2.26,0,0,1,.65-1.48,7,7,0,0,1,.45.86c.29.79.53,1.6.83,2.39a5.84,5.84,0,0,0,4.18,3.86,6.47,6.47,0,0,0,2,.24C73.79,167.83,74.34,167.85,74.89,167.85Z"/><path class="cls-2" d="M87.5,151.83l-.55,0c-.2-.23-.46-.19-.72-.19l-1.8,0-.59-1.11a9.57,9.57,0,0,0-2.15-2.94,3.08,3.08,0,0,0-1.66-.82,3.5,3.5,0,0,0-2.63.63,10.64,10.64,0,0,1-1.06.66c-.16-.06-.25-.07-.29-.12a5.59,5.59,0,0,1-.48-.61.81.81,0,0,0-.64-.37,6.24,6.24,0,0,1,.71-.82A10.16,10.16,0,0,1,79.49,144a3.91,3.91,0,0,1,4.62,1.43,20.33,20.33,0,0,1,1.57,2.41A16.87,16.87,0,0,1,87.5,151.83Z"/><path class="cls-2" d="M74.93,146.91a.81.81,0,0,1,.64.37,5.59,5.59,0,0,0,.48.61c0,.05.13.06.29.12a10.64,10.64,0,0,0,1.06-.66,3.5,3.5,0,0,1,2.63-.63,3.08,3.08,0,0,1,1.66.82,9.57,9.57,0,0,1,2.15,2.94l.59,1.11,1.8,0c.26,0,.52,0,.72.19-.14,0-.29,0-.43,0a10.33,10.33,0,0,0-4.51.62,1.54,1.54,0,0,1-.43,0c-.34-.61-.63-1.25-1-1.83s-.66-.59-1.23-.32c-.3.15-.57.34-.86.5a9.18,9.18,0,0,1-1,.52,2,2,0,0,1-2.33-.49,2.83,2.83,0,0,1-.42-3.71l.17-.24Z"/><path class="cls-2" d="M74.89,167.85c-.55,0-1.1,0-1.65,0a6.47,6.47,0,0,1-2-.24,5.84,5.84,0,0,1-4.18-3.86c-.3-.79-.54-1.6-.83-2.39a7,7,0,0,0-.45-.86,2,2,0,0,1,1.55-.91,3,3,0,0,1,1.94.23,2.21,2.21,0,0,1,1.15,1.79,12.94,12.94,0,0,1,.05,1.65c0,1.38.22,1.55,1.61,1.62a16.83,16.83,0,0,0,1.87-.15c.09.22.17.44.25.66A7.41,7.41,0,0,0,74.89,167.85Z"/><path class="cls-8" d="M111.06,181.37a1.84,1.84,0,0,1,.38,2.27,4.44,4.44,0,0,1-3.33,1.29,11.07,11.07,0,0,1-5.87-1.43,4.57,4.57,0,0,1-1.73-1.68c-.1-.44-.34-.87,0-1.32l1,.44c.52.25,1,.54,1.57.76a10.41,10.41,0,0,0,4.21.64,6.29,6.29,0,0,0,2.76-.62A7.35,7.35,0,0,1,111.06,181.37Z"/><path class="cls-2" d="M74.92,146.91l-.17.24Z"/><path class="cls-9" d="M84.61,154.07a4.22,4.22,0,0,1,2.89,1.29,1.47,1.47,0,0,1-.55,2.58,2.63,2.63,0,0,1-1.06.31,12.8,12.8,0,0,0-3.25.62,1.76,1.76,0,0,1-1.2,0c-.56-.27-1.26-.41-1.36-1.17a2.44,2.44,0,0,1,.88-2.59A6.23,6.23,0,0,1,84.61,154.07Z"/><path class="cls-10" d="M111.06,181.37a7.35,7.35,0,0,0-1,.35,6.29,6.29,0,0,1-2.76.62,10.41,10.41,0,0,1-4.21-.64c-.53-.22-1-.51-1.57-.76l-1-.44a1.71,1.71,0,0,1,1.12-1.25,4.76,4.76,0,0,1,2-.49,12.66,12.66,0,0,1,3,.19c.74.25,1.49.44,2.2.76A4.67,4.67,0,0,1,111.06,181.37Z"/><path class="cls-6" d="M216.8,136.89l3-.85,1.11,0a12.91,12.91,0,0,1,3.1.26,9.57,9.57,0,0,1,3.28,1.29,1.59,1.59,0,0,0,.41,1,11.12,11.12,0,0,1,2.07,4.36,4.86,4.86,0,0,1,0,2.18,6.09,6.09,0,0,1-2,3.4,5.92,5.92,0,0,1-1.79,1.07,9,9,0,0,1-3.44.72,10,10,0,0,1-5.74-1.77,12.06,12.06,0,0,1-3.72-4c-.28-.48-.55-1-.85-1.43a1.54,1.54,0,0,0-.4-.36,6.84,6.84,0,0,1,1.71-3.36c.26-.31.53-.6.79-.9Zm1.39,2a5,5,0,0,0-1.8,1.75,2.52,2.52,0,0,0-.21,1.82,1.12,1.12,0,0,0,1,.91,3.21,3.21,0,0,0,1.95-.24,9.54,9.54,0,0,1,2.38-.86,3.42,3.42,0,0,0,1.72-.95,1.82,1.82,0,0,0-.34-2.77,2.55,2.55,0,0,0-1.71-.52A5.77,5.77,0,0,0,218.19,138.88Z"/><path class="cls-2" d="M208.09,166.13a4.73,4.73,0,0,0-3.19.71,52.59,52.59,0,0,0-6.71,4.53,9.85,9.85,0,0,0-2.33,2.53,5.84,5.84,0,0,0-.44,5.53,5.73,5.73,0,0,0,.58.93,3,3,0,0,0,.43-.09l4-1.64a29.6,29.6,0,0,0,6.74-3.73,12.34,12.34,0,0,0,3-2.91,6.94,6.94,0,0,1,.73-.81l-1.15-1.31A4.42,4.42,0,0,1,208.09,166.13Z"/><path class="cls-2" d="M208.09,166.13a4.42,4.42,0,0,0,1.63,3.74,6.51,6.51,0,0,0,2.62-.31,12.24,12.24,0,0,0,3.16-1.8,18.4,18.4,0,0,0,3.67-4.11,35.19,35.19,0,0,0,2.61-4.88,1.55,1.55,0,0,0,.05-.36l-.43-.11a20.1,20.1,0,0,1-2.58-.58,10.36,10.36,0,0,1-3.24-1.89c-.46-.4-1-.78-1.06-1.49-.17.4-.35.81-.51,1.21a28.65,28.65,0,0,1-2.89,5.34c-.61.92-1.26,1.83-1.88,2.74A7.48,7.48,0,0,0,208.09,166.13Z"/><path class="cls-3" d="M214.52,154.34c0,.71.6,1.09,1.06,1.49a10.36,10.36,0,0,0,3.24,1.89,20.1,20.1,0,0,0,2.58.58l.43.11a1.55,1.55,0,0,1-.05.36,35.19,35.19,0,0,1-2.61,4.88,18.4,18.4,0,0,1-3.67,4.11,12.24,12.24,0,0,1-3.16,1.8,6.51,6.51,0,0,1-2.62.31l1.15,1.31.41.26c.3-.21.6-.41.89-.63a8.18,8.18,0,0,1,3-1.51,2.21,2.21,0,0,1,2.08.26,1.17,1.17,0,0,1,.63.68l.26.57a12.08,12.08,0,0,0,2.42-2.72,35,35,0,0,0,4.88-9.88c.3-1,.51-2,.77-3a3.33,3.33,0,0,0-.55,0,12.33,12.33,0,0,1-9.79-2.29l-.81-.58C214.89,153,214.7,153.68,214.52,154.34Z"/><path class="cls-6" d="M227.28,137.56a1.59,1.59,0,0,0,.41,1,11.12,11.12,0,0,1,2.07,4.36,4.86,4.86,0,0,1,0,2.18,6.09,6.09,0,0,1-2,3.4,5.92,5.92,0,0,1-1.79,1.07,9,9,0,0,1-3.44.72,10,10,0,0,1-5.74-1.77,12.06,12.06,0,0,1-3.72-4c-.28-.48-.55-1-.85-1.43a1.54,1.54,0,0,0-.4-.36,4.52,4.52,0,0,0-.31,2.24c.31.05.38.33.5.55.31.59.61,1.18.93,1.76a13.64,13.64,0,0,0,2.5,3,12.77,12.77,0,0,0,1.95,1.63A9.67,9.67,0,0,0,225.5,153a11.82,11.82,0,0,0,3.9-1.83,5.87,5.87,0,0,0,1.23-1.1,9.58,9.58,0,0,0,1.68-3.09,4.61,4.61,0,0,0,.3-1.85c0-.44,0-.89,0-1.33a.79.79,0,0,1-.13-.91v-.05a11.3,11.3,0,0,0-3.94-4.64A12.63,12.63,0,0,0,227.28,137.56Z"/><path class="cls-8" d="M232.6,143.84c0,.44,0,.89,0,1.33a4.61,4.61,0,0,1-.3,1.85,9.58,9.58,0,0,1-1.68,3.09,5.87,5.87,0,0,1-1.23,1.1,11.82,11.82,0,0,1-3.9,1.83,9.67,9.67,0,0,1-8.05-1.19,12.77,12.77,0,0,1-1.95-1.63,13.64,13.64,0,0,1-2.5-3c-.32-.58-.62-1.17-.93-1.76-.12-.22-.19-.5-.5-.55a7,7,0,0,0,.46,2.9,10.78,10.78,0,0,0,3.05,4.5l.81.58a12.33,12.33,0,0,0,9.79,2.29,3.33,3.33,0,0,1,.55,0c.75-.3,1.53-.54,2.25-.91a8.6,8.6,0,0,0,4.33-4.83c.09-.25.19-.49.28-.73.07-1,.13-1.94.2-2.91-.17-.66-.34-1.33-.5-2Z"/><path class="cls-3" d="M211.28,171.44l-.41-.26a6.94,6.94,0,0,0-.73.81,12.34,12.34,0,0,1-3,2.91,29.6,29.6,0,0,1-6.74,3.73l-4,1.64a3,3,0,0,1-.43.09,4.58,4.58,0,0,0,5.05,2.09,12.47,12.47,0,0,0,2.07-.75A38.11,38.11,0,0,0,209.5,178c-.12-.14-.23-.29-.36-.42a1.15,1.15,0,0,1-.39-.77,1.54,1.54,0,0,1-.06-1.28,6.07,6.07,0,0,1,1.1-2.27C210.27,172.6,210.79,172,211.28,171.44Z"/><path class="cls-2" d="M214.38,138.45l2.42-1.56a1.06,1.06,0,0,0,.13-.84,7.81,7.81,0,0,1,.55-4.72,2.92,2.92,0,0,1,2.61-1.74c.51-.06,1,0,1.55,0a5.68,5.68,0,0,0,.69-.11c0-.44,0-.84,0-1.24a.38.38,0,0,1,.31-.39,9.56,9.56,0,0,0-1.15-.36,10,10,0,0,0-4.6.27,3.83,3.83,0,0,0-2.82,3.22,19.29,19.29,0,0,0-.1,5.09C214.08,136.85,214.25,137.65,214.38,138.45Z"/><path class="cls-2" d="M233.29,145.83c-.07,1-.13,1.94-.2,2.91a17.16,17.16,0,0,0,5.2-2.38,9.82,9.82,0,0,0,1.56-1.39,4.25,4.25,0,0,0,1.13-3.16,9.08,9.08,0,0,0-2.34-5.82h0l-.21-.23h0l-.22-.21h0l-.26-.18-.21,0c-.36.23-.29.59-.21.9.2.74.29,1.51.47,2.26a6.34,6.34,0,0,1-.71,4.36,1.31,1.31,0,0,1-.17.28A8,8,0,0,1,233.29,145.83Z"/><path class="cls-2" d="M233.29,145.83a8,8,0,0,0,3.85-2.67,1.31,1.31,0,0,0,.17-.28,6.34,6.34,0,0,0,.71-4.36c-.18-.75-.27-1.52-.47-2.26-.08-.31-.15-.67.21-.9l0-.15,0-.07h-.08l-.25-.11a2.8,2.8,0,0,0-3.06,1,1.76,1.76,0,0,0-.44,1.76,11.2,11.2,0,0,0,.63,1.53c.17.36.41.69.59,1.06a.82.82,0,0,1-.27,1.24,6.48,6.48,0,0,1-.93.61c-.45.24-.93.44-1.4.66v.05c.11.3.21.6.32.91C233,144.5,233.12,145.17,233.29,145.83Z"/><path class="cls-2" d="M222.68,127.83a.38.38,0,0,0-.31.39c0,.4,0,.8,0,1.24a5.68,5.68,0,0,1-.69.11c-.52,0-1,0-1.55,0a2.92,2.92,0,0,0-2.61,1.74,7.81,7.81,0,0,0-.55,4.72,1.06,1.06,0,0,1-.13.84l3-.85c0-.56-.08-1.11-.07-1.66a3.59,3.59,0,0,1,.14-.86.54.54,0,0,1,.48-.41c.36,0,.73,0,1.1-.05s1,0,1.43-.09a2,2,0,0,0,1.7-1.66,2.78,2.78,0,0,0-1.42-3.26l-.34-.19-.06,0Z"/><path class="cls-8" d="M208.75,176.76a1.15,1.15,0,0,0,.39.77c.13.13.24.28.36.42a3.85,3.85,0,0,0,2.81-.18,10.85,10.85,0,0,0,5.2-4.63,5.61,5.61,0,0,0,.65-2.33l-.26-.57a1.17,1.17,0,0,0-.63-.68,8,8,0,0,1-2.48,3.73,13.43,13.43,0,0,1-1.44,1,7.14,7.14,0,0,1-4.14,1.36,1.24,1.24,0,0,0-.36.12Z"/><path class="cls-2" d="M237.73,135.21l0,.15.21,0Z"/><path class="cls-2" d="M237.35,135l.25.11Z"/><path class="cls-2" d="M222.81,127.86l.34.19Z"/><path class="cls-2" d="M238.65,136h0Z"/><path class="cls-2" d="M238.44,135.78h0Z"/><path class="cls-2" d="M238.23,135.57h0Z"/><path class="cls-9" d="M221.18,138a5.77,5.77,0,0,0-3,.86,5,5,0,0,0-1.8,1.75,2.52,2.52,0,0,0-.21,1.82,1.12,1.12,0,0,0,1,.91,3.21,3.21,0,0,0,1.95-.24,9.54,9.54,0,0,1,2.38-.86,3.42,3.42,0,0,0,1.72-.95,1.82,1.82,0,0,0-.34-2.77A2.55,2.55,0,0,0,221.18,138Z"/><path class="cls-10" d="M208.75,176.76l.1-1a1.24,1.24,0,0,1,.36-.12,7.14,7.14,0,0,0,4.14-1.36,13.43,13.43,0,0,0,1.44-1,8,8,0,0,0,2.48-3.73,2.21,2.21,0,0,0-2.08-.26,8.18,8.18,0,0,0-3,1.51c-.29.22-.59.42-.89.63-.49.59-1,1.16-1.49,1.77a6.07,6.07,0,0,0-1.1,2.27A1.54,1.54,0,0,0,208.75,176.76Z"/><path class="cls-11" d="M232.79,143.84c-.11-.31-.21-.61-.32-.91a.79.79,0,0,0,.13.91Z"/><path class="cls-2" d="M201.86,166c0-.33,0-.66-.09-1-.1-.58-.23-1.15-.35-1.72a2.38,2.38,0,0,0-.52-.15,8.81,8.81,0,0,0-.89,0l-52.23,0-1.11,0c-.44,0-.88.05-1.33.05H116.69a2.42,2.42,0,0,0-1.4.19,20.22,20.22,0,0,0-.66,4.83,24.83,24.83,0,0,0,1,6.57,40.11,40.11,0,0,0,4.39,9.8A41.28,41.28,0,0,0,130,196l8.56,0h8.78c.23,0,.44,0,.66,0l3.12,0h7.22c.41,0,.81,0,1.22,0s.6,0,.89,0l10.22,0,14.65.1c.44,0,.88-.1,1.32-.14,1-.92,2.17-1.8,3.17-2.78a45.24,45.24,0,0,0,9.47-13.74,29.38,29.38,0,0,0,2.72-10A12,12,0,0,0,201.86,166Zm-61.8,21.29h0a2.42,2.42,0,0,0,.27.36A2.33,2.33,0,0,1,140.06,187.24Zm29.81.74c-.18.24-.4.44-.59.66l-.33.29-.22.22h0a5.13,5.13,0,0,1-.62.76c-4,3.45-8.59,4.49-13.59,2.75a12.91,12.91,0,0,1-8.91-10.49A13.47,13.47,0,0,1,154.81,167a6.2,6.2,0,0,1,.75-.14l1-.37a23.12,23.12,0,0,1,4.92,0c.6.18,1.21.33,1.8.54a13.2,13.2,0,0,1,9.15,11A13,13,0,0,1,169.87,188Z"/><path class="cls-3" d="M201.42,163.26a2.38,2.38,0,0,0-.52-.15,8.77,8.77,0,0,0-.89,0l-52.23,0-1.11,0c0-.2-.13-.36-.34-.39a3.46,3.46,0,0,0-.56,0,30.26,30.26,0,0,1-5.3-.22,1.93,1.93,0,0,0-.34,0,21.7,21.7,0,0,1-4.61-.44A16.4,16.4,0,0,1,129.9,160a6.76,6.76,0,0,1-2.44-1.87c.41,0,.81-.07,1.22-.07,2.56,0,5.12,0,7.68,0H148.6l36.17,0h16.8a1.05,1.05,0,0,1,.91.7,4.43,4.43,0,0,1-.13,3.81A1.18,1.18,0,0,1,201.42,163.26Z"/><path class="cls-12" d="M201.57,158.07h-16.8l-36.17,0H136.36c-2.56,0-5.12,0-7.68,0-.41,0-.81,0-1.22.07s-.74-.06-1.1-.06H115.24c.36,0,.73,0,1.1,0h17.33c.44,0,.87-.08,1.31-.12h3.33l8.76,0c3.66.14,10.72.08,11.76-.13a12.16,12.16,0,0,1-1.27-.1,22,22,0,0,1-3.83-1.06,11.4,11.4,0,0,1-4.14-2.52,5.23,5.23,0,0,1-1.59-4.2c0-.44.14-.87.22-1.3.42-.07.85-.15,1.27-.19.62-.05,1.23-.06,1.85-.09.29,0,.58.05.88.05l13.05,0c.33,0,.66,0,1,0l1.66,0a49.35,49.35,0,0,1,6.32.45,13.08,13.08,0,0,1,6.14,2.38,8.4,8.4,0,0,1,3.23,5c.12.53.21,1.08.33,1.69a6,6,0,0,0,.84.1h16.79Z"/><path class="cls-3" d="M148,196.08c1,0,2.07,0,3.11,0,2.41,0,4.81,0,7.22,0,.41,0,.82,0,1.22,0s.59,0,.89,0c3.4,0,6.81,0,10.22,0l14.65.09a9.53,9.53,0,0,0,1.31-.13,4.07,4.07,0,0,1,.62,1.88,5.76,5.76,0,0,1,0,1.1c-.17.94-.46,1.16-1.44,1.15l-21.14,0-31.83,0c-.4,0-.81-.05-1.21-.08h27.8a.21.21,0,0,0,.11,0l0-.06-1.72-.31a37.47,37.47,0,0,1-6.84-1.81c-.87-.31-1.7-.73-2.55-1.1A.59.59,0,0,1,148,196.08Z"/><path class="cls-2" d="M148.51,135.65c.75-.19,1.49-.42,2.25-.57a54.37,54.37,0,0,1,13.05-.92,24.72,24.72,0,0,1,6.95,1.38l1.11.37a3.82,3.82,0,0,0,.14-.69c0-1,0-1.92,0-2.89a3.57,3.57,0,0,1,.07-1,.52.52,0,0,1,.41-.28.67.67,0,0,1,.42.29.85.85,0,0,1,.09.43,21,21,0,0,1,0,4.55,6.51,6.51,0,0,1-1,2.8,4.26,4.26,0,0,1-2.39,1.88,8,8,0,0,0-1.1,0,17.48,17.48,0,0,1-3.95.4q-1.28,0-2.55,0a21.76,21.76,0,0,1-4.83-.43,14.18,14.18,0,0,1-4.95-1.8A10.29,10.29,0,0,1,148.51,135.65Z"/><path class="cls-3" d="M115.24,158.07h11.12c.36,0,.73,0,1.1.06A6.76,6.76,0,0,0,129.9,160a16.4,16.4,0,0,0,5.62,1.94,21.7,21.7,0,0,0,4.61.44,1.93,1.93,0,0,1,.34,0,30.26,30.26,0,0,0,5.3.22,3.46,3.46,0,0,1,.56,0c.21,0,.3.19.34.39-.44,0-.88.06-1.33.06H116.69a2.5,2.5,0,0,0-1.4.19,2.35,2.35,0,0,1-1.21-1.86,4.34,4.34,0,0,1,.29-2.59A1.11,1.11,0,0,1,115.24,158.07Z"/><path class="cls-3" d="M148,196.08a.59.59,0,0,0,.41.59c.85.37,1.68.79,2.55,1.1a37.47,37.47,0,0,0,6.84,1.81l1.72.31,0,.06a.21.21,0,0,1-.11,0h-29.1a2.79,2.79,0,0,1-.67-2.52A13.63,13.63,0,0,1,130,196l8.56,0h8.78C147.57,196,147.79,196.06,148,196.08Z"/><path class="cls-3" d="M148.51,135.65a10.29,10.29,0,0,0,3.68,3.59,14.18,14.18,0,0,0,4.95,1.8,21.76,21.76,0,0,0,4.83.43q1.28,0,2.55,0a17.48,17.48,0,0,0,3.95-.4,8,8,0,0,1,1.1,0,6.74,6.74,0,0,1-2.24.83c-.35.11-.71.19-1.06.28-.55,0-1.11,0-1.66.08-1.14.1-2.27.26-3.41.35-1.43.12-2.87.2-4.31.3l-5.22,0a2.25,2.25,0,0,0-.52.17c-.39-.06-.79-.16-1.19-.2a12.94,12.94,0,0,1-3.13-.72,5.94,5.94,0,0,1-3.07-2.61,9.72,9.72,0,0,1-1.13-3.54c-.08-.44,0-.65.32-.72s.54.08.67.55.23.92.36,1.46l.85-.39A11.92,11.92,0,0,1,148.51,135.65Z"/><path class="cls-13" d="M147.07,157.9l-8.76,0H135a7.92,7.92,0,0,1,4.21-7.19,14.35,14.35,0,0,1,5.68-1.74,4.56,4.56,0,0,1-.13.53,7,7,0,0,0-.53,3.33v.22a3.17,3.17,0,0,0,.29,1.61,5.32,5.32,0,0,0,1.43,2.19C146.32,157.2,146.69,157.56,147.07,157.9Z"/><path class="cls-2" d="M156.89,142.86c1.44-.1,2.88-.18,4.31-.3,1.14-.09,2.27-.25,3.41-.35.55-.06,1.11-.05,1.66-.08,0,2.07,0,4.14,0,6.21-.33,0-.66,0-1,0l-13.05,0c-.3,0-.59,0-.88-.05l0-.39a3.69,3.69,0,0,0,.84.21c1.33,0,2.66,0,4,0a2.91,2.91,0,0,0,.6-.13,1.85,1.85,0,0,0,.08-.38Z"/><path class="cls-14" d="M147.07,157.9c-.38-.34-.75-.7-1.14-1a5.32,5.32,0,0,1-1.43-2.19,3.17,3.17,0,0,1-.29-1.61v-.22a7,7,0,0,1,.53-3.33,4.56,4.56,0,0,0,.13-.53,10.84,10.84,0,0,1,3.35-.41c-.08.43-.18.86-.22,1.3a5.23,5.23,0,0,0,1.59,4.2,11.4,11.4,0,0,0,4.14,2.52,22,22,0,0,0,3.83,1.06,12.16,12.16,0,0,0,1.27.1C157.79,158,150.73,158,147.07,157.9Z"/><path class="cls-2" d="M156.89,142.86v4.76a1.85,1.85,0,0,1-.08.38,2.91,2.91,0,0,1-.6.13c-1.33,0-2.66,0-4,0a3.69,3.69,0,0,1-.84-.21c-.07-1.64-.15-3.28-.23-4.92a2.25,2.25,0,0,1,.52-.17Z"/><path class="cls-15" d="M156.55,166.46a23.12,23.12,0,0,1,4.92,0c.6.18,1.21.33,1.8.54a13.2,13.2,0,0,1,9.15,11,13,13,0,0,1-2.55,10c-.18.24-.4.44-.59.66l-.33.29,0,0-.24.25h0a1.19,1.19,0,0,0-.83.25,15.62,15.62,0,0,1-3.8,1.51,12.07,12.07,0,0,1-2.61.44,2.78,2.78,0,0,0-.76.09,4.23,4.23,0,0,1-2.09,0,1.63,1.63,0,0,0-.43-.08,8,8,0,0,1-2.6-.46,9.89,9.89,0,0,1-2.73-1.19,11.64,11.64,0,0,1-5.36-9.54,16.69,16.69,0,0,1,.22-2.64,11.65,11.65,0,0,1,1.52-4.25,19.11,19.11,0,0,1,5-5.38c.44-.32,1-.54,1.25-1.06Zm.82,2.56a8.07,8.07,0,0,0-1.1.14,11.05,11.05,0,1,0,6.79,21,9.81,9.81,0,0,0,4.95-3.94,4.07,4.07,0,0,0,.41-.52,10.94,10.94,0,0,0,1.32-8.53,10.74,10.74,0,0,0-3.17-5.37,10.89,10.89,0,0,0-6-2.87A7.12,7.12,0,0,0,157.37,169Z"/><path class="cls-16" d="M155.56,166.83c-.27.52-.81.74-1.25,1.06a19.11,19.11,0,0,0-5,5.38,11.65,11.65,0,0,0-1.52,4.25,16.69,16.69,0,0,0-.22,2.64,11.64,11.64,0,0,0,5.36,9.54,9.89,9.89,0,0,0,2.73,1.19,8,8,0,0,0,2.6.46,1.63,1.63,0,0,1,.43.08,4.23,4.23,0,0,0,2.09,0,2.78,2.78,0,0,1,.76-.09,12.07,12.07,0,0,0,2.61-.44,15.62,15.62,0,0,0,3.8-1.51,1.19,1.19,0,0,1,.83-.25,4.57,4.57,0,0,1-.62.76c-4,3.45-8.59,4.49-13.59,2.76a13,13,0,0,1-8.91-10.5A13.47,13.47,0,0,1,154.8,167,6.75,6.75,0,0,1,155.56,166.83Z"/><path class="cls-9" d="M157.37,169a7.12,7.12,0,0,1,3.18-.1,10.89,10.89,0,0,1,6,2.87,10.74,10.74,0,0,1,3.17,5.37,10.94,10.94,0,0,1-1.32,8.53,4.07,4.07,0,0,1-.41.52,9,9,0,0,0-1,.47,9.38,9.38,0,0,1-10.47,0,9.24,9.24,0,0,1-2.41-2.42,8.45,8.45,0,0,1-1.7-4.83c0-.6,0-1.19,0-1.78a8.94,8.94,0,0,1,1.32-4.41,11.27,11.27,0,0,1,1.94-2.42C156.29,170.23,156.82,169.61,157.37,169Zm9.55,8.92H167a16.48,16.48,0,0,0-.32-1.73,6.77,6.77,0,0,0-2.77-3.88,3.74,3.74,0,0,0-2.08-.6,2.26,2.26,0,0,0-2,2,5,5,0,0,0,.72,2.75,19.87,19.87,0,0,0,1.41,2.11,5.85,5.85,0,0,0,2.25,1.93,1.63,1.63,0,0,0,1,.12,2.33,2.33,0,0,0,1.79-2A5,5,0,0,0,166.92,177.94Zm-2.45,5.52a1.68,1.68,0,0,0,1.6,1.62,1.74,1.74,0,0,0,1.53-1.74,1.57,1.57,0,1,0-3.13.12Z"/><path class="cls-9" d="M157.37,169c-.55.59-1.08,1.21-1.66,1.77a11.27,11.27,0,0,0-1.94,2.42,8.94,8.94,0,0,0-1.32,4.41c0,.59,0,1.18,0,1.78a8.45,8.45,0,0,0,1.7,4.83,9.24,9.24,0,0,0,2.41,2.42,9.38,9.38,0,0,0,10.47,0,9,9,0,0,1,1-.47,9.81,9.81,0,0,1-4.95,3.94,11.05,11.05,0,1,1-6.79-21A8.07,8.07,0,0,1,157.37,169Z"/><path class="cls-12" d="M166.92,177.94a5,5,0,0,1,0,.67,2.33,2.33,0,0,1-1.79,2,1.63,1.63,0,0,1-1-.12,5.85,5.85,0,0,1-2.25-1.93,19.87,19.87,0,0,1-1.41-2.11,5,5,0,0,1-.72-2.75,2.26,2.26,0,0,1,2-2,3.74,3.74,0,0,1,2.08.6,6.77,6.77,0,0,1,2.77,3.88,16.48,16.48,0,0,1,.32,1.73Z"/><path class="cls-12" d="M164.47,183.46a1.57,1.57,0,1,1,3.13-.12,1.74,1.74,0,0,1-1.53,1.74A1.68,1.68,0,0,1,164.47,183.46Z"/><path class="cls-12" d="M215.1,97.07c-.1-.95-.27-1.91-.29-2.86,0-2.82,0-5.64,0-8.46a4,4,0,0,1,.14-.75,1,1,0,0,0,1.18.91,21.21,21.21,0,0,0,2.65-.08,23.25,23.25,0,0,1,2.76-.18,5.15,5.15,0,0,0,.88,0c1.42-.32,2.87-.17,4.29-.36s2.65-.08,4-.21c1.75-.18,3.53,0,5.3-.24a18.11,18.11,0,0,1,2.33,0,6.9,6.9,0,0,1-.19,2.07,27.13,27.13,0,0,1-1.73,5.58c-.33.78-.64,1.56-1,2.34a12.23,12.23,0,0,1-3.22.67c-.76.13-1.53.18-2.3.28-.94.12-1.88.29-2.83.38-1.28.11-2.57.17-3.86.25a1.83,1.83,0,0,0-.33,0,9.3,9.3,0,0,1-2.52.2,3.36,3.36,0,0,0-.78,0,10.14,10.14,0,0,1-2.75.18A5.69,5.69,0,0,0,215.1,97.07Z"/><path class="cls-12" d="M235.39,75.64c.26.3.55.58.78.9A21.79,21.79,0,0,1,238.32,80a6.86,6.86,0,0,1,.27.71c0,.77,0,1.54-.05,2.31l-4.11,0a3.75,3.75,0,0,0-.89,0,9.44,9.44,0,0,1-2.31.17,19.81,19.81,0,0,0-2.56.06,19.7,19.7,0,0,1-2.54.17,5.52,5.52,0,0,0-1.22,0,12.36,12.36,0,0,1-2.65.19,6.52,6.52,0,0,0-.77,0c-1.61.3-3.24.17-4.86.38a3.12,3.12,0,0,0-1.66.51c.09-1.21.11-2.43.27-3.64.23-1.75.55-3.49.84-5.24a4.71,4.71,0,0,1,.22-.73l5.32-.27a.56.56,0,0,0,.22,0,5.49,5.49,0,0,1,1.76-.16h3.23a6.78,6.78,0,0,1,.78,0c1,.12,2,.31,3.07.38a33.46,33.46,0,0,1,3.61.56C234.66,75.57,235,75.6,235.39,75.64Z"/><path class="cls-14" d="M241,95.9c-.06.51-.09,1-.19,1.52a24.29,24.29,0,0,1-2.42,6.83,2.27,2.27,0,0,1-.26.35,2,2,0,0,0-1,.32c-.37.18-.72.38-1.1.53a46.6,46.6,0,0,1-6.2,2,21.3,21.3,0,0,1-5.89.75c-1.33-.06-2.66,0-4,0a6.7,6.7,0,0,1-2.09-.17,2.86,2.86,0,0,0-.88,0c-.06-.23-.11-.46-.17-.69a23.39,23.39,0,0,0,4.28-1c.41-.16.84-.28,1.26-.42a20.81,20.81,0,0,0,4.85-2.38c.92-.61,1.79-1.29,2.67-2A21.58,21.58,0,0,0,233.25,98a3.64,3.64,0,0,0,.38-.9,8.84,8.84,0,0,0,1.84-.24c1.14-.22,2.29-.42,3.43-.61C239.59,96.09,240.27,96,241,95.9Z"/><path class="cls-12" d="M233.63,97.06a3.64,3.64,0,0,1-.38.9,21.58,21.58,0,0,1-3.47,3.55c-.88.67-1.75,1.35-2.67,2a20.81,20.81,0,0,1-4.85,2.38c-.42.14-.85.26-1.26.42a23.39,23.39,0,0,1-4.28,1c-.18-.66-.42-1.32-.54-2-.34-2-.64-4.06-1-6.09a2.13,2.13,0,0,1,0-.44,5.52,5.52,0,0,0,1.22,0,9.77,9.77,0,0,1,1.87-.16l5-.25c.11,0,.22,0,.33,0l1.54-.17c.26,0,.52,0,.78,0,1.13-.13,2.26-.3,3.4-.4A35.9,35.9,0,0,0,233.63,97.06Z"/><path class="cls-14" d="M236.34,107.29a4.65,4.65,0,0,1-.34.56,20.18,20.18,0,0,1-13.76,7.76,18.87,18.87,0,0,1-6.4-.41,3.7,3.7,0,0,1-.73-.25.83.83,0,0,1-.47-.92.86.86,0,0,1,.86-.72,4.08,4.08,0,0,1,.77.11c.54.09,1.09.22,1.64.3a6.17,6.17,0,0,0,.86,0c.08-.45-.18-.75-.32-1.08a13.65,13.65,0,0,1-1-2.7l2.12,0a2.46,2.46,0,0,1,.77.07,3.85,3.85,0,0,0,1.43.14,18.67,18.67,0,0,0,3.42-.17c.71-.16,1.46-.11,2.2-.23a37.9,37.9,0,0,0,5.38-1.27C234,108.12,235.16,107.69,236.34,107.29Z"/><path class="cls-12" d="M216.73,73.2A12.77,12.77,0,0,1,218,69.55c.11-.23.32-.46.33-.7.08-1.09,1.05-1.22,1.75-1.62a.68.68,0,0,1,.8.24,1.36,1.36,0,0,0,.89.38,19,19,0,0,1,4.92,1.24,3.16,3.16,0,0,0,.53.13c.21.35.58.4.92.5a22.81,22.81,0,0,1,4.66,3.11,5.47,5.47,0,0,1,.51.56c-.66-.07-1.32-.13-2-.23a30.67,30.67,0,0,0-5.06-.42c-1.48,0-3,0-4.44,0-.29,0-.59,0-.88,0-.51,0-1,.12-1.54.16-.36,0-.73,0-1.1.06Z"/><path class="cls-13" d="M233.63,97.06a35.9,35.9,0,0,1-4.26.65c-1.14.1-2.27.27-3.4.4-.26,0-.52,0-.78,0l-1.54.17c-.11,0-.22,0-.33,0l-5,.25a9.77,9.77,0,0,0-1.87.16,5.52,5.52,0,0,1-1.22,0l-.15-1.69a5.69,5.69,0,0,1,1.74-.26,10.14,10.14,0,0,0,2.75-.18,3.36,3.36,0,0,1,.78,0,9.3,9.3,0,0,0,2.52-.2,1.83,1.83,0,0,1,.33,0c1.29-.08,2.58-.14,3.86-.25.95-.09,1.89-.26,2.83-.38.77-.1,1.54-.15,2.3-.28a12.23,12.23,0,0,0,3.22-.67,8.38,8.38,0,0,0,1.33,0c1.11-.21,2.22-.49,3.33-.72.35-.07.72-.08,1.09-.12a5.52,5.52,0,0,1-.23,2c-.68.1-1.36.19-2,.31-1.14.19-2.29.39-3.43.61A8.84,8.84,0,0,1,233.63,97.06Z"/><path class="cls-13" d="M215,84.6a3.12,3.12,0,0,1,1.66-.51c1.62-.21,3.25-.08,4.86-.38a6.52,6.52,0,0,1,.77,0,12.36,12.36,0,0,0,2.65-.19,5.52,5.52,0,0,1,1.22,0,19.7,19.7,0,0,0,2.54-.17,19.81,19.81,0,0,1,2.56-.06,9.44,9.44,0,0,0,2.31-.17,3.75,3.75,0,0,1,.89,0l4.11,0,1.07,0c.18.59.37,1.17.55,1.76l-1.85,0a18.11,18.11,0,0,0-2.33,0c-1.77.22-3.55.06-5.3.24-1.33.13-2.67,0-4,.21s-2.87,0-4.29.36a5.15,5.15,0,0,1-.88,0,23.25,23.25,0,0,0-2.76.18,21.21,21.21,0,0,1-2.65.08,1,1,0,0,1-1.18-.91Z"/><path class="cls-13" d="M236.34,107.29c-1.18.4-2.37.83-3.56,1.21a37.9,37.9,0,0,1-5.38,1.27c-.74.12-1.49.07-2.2.23a18.67,18.67,0,0,1-3.42.17,3.85,3.85,0,0,1-1.43-.14,2.46,2.46,0,0,0-.77-.07l-2.12,0-.57-2a2.86,2.86,0,0,1,.88,0,6.7,6.7,0,0,0,2.09.17c1.33,0,2.66,0,4,0a21.3,21.3,0,0,0,5.89-.75,46.6,46.6,0,0,0,6.2-2c.38-.15.73-.35,1.1-.53a2,2,0,0,1,1-.32A9.56,9.56,0,0,1,236.34,107.29Z"/><path class="cls-14" d="M238.31,84.81l1.85,0a9.85,9.85,0,0,1,.71,2.76,21.77,21.77,0,0,1,.31,6.39c-.37,0-.74,0-1.09.12-1.11.23-2.22.51-3.33.72a8.38,8.38,0,0,1-1.33,0c.32-.78.63-1.56,1-2.34a27.13,27.13,0,0,0,1.73-5.58A6.9,6.9,0,0,0,238.31,84.81Z"/><path class="cls-13" d="M216.73,73.2l1.54-.17c.37,0,.74,0,1.1-.06.52,0,1-.11,1.54-.16.29,0,.59,0,.88,0,1.48,0,3,0,4.44,0a30.67,30.67,0,0,1,5.06.42c.65.1,1.31.16,2,.23a9.11,9.11,0,0,1,2.13,2.25c-.37,0-.73-.07-1.1-.13a33.46,33.46,0,0,0-3.61-.56c-1-.07-2.05-.26-3.07-.38a6.78,6.78,0,0,0-.78,0H223.6a5.49,5.49,0,0,0-1.76.16.56.56,0,0,1-.22,0L216.3,75A4.8,4.8,0,0,1,216.73,73.2Z"/><path class="cls-14" d="M239.61,83l-1.07,0c0-.77,0-1.54.05-2.31A6.7,6.7,0,0,1,239.61,83Z"/><path class="cls-12" d="M94.91,94.37a11.66,11.66,0,0,1,.31,1.16,68.49,68.49,0,0,1,1.3,10c0,.22,0,.44,0,.66-.7,0-1.41,0-2.11,0-1.61.2-3.23.31-4.85.45-1.26.1-2.51.18-3.77.21l-.22,0c-.55.06-1.1.15-1.65.16-1.63,0-3.26,0-4.9,0-1,0-2,0-3,0a1.86,1.86,0,0,0-.6-1.27,23.2,23.2,0,0,1-2.49-4.42,14.28,14.28,0,0,1-1.2-3.66,6.44,6.44,0,0,1,2-.41c.84-.13,1.69-.15,2.53-.27a32.73,32.73,0,0,1,3.94-.43,3.42,3.42,0,0,0,.45,0c1.13-.13,2.26-.28,3.39-.38s2.5-.17,3.75-.26h.11c1.61-.21,3.22-.36,4.84-.42a9.85,9.85,0,0,0,1.31-.19A1,1,0,0,0,94.91,94.37Z"/><path class="cls-12" d="M92.05,84.55c.11.23.25.44.34.68a78.07,78.07,0,0,1,2.46,8.47,3.11,3.11,0,0,1,0,.43A1.73,1.73,0,0,0,93,93.51c-.4,0-.8.15-1.21.17-1.32.1-2.65.18-4,.26l-.22,0c-1.25.13-2.49.27-3.74.38s-2.28.17-3.43.26c-.11,0-.21,0-.32.06l-3,.36-3.07.38-2.75.3a4.72,4.72,0,0,1-.21-1,3.08,3.08,0,0,0-.27-1.17,1.2,1.2,0,0,1,0-.33,19.21,19.21,0,0,1,2.47-5.34,3.86,3.86,0,0,0,.76-.1c1.09-.34,2.17-.73,3.26-1.06a36.52,36.52,0,0,1,4.5-1.12c1.09-.18,2.19-.33,3.28-.48,1.28-.16,2.56-.25,3.85-.36A17.69,17.69,0,0,0,92.05,84.55Z"/><path class="cls-14" d="M75.1,117.29c-.56-.78-1.16-1.53-1.68-2.34A22.78,22.78,0,0,1,71.09,110c-.13-.38-.21-.79-.31-1.18a22.18,22.18,0,0,1,4.75.19,2.61,2.61,0,0,0,.56,0H78.2a12.22,12.22,0,0,0,2.13,2.06,22.23,22.23,0,0,0,3.59,2.36,23.56,23.56,0,0,0,5.66,2.17,20.59,20.59,0,0,0,6,.79c.29,0,.59,0,.89,0,0,.3,0,.61-.07.91a1.62,1.62,0,0,0-.44,0c-1.57.39-3.15.71-4.75,1a17,17,0,0,1-3.18.36c-1.25,0-2.51,0-3.77,0-1,0-2-.16-3-.27-.59-.07-1.17-.17-1.74-.28a26.26,26.26,0,0,1-3.74-1A.57.57,0,0,0,75.1,117.29Z"/><path class="cls-12" d="M96.46,116.43c-.3,0-.6,0-.89,0a20.59,20.59,0,0,1-6-.79,23.56,23.56,0,0,1-5.66-2.17,22.23,22.23,0,0,1-3.59-2.36,12.22,12.22,0,0,1-2.13-2.06c.66,0,1.33,0,2,0,.34,0,.67,0,1-.06.48,0,1-.11,1.43-.13l3,0a2.88,2.88,0,0,0,.78,0,7.73,7.73,0,0,1,2-.18c.33,0,.67,0,1,0,1.2-.13,2.41-.28,3.62-.4s2.42-.2,3.63-.3c0,.41.08.81.08,1.22,0,1.93,0,3.86,0,5.79C96.64,115.41,96.52,115.92,96.46,116.43Z"/><path class="cls-14" d="M96.07,119.3a11.27,11.27,0,0,1-.55,2.82l-.23.9c.31.28.57.14.8.07.7-.22,1.4-.48,2.1-.73a1,1,0,0,1,.85,0,.84.84,0,0,1,.17,1.46,4,4,0,0,1-1,.49,19.07,19.07,0,0,1-12.65.38,20.73,20.73,0,0,1-7.93-4.59,7.2,7.2,0,0,1-.5-.58l1.53.23c1.09.16,2.18.33,3.27.52s2.5.12,3.74.35a6.1,6.1,0,0,0,2.43-.14c.85-.19,1.75,0,2.64-.25,1.28-.31,2.61-.45,3.9-.74A7.79,7.79,0,0,1,96.07,119.3Z"/><path class="cls-12" d="M75.06,85.44a11.7,11.7,0,0,1,.73-1,24.55,24.55,0,0,1,3.79-3.41,1.52,1.52,0,0,0,.86-.63,5.51,5.51,0,0,0,.7-.31,19.54,19.54,0,0,1,4.27-1.8,1.85,1.85,0,0,0,1.11-.65.8.8,0,0,1,1-.21,6.37,6.37,0,0,0,.72.29,1.19,1.19,0,0,1,.85.78,6.1,6.1,0,0,0,.5.85c.54,1,1.08,1.93,1.6,2.9a2.19,2.19,0,0,1,.12.52c-.65.06-1.31.17-2,.18a46.66,46.66,0,0,0-5.15.44,40.1,40.1,0,0,0-4.87.89C77.9,84.66,76.48,85.06,75.06,85.44Z"/><path class="cls-13" d="M96.62,107.89c-1.21.1-2.42.18-3.63.3s-2.42.27-3.62.4c-.33,0-.67,0-1,0a7.73,7.73,0,0,0-2,.18,2.88,2.88,0,0,1-.78,0l-3,0c-.48,0-1,.1-1.43.13-.33,0-.66.05-1,.06-.66,0-1.33,0-2,0H76.09a2.61,2.61,0,0,1-.56,0,22.18,22.18,0,0,0-4.75-.19,5.92,5.92,0,0,1-.53-2,16.23,16.23,0,0,1,2.42.2c1.11.07,2.23,0,3.34,0s2,0,3,0c1.64,0,3.27,0,4.9,0,.55,0,1.1-.1,1.65-.16l.22,0c1.26,0,2.51-.11,3.77-.21,1.62-.14,3.24-.25,4.85-.45.7-.08,1.41,0,2.11,0A3.71,3.71,0,0,1,96.62,107.89Z"/><path class="cls-13" d="M71.31,95.71l2.75-.3L77.13,95l3-.36c.11,0,.21,0,.32-.06,1.15-.09,2.29-.15,3.43-.26s2.49-.25,3.74-.38l.22,0c1.33-.08,2.66-.16,4-.26.41,0,.81-.12,1.21-.17a1.73,1.73,0,0,1,1.88.62l0,.24a1,1,0,0,1-.84.9,9.85,9.85,0,0,1-1.31.19c-1.62.06-3.23.21-4.84.42h-.11c-1.25.09-2.5.15-3.75.26s-2.26.25-3.39.38a3.42,3.42,0,0,1-.45,0,32.73,32.73,0,0,0-3.94.43c-.84.12-1.69.14-2.53.27a6.44,6.44,0,0,0-2,.41H69.9a4.69,4.69,0,0,1,.31-1.77C70.58,95.87,71,96.05,71.31,95.71Z"/><path class="cls-13" d="M96.07,119.3a7.79,7.79,0,0,0-1.43.19c-1.29.29-2.62.43-3.9.74-.89.22-1.79.06-2.64.25a6.1,6.1,0,0,1-2.43.14c-1.24-.23-2.5-.14-3.74-.35s-2.18-.36-3.27-.52l-1.53-.23a9,9,0,0,1-2-2.23.57.57,0,0,1,.71-.15,26.26,26.26,0,0,0,3.74,1c.57.11,1.15.21,1.74.28,1,.11,2,.23,3,.27,1.26,0,2.52,0,3.77,0a17,17,0,0,0,3.18-.36c1.6-.26,3.18-.58,4.75-1a1.62,1.62,0,0,1,.44,0A6.87,6.87,0,0,1,96.07,119.3Z"/><path class="cls-14" d="M69.9,97.69h1.82a14.28,14.28,0,0,0,1.2,3.66,23.2,23.2,0,0,0,2.49,4.42A1.86,1.86,0,0,1,76,107c-1.11,0-2.23.08-3.34,0a16.23,16.23,0,0,0-2.42-.2c-.14-.69-.33-1.37-.42-2.07a26,26,0,0,1,0-6.77A2.83,2.83,0,0,1,69.9,97.69Z"/><path class="cls-13" d="M75.06,85.44c1.42-.38,2.84-.78,4.26-1.13a40.1,40.1,0,0,1,4.87-.89A46.66,46.66,0,0,1,89.34,83c.66,0,1.32-.12,2-.18a4.18,4.18,0,0,1,.74,1.75,17.69,17.69,0,0,1-3.08.24c-1.29.11-2.57.2-3.85.36-1.09.15-2.19.3-3.28.48a36.52,36.52,0,0,0-4.5,1.12c-1.09.33-2.17.72-3.26,1.06a3.86,3.86,0,0,1-.76.1A8.91,8.91,0,0,1,75.06,85.44Z"/><path class="cls-14" d="M71.31,95.71c-.31.34-.73.16-1.1.21a5.47,5.47,0,0,1,.62-2.34,3.08,3.08,0,0,1,.27,1.17A4.72,4.72,0,0,0,71.31,95.71Z"/><path class="cls-2" d="M140.79,42.25c1.58-.15,3.17-.33,4.76-.43,3.59-.24,7.18-.47,10.77-.65q8.79-.45,17.58-.32c3.45,0,6.91.12,10.35.3a100.91,100.91,0,0,1,17,2.18A37.37,37.37,0,0,1,208,45.54,19.46,19.46,0,0,1,217.79,55a35.19,35.19,0,0,1,2.71,8,84.93,84.93,0,0,1,1.61,10.78,182.78,182.78,0,0,1,.76,20.13c-.06,3.19-.17,6.38-.39,9.57a77,77,0,0,1-2.18,14.39,36.77,36.77,0,0,1-2.05,5.87,20,20,0,0,1-9.67,9.91,29.68,29.68,0,0,1-7.16,2.38c-.9.18-1.82.3-2.73.45-.2-.24-.46-.21-.72-.21H195.3a2,2,0,0,0-.66.06,4.05,4.05,0,0,1-1.54.16h-12c-.4,0-.81,0-1.21.07s-.81.12-1.21.14a34.78,34.78,0,0,0-4.32.19c-1,.19-2.13.07-3.2.22s-2.43,0-3.64.24a16.67,16.67,0,0,1-2.45,0,2.55,2.55,0,0,0-.88,0,5.45,5.45,0,0,1-1.65.17,26.37,26.37,0,0,0-5.1.21,2.52,2.52,0,0,1-.55,0H137.71a3.59,3.59,0,0,1-1-.07,4.65,4.65,0,0,0-1.43-.15,7.51,7.51,0,0,1-1.78-.06c-1-.27-2.08,0-3.07-.38a33,33,0,0,1-3.94-.53,38.63,38.63,0,0,1-3.78-.82,40,40,0,0,1-7.74-2.67c-.67-.31-1.29-.73-2-1.07a23.52,23.52,0,0,1-7-6,27.9,27.9,0,0,1-2.86-4.48,37.64,37.64,0,0,1-1.88-4.27c-.55-1.49-1-3-1.47-4.54-.65-2.16-1-4.38-1.5-6.58-.29-1.41-.5-2.83-.7-4.26-.12-.91-.16-1.83-.24-2.75a1.19,1.19,0,0,0,0-.33,6,6,0,0,1-.18-2c-.06-.66-.21-1.32-.21-2,0-3.16,0-6.31,0-9.47a2.58,2.58,0,0,1,.07-.88,4.62,4.62,0,0,0,.15-1.43c0-.22,0-.45,0-.67.13-.83.34-1.66.39-2.5a27.87,27.87,0,0,1,.79-4.36,40.53,40.53,0,0,1,1.86-6.14A38.71,38.71,0,0,1,104,62.13a42.19,42.19,0,0,1,4.13-4.92,13.51,13.51,0,0,1,1.34-1.15c.68-.58,1.32-1.19,2-1.73a55.1,55.1,0,0,1,7.64-4.72c.59-.31,1.23-.52,1.82-.82a51.35,51.35,0,0,1,6.15-2.54c2.1-.73,4.21-1.42,6.36-2,2.32-.6,4.62-1.27,7-1.64C140.68,42.61,140.75,42.44,140.79,42.25Zm-3.14,89.25c.48,0,1,0,1.45,0l2.66-.14,6.78-.28c1.38-.07,2.75-.14,4.11-.24,2.52-.18,5-.41,7.55-.56q6-.36,12.11-.65c3.52-.17,7-.33,10.54-.72q2.7-.3,5.39-.77a9.77,9.77,0,0,0,2.88-.82.55.55,0,0,0,.22,0,14.88,14.88,0,0,0,9.43-8.67,33.9,33.9,0,0,0,1.91-6.84,77.88,77.88,0,0,0,1.11-12.29,138.91,138.91,0,0,0-.37-14.57,72.49,72.49,0,0,0-1.16-8.81,26.11,26.11,0,0,0-2.14-6.54,14,14,0,0,0-7.29-6.85,30,30,0,0,0-6.07-1.8A78.51,78.51,0,0,0,176,59.65q-6.72-.37-13.46-.22c-.33,0-.66.07-1,.11a3.21,3.21,0,0,0-.43-.07l-2.89.12c-2.26.1-4.52.17-6.78.31-2.59.17-5.17.37-7.76.61a19,19,0,0,0-3.52.44c-.41,0-.82,0-1.22,0-2.68.34-5.37.67-8.05,1a78.81,78.81,0,0,0-10.76,2.26A30.06,30.06,0,0,0,113.3,67a13.75,13.75,0,0,0-6.17,7.08,23.93,23.93,0,0,0-.86,2.64,36.69,36.69,0,0,0-1,8.15,95.14,95.14,0,0,0,.23,10.68c.21,3.33.55,6.65,1,10a80.85,80.85,0,0,0,2.07,10.7,32.34,32.34,0,0,0,2.87,7.34,15.32,15.32,0,0,0,3,3.84,15.5,15.5,0,0,0,6.64,3.47,27.22,27.22,0,0,0,5.16.75A85.76,85.76,0,0,0,137.65,131.5Z"/><path class="cls-3" d="M140.79,42.25c0,.19-.11.36-.33.39-2.38.37-4.68,1-7,1.64-2.15.55-4.26,1.24-6.36,2A51.35,51.35,0,0,0,121,48.79c-.59.3-1.23.51-1.82.82a55.1,55.1,0,0,0-7.64,4.72c-.7.54-1.34,1.15-2,1.73a13.51,13.51,0,0,0-1.34,1.15A42.19,42.19,0,0,0,104,62.13a38.71,38.71,0,0,0-3.79,7.28,40.53,40.53,0,0,0-1.86,6.14,27.87,27.87,0,0,0-.79,4.36c0,.84-.26,1.67-.39,2.5,0,.22,0,.45,0,.67A4.62,4.62,0,0,1,97,84.51a2.58,2.58,0,0,0-.07.88c0,3.16,0,6.31,0,9.47,0,.66.15,1.32.21,2a6,6,0,0,0,.18,2,1.19,1.19,0,0,1,0,.33c.08.92.12,1.84.24,2.75.2,1.43.41,2.85.7,4.26.45,2.2.85,4.42,1.5,6.58.46,1.52.92,3.05,1.47,4.54a37.64,37.64,0,0,0,1.88,4.27A27.9,27.9,0,0,0,106,126a23.52,23.52,0,0,0,7,6c.66.34,1.28.76,2,1.07a40,40,0,0,0,7.74,2.67,38.63,38.63,0,0,0,3.78.82,33,33,0,0,0,3.94.53c1,.36,2.06.11,3.07.38a7.51,7.51,0,0,0,1.78.06,4.65,4.65,0,0,1,1.43.15,3.59,3.59,0,0,0,1,.07h19.15a2.52,2.52,0,0,0,.55,0,26.37,26.37,0,0,1,5.1-.21,5.45,5.45,0,0,0,1.65-.17,2.55,2.55,0,0,1,.88,0,16.67,16.67,0,0,0,2.45,0c1.21-.21,2.44-.07,3.64-.24s2.16,0,3.2-.22a34.78,34.78,0,0,1,4.32-.19c.4,0,.8-.1,1.21-.14s.81-.07,1.21-.07h12a4.05,4.05,0,0,0,1.54-.16,2,2,0,0,1,.66-.06H198c.26,0,.52,0,.72.21-.81.13-1.6.32-2.41.4-2.7.26-5.39.53-8.09.72-3.26.24-6.52.41-9.78.6s-6.3.35-9.45.51c-3.37.17-6.74.32-10.11.61-2.73.23-5.48.37-8.22.53q-5.32.3-10.67.56c-2.52.12-5,.22-7.56.32l-8.57.32a80.82,80.82,0,0,1-11.22-.36,27.6,27.6,0,0,1-8.26-2.15,19.72,19.72,0,0,1-8.93-7.77,36.13,36.13,0,0,1-3.4-7.36,81.29,81.29,0,0,1-2.88-11.19c-.77-3.93-1.31-7.9-1.74-11.89q-.68-6.25-1-12.54c-.19-3.86-.25-7.72-.13-11.58a53.58,53.58,0,0,1,1.29-10.92,27.45,27.45,0,0,1,1.76-5.15A19,19,0,0,1,96.38,52a34.55,34.55,0,0,1,7.54-3.53,91.29,91.29,0,0,1,11.18-2.9c4.11-.83,8.26-1.43,12.41-2,2.28-.29,4.58-.5,6.86-.75,1.62-.17,3.24-.37,4.87-.53C139.75,42.28,140.27,42.28,140.79,42.25Z"/><path class="cls-9" d="M203.79,99.49a77.88,77.88,0,0,1-1.11,12.29,33.26,33.26,0,0,1-1.91,6.84,14.89,14.89,0,0,1-9.43,8.68.81.81,0,0,1-.22,0,10.08,10.08,0,0,1-2.88.82c-1.78.32-3.59.58-5.39.77-3.5.39-7,.55-10.54.72q-6.06.28-12.11.65c-2.52.15-5,.38-7.55.56-1.36.1-2.74.17-4.11.24l-6.78.28-2.66.14c-.49,0-1,0-1.45,0a85.78,85.78,0,0,1-11.45.13,28,28,0,0,1-5.16-.75,15.5,15.5,0,0,1-6.64-3.47,15.32,15.32,0,0,1-3-3.84,32.34,32.34,0,0,1-2.87-7.34,81.33,81.33,0,0,1-2.07-10.69c-.45-3.31-.79-6.64-1-10a95.19,95.19,0,0,1-.23-10.68,36.69,36.69,0,0,1,1-8.15,26.25,26.25,0,0,1,.86-2.64A13.69,13.69,0,0,1,113.3,67a29.63,29.63,0,0,1,6.79-2.74A79.12,79.12,0,0,1,130.85,62c2.68-.37,5.37-.7,8.05-1,.4-.05.81,0,1.22,0a18.93,18.93,0,0,1,3.52-.44c2.59-.24,5.17-.44,7.76-.61,2.26-.14,4.52-.21,6.78-.31l2.89-.12a3.21,3.21,0,0,1,.43.07c.33,0,.66-.1,1-.11q6.73-.15,13.46.22a78.51,78.51,0,0,1,10.81,1.27,30.64,30.64,0,0,1,6.07,1.79,14.08,14.08,0,0,1,7.29,6.87,25.9,25.9,0,0,1,2.14,6.53,72.51,72.51,0,0,1,1.17,8.81A138.9,138.9,0,0,1,203.79,99.49Z"/><path class="cls-12" d="M188.21,80.56a4.26,4.26,0,0,1-1.05,2.4,3.63,3.63,0,0,1-2.69,1.37,9.16,9.16,0,0,1-3.08-.35,29.45,29.45,0,0,1-4.07-1.46,41,41,0,0,1-5.59-3,9.6,9.6,0,0,1-2-1.63,4.9,4.9,0,0,1-1.22-4.23,6.24,6.24,0,0,1,1.12-2.76,2.37,2.37,0,0,1,1.21-1.08,2.25,2.25,0,0,1,2.2-.32,6.82,6.82,0,0,1,1.13.45c3.1,1.48,6.21,3,9.3,4.45.71.33,1.41.67,2.08,1a6.59,6.59,0,0,1,1.27.89A4,4,0,0,1,188.21,80.56Z"/><path class="cls-12" d="M159.56,107.05a.6.6,0,0,1,.12-.31.5.5,0,0,1,.3-.14.49.49,0,0,1,.53.33,1.93,1.93,0,0,1,.09.43,8.64,8.64,0,0,1-1.59,6.42,5.85,5.85,0,0,1-3.85,2.44,5.71,5.71,0,0,1-4.6-1.21,8.61,8.61,0,0,1-3.26-6.46.65.65,0,0,1,.07-.42.63.63,0,0,1,.43-.28.61.61,0,0,1,.43.27C149,109.05,159.5,107.74,159.56,107.05Z"/><path class="cls-12" d="M194.24,104.83a13.26,13.26,0,0,1-1.45,5,15.53,15.53,0,0,1-11.73,8.77,16,16,0,0,1-9-30.38.78.78,0,0,1,.22,0,11.21,11.21,0,0,1,3.59-1.09,16,16,0,0,1,17.33,9.6A15,15,0,0,1,194.24,104.83Z"/><circle class="cls-9" cx="178.17" cy="103.1" r="9.75"/><path class="cls-12" d="M119,82.56a4.26,4.26,0,0,0,1,2.4,3.63,3.63,0,0,0,2.69,1.37,9.16,9.16,0,0,0,3.08-.35,29.45,29.45,0,0,0,4.07-1.46,41,41,0,0,0,5.59-3,9.6,9.6,0,0,0,2-1.63,4.9,4.9,0,0,0,1.22-4.23,6.36,6.36,0,0,0-1.12-2.76,2.35,2.35,0,0,0-1.22-1.08,2.22,2.22,0,0,0-2.19-.32A6.49,6.49,0,0,0,133,72q-4.67,2.22-9.3,4.45c-.71.33-1.41.67-2.08,1a6.59,6.59,0,0,0-1.27.89A4,4,0,0,0,119,82.56Z"/><path class="cls-12" d="M113,106.83a13.26,13.26,0,0,0,1.45,5,15.53,15.53,0,0,0,11.73,8.77,16,16,0,0,0,9-30.38.78.78,0,0,0-.22,0,11.19,11.19,0,0,0-3.6-1.09,16,16,0,0,0-17.32,9.6A14.93,14.93,0,0,0,113,106.83Z"/><circle class="cls-9" cx="129.06" cy="105.1" r="9.75"/></g><g id="Layer_3" data-name="Layer 3"><path class="cls-17" d="M227.35,114.35a10.55,10.55,0,0,1,.58,5.38s-.81,4.88-7.3,9.11c-7.13,4.64-31.27,3.5-62.44-3.37"/><rect class="cls-18" x="147.35" y="120.78" width="16.72" height="8.12" rx="4.06" transform="translate(20.86 -22.29) rotate(8.77)"/></g></svg>