<svg xmlns="http://www.w3.org/2000/svg" viewBox="0 0 319.56 335"><defs><style>.cls-1{fill:#e0e0e0;}.cls-2{fill:#ebebeb;}.cls-3{fill:#f5f5f5;}.cls-4,.cls-8{fill:#fff;}.cls-5{fill:#263238;}.cls-6{fill:#e3e3e3;}.cls-7{fill:#f05023;}.cls-8{font-size:14.14px;font-family:Impact;}.cls-9{letter-spacing:-0.01em;}.cls-10{opacity:0.3;}.cls-11{fill:#010101;}.cls-12{fill:#ae3324;}.cls-13{fill:#da912d;}.cls-14{fill:#e1b541;}.cls-15{fill:#da8f2d;}.cls-16{fill:#785e65;}.cls-17{fill:#db912e;}.cls-18{fill:#031f1e;}.cls-19{fill:#e1b53e;}.cls-20{fill:#c28539;}.cls-21{fill:#e2b740;}.cls-22{fill:#db8f2c;}.cls-23{fill:#e0a637;}.cls-24{fill:#e0b440;}.cls-25{fill:#d88e2d;}.cls-26{fill:#e4b63e;}.cls-27{fill:#e1a637;}.cls-28{fill:#dc9431;}.cls-29{fill:#524a60;}.cls-30{fill:#ead154;}.cls-31{fill:#dc9330;}</style></defs><g id="Layer_6" data-name="Layer 6"><path class="cls-1" d="M21.41,223.6a122.8,122.8,0,0,1-1.28-15.25c.12-5.62,0-11.93,0-11.93h.65s-.44,11.14,0,17.86,1.73,9.32,1.73,9.32H21.41"/><path class="cls-2" d="M25.59,185.57a1.69,1.69,0,0,0-.59-.86,1.63,1.63,0,0,0-1.4,0c-2,.69-3.69,4.33-4.48,6.25l2.6,8.73C26.4,195.36,27.21,189.66,25.59,185.57Z"/><path class="cls-1" d="M24.85,185.06s0,0,0,.11l-.13.32c-.12.28-.27.68-.47,1.17-.38,1-.86,2.38-1.3,4s-.73,3-.91,4c-.1.52-.17.94-.21,1.24l-.06.34c0,.07,0,.11,0,.11s0,0,0-.12l0-.34c0-.29.09-.72.17-1.25a37.42,37.42,0,0,1,.89-4.06,35.62,35.62,0,0,1,1.33-3.94c.2-.5.37-.89.5-1.16l.15-.31Z"/><path class="cls-1" d="M20.57,201.8a7.9,7.9,0,0,1-4-6.65,14.32,14.32,0,0,1,1.18-5.66.65.65,0,0,1,.27-.41.72.72,0,0,1,.66.1,8,8,0,0,1,3.41,4.88,9.92,9.92,0,0,1,.4,4,6.69,6.69,0,0,1-1.92,3.73"/><path class="cls-2" d="M20.57,201.8s0,0,0-.12v-.33c0-.3,0-.72,0-1.24a31.79,31.79,0,0,0-.45-4c-.27-1.57-.6-3-.84-4-.12-.5-.21-.9-.28-1.2l-.08-.33c0-.07,0-.11,0-.11s0,0,0,.11l.1.32c.08.28.19.68.32,1.19.26,1,.6,2.41.87,4a29.75,29.75,0,0,1,.42,4.05c0,.52,0,.94,0,1.24v.33A1.09,1.09,0,0,0,20.57,201.8Z"/><path class="cls-2" d="M23.31,216.56c2.39.52,4.36,2.21,6.67,3,1.52.54,3.25.73,4.47,1.8a3.78,3.78,0,0,0-1.66-1.65,29.65,29.65,0,0,0-6-2.89,5.9,5.9,0,0,0-3.38-.38"/><path class="cls-2" d="M19.85,218.69c-3-.05-6.15-2.6-9.13-2.75,3.12-1,7.59-.19,9.13,2.75"/><path class="cls-2" d="M21,211.5a9.83,9.83,0,0,1,4.79-.33,29,29,0,0,1,4.67,1.27,4.52,4.52,0,0,0-1.78-2.51,13,13,0,0,0-1.88-1.44,4.19,4.19,0,0,0-2.25-.64,3.6,3.6,0,0,0-2.49,1.26A4.11,4.11,0,0,0,21,211.5"/><path class="cls-2" d="M14.87,208.19c-1.89-1.61-4.74-1.45-7.22-1.39a59.09,59.09,0,0,1,11.2,7C19,212,17.25,210.23,14.87,208.19Z"/><path class="cls-2" d="M21.87,206a21.41,21.41,0,0,1,2.9-1.69c1-.45,1.92-1.17,2.88-1.69a30.43,30.43,0,0,0,3.46-2.44,9,9,0,0,1,3.79-1.81,7.61,7.61,0,0,0-3.45.2,22.56,22.56,0,0,0-3.25,1.27A15.87,15.87,0,0,0,24,202.22c-1.2,1.08-2.29,2.14-2.16,3.75"/><path class="cls-1" d="M29.92,218.69l-.09,0-.26-.14c-.23-.12-.55-.3-1-.5-.2-.11-.43-.22-.67-.33l-.78-.36a11,11,0,0,0-1.84-.64,3.81,3.81,0,0,0-1.92-.05,5.68,5.68,0,0,0-.82.24,5.09,5.09,0,0,0-.66.34,4.24,4.24,0,0,0-.82.68,2.1,2.1,0,0,1-.27.29l.06-.08a1.22,1.22,0,0,1,.18-.24,4.1,4.1,0,0,1,.81-.72,4.66,4.66,0,0,1,.67-.35,6.07,6.07,0,0,1,.82-.26,4,4,0,0,1,2,0,10.63,10.63,0,0,1,1.86.66c.28.12.54.24.78.37s.46.23.66.34c.41.21.73.4.95.53l.25.16C29.9,218.66,29.92,218.68,29.92,218.69Z"/><path class="cls-1" d="M17.61,217.2a.73.73,0,0,1,.19.06,3.94,3.94,0,0,1,.49.21,6.24,6.24,0,0,1,1.43,1,5.83,5.83,0,0,1,1.07,1.39,3.81,3.81,0,0,1,.23.48,1.94,1.94,0,0,1,.07.19s-.13-.25-.36-.63a6.75,6.75,0,0,0-1.08-1.35,6.57,6.57,0,0,0-1.4-1C17.87,217.32,17.61,217.22,17.61,217.2Z"/><path class="cls-1" d="M11,208l.12,0,.36.13.57.21c.22.08.46.2.73.32a17.15,17.15,0,0,1,3.9,2.48,18.27,18.27,0,0,1,1.82,1.8,18.14,18.14,0,0,1,1.29,1.63c.34.49.6.89.78,1.17l.21.32c0,.07.07.11.06.12l-.08-.11c-.05-.07-.13-.17-.22-.31s-.46-.67-.81-1.14-.79-1-1.3-1.62a20.58,20.58,0,0,0-1.82-1.77,17.55,17.55,0,0,0-3.86-2.5l-.72-.34-.56-.22-.35-.15Z"/><path class="cls-1" d="M25.51,209.82l-.23,0-.28-.05a4.49,4.49,0,0,0-2.43.38,3.52,3.52,0,0,0-.93.69,4.28,4.28,0,0,0-.61.75,7,7,0,0,0-.41.78,1.35,1.35,0,0,1,.06-.23,3.13,3.13,0,0,1,.29-.59,3.89,3.89,0,0,1,.6-.78,3.55,3.55,0,0,1,.95-.72,3.69,3.69,0,0,1,2.12-.39,3.18,3.18,0,0,1,.37.06l.28.06C25.44,209.78,25.52,209.81,25.51,209.82Z"/><path class="cls-1" d="M28.53,200.47l-.12.07-.33.19c-.29.15-.71.38-1.22.68s-1.1.68-1.73,1.13a13.53,13.53,0,0,0-1.94,1.63,4.67,4.67,0,0,0-.79,1c-.2.38-.39.74-.56,1.09a18.43,18.43,0,0,0-.83,1.9,11.22,11.22,0,0,0-.41,1.33c-.08.32-.1.5-.11.5s0,0,0-.13,0-.21.06-.38a9.22,9.22,0,0,1,.38-1.35,17.13,17.13,0,0,1,.81-1.91c.17-.35.36-.72.55-1.1a5.36,5.36,0,0,1,.81-1,14.1,14.1,0,0,1,2-1.63c.64-.45,1.24-.82,1.75-1.11s.94-.52,1.24-.66l.34-.16Z"/><path class="cls-1" d="M20.13,209.55a1,1,0,0,1-.06-.26l-.14-.69a18.24,18.24,0,0,0-.56-2.25,19.46,19.46,0,0,0-.86-2.15l-.29-.64-.1-.24s.06.07.14.22.19.36.32.63a16,16,0,0,1,.89,2.15,16.31,16.31,0,0,1,.54,2.27c0,.29.08.53.1.7A2.18,2.18,0,0,1,20.13,209.55Z"/><path class="cls-2" d="M19.91,202.73a8.2,8.2,0,0,0-1-3.23,10.66,10.66,0,0,0-7.23-5.4q3.35,5,6.7,10l.86,1.79A5.18,5.18,0,0,0,19.91,202.73Z"/><rect class="cls-2" x="13.94" y="222.41" width="15.58" height="2.76"/><polygon class="cls-2" points="15.1 224.62 16.43 233.19 26.77 233.19 28.36 224.62 15.1 224.62"/><path class="cls-1" d="M29.51,225.17s-3.51.06-7.85.06-7.85,0-7.85-.06,3.52,0,7.85,0S29.51,225.14,29.51,225.17Z"/><path class="cls-1" d="M245.85,115.19h-3l-.53,1.38h-2.72l3.46-7.92h2.63l3.47,7.92h-2.77Zm-.73-1.92-.78-2-.77,2Z"/><path class="cls-1" d="M142,92.54l0-3.61-1.73,2.9h-1.17l-1.72-2.77v3.48h-2.44V84.62h2.2l2.58,4.22,2.51-4.22h2.2l0,7.92Z"/><path class="cls-1" d="M22.11,89.78l.65-1.47a4,4,0,0,0,2,.55c.57,0,.77-.12.77-.33,0-.74-3.29-.14-3.29-2.36,0-1.11.92-2,2.77-2a4.73,4.73,0,0,1,2.25.52l-.61,1.46A3.64,3.64,0,0,0,25,85.69c-.58,0-.77.17-.77.38,0,.71,3.29.12,3.29,2.31,0,1.09-.93,2-2.77,2A5.42,5.42,0,0,1,22.11,89.78Z"/><path class="cls-1" d="M213.49,97.6c-.05,3.94-3.42,6.19-9.67,6.1l-12.75-.19.33-22.65,12.11.18c6.24.09,9.12,2.62,9.07,6a5.26,5.26,0,0,1-3.21,4.84A5.78,5.78,0,0,1,213.49,97.6Zm-7.68-1c0-1.17-.82-1.79-2.5-1.82l-4.6-.07-.05,3.56,4.59.07C204.94,98.38,205.79,97.77,205.81,96.61Zm-7-10.3,0,3.37,3.55,0c1.72,0,2.51-.55,2.52-1.65s-.75-1.69-2.47-1.72Z"/><path class="cls-3" d="M166.12,78.81l3.08-3.53A3.5,3.5,0,0,0,171.82,77c1.17,0,1.83-.69,1.85-2l.09-6.35-5.68-.08.06-4.25,11.25.16-.15,10.27c-.07,4.58-2.52,6.79-7,6.73A7.83,7.83,0,0,1,166.12,78.81Z"/><path class="cls-3" d="M73.68,69.92l11.16.16c7.58.11,12.72,4.49,12.62,11.51S92.08,92.85,84.51,92.73l-11.16-.16ZM84.27,86.77c3.21,0,5.44-1.83,5.49-5.29s-2.12-5.4-5.33-5.45l-3.2,0-.16,10.75Z"/><path class="cls-4" d="M159,45.6l4.54-1.37a15.84,15.84,0,1,0-4.74-3.1h0Z"/><path class="cls-5" d="M159,45.6v-.3q0-.31,0-.87c0-.77-.07-1.88-.12-3.31l-.09.06h0a.05.05,0,0,0,.08,0,.06.06,0,0,0,0-.08,15.91,15.91,0,0,1-4.07-6.43,15.36,15.36,0,0,1-.57-2.36c-.08-.41-.1-.84-.15-1.27a8.41,8.41,0,0,1-.05-1.33,15.45,15.45,0,0,1,1-5.59,15.63,15.63,0,0,1,16.17-10,15.07,15.07,0,0,1,7.11,2.53,15.18,15.18,0,0,1,5.07,5.51A15.47,15.47,0,0,1,185.32,29,15.72,15.72,0,0,1,163.6,44.17a0,0,0,0,0,0,0l-3.35,1-.87.28-.31.1.29-.07.86-.25,3.41-1h0a15.72,15.72,0,0,0,7.61,1.2A15.9,15.9,0,0,0,183.67,22,16.29,16.29,0,0,0,175,14.62a16.54,16.54,0,0,0-3.76-.82,15.81,15.81,0,0,0-13,4.81,16.06,16.06,0,0,0-3.42,5.4,15.69,15.69,0,0,0-1,5.68,8.61,8.61,0,0,0,.06,1.35c0,.43.08.87.15,1.29a16.9,16.9,0,0,0,.6,2.38,15.93,15.93,0,0,0,4.17,6.46l.08-.1h0a.07.07,0,0,0-.09,0v0c.08,1.44.15,2.57.19,3.34l.06.85C159,45.51,159,45.61,159,45.6Z"/><path class="cls-5" d="M165.34,31.61h-3L161.79,33h-2.72l3.47-7.93h2.63L168.63,33h-2.76Zm-.74-1.93-.77-2-.77,2Z"/><path class="cls-5" d="M168.59,28.75H172v1.93h-3.39Z"/><path class="cls-5" d="M180.14,30.92V33h-7.28V31.35l3.62-4.22H173V25.06h7V26.7l-3.63,4.22Z"/><path class="cls-6" d="M75.32,331.31c-.8.47-41.26-14.42-52.94-17.81a.61.61,0,0,1,.11-1.17l16.19-2.1,50.58,15.92,1.36,4.57Z"/><path class="cls-4" d="M25.57,297.27s6.28,7.27.35,15.35L78.59,329.9l-1-18.15Z"/><path class="cls-6" d="M23.07,296.93h0c0,.21.28.38.66.41,10,1,50.29,15.13,51.18,15.09L222.18,306l-59.65-11.57-138.59,2C23.46,296.45,23.07,296.67,23.07,296.93Z"/><polygon class="cls-6" points="74.88 312.44 75.32 331.31 222.61 325.87 222.15 306.02 74.88 312.44"/><path class="cls-5" d="M75.32,331.31a2.4,2.4,0,0,1,0-.32l0-.95c0-.84-.07-2.08-.12-3.68-.09-3.24-.22-7.94-.39-13.87v-.1h.1l64.25-2.86L197.85,307l17.8-.72,4.84-.18,1.26,0h.43l-.43,0-1.26.07-4.84.24-17.79.83-58.75,2.6-64.25,2.74.1-.11c.12,5.94.22,10.64.29,13.87q0,2.41.06,3.69v1.27Z"/><path class="cls-5" d="M75.22,318.68c0,.08-10.51-3.06-23.4-7s-23.32-7.25-23.29-7.34,10.5,3.06,23.39,7S75.24,318.59,75.22,318.68Z"/><path class="cls-5" d="M75,324.66l-.49-.11-1.38-.4-5.09-1.54c-4.29-1.3-10.21-3.13-16.73-5.19s-12.43-3.95-16.69-5.36c-2.13-.7-3.85-1.29-5-1.71-.59-.22-1.05-.37-1.35-.52a1.9,1.9,0,0,1-.45-.22l.48.16c.3.12.77.26,1.36.46l5.06,1.61,16.71,5.27,16.71,5.28,5,1.63,1.37.46A2.53,2.53,0,0,1,75,324.66Z"/><path class="cls-5" d="M25.84,297.92a2.36,2.36,0,0,1,.44.44,8.84,8.84,0,0,1,1,1.4,11.06,11.06,0,0,1,1.51,5.4,11.17,11.17,0,0,1-1.38,5.45,9,9,0,0,1-1,1.41c-.25.32-.41.47-.43.46s.54-.71,1.18-2a11.36,11.36,0,0,0-.12-10.63C26.39,298.62,25.79,298,25.84,297.92Z"/><path class="cls-7" d="M36.59,291a166.56,166.56,0,0,0-17.23.29A1.46,1.46,0,0,0,18,292.8h0a1.48,1.48,0,0,0,1,1.36l52.62,15.32,22.41-.62Z"/><path class="cls-4" d="M21.07,263.06s6.71,13.85,1.05,29.13L74.86,306.9l-1.64-35Z"/><path class="cls-5" d="M20.8,263a1,1,0,0,1,.13.28c.08.22.19.48.31.81.25.7.63,1.72,1.06,3a39.65,39.65,0,0,1,1.27,4.55,33.73,33.73,0,0,1,.63,5.75,47.64,47.64,0,0,1-1,10.44c-.26,1.32-.52,2.38-.7,3.1-.09.34-.17.61-.23.84s-.09.29-.1.28a1,1,0,0,1,0-.3c0-.23.1-.51.16-.84.15-.74.37-1.8.6-3.12a51.65,51.65,0,0,0,.93-10.39,34.26,34.26,0,0,0-.6-5.7,42.5,42.5,0,0,0-1.19-4.54c-.4-1.24-.72-2.26-1-3-.1-.33-.18-.61-.25-.83A1.43,1.43,0,0,1,20.8,263Z"/><path class="cls-7" d="M15.83,261.22h0a.89.89,0,0,0,.68.83c10,2.32,53.16,11.09,54,11.06l146.85-4.43-76.54-12.12L16.69,260.31A.88.88,0,0,0,15.83,261.22Z"/><polygon class="cls-7" points="70.53 273.11 71.63 309.48 218.53 306.92 217.37 268.68 70.53 273.11"/><path class="cls-5" d="M217.4,268.78c0,.09-32.88,1.15-73.44,2.38s-73.45,2.14-73.45,2,32.87-1.16,73.44-2.38S217.4,268.69,217.4,268.78Z"/><path class="cls-5" d="M70.67,278.58a2.39,2.39,0,0,1-.5-.08l-1.41-.28-5.17-1.1c-4.36-.94-10.38-2.28-17-3.78s-12.65-2.9-17-4c-2.17-.52-3.92-1-5.13-1.29a7.37,7.37,0,0,1-1.84-.61l.12,0,.36.1,1.39.34,5.15,1.2,17,3.86,17,3.87,5.15,1.21,1.4.34A2.83,2.83,0,0,1,70.67,278.58Z"/><path class="cls-5" d="M70.76,283.75a3,3,0,0,1-.49-.09l-1.38-.29-5.1-1.14c-4.3-1-10.23-2.35-16.78-3.91s-12.46-3-16.74-4.08c-2.14-.55-3.86-1-5.05-1.34a6.89,6.89,0,0,1-1.81-.62l.12.05.35.1,1.37.35L30.33,274l16.76,4,16.75,4,5.07,1.24,1.38.35A1.55,1.55,0,0,1,70.76,283.75Z"/><path class="cls-5" d="M70.94,289.72l-.48-.08-1.36-.28-5-1.11c-4.21-.95-10-2.28-16.43-3.79s-12.21-2.91-16.4-4c-2.09-.53-3.78-1-4.94-1.3a6.78,6.78,0,0,1-1.77-.61l.11,0,.35.1,1.34.34,5,1.2,16.41,3.88L64.16,288l5,1.2,1.35.35A2.19,2.19,0,0,1,70.94,289.72Z"/><path class="cls-5" d="M71.12,295.69l-.48-.08-1.39-.3-5.1-1.13c-4.3-1-10.23-2.36-16.78-3.91s-12.46-3-16.74-4.09c-2.14-.54-3.86-1-5.05-1.33a7.38,7.38,0,0,1-1.81-.62l.12,0,.35.1,1.38.35L30.69,286l16.76,4,16.75,4,5.07,1.24,1.38.35A2.89,2.89,0,0,1,71.12,295.69Z"/><path class="cls-5" d="M71.3,301.66l-.48-.08-1.39-.29-5.1-1.14c-4.3-1-10.23-2.36-16.78-3.91s-12.46-3-16.74-4.09c-2.13-.54-3.86-1-5-1.33A7.38,7.38,0,0,1,24,290.2l.12,0,.35.1,1.38.36,5.07,1.23,16.76,4,16.75,4,5.07,1.24,1.38.36A2.49,2.49,0,0,1,71.3,301.66Z"/><path class="cls-5" d="M196.64,297s0-.1,0-.3,0-.48,0-.85c0-.75-.07-1.86-.12-3.31-.1-2.91-.25-7.17-.43-12.64l.09.08L97.33,283h0l.16-.17c.17,5.86.35,11.61.51,17.1l-.16-.16,70.34-2.05,20.86-.59,5.64-.15,1.46,0c.34,0,.51,0,.51,0l-.48,0-1.45.06-5.6.19-20.82.67-70.45,2.2h-.17V300c-.17-5.49-.34-11.24-.52-17.1v-.17h.17l98.8-2.91h.09v.08c.14,5.5.26,9.78.33,12.7,0,1.44.07,2.54.08,3.29l0,.84Z"/><path class="cls-6" d="M77.51,271.06c-.79.35-40.79-8.25-52.47-10.85-.59-.13-.5-.86.12-.9l16.19-1.6,50.11,9.39,1.35,3.51Z"/><path class="cls-4" d="M28.23,247.77s6.29,5.58.36,11.76L80.79,270l-1-13.9Z"/><path class="cls-6" d="M25.74,247.51h0c0,.16.27.29.66.32,10,.74,49.82,8.79,50.7,8.76l146.84-4.43-58.74-6.55L26.61,247.13C26.12,247.15,25.73,247.31,25.74,247.51Z"/><polygon class="cls-6" points="77.08 256.59 77.51 271.06 224.38 267.37 223.92 252.16 77.08 256.59"/><path class="cls-5" d="M77.51,271.06s0-.08,0-.25l0-.72c0-.65-.07-1.6-.12-2.82-.09-2.48-.22-6.08-.38-10.64v-.09h.09l66.22-2.07,57-1.68,17.29-.47,4.7-.11,1.22,0H224l-.42,0-1.22.05-4.7.17-17.28.58-57.05,1.76-66.22,1.93.09-.09c.12,4.55.22,8.16.29,10.63,0,1.23,0,2.18.07,2.83,0,.31,0,.55,0,.72A2.28,2.28,0,0,1,77.51,271.06Z"/><path class="cls-5" d="M77.41,261.37c0,.09-10.36-1.76-23.1-4.14s-23.07-4.37-23-4.46,10.36,1.77,23.11,4.14S77.43,261.28,77.41,261.37Z"/><path class="cls-5" d="M77.24,266c0,.09-10.5-1.79-23.4-4.2s-23.36-4.44-23.35-4.53S41,259,53.9,261.44,77.26,265.87,77.24,266Z"/><path class="cls-5" d="M28.58,248.06a1.9,1.9,0,0,1,.4.32,8.26,8.26,0,0,1,.91,1.07,8,8,0,0,1,1.52,4.34A6.78,6.78,0,0,1,30,258.16a5.66,5.66,0,0,1-1,1c-.27.19-.43.28-.44.26A13,13,0,0,0,29.81,258a6.92,6.92,0,0,0,1.27-4.22,8.38,8.38,0,0,0-1.38-4.22C29.07,248.6,28.53,248.1,28.58,248.06Z"/><text class="cls-8" transform="matrix(1.65, -0.04, 0.02, 1, 119.34, 296.72)">MEA<tspan class="cls-9" x="23.2" y="0">L</tspan><tspan x="28.48" y="0">S</tspan></text><path class="cls-7" d="M16.81,120.59,27.67,240.52a2.87,2.87,0,0,0,2.71,2.61L122,247.81a3,3,0,0,1,1.72.64c1.27,1,4.82,3.07,12.93,2.67,8.52-.43,13-2.87,14.54-3.89a2.87,2.87,0,0,1,1.5-.46l90.12-2.07a2.87,2.87,0,0,0,2.79-3.16l-12.41-125.7a2.88,2.88,0,0,0-2.92-2.6L19.62,117.46A2.87,2.87,0,0,0,16.81,120.59Z"/><g class="cls-10"><path d="M134.55,249.22c-6.19,0-8.8-1.59-9.63-2.27a4.8,4.8,0,0,0-2.86-1.08l-91.58-4.69a.92.92,0,0,1-.87-.84L18.75,120.41a1,1,0,0,1,.23-.7.94.94,0,0,1,.68-.3l210.61-4.22a.93.93,0,0,1,.94.84l12.41,125.7a.92.92,0,0,1-.22.71,1,1,0,0,1-.68.31l-90.11,2.07a4.7,4.7,0,0,0-2.54.79c-1.4.94-5.53,3.16-13.56,3.56C135.82,249.2,135.17,249.22,134.55,249.22Z"/></g><path class="cls-4" d="M32.32,109.28c-.68.09-10.83,13.65-10.18,13.86s10.18,114.83,11,115,103.13,8,103.13,8c31.93-4.73,66.85-6.73,104-6.72l-12.22-129-6.18-5.31H206.72S156.1,100.89,126.79,123C126.79,123,95.36,101.05,32.32,109.28Z"/><path class="cls-4" d="M36.45,103.5,48.54,225.75s63.09-5.77,87.14,13.95l-8.84-116.06S76.65,103,36.45,103.5Z"/><path class="cls-5" d="M36.45,103.5l6.65.08c1.09,0,2.29.12,3.62.2l4.36.32c1.57.11,3.25.36,5.05.56s3.71.42,5.71.77a252.78,252.78,0,0,1,28.72,6.12,343,343,0,0,1,36.34,12l.07,0v.08c2.53,33.14,5.58,73.06,8.86,116.06l0,.36-.3-.22-1.27-1A47.78,47.78,0,0,0,124,233.22a76.75,76.75,0,0,0-11-3.56,145.32,145.32,0,0,0-22.28-3.61c-7.36-.66-14.6-.93-21.64-.93s-13.93.25-20.56.78h-.14l0-.15c-3.54-36.17-6.54-66.75-8.65-88.29-1.05-10.76-1.87-19.25-2.44-25.07-.28-2.9-.49-5.12-.64-6.63-.07-.75-.12-1.32-.16-1.7s0-.57,0-.57,0,.2.07.58.1,1,.18,1.72c.15,1.52.38,3.75.67,6.66.59,5.82,1.44,14.33,2.52,25.09,2.15,21.52,5.19,52.06,8.8,88.19l-.16-.14c6.64-.54,13.52-.78,20.58-.79s14.3.26,21.67.92a146.15,146.15,0,0,1,22.33,3.61,77.75,77.75,0,0,1,11,3.58,47.39,47.39,0,0,1,10.33,5.69l1.29,1-.27.14c-3.26-43-6.29-82.92-8.8-116.06l.08.12a344.68,344.68,0,0,0-36.28-12,256.8,256.8,0,0,0-28.69-6.18c-2-.36-3.92-.56-5.71-.78s-3.47-.47-5-.58l-4.35-.34c-1.33-.08-2.54-.23-3.62-.22Z"/><path class="cls-1" d="M43.87,110.15l1.1,8.48s25.82.19,36,4.37l-.57-7.3S75.46,110.7,43.87,110.15Z"/><path class="cls-11" d="M47.63,125.75l.06,1.26,2.21-.1.05.88-2.21.11.08,1.74-1.11.05-.22-4.77,3.6-.17,0,.88Z"/><path class="cls-7" d="M76.14,136.05c-9.83-1.53-19.1-1.48-28.95-1.16l.17,3.49s21.45-.18,28.93.85Z"/><path class="cls-4" d="M135.68,239.7s38.42-14.55,88.48-15.34L212.43,103.49s-57.74-5-85.59,20.15"/><path class="cls-5" d="M126.84,123.64l.32-.28,1-.83c.43-.35.94-.82,1.59-1.33l2.28-1.69c.87-.63,1.9-1.25,3-2s2.37-1.39,3.72-2.15a90.56,90.56,0,0,1,9.7-4.34c14.86-5.58,37.52-9.31,64-7.7a.14.14,0,0,1,.14.13h0c1.79,18.43,3.79,38.94,5.89,60.52s4.06,42,5.84,60.35a.14.14,0,0,1-.13.16h0a290.72,290.72,0,0,0-36.35,2.92c-10.84,1.54-20.26,3.47-28,5.31s-13.77,3.61-17.87,4.89c-2.06.64-3.62,1.16-4.68,1.52l-1.2.41-.4.14.39-.16,1.19-.44c1.05-.37,2.62-.91,4.67-1.56,4.09-1.32,10.13-3.1,17.86-5s17.15-3.82,28-5.39a290.69,290.69,0,0,1,36.38-3l-.14.16c-1.79-18.39-3.78-38.84-5.88-60.35s-4.07-42.09-5.86-60.52l.14.13c-26.47-1.62-49.11,2.06-63.95,7.58a91.62,91.62,0,0,0-9.69,4.3c-1.35.75-2.61,1.44-3.73,2.12s-2.13,1.33-3,2l-2.3,1.67c-.65.5-1.16,1-1.6,1.31l-1,.81Z"/><path class="cls-5" d="M102,150.09a3,3,0,0,1-.51-.22c-.33-.16-.82-.39-1.47-.65a40.14,40.14,0,0,0-5.6-1.82,87,87,0,0,0-8.58-1.69c-3.26-.48-6.86-.89-10.65-1.19-7.59-.6-14.49-.74-19.47-.77-2.5,0-4.52,0-5.91,0l-1.61,0h-.56l.56-.06,1.61-.08c1.39-.06,3.41-.11,5.91-.12,5,0,11.89.07,19.49.68,3.8.3,7.41.71,10.67,1.21a82.63,82.63,0,0,1,8.6,1.76,38.18,38.18,0,0,1,5.59,1.93c.65.28,1.13.54,1.45.71A4,4,0,0,1,102,150.09Z"/><path class="cls-5" d="M102.92,154.83l-.51-.22c-.33-.16-.82-.4-1.47-.65a41.31,41.31,0,0,0-5.6-1.83,87,87,0,0,0-8.58-1.69c-3.26-.48-6.86-.88-10.65-1.18-7.59-.6-14.49-.75-19.47-.78-2.5,0-4.52,0-5.91,0l-1.61,0a2.46,2.46,0,0,1-.56,0,3.48,3.48,0,0,1,.56,0l1.61-.08c1.39-.06,3.41-.11,5.91-.13,5,0,11.89.08,19.49.68,3.8.3,7.41.72,10.67,1.21a82.42,82.42,0,0,1,8.6,1.77,37,37,0,0,1,5.59,1.93,13.2,13.2,0,0,1,1.45.71A2.78,2.78,0,0,1,102.92,154.83Z"/><path class="cls-5" d="M74.23,153.67a6.64,6.64,0,0,1-1,0l-2.78-.12c-2.35-.1-5.6-.22-9.19-.28s-6.83-.07-9.18-.05H49.27a6.2,6.2,0,0,1-1,0,6.05,6.05,0,0,1,1-.1c.65,0,1.6-.09,2.78-.13,2.35-.07,5.61-.1,9.2,0s6.84.22,9.19.38c1.17.08,2.12.15,2.78.22A6.17,6.17,0,0,1,74.23,153.67Z"/><path class="cls-7" d="M79.31,161.38c-9.83-1.53-19.09-1.48-28.94-1.16l.16,3.49s21.45-.18,28.93.84Z"/><path class="cls-5" d="M105.22,175.42a3.64,3.64,0,0,1-.52-.22c-.33-.16-.82-.4-1.46-.65a41.53,41.53,0,0,0-5.61-1.83A87,87,0,0,0,89.05,171c-3.26-.48-6.86-.88-10.65-1.18-7.59-.6-14.49-.74-19.47-.78-2.5,0-4.51,0-5.91,0l-1.61,0a2.46,2.46,0,0,1-.56,0l.56,0L53,169c1.39-.06,3.41-.11,5.91-.13,5,0,11.89.08,19.49.68,3.8.3,7.41.72,10.68,1.21a82.74,82.74,0,0,1,8.59,1.77,37.63,37.63,0,0,1,5.6,1.93,13.82,13.82,0,0,1,1.44.71A4.15,4.15,0,0,1,105.22,175.42Z"/><path class="cls-5" d="M106.1,180.16a3.21,3.21,0,0,1-.52-.23c-.33-.16-.82-.39-1.46-.65a41.75,41.75,0,0,0-5.61-1.82,87,87,0,0,0-8.58-1.69c-3.26-.48-6.86-.89-10.65-1.19-7.59-.6-14.48-.74-19.47-.77-2.5,0-4.51,0-5.91,0l-1.61,0h-.56a3.69,3.69,0,0,1,.56-.05l1.61-.09c1.39,0,3.41-.11,5.91-.12,5,0,11.89.07,19.49.68,3.8.3,7.41.71,10.68,1.21a80.2,80.2,0,0,1,8.59,1.77,37.8,37.8,0,0,1,5.6,1.92c.64.28,1.12.54,1.44.71Z"/><path class="cls-5" d="M77.4,179a6.1,6.1,0,0,1-1,0l-2.78-.12c-2.35-.1-5.6-.21-9.18-.28s-6.84-.06-9.19-.05l-2.79,0a6.2,6.2,0,0,1-1,0,5.31,5.31,0,0,1,1-.11c.66,0,1.61-.08,2.78-.12,2.36-.07,5.61-.11,9.2,0s6.84.21,9.19.37c1.17.08,2.12.16,2.78.22A5.21,5.21,0,0,1,77.4,179Z"/><path class="cls-7" d="M81.37,188.3c-9.83-1.52-19.09-1.48-28.95-1.16l.17,3.49s21.45-.17,28.93.85Z"/><path class="cls-5" d="M107.27,202.35a4.08,4.08,0,0,1-.51-.23c-.33-.15-.82-.39-1.47-.65a43,43,0,0,0-5.6-1.82A87,87,0,0,0,91.11,198c-3.26-.48-6.86-.89-10.65-1.18C72.87,196.17,66,196,61,196c-2.5,0-4.52,0-5.91,0l-1.61,0a3,3,0,0,1-.56,0,3.48,3.48,0,0,1,.56-.05l1.61-.09c1.39,0,3.41-.11,5.91-.12,5,0,11.89.08,19.49.68,3.8.3,7.41.71,10.67,1.21a79.91,79.91,0,0,1,8.6,1.77,35.93,35.93,0,0,1,5.59,1.93,13.2,13.2,0,0,1,1.45.71A2.78,2.78,0,0,1,107.27,202.35Z"/><path class="cls-5" d="M108.15,207.08l-.51-.22c-.33-.16-.82-.4-1.47-.65a40.14,40.14,0,0,0-5.6-1.82,86.76,86.76,0,0,0-8.58-1.7c-3.26-.47-6.86-.88-10.65-1.18-7.59-.6-14.49-.74-19.47-.78-2.5,0-4.52,0-5.91,0l-1.61,0h-.56a4.11,4.11,0,0,1,.56-.06l1.61-.08c1.39-.06,3.41-.11,5.91-.13,5,0,11.89.08,19.49.68,3.8.3,7.41.72,10.67,1.22a82.63,82.63,0,0,1,8.6,1.76,38.18,38.18,0,0,1,5.59,1.93,15.33,15.33,0,0,1,1.45.71A4,4,0,0,1,108.15,207.08Z"/><path class="cls-5" d="M79.46,205.92a6.64,6.64,0,0,1-1,0l-2.78-.12c-2.35-.1-5.6-.22-9.19-.28s-6.83-.07-9.18-.05l-2.79,0a5.39,5.39,0,0,1-1,0,6.05,6.05,0,0,1,1-.1c.65,0,1.6-.09,2.78-.12,2.35-.08,5.61-.11,9.2-.05s6.84.22,9.19.38c1.17.08,2.12.15,2.78.22A6.17,6.17,0,0,1,79.46,205.92Z"/><g class="cls-10"><path d="M48.56,103.93s9,114.29,9.33,115,26.11-3.8,45,0S134.28,236,134.28,236L123.85,189s-25.63-81.26-26.73-80.78S48.56,103.93,48.56,103.93Z"/></g><path class="cls-4" d="M54.87,89.35C54,89.37,63,212.09,63,212.09s60.16-11,72.73,27.61L126.79,123S119,87.83,54.87,89.35Z"/><path class="cls-5" d="M54.87,89.35l1.53,0,4.48,0a135.8,135.8,0,0,1,17.05,1.24l2.82.41c1,.17,1.94.37,3,.56l1.52.29,1.55.37c1,.26,2.11.48,3.19.79A71.57,71.57,0,0,1,103.54,98c1.15.61,2.34,1.18,3.48,1.89.58.34,1.17.66,1.74,1l1.72,1.13a51,51,0,0,1,6.62,5.4,43,43,0,0,1,5.77,6.92,36.6,36.6,0,0,1,2.33,4.06,24.14,24.14,0,0,1,1.72,4.48v0h0c2.49,32.67,5.57,73,8.91,116.73a.15.15,0,0,1-.15.17.17.17,0,0,1-.17-.1h0c-.31-.83-.65-1.73-1-2.63a36.24,36.24,0,0,0-5.47-9.26,39.06,39.06,0,0,0-7.85-7.14L119,219.29,116.67,218l-.57-.31-.6-.28-1.19-.55-1.18-.54-1.22-.48c-1.6-.67-3.26-1.18-4.89-1.71l-2.49-.68c-.82-.24-1.67-.39-2.5-.59a95.27,95.27,0,0,0-19.94-2.07A118.14,118.14,0,0,0,63,212.23h0a.15.15,0,0,1-.17-.12h0c-2.62-36.14-4.75-66.82-6.16-88.48-.71-10.82-1.23-19.39-1.54-25.26-.15-2.93-.25-5.18-.29-6.71a8.31,8.31,0,0,1,.06-2.3,10.45,10.45,0,0,0,0,2.3c.06,1.52.17,3.78.34,6.71.34,5.86.89,14.43,1.62,25.25,1.46,21.65,3.64,52.33,6.28,88.46l-.18-.13a117.91,117.91,0,0,1,19.17-1.44,96,96,0,0,1,20,2.07c.83.19,1.68.35,2.51.59l2.5.68c1.64.53,3.31,1,4.92,1.72l1.22.48,1.2.55,1.19.55.6.28.58.31,2.32,1.28,2.24,1.44a39.8,39.8,0,0,1,7.93,7.2,36.93,36.93,0,0,1,5.52,9.35l1,2.65-.32.06C132.2,196,129.14,155.65,126.66,123v0a24.39,24.39,0,0,0-1.69-4.43,35.45,35.45,0,0,0-2.32-4,42.31,42.31,0,0,0-5.72-6.89,50.48,50.48,0,0,0-6.58-5.38l-1.71-1.13c-.56-.38-1.16-.7-1.73-1-1.14-.71-2.32-1.28-3.47-1.89a71,71,0,0,0-13.53-5.09c-1.07-.32-2.14-.54-3.18-.8L85.19,92l-1.53-.3c-1-.19-2-.39-2.94-.56l-2.81-.42a140.29,140.29,0,0,0-17-1.31h-6Z"/><path class="cls-5" d="M33.18,238.18l.17-.17.52-.48,2-1.88,7.66-7,0,.08c-1.15-12-3-31.16-5.05-52.69-1.73-18.43-3.29-35.11-4.42-47.2-.55-6-1-10.91-1.3-14.3-.15-1.68-.26-3-.34-3.89,0-.44-.06-.77-.08-1s0-.35,0-.35,0,.12,0,.34l.11,1c.09.9.23,2.21.4,3.89.33,3.39.81,8.27,1.4,14.29C35.44,140.9,37,157.57,38.8,176c2,21.53,3.8,40.69,4.92,52.7v.05l0,0L36,235.73l-2.05,1.84-.54.46A1.22,1.22,0,0,1,33.18,238.18Z"/><path class="cls-5" d="M240.3,239.48s-.18-.19-.52-.6l-1.51-1.79-5.81-7,0,0a302.31,302.31,0,0,0-36.22,1.55c-15.31,1.4-33.31,3.71-52.48,6.82-2.78.44-5.53.91-8.11,1.36h0l-.05,0a56.78,56.78,0,0,0-9-3.35c-3-.91-6.08-1.58-9.07-2.21-6-1.2-11.83-2-17.38-2.69C89,230.31,79,229.71,70.63,229.33s-15.14-.5-19.79-.56l-5.36,0H43.62l.47,0,1.39,0c1.22,0,3,0,5.36,0,4.66,0,11.41.11,19.8.45s18.39.93,29.52,2.21c5.56.64,11.4,1.47,17.41,2.67,3,.63,6.06,1.3,9.1,2.21a58.21,58.21,0,0,1,9.08,3.36h-.1c2.58-.45,5.33-.92,8.11-1.37,19.17-3.1,37.19-5.4,52.5-6.77s27.94-1.79,36.26-1.43h0l0,0,5.75,7,1.48,1.82Z"/><path class="cls-5" d="M232.52,230.05s0-.12-.05-.35-.06-.57-.1-1l-.36-3.91c-.3-3.41-.74-8.32-1.28-14.38-1-12.15-2.48-28.92-4.07-47.44-2.08-25-3.89-46.73-4.84-58.07l.09.07c-2.93.28-5.2.42-6.73.44a13.27,13.27,0,0,1-1.75-.07,1,1,0,0,1-.57-.17,1.51,1.51,0,0,0,.57.13,13.26,13.26,0,0,0,1.74,0c1.54,0,3.8-.21,6.72-.51H222v.08c1,11.34,2.86,33.1,5,58.06,1.55,18.52,3,35.3,4,47.45.49,6.07.89,11,1.16,14.39.13,1.69.23,3,.3,3.91l.07,1C232.52,229.93,232.52,230.05,232.52,230.05Z"/><path class="cls-1" d="M65.32,100.89l.69,8.53s25.78,1.42,35.72,6.08l-.22-7.32S96.85,103,65.32,100.89Z"/><path class="cls-11" d="M70.4,118.12h1v1.94a3.32,3.32,0,0,1-1.93.6,2.47,2.47,0,1,1,0-4.94,2.54,2.54,0,0,1,2,.83l-.71.65a1.61,1.61,0,0,0-1.23-.54,1.53,1.53,0,1,0,0,3.06,1.75,1.75,0,0,0,.86-.2Z"/><path class="cls-7" d="M95.73,126.18c-9.75-2-19-2.39-28.86-2.54v3.5s21.43.84,28.86,2.22Z"/><path class="cls-5" d="M121.29,140.79a4.91,4.91,0,0,1-.5-.26c-.32-.18-.79-.44-1.42-.74a41.75,41.75,0,0,0-5.49-2.15,87.06,87.06,0,0,0-8.46-2.2c-3.23-.68-6.8-1.3-10.57-1.82-7.53-1.06-14.41-1.61-19.38-1.94-2.49-.17-4.51-.27-5.9-.33L68,131.27a5.16,5.16,0,0,1-.56,0,3.61,3.61,0,0,1,.57,0h1.6c1.4,0,3.42.09,5.91.23,5,.27,11.87.79,19.42,1.84,3.77.53,7.35,1.16,10.58,1.85a82.52,82.52,0,0,1,8.48,2.28,37.27,37.27,0,0,1,5.46,2.26,13.39,13.39,0,0,1,1.4.8A2.53,2.53,0,0,1,121.29,140.79Z"/><path class="cls-5" d="M121.89,145.56a2.76,2.76,0,0,1-.51-.25c-.32-.18-.79-.44-1.42-.74a42.09,42.09,0,0,0-5.48-2.15,83.81,83.81,0,0,0-8.47-2.2c-3.22-.68-6.79-1.3-10.56-1.82-7.54-1.06-14.41-1.61-19.39-1.94-2.49-.17-4.5-.27-5.9-.33l-1.6-.08a4.85,4.85,0,0,1-.56,0,2.67,2.67,0,0,1,.56,0l1.61,0c1.39,0,3.41.09,5.91.23,5,.27,11.86.79,19.41,1.84,3.78.53,7.36,1.16,10.59,1.85a83,83,0,0,1,8.47,2.28,38,38,0,0,1,5.47,2.26c.62.31,1.09.6,1.4.79Z"/><path class="cls-5" d="M93.32,142.69a6,6,0,0,1-1-.07l-2.77-.28c-2.34-.24-5.57-.55-9.15-.83s-6.82-.48-9.16-.6l-2.79-.15a4.76,4.76,0,0,1-1-.09,7.67,7.67,0,0,1,1,0c.66,0,1.61,0,2.78.05,2.36.06,5.61.22,9.19.51s6.81.62,9.15.92c1.17.15,2.11.28,2.76.39A6.56,6.56,0,0,1,93.32,142.69Z"/><path class="cls-7" d="M88.51,148.46a83.84,83.84,0,0,0-20-1l.05,3.49s12.3-.54,20,.72Z"/><path class="cls-5" d="M123.85,164.14s0,0-.14,0l-.38-.18-1.47-.7a22.82,22.82,0,0,0-2.37-1c-.47-.17-1-.39-1.5-.56l-1.72-.54c-2.4-.77-5.33-1.46-8.59-2.16s-6.89-1.27-10.71-1.75c-7.64-1-14.61-1.53-19.65-1.83-2.53-.15-4.57-.22-6-.28l-1.63,0-.42,0c-.09,0-.14,0-.14,0h2.19c1.42,0,3.46.05,6,.17,5,.24,12,.7,19.68,1.73,3.83.49,7.45,1.15,10.73,1.79a85.77,85.77,0,0,1,8.6,2.23l1.72.57c.54.17,1,.4,1.5.58.92.4,1.74.68,2.36,1l1.44.77.37.2Z"/><path class="cls-5" d="M125.1,169l-.14-.08-.36-.23c-.32-.21-.78-.54-1.42-.89a33.19,33.19,0,0,0-5.57-2.57,66.21,66.21,0,0,0-8.77-2.48c-3.35-.73-7.08-1.32-11-1.79-7.88-.93-15.06-1.23-20.26-1.38l-6.15-.12-1.68,0H69.3l-.15,0,.15,0h.43l1.68,0c1.45,0,3.56,0,6.16,0,5.2.09,12.4.35,20.29,1.28,3.94.48,7.69,1.08,11,1.83a64.24,64.24,0,0,1,8.78,2.55,32,32,0,0,1,5.56,2.68,15.58,15.58,0,0,1,1.39,1l.34.26Z"/><path class="cls-5" d="M96.7,164.45a5,5,0,0,1-1.06,0l-2.88-.23c-2.43-.2-5.78-.46-9.49-.68s-7.07-.36-9.5-.45l-2.89-.1a5.14,5.14,0,0,1-1-.07,6.75,6.75,0,0,1,1.06-.05c.68,0,1.66,0,2.88,0,2.44,0,5.81.14,9.52.36s7.07.51,9.49.77c1.22.13,2.2.24,2.87.34A7.33,7.33,0,0,1,96.7,164.45Z"/><path class="cls-7" d="M68.49,173.23l.05,3.49s9.38.21,18.06.69l.08-3.63C80.68,173.3,74.7,173.22,68.49,173.23Z"/><path class="cls-5" d="M127.5,193.25l-.13-.09-.35-.31a17.6,17.6,0,0,0-1.34-1.15,29.69,29.69,0,0,0-5.5-3.48c-4.89-2.53-12.3-4.65-20.62-5.8a172.28,172.28,0,0,0-21.48-1.51l-6.54-.06-1.77,0H69.3l-.15,0,.15,0h.47l1.77,0c1.55,0,3.78-.07,6.54,0a161.52,161.52,0,0,1,21.53,1.41c8.34,1.16,15.78,3.32,20.68,5.92a28.62,28.62,0,0,1,5.47,3.59,16.6,16.6,0,0,1,1.31,1.2l.33.33Z"/><path class="cls-5" d="M127.89,198s0,0-.13-.1l-.34-.32a15.17,15.17,0,0,0-1.32-1.21,27.75,27.75,0,0,0-5.49-3.6,52.28,52.28,0,0,0-9.1-3.5,94.53,94.53,0,0,0-11.68-2.53,184.46,184.46,0,0,0-21.67-1.91c-2.78-.09-5-.13-6.59-.15l-1.8,0h-.46l-.16,0s0,0,.16,0h.46l1.8,0c1.56,0,3.81,0,6.6,0a169,169,0,0,1,21.71,1.82A90.18,90.18,0,0,1,111.6,189a49.7,49.7,0,0,1,9.12,3.58,26.16,26.16,0,0,1,5.47,3.71,12.83,12.83,0,0,1,1.28,1.26l.32.34Z"/><path class="cls-5" d="M127.91,202.48l-.12-.11-.32-.33-.52-.55c-.21-.22-.48-.44-.77-.7a24.32,24.32,0,0,0-5.51-3.55,52.63,52.63,0,0,0-9.15-3.36,106.62,106.62,0,0,0-11.71-2.48,205.42,205.42,0,0,0-21.65-2.11c-2.78-.13-5-.2-6.59-.24l-1.8,0-.46,0c-.11,0-.16,0-.16,0h.16l.46,0h1.8c1.56,0,3.81,0,6.6.13a186.48,186.48,0,0,1,21.7,2,104.59,104.59,0,0,1,11.73,2.5,51.89,51.89,0,0,1,9.18,3.45,23.63,23.63,0,0,1,5.49,3.67c.28.27.55.49.75.72l.5.57.3.36Z"/><path class="cls-5" d="M127.91,207.41l-.12-.11-.32-.34-.52-.55c-.2-.22-.48-.43-.76-.69a24.88,24.88,0,0,0-5.51-3.56,53.92,53.92,0,0,0-9.16-3.36,108.87,108.87,0,0,0-11.7-2.47,205.82,205.82,0,0,0-21.66-2.11c-2.78-.13-5-.2-6.59-.24l-1.8,0-.46,0-.16,0h.16l.46,0,1.8,0c1.56,0,3.81,0,6.6.14a186.48,186.48,0,0,1,21.7,2,102.41,102.41,0,0,1,11.73,2.5,51.89,51.89,0,0,1,9.18,3.45,24,24,0,0,1,5.49,3.66c.28.28.55.5.75.72l.5.58.3.36C127.88,207.36,127.92,207.4,127.91,207.41Z"/><path class="cls-5" d="M127.91,212.46l-.12-.1-.32-.34-.52-.55c-.2-.22-.48-.43-.76-.69a24.88,24.88,0,0,0-5.51-3.56,53.92,53.92,0,0,0-9.16-3.36,106.49,106.49,0,0,0-11.7-2.47,200.57,200.57,0,0,0-21.66-2.11c-2.78-.14-5-.2-6.59-.24l-1.8,0h-.46l-.16,0s0,0,.16,0h.46l1.8,0c1.56,0,3.81,0,6.6.14a186.16,186.16,0,0,1,21.7,2,104.52,104.52,0,0,1,11.73,2.51,52.72,52.72,0,0,1,9.18,3.44,23.63,23.63,0,0,1,5.49,3.67c.28.27.55.49.75.72l.5.58.3.36C127.88,212.42,127.92,212.46,127.91,212.46Z"/><path class="cls-7" d="M162.4,125.26c-9.44,1.28-16.26,4.36-26.79,8.8l-.43-4.14s14.51-8,26.43-8.73Z"/><path class="cls-5" d="M206.26,122.36s-.06,0-.19,0l-.55,0-2.12.06c-.92,0-2.05.06-3.35.14s-2.8.11-4.44.25-3.44.25-5.37.45-4,.44-6.14.7c-4.31.59-9,1.36-14,2.39s-9.55,2.24-13.73,3.45c-2.08.63-4.07,1.22-5.9,1.84s-3.54,1.2-5.09,1.76-2.94,1.09-4.17,1.55-2.27.88-3.12,1.24l-2,.79-.51.2-.18.05.17-.08.5-.23,1.94-.85c.85-.37,1.89-.82,3.11-1.29s2.59-1.05,4.15-1.6,3.24-1.19,5.08-1.8,3.82-1.23,5.91-1.87c4.18-1.22,8.82-2.43,13.75-3.48s9.66-1.8,14-2.37c2.17-.25,4.22-.51,6.16-.67s3.73-.31,5.37-.41,3.14-.15,4.45-.21,2.44-.07,3.36-.07h2.67C206.2,122.35,206.26,122.35,206.26,122.36Z"/><path class="cls-5" d="M206.26,126.35s-.06,0-.19,0l-.55,0-2.12.07c-.92,0-2.05,0-3.35.13s-2.8.12-4.44.25-3.44.25-5.37.46-4,.43-6.14.69c-4.31.59-9,1.36-14,2.39s-9.55,2.25-13.73,3.45c-2.08.64-4.07,1.22-5.9,1.84s-3.54,1.2-5.09,1.76-2.94,1.09-4.17,1.55-2.27.88-3.12,1.24l-2,.79-.51.2-.18.06s.05,0,.17-.09l.5-.23,1.94-.85c.85-.37,1.89-.81,3.11-1.29s2.59-1,4.15-1.6,3.24-1.19,5.08-1.79,3.82-1.23,5.91-1.88c4.18-1.22,8.82-2.43,13.75-3.48s9.66-1.79,14-2.36c2.17-.26,4.22-.52,6.16-.67s3.73-.32,5.37-.42,3.14-.15,4.45-.21,2.44-.07,3.36-.07h2.86Z"/><path class="cls-5" d="M168.1,134.65s-.11,0-.33.11l-1,.26-3.57.91c-3,.79-7.14,1.94-11.65,3.41s-8.53,3-11.42,4.1l-3.42,1.36-.94.36-.33.11a1.17,1.17,0,0,1,.31-.17l.91-.42c.79-.36,1.94-.86,3.38-1.46,2.87-1.19,6.89-2.72,11.41-4.19s8.67-2.59,11.7-3.32c1.51-.37,2.74-.64,3.59-.82l1-.19A1.85,1.85,0,0,1,168.1,134.65Z"/><path class="cls-7" d="M165.23,149.93c-9.44,1.28-16.26,4.36-26.79,8.81L138,154.6s14.51-8,26.43-8.74Z"/><path class="cls-5" d="M209.09,147l-.19,0-.55,0-2.12.07c-.92,0-2,0-3.35.13s-2.8.12-4.44.26-3.44.24-5.37.45-4,.43-6.14.7c-4.31.58-9,1.35-14,2.38s-9.56,2.25-13.74,3.45c-2.08.64-4.07,1.22-5.9,1.84s-3.54,1.2-5.09,1.76-2.94,1.09-4.17,1.55-2.27.89-3.12,1.24l-2,.79-.52.2-.18.06s0,0,.17-.09l.5-.23,1.94-.85c.85-.37,1.89-.81,3.11-1.29s2.59-1.05,4.15-1.6,3.24-1.19,5.08-1.79,3.82-1.23,5.91-1.88c4.18-1.22,8.82-2.43,13.75-3.48s9.66-1.79,14-2.36c2.17-.26,4.23-.52,6.16-.67s3.73-.31,5.38-.42,3.13-.15,4.44-.2,2.44-.08,3.36-.08h2.86Z"/><path class="cls-5" d="M209.09,151s-.06,0-.19,0l-.55,0-2.12.07c-.92,0-2,.05-3.35.13s-2.8.12-4.44.26-3.44.24-5.37.45-4,.44-6.14.7c-4.31.58-9,1.36-14,2.38s-9.56,2.25-13.74,3.46c-2.08.63-4.07,1.21-5.9,1.84s-3.54,1.19-5.09,1.75-2.94,1.09-4.17,1.56-2.27.88-3.12,1.23l-2,.79-.52.2-.18.06s0,0,.17-.09l.5-.23,1.94-.85c.85-.37,1.89-.81,3.11-1.28s2.59-1.06,4.15-1.61,3.24-1.19,5.08-1.79,3.82-1.23,5.91-1.87c4.18-1.23,8.82-2.44,13.75-3.49s9.66-1.79,14-2.36c2.17-.26,4.23-.52,6.16-.67s3.73-.31,5.38-.41,3.13-.16,4.44-.21,2.44-.08,3.36-.08h2.86Z"/><path class="cls-5" d="M170.93,159.33a1.2,1.2,0,0,1-.33.11l-1,.25-3.56.91c-3,.79-7.15,2-11.66,3.41s-8.53,3-11.42,4.1l-3.42,1.36-.94.36a1.43,1.43,0,0,1-.33.11,1.46,1.46,0,0,1,.31-.17l.91-.42c.79-.36,1.94-.86,3.38-1.46,2.88-1.19,6.9-2.72,11.41-4.19s8.67-2.59,11.7-3.32c1.51-.36,2.74-.64,3.59-.81l1-.2A1.24,1.24,0,0,1,170.93,159.33Z"/><path class="cls-7" d="M168.23,174.83c-9.44,1.28-16.26,4.36-26.79,8.8l-.43-4.14s14.51-8,26.42-8.74Z"/><path class="cls-5" d="M211.92,171.93l-.19,0-.55,0-2.12.07c-.92,0-2.05.06-3.35.13s-2.8.12-4.44.26-3.44.25-5.37.45-4,.44-6.14.7c-4.31.58-9,1.36-14,2.38s-9.55,2.25-13.73,3.46c-2.08.63-4.07,1.21-5.9,1.84s-3.55,1.19-5.09,1.75-2.94,1.1-4.17,1.56-2.27.88-3.12,1.23l-2,.8-.51.19q-.18.08-.18.06l.16-.09.51-.23,1.94-.85c.85-.37,1.88-.81,3.1-1.28s2.6-1.05,4.16-1.61,3.24-1.19,5.08-1.79,3.82-1.23,5.9-1.87c4.19-1.23,8.83-2.44,13.76-3.49s9.66-1.79,14-2.36c2.17-.25,4.22-.51,6.16-.67s3.73-.31,5.37-.41,3.14-.16,4.45-.21,2.43-.07,3.36-.08h2.67C211.86,171.92,211.92,171.92,211.92,171.93Z"/><path class="cls-5" d="M211.92,175.92l-.19,0-.55,0-2.12.07c-.92,0-2.05.06-3.35.13s-2.8.12-4.44.26-3.44.25-5.37.45-4,.44-6.14.7c-4.31.59-9,1.36-14,2.38s-9.55,2.25-13.73,3.46c-2.08.63-4.07,1.21-5.9,1.84s-3.55,1.2-5.09,1.75-2.94,1.1-4.17,1.56-2.27.88-3.12,1.23l-2,.8-.51.2-.18.05.16-.09.51-.22,1.94-.85c.85-.37,1.88-.82,3.1-1.29s2.6-1,4.16-1.6,3.24-1.2,5.08-1.8,3.82-1.23,5.9-1.87c4.19-1.22,8.83-2.44,13.76-3.49s9.66-1.79,14-2.36c2.17-.25,4.22-.51,6.16-.67s3.73-.31,5.37-.41,3.14-.15,4.45-.21,2.43-.07,3.36-.07h2.67Z"/><path class="cls-5" d="M173.76,184.22a1.4,1.4,0,0,1-.33.11l-1,.26-3.57.91c-3,.78-7.14,1.94-11.65,3.4s-8.53,3-11.43,4.1l-3.42,1.36-.93.37c-.21.08-.33.12-.33.1a1.44,1.44,0,0,1,.31-.16l.9-.43c.8-.36,1.95-.86,3.39-1.45,2.87-1.19,6.89-2.73,11.41-4.2s8.67-2.59,11.7-3.32c1.51-.36,2.74-.64,3.59-.81l1-.19Z"/><path class="cls-7" d="M170.77,198c-9.44,1.28-16.26,4.36-26.79,8.8l-.43-4.14s14.52-8,26.43-8.74Z"/><path class="cls-5" d="M214.47,195.08l-.19,0-.55,0-2.12.07c-.92,0-2.05.05-3.36.13s-2.79.12-4.43.26-3.45.24-5.37.45-4,.44-6.14.7c-4.32.58-9,1.36-14,2.38s-9.55,2.25-13.73,3.46c-2.09.63-4.07,1.21-5.91,1.84s-3.54,1.19-5.09,1.75-2.94,1.09-4.16,1.56-2.27.88-3.12,1.23l-2,.79-.51.2q-.18.08-.18.06l.16-.09.5-.23,1.95-.85c.84-.37,1.88-.81,3.1-1.28s2.6-1.06,4.15-1.61,3.25-1.19,5.09-1.79,3.82-1.23,5.9-1.87c4.19-1.23,8.83-2.44,13.75-3.49s9.67-1.79,14-2.36c2.16-.25,4.22-.51,6.15-.67s3.73-.31,5.38-.41,3.14-.16,4.45-.21,2.43-.08,3.35-.08h2.68A.76.76,0,0,1,214.47,195.08Z"/><path class="cls-5" d="M214.47,199.07l-.19,0-.55,0-2.12.07c-.92,0-2.05.06-3.36.13s-2.79.12-4.43.26-3.45.25-5.37.45-4,.44-6.14.7c-4.32.59-9,1.36-14,2.38s-9.55,2.25-13.73,3.46c-2.09.63-4.07,1.21-5.91,1.84s-3.54,1.19-5.09,1.75-2.94,1.1-4.16,1.56-2.27.88-3.12,1.23l-2,.8-.51.19-.18.06.16-.09.5-.22,1.95-.85c.84-.38,1.88-.82,3.1-1.29s2.6-1,4.15-1.6,3.25-1.2,5.09-1.8,3.82-1.23,5.9-1.87c4.19-1.22,8.83-2.44,13.75-3.49s9.67-1.79,14-2.36c2.16-.25,4.22-.51,6.15-.67s3.73-.31,5.38-.41,3.14-.16,4.45-.21,2.43-.07,3.35-.08h2.68Z"/><path class="cls-5" d="M214.47,204l-.19,0-.55,0-2.12.07c-.92,0-2.05.06-3.36.13s-2.79.12-4.43.26-3.45.25-5.37.45-4,.44-6.14.7c-4.32.59-9,1.36-14,2.38s-9.55,2.25-13.73,3.46c-2.09.63-4.07,1.21-5.91,1.84s-3.54,1.2-5.09,1.75-2.94,1.1-4.16,1.56-2.27.88-3.12,1.23l-2,.8-.51.2-.18.05.16-.09.5-.22,1.95-.85c.84-.38,1.88-.82,3.1-1.29s2.6-1.05,4.15-1.6,3.25-1.2,5.09-1.8,3.82-1.23,5.9-1.87c4.19-1.22,8.83-2.44,13.75-3.49s9.67-1.79,14-2.36c2.16-.25,4.22-.51,6.15-.67s3.73-.31,5.38-.41,3.14-.15,4.45-.21,2.43-.07,3.35-.07h2.68A.76.76,0,0,1,214.47,204Z"/><path class="cls-5" d="M173.24,214a1,1,0,0,1-.3.11l-.87.25-3.23.88c-2.72.76-6.46,1.86-10.54,3.22s-7.74,2.75-10.37,3.78l-3.1,1.24-.85.33a1.26,1.26,0,0,1-.3.09s.09-.06.27-.15l.83-.39c.72-.33,1.76-.79,3.07-1.33,2.61-1.09,6.25-2.5,10.34-3.88s7.85-2.43,10.59-3.13c1.37-.35,2.48-.62,3.26-.79l.89-.18A1.43,1.43,0,0,1,173.24,214Z"/><polyline class="cls-4" points="221.9 104.88 228.08 110.47 230.26 131.23"/><path class="cls-5" d="M230.26,131.23s0-.1-.07-.29l-.12-.85c-.09-.78-.22-1.83-.37-3.11-.31-2.62-.71-6.25-1.13-10.26-.23-2.24-.44-4.36-.64-6.24l0,.1-4.42-4.08-1.24-1.18a3.15,3.15,0,0,1-.42-.44,3.27,3.27,0,0,1,.48.37l1.3,1.12,4.5,4a.16.16,0,0,1,0,.09c.2,1.88.43,4,.67,6.24.42,4,.78,7.64,1,10.27.11,1.28.2,2.33.27,3.12,0,.34,0,.62.06.85A1.17,1.17,0,0,1,230.26,131.23Z"/><path class="cls-5" d="M132.9,242.48l-.46-.12L131.1,242l-2.19-.61c-.86-.24-1.87-.46-3-.75-4.53-1.11-11.16-2.52-19.5-3.77-16.65-2.58-40.06-4.35-66.42-5h-.14l0-.15c-.27-3.35-.6-6.92-1-10.52-2.9-28.68-5.53-54.64-7.43-73.43-.92-9.4-1.62-17-2.06-22.27-.19-2.64-.37-4.68-.43-6.07,0-.69-.06-1.22-.08-1.58s0-.54,0-.54,0,.18.05.54.06.89.11,1.58c.07,1.38.28,3.42.49,6.06.48,5.25,1.21,12.86,2.16,22.25,1.88,18.8,4.68,44.74,7.53,73.42.35,3.61.68,7.18.95,10.54l-.16-.15c26.37.69,49.79,2.5,66.45,5.14,8.33,1.28,15,2.72,19.49,3.88,1.13.29,2.14.53,3,.78l2.18.63,1.33.39C132.75,242.42,132.9,242.48,132.9,242.48Z"/><path class="cls-5" d="M130.29,244.54l-.47-.1-1.37-.32c-1.2-.28-3-.76-5.28-1.15-1.16-.21-2.44-.47-3.86-.71l-4.61-.71c-1.66-.27-3.45-.47-5.34-.72s-3.89-.5-6-.72c-16.86-1.9-40.42-3.6-66.91-4.73h-.14l0-.14c-.33-3.16-.68-6.52-1-9.93-3-28.68-5.62-54.65-7.4-73.46-.9-9.4-1.57-17-2-22.29-.2-2.63-.38-4.67-.43-6.06,0-.69-.06-1.22-.08-1.58s0-.54,0-.54,0,.18.05.53.06.89.11,1.58c.08,1.39.28,3.43.49,6.06.47,5.27,1.18,12.88,2.11,22.28,1.84,18.8,4.5,44.77,7.5,73.45.35,3.4.7,6.76,1,9.93l-.16-.15c26.51,1.14,50.06,2.88,66.93,4.84,2.11.23,4.11.49,6,.75s3.68.46,5.33.74l4.62.73c1.41.25,2.7.52,3.85.74,2.32.41,4.08.91,5.28,1.21l1.36.35Z"/><path class="cls-5" d="M36.45,103.5s0,.36-.32.89-.8,1.29-1.43,2.18c-1.28,1.79-3.13,4.18-5.2,6.81l-5.27,6.74-1.58,2.06a6.4,6.4,0,0,1-.6.74,4.58,4.58,0,0,1,.5-.82c.34-.51.85-1.24,1.49-2.12,1.29-1.78,3.14-4.18,5.2-6.81s3.95-5,5.27-6.74c.66-.87,1.18-1.59,1.51-2.1a4.7,4.7,0,0,0,.34-.61C36.43,103.58,36.43,103.5,36.45,103.5Z"/></g><g id="Layer_7" data-name="Layer 7"><path class="cls-7" d="M263.05,313.47c.75,0,1.5-.06,2.26-.07,1.42,0,2.84,0,4.26-.06a1.44,1.44,0,0,1,1.19.51,6.27,6.27,0,0,1,.42.48,8.86,8.86,0,0,1,1.7,5.6H271.7l-8.09.14-6.1,0-4.27,0a.35.35,0,0,0-.27-.33l-.88-.2a11.78,11.78,0,0,1-3.31-1.45,10.1,10.1,0,0,1-2.37-2.24,4.49,4.49,0,0,1-1-2.09l1.3-.08c.31,0,.61,0,.91,0,2,0,4.06-.1,6.1-.13C256.8,313.54,259.92,313.51,263.05,313.47Z"/><path class="cls-12" d="M254.24,269.84a14.92,14.92,0,0,1,.25,4,5.94,5.94,0,0,1-2-.27,13.31,13.31,0,0,1-3.24-1.15c-.21-.11-.42-.28-.68-.12,0,.06-.08.11-.08.16a6.08,6.08,0,0,0,.11,2.08,2.18,2.18,0,0,1,0,.63v13.19a5.87,5.87,0,0,1-1.95-.37,3.54,3.54,0,0,1-.75-2.19c0-.51,0-1,0-1.54q0-6.36,0-12.7c0-1.46,0-2.91,0-4.36a3.91,3.91,0,0,1,.77-2.45l.14-.16,0,0,.16-.16h0l.32-.22h0l.37-.17h0l.17.06c.07.65.16,1.31.19,2a1,1,0,0,0,.53.88c.63.34,1.26.71,1.9,1s1.57.78,2.35,1.17C253.35,269.35,253.79,269.6,254.24,269.84Z"/><path class="cls-7" d="M254.51,292.09c0,.42.1.84.11,1.26,0,1.21,0,2.42.06,3.63,0,2.6.09,5.2.11,7.8,0,.6,0,1.21-.08,1.81l-3.32-.14-1.8,0c0-1.39,0-2.78,0-4.18a7.36,7.36,0,0,0-.06-.81c0-.36-.09-.71-.11-1.07-.08-1.84.08-3.68-.15-5.53a27.85,27.85,0,0,1,0-3.54.87.87,0,0,1,0-.36,2.94,2.94,0,0,0,.13-1.25,3.79,3.79,0,0,1,.19-1.25l1.61-.07c.1.28.2.57.31.85a6.44,6.44,0,0,0,1,1.82A2.55,2.55,0,0,0,254.51,292.09Z"/><path class="cls-12" d="M253.24,320.08l4.27,0,6.1,0,8.09-.14h1.18a3.66,3.66,0,0,1-.37,2,.5.5,0,0,1-.49.33h-.55l-27.82.41c-1,0-2.06.06-3.09.07-.71,0-.82-.08-1-.76a4.42,4.42,0,0,1-.28-1.69c.36,0,.72,0,1.09,0,2.91,0,5.82,0,8.74-.05,1.36,0,2.72-.1,4.08-.15Z"/><path class="cls-12" d="M249.59,288.43a3.79,3.79,0,0,0-.19,1.25,2.94,2.94,0,0,1-.13,1.25.87.87,0,0,0,0,.36,27.85,27.85,0,0,0,0,3.54c.23,1.85.07,3.69.15,5.53,0,.36.08.71.11,1.07a7.36,7.36,0,0,1,.06.81c0,1.4,0,2.79,0,4.18a9.46,9.46,0,0,0-2.19.21l-1.41,0c0-.78-.08-1.57-.1-2.36-.11-4.2-.3-8.41-.14-12.62a10.41,10.41,0,0,1,.38-2.6,2,2,0,0,1,.59-1.1,5.87,5.87,0,0,0,1.95.37Z"/><path class="cls-7" d="M249.59,288.43l-.92-.07V275.17a2.18,2.18,0,0,0,0-.63,6.08,6.08,0,0,1-.11-2.08s0-.1.08-.16c.26-.16.47,0,.68.12a13.31,13.31,0,0,0,3.24,1.15,5.94,5.94,0,0,0,2,.27c0,.75,0,1.5,0,2.24,0,1.23,0,2.46,0,3.69a2.42,2.42,0,0,0-2.6,1.38,6.33,6.33,0,0,0-.49,1.06,9.93,9.93,0,0,0-.45,4.46c.07.56.17,1.12.25,1.69Z"/><path class="cls-12" d="M253.24,320.08l-.09,0c-1.36,0-2.72.14-4.08.15-2.92,0-5.83,0-8.74.05-.37,0-.73,0-1.09,0a12.3,12.3,0,0,1,.15-4.76,9.12,9.12,0,0,1,.36-1.12.87.87,0,0,1,.95-.67c.36,0,.72,0,1.08,0l1.17,0h2.42a4.49,4.49,0,0,0,1,2.09,10.1,10.1,0,0,0,2.37,2.24,11.78,11.78,0,0,0,3.31,1.45l.88.2A.35.35,0,0,1,253.24,320.08Z"/><path class="cls-7" d="M247.4,306.63a9.46,9.46,0,0,1,2.19-.21l1.8,0,3.32.14,1,.23a3.11,3.11,0,0,1,2.55,2.8,4.9,4.9,0,0,1,0,1.79,10.91,10.91,0,0,0-2.66-.46c-2.51-.08-5,0-7.53,0a1.26,1.26,0,0,0-.27,0l-.16-.08a3.19,3.19,0,0,1,.6-.12c.66,0,1.33,0,2,0a2.41,2.41,0,0,0,.74-.05c-.11-.1-.16-.18-.23-.21a8.56,8.56,0,0,1-1.74-1.11c-.34-.28-.54-.64-.84-.93A2.27,2.27,0,0,1,247.4,306.63Z"/><path class="cls-12" d="M254.68,279.89A2.74,2.74,0,0,1,256,281a6.53,6.53,0,0,1,1,2.23,11.76,11.76,0,0,1,.17,5.31,6,6,0,0,1-.68,1.88,7.36,7.36,0,0,1-.55.7c-.12,0-.27,0-.34-.11a12.21,12.21,0,0,1-1.32-1.37,5.74,5.74,0,0,1-1.06-3.13,13.47,13.47,0,0,1,.12-3.8,6.28,6.28,0,0,1,.86-2.17C254.4,280.36,254.54,280.12,254.68,279.89Z"/><path class="cls-13" d="M254.68,279.89c-.14.23-.28.47-.43.69a6.28,6.28,0,0,0-.86,2.17,13.47,13.47,0,0,0-.12,3.8,5.74,5.74,0,0,0,1.06,3.13,12.21,12.21,0,0,0,1.32,1.37c.07.08.22.08.34.11a2.19,2.19,0,0,1-1.48.93,2.55,2.55,0,0,1-2-1.06,6.44,6.44,0,0,1-1-1.82c-.11-.28-.21-.57-.31-.85-.08-.57-.18-1.13-.25-1.69a9.93,9.93,0,0,1,.45-4.46,6.33,6.33,0,0,1,.49-1.06,2.42,2.42,0,0,1,2.6-1.38Z"/><path class="cls-14" d="M247.75,311a1.26,1.26,0,0,1,.27,0c2.51-.05,5-.11,7.53,0a10.91,10.91,0,0,1,2.66.46,2.17,2.17,0,0,1,.85,2,4.28,4.28,0,0,0,1.37.08c.42,0,.85,0,1.27,0s.9,0,1.35,0c-3.13,0-6.25.07-9.37.12-2,0-4.07.09-6.1.13-.3,0-.6,0-.91,0,.2-.19.46-.14.69-.14l3.09,0,.5,0c-.15-.13-.2-.21-.27-.23a6,6,0,0,1-2-1.11A2.12,2.12,0,0,1,247.75,311Z"/><path class="cls-7" d="M247.4,306.63a2.27,2.27,0,0,0,.71,1.88c.3.29.5.65.84.93a8.56,8.56,0,0,0,1.74,1.11c.07,0,.12.11.23.21a2.41,2.41,0,0,1-.74.05c-.66,0-1.33,0-2,0a3.19,3.19,0,0,0-.6.12c-.54,0-1.08,0-1.61.08a8.93,8.93,0,0,0-3.5.66,6.14,6.14,0,0,1,0-2.34,2.61,2.61,0,0,1,1.74-2.14c.45-.16.93-.25,1.39-.39a3,3,0,0,0,.42-.14Z"/><path class="cls-7" d="M254.24,269.84c-.45-.24-.89-.49-1.34-.72-.78-.39-1.57-.77-2.35-1.17s-1.27-.7-1.9-1a1,1,0,0,1-.53-.88c0-.65-.12-1.31-.19-2l1.82-.05a4.79,4.79,0,0,1,2,1.16A7.38,7.38,0,0,1,254.24,269.84Z"/><path class="cls-15" d="M242.48,311.68A8.93,8.93,0,0,1,246,311c.53,0,1.07,0,1.61-.08l.16.08a2.12,2.12,0,0,0,1,1.15,6,6,0,0,0,2,1.11c.07,0,.12.1.27.23l-.5,0-3.09,0c-.23,0-.49-.05-.69.14l-1.3.08H243l-1.17,0A2.09,2.09,0,0,1,242.48,311.68Z"/><path class="cls-16" d="M249.75,264l-1.82.05-.17-.06A2.21,2.21,0,0,1,249.75,264Z"/><path class="cls-16" d="M247.39,264.18l-.32.22Z"/><path class="cls-16" d="M247.76,264l-.37.17A.3.3,0,0,1,247.76,264Z"/><path class="cls-16" d="M246.87,264.59l-.14.16Z"/><path class="cls-16" d="M247.05,264.41l-.16.16Z"/><path class="cls-7" d="M185.23,304.29a2.72,2.72,0,0,1,.11-.34,9.48,9.48,0,0,1,3.46-3.65c.23-.14.48-.25.73-.37a1.86,1.86,0,0,1,1.81.07c2.69,1.44,5.41,2.84,8.12,4.25.35.18.71.34,1.07.51a6.25,6.25,0,0,0,.61.38q2.09,1.1,4.18,2.18l2.18,1.09,4.18,2.21c.32.17.62.37.93.55-.28.23-.55.47-.84.68a9.45,9.45,0,0,1-4.8,1.68,6.62,6.62,0,0,1-1.54,0c-.86-.12-1.7-.32-2.56-.46-.09,0-.2.09-.31.14-.57-.26-1.16-.49-1.72-.78-2.34-1.2-4.67-2.42-7-3.63l-8.22-4.24Z"/><path class="cls-12" d="M232.8,265.65a1.42,1.42,0,0,1,.52,1,3.85,3.85,0,0,1-.28,2.21q-4,8-7.95,15.92a14.66,14.66,0,0,1-.85,1.49,2.19,2.19,0,0,1-1.13,1,2.79,2.79,0,0,1-2-.34,2,2,0,0,1,.37-1.11l5.88-11.57c.11-.21.26-.41.38-.62a3.33,3.33,0,0,0,.53-1.25,4.26,4.26,0,0,0-.48,0,13.67,13.67,0,0,1-4-.53c-.52-.15-1.05-.27-1.58-.4l.06-.17.09-.15a14.63,14.63,0,0,1,1.69-2.95l.17-.21.09-.14h4.37a9.44,9.44,0,0,0,2-.15,1.24,1.24,0,0,0,.87-.57c.23-.39.5-.76.74-1.14A.59.59,0,0,1,232.8,265.65Z"/><path class="cls-7" d="M207.46,300.49c.12-.3.23-.62.38-.92l5.95-11.45c.08-.16.2-.31.29-.46a2.83,2.83,0,0,0,2.69-.28,12.43,12.43,0,0,0,1.24-.92c.26-.2.49-.45.73-.67l1.34.78a5.17,5.17,0,0,1-.56,1.8c-.6,1.28-1.14,2.59-1.87,3.82-.85,1.42-1.61,2.9-2.38,4.36-.87,1.63-1.7,3.27-2.56,4.9-.21.4-.44.79-.67,1.18a.47.47,0,0,1-.17,0Z"/><path class="cls-12" d="M185.23,304.29l.38.23,8.22,4.24c2.34,1.21,4.67,2.43,7,3.63.56.29,1.15.52,1.72.78a2.26,2.26,0,0,0,.35.28c1.24.64,2.47,1.29,3.71,1.92l7.91,4.07c.19.1.37.21.55.32a5.3,5.3,0,0,1-1.1,1.44c-.41.4-.53.42-1,.18l-.81-.42-26.64-13.83c-1-.51-1-.62-.77-1.7A2.28,2.28,0,0,1,185.23,304.29Z"/><path class="cls-12" d="M212,302.63c.23-.39.46-.78.67-1.18.86-1.63,1.69-3.27,2.56-4.9.77-1.46,1.53-2.94,2.38-4.36.73-1.23,1.27-2.54,1.87-3.82a5.17,5.17,0,0,0,.56-1.8l1.07.4a2.79,2.79,0,0,0,2,.34,1.87,1.87,0,0,0-.11.51,5.59,5.59,0,0,1-.42,2.22,25.21,25.21,0,0,1-1,2.33q-2.69,5.19-5.41,10.37l-1,1.85-1.15-.7c-.12-.09-.23-.19-.35-.27Z"/><path class="cls-7" d="M221.15,287l-1.07-.4-1.34-.78c.16-.23.3-.46.46-.67a11.13,11.13,0,0,0,2.05-4.52,4.65,4.65,0,0,0-.09-2.51,1.84,1.84,0,0,0-1.45-1.35.47.47,0,0,0-.06-.15q1-2.11,2.06-4.23c.12-.24.27-.47.41-.7l.12-.2h0c.53.13,1.06.25,1.58.4a13.67,13.67,0,0,0,4,.53,4.26,4.26,0,0,1,.48,0,3.33,3.33,0,0,1-.53,1.25c-.12.21-.27.41-.38.62l-5.88,11.57A2,2,0,0,0,221.15,287Z"/><path class="cls-12" d="M215.08,319.76c-.18-.11-.36-.22-.55-.32l-7.91-4.07c-1.24-.63-2.47-1.28-3.71-1.92a2.26,2.26,0,0,1-.35-.28c.11-.05.22-.16.31-.14.86.14,1.7.34,2.56.46a6.62,6.62,0,0,0,1.54,0,9.45,9.45,0,0,0,4.8-1.68c.29-.21.56-.45.84-.68l1.2.57,1.91.94c.37.2.74.42,1.11.61a.74.74,0,0,1,.46.8,10.62,10.62,0,0,1-.18,1.26A12.93,12.93,0,0,1,215.08,319.76Z"/><path class="cls-7" d="M212,302.63l1.66,1c.12.08.23.18.35.27a5.19,5.19,0,0,1-3.11,1.82,9.32,9.32,0,0,1-2.23.21l-.75-.32c-1.14-.55-2.28-1.11-3.43-1.65a6.86,6.86,0,0,0-2.44-.66c.27-.54.49-1.1.8-1.6a3,3,0,0,1,3.15-1.46c.48.07,1,.18,1.42.26l4.41,2.1A.47.47,0,0,0,212,302.63Z"/><path class="cls-12" d="M219.65,276.59a.47.47,0,0,1,.06.15c-.24.17-.19.43-.2.66a10.87,10.87,0,0,1-.06,1.62,13.67,13.67,0,0,1-1.72,4.16A8.26,8.26,0,0,1,216.1,285a4.3,4.3,0,0,1-2.92,1.25,3.32,3.32,0,0,1-.14-2,10.84,10.84,0,0,1,3.57-6.45A4.2,4.2,0,0,1,219.65,276.59Z"/><path class="cls-13" d="M213.18,286.24A4.3,4.3,0,0,0,216.1,285a8.26,8.26,0,0,0,1.63-1.81,13.67,13.67,0,0,0,1.72-4.16,10.87,10.87,0,0,0,.06-1.62c0-.23,0-.49.2-.66a1.84,1.84,0,0,1,1.45,1.35,4.65,4.65,0,0,1,.09,2.51,11.13,11.13,0,0,1-2.05,4.52c-.16.21-.3.44-.46.67s-.47.47-.73.67a12.43,12.43,0,0,1-1.24.92,2.83,2.83,0,0,1-2.69.28A2.59,2.59,0,0,1,213.18,286.24Z"/><path class="cls-7" d="M208.71,305.92a9.32,9.32,0,0,0,2.23-.21,5.19,5.19,0,0,0,3.11-1.82l1.15.7c.4.33.81.64,1.18,1a2.67,2.67,0,0,1,.69,3.14,5.14,5.14,0,0,1-1,1.79,9.51,9.51,0,0,0-1-1,21.13,21.13,0,0,0-3.35-1.94l-.86-.49Z"/><path class="cls-14" d="M208.71,305.92l2.11,1.17.86.49a4,4,0,0,1-2.4.68c-.42,0-.85,0-1.27,0a2.42,2.42,0,0,0-.51.14l-2.18-1.09q-2.1-1.08-4.18-2.18a6.25,6.25,0,0,1-.61-.38c0-.11.07-.22.11-.33a1.66,1.66,0,0,1,1.45-1.14,6.86,6.86,0,0,1,2.44.66c1.15.54,2.29,1.1,3.43,1.65Z"/><path class="cls-7" d="M232.8,265.65a.59.59,0,0,0-.51.32c-.24.38-.51.75-.74,1.14a1.24,1.24,0,0,1-.87.57,9.44,9.44,0,0,1-2,.15h-4.37a7.3,7.3,0,0,1,5.35-3.23,3.62,3.62,0,0,1,2.91.76A1.21,1.21,0,0,1,232.8,265.65Z"/><path class="cls-13" d="M207.5,308.41a2.42,2.42,0,0,1,.51-.14c.42,0,.85,0,1.27,0a4,4,0,0,0,2.4-.68,21.13,21.13,0,0,1,3.35,1.94,9.51,9.51,0,0,1,1,1,2,2,0,0,1-.33,2.17l-1.91-.94-1.2-.57c-.31-.18-.61-.38-.93-.55Z"/><path class="cls-7" d="M224.24,268l-.17.21Z"/><path class="cls-7" d="M222.38,271.14l-.09.15Z"/><path class="cls-7" d="M222.24,271.46l-.12.2Z"/><path class="cls-15" d="M171.07,234.2a9.85,9.85,0,0,1,4.16-3.9l.57-.27a1.84,1.84,0,0,0,.35-.05,8.45,8.45,0,0,1,3.69-.51,2.17,2.17,0,0,0,.36,0l.44,0,1,.35a5.74,5.74,0,0,1,2.52,1.66,2.3,2.3,0,0,0-.14.42,26.09,26.09,0,0,1-.16,2.79,11.57,11.57,0,0,1-1,3.19,4.73,4.73,0,0,1-.72,1.15,9.06,9.06,0,0,1-3.5,2.68,8.12,8.12,0,0,1-2.1.49,4.94,4.94,0,0,1-2.71-.61,3.65,3.65,0,0,1-2-2c-.07-.17-.19-.32-.24-.49a8.41,8.41,0,0,1-.34-1.4c0-.42-.13-.83-.17-1.25a8.6,8.6,0,0,1,.15-1.33,2.74,2.74,0,0,0,0-.64C171.24,234.39,171.13,234.3,171.07,234.2Zm7.22-2.88a5.08,5.08,0,0,0-3,.83,2,2,0,0,0-.72,2.11c.08.63.66.75,1.11,1a1.43,1.43,0,0,0,1,0,10.89,10.89,0,0,1,2.66-.51,2.16,2.16,0,0,0,.87-.25,1.21,1.21,0,0,0,.45-2.11A3.47,3.47,0,0,0,178.29,231.32Z"/><path class="cls-7" d="M196.55,246.64a2.19,2.19,0,0,1,1.51-.74,9.9,9.9,0,0,1,1.63-.09,47.07,47.07,0,0,1,5.69.44,10.45,10.45,0,0,1,2.28.58,5,5,0,0,1,2.4,1.87,4.18,4.18,0,0,1,.75,3l-1.33.19-1.43.2a16.77,16.77,0,0,1-2.32.31,31.77,31.77,0,0,1-5.6-.15,11.57,11.57,0,0,1-2-.45c-.54-.2-1.06-.44-1.59-.67l.24-1.07A4.44,4.44,0,0,0,196.55,246.64Z"/><path class="cls-7" d="M196.55,246.64a4.44,4.44,0,0,1,.21,3.43,1.64,1.64,0,0,0-.94.3,3.85,3.85,0,0,1-1.47.41,10.81,10.81,0,0,1-4.82-.63,22.34,22.34,0,0,1-5.7-3.14,2.69,2.69,0,0,1-.34-.43c.42-.31.8-.55,1.13-.85a7.64,7.64,0,0,0,2.24-3.35c.16-.45.25-.93.37-1.39a25.69,25.69,0,0,0,4.24,2.76c.73.36,1.46.72,2.2,1.06A9.79,9.79,0,0,1,196.55,246.64Z"/><path class="cls-12" d="M187.23,241c-.12.46-.21.94-.37,1.39a7.64,7.64,0,0,1-2.24,3.35c-.33.3-.71.54-1.13.85a2.69,2.69,0,0,0,.34.43,22.34,22.34,0,0,0,5.7,3.14,10.81,10.81,0,0,0,4.82.63,3.85,3.85,0,0,0,1.47-.41,1.64,1.64,0,0,1,.94-.3c-.08.35-.16.71-.23,1.07-.1.18-.2.35-.29.53a10.25,10.25,0,0,0-2.41-.15,4,4,0,0,0-1.64.4,1.4,1.4,0,0,0-.92,1c-.26.37-.06.72,0,1.08a9.84,9.84,0,0,1-2.5-.79,28.79,28.79,0,0,1-9.4-6.65c-.1-.11-.18-.24-.27-.36l.41-.17a10.16,10.16,0,0,0,6-5.79c.08-.19.19-.37.29-.56Z"/><path class="cls-15" d="M171.07,234.2c.06.1.17.19.19.29a2.74,2.74,0,0,1,0,.64,8.6,8.6,0,0,0-.15,1.33c0,.42.13.83.17,1.25a8.41,8.41,0,0,0,.34,1.4c.05.17.17.32.24.49a3.65,3.65,0,0,0,2,2,4.94,4.94,0,0,0,2.71.61,8.12,8.12,0,0,0,2.1-.49,9.06,9.06,0,0,0,3.5-2.68,4.73,4.73,0,0,0,.72-1.15,11.57,11.57,0,0,0,1-3.19,26.09,26.09,0,0,0,.16-2.79,2.3,2.3,0,0,1,.14-.42,2.78,2.78,0,0,1,.95,1.25V236a5.52,5.52,0,0,1-.06.81,12.08,12.08,0,0,1-.66,2.35,8.54,8.54,0,0,1-1.78,2.92,8.64,8.64,0,0,1-3.26,2.07,10.57,10.57,0,0,1-2.83.59,6.62,6.62,0,0,1-3.33-.69,5.9,5.9,0,0,1-2.92-2.74,8.75,8.75,0,0,0-.49-.75l-.2-.54c0-.49,0-1,0-1.45A8.56,8.56,0,0,1,171.07,234.2Z"/><path class="cls-15" d="M169.8,240.59a8.75,8.75,0,0,1,.49.75,5.9,5.9,0,0,0,2.92,2.74,6.62,6.62,0,0,0,3.33.69,10.57,10.57,0,0,0,2.83-.59,8.64,8.64,0,0,0,3.26-2.07,8.54,8.54,0,0,0,1.78-2.92,12.08,12.08,0,0,0,.66-2.35,5.52,5.52,0,0,0,.06-.81v-3.28a5.79,5.79,0,0,1,1.08,2.93,8.71,8.71,0,0,1-.22,3.41c-.06.2-.09.41-.13.61s-.21.37-.29.56a10.16,10.16,0,0,1-6,5.79l-.41.17c-.39.07-.77.15-1.16.2a7.27,7.27,0,0,1-6.18-1.87l-.15-.11-1.29-1.85A6.06,6.06,0,0,1,169.8,240.59Z"/><path class="cls-12" d="M196.24,251.67c.09-.18.19-.35.29-.53.52.23,1,.47,1.58.67a11.57,11.57,0,0,0,2,.45,31.77,31.77,0,0,0,5.6.15,16.77,16.77,0,0,0,2.32-.31l1.43-.2,1.33-.19a3.65,3.65,0,0,1-2.34,3.44,4.6,4.6,0,0,1-1.22.34,30.36,30.36,0,0,1-6.67.1,3.59,3.59,0,0,1-.35-.08,1.5,1.5,0,0,0-.31-1.86,3.94,3.94,0,0,0-1.88-1.36C197.46,252,196.84,251.87,196.24,251.67Z"/><path class="cls-7" d="M170.34,242.59l1.29,1.85c-.35.08-.69.19-1,.25a13.32,13.32,0,0,1-4.41.12,4.14,4.14,0,0,1-3.3-2.65,8.54,8.54,0,0,1-.49-4.36,1.86,1.86,0,0,1,.53-1.21,4.68,4.68,0,0,1,.37.7c.24.65.43,1.31.68,2a4.8,4.8,0,0,0,3.42,3.16,5.75,5.75,0,0,0,1.6.19C169.43,242.58,169.88,242.59,170.34,242.59Z"/><path class="cls-7" d="M180.64,229.49l-.44,0c-.16-.18-.38-.15-.59-.15l-1.47,0-.48-.91a8,8,0,0,0-1.76-2.4,2.5,2.5,0,0,0-1.36-.67,2.86,2.86,0,0,0-2.15.52c-.29.21-.61.38-.87.54a1.13,1.13,0,0,1-.24-.11,3.11,3.11,0,0,1-.39-.49.67.67,0,0,0-.53-.31,6.19,6.19,0,0,1,.58-.67,8.51,8.51,0,0,1,3.15-1.72,3.19,3.19,0,0,1,3.78,1.17,17.11,17.11,0,0,1,1.29,2A13.86,13.86,0,0,1,180.64,229.49Z"/><path class="cls-7" d="M170.36,225.46a.67.67,0,0,1,.53.31,3.11,3.11,0,0,0,.39.49,1.13,1.13,0,0,0,.24.11c.26-.16.58-.33.87-.54a2.86,2.86,0,0,1,2.15-.52,2.5,2.5,0,0,1,1.36.67,8,8,0,0,1,1.76,2.4l.48.91,1.47,0c.21,0,.43,0,.59.15a2.17,2.17,0,0,1-.36,0,8.45,8.45,0,0,0-3.69.51,1.84,1.84,0,0,1-.35.05c-.27-.51-.51-1-.82-1.51s-.54-.48-1-.25c-.24.11-.46.27-.7.4a6.09,6.09,0,0,1-.8.42,1.64,1.64,0,0,1-1.91-.4,2.3,2.3,0,0,1-.34-3l.14-.19Z"/><path class="cls-7" d="M170.34,242.59c-.46,0-.91,0-1.36,0a5.75,5.75,0,0,1-1.6-.19,4.8,4.8,0,0,1-3.42-3.16c-.25-.65-.44-1.31-.68-2a4.68,4.68,0,0,0-.37-.7,1.67,1.67,0,0,1,1.27-.75,2.42,2.42,0,0,1,1.59.2,1.78,1.78,0,0,1,.94,1.46,10.1,10.1,0,0,1,0,1.35c0,1.12.18,1.27,1.32,1.32a13.31,13.31,0,0,0,1.53-.12l.2.54A6.06,6.06,0,0,0,170.34,242.59Z"/><path class="cls-17" d="M199.92,253.65a1.5,1.5,0,0,1,.31,1.86,3.68,3.68,0,0,1-2.73,1.06,9,9,0,0,1-4.79-1.18,3.6,3.6,0,0,1-1.42-1.37c-.08-.36-.28-.71,0-1.08l.82.36c.43.21.85.44,1.29.62a8.56,8.56,0,0,0,3.44.53,5.15,5.15,0,0,0,2.25-.51A6.55,6.55,0,0,1,199.92,253.65Z"/><path class="cls-7" d="M170.36,225.47l-.14.19Z"/><path class="cls-18" d="M178.29,231.32a3.47,3.47,0,0,1,2.36,1.06,1.21,1.21,0,0,1-.45,2.11,2.16,2.16,0,0,1-.87.25,10.89,10.89,0,0,0-2.66.51,1.43,1.43,0,0,1-1,0c-.45-.21-1-.33-1.11-1a2,2,0,0,1,.72-2.11A5.08,5.08,0,0,1,178.29,231.32Z"/><path class="cls-19" d="M199.92,253.65a6.55,6.55,0,0,0-.85.29,5.15,5.15,0,0,1-2.25.51,8.56,8.56,0,0,1-3.44-.53c-.44-.18-.86-.41-1.29-.62l-.82-.36a1.4,1.4,0,0,1,.92-1,4,4,0,0,1,1.64-.4,10.25,10.25,0,0,1,2.41.15c.6.2,1.22.37,1.8.62A3.94,3.94,0,0,1,199.92,253.65Z"/><path class="cls-15" d="M284.43,280c-.22-.25-.44-.49-.65-.74a5.71,5.71,0,0,1-1.4-2.74,1.66,1.66,0,0,0,.34-.3c.24-.38.46-.78.68-1.17a9.94,9.94,0,0,1,3.05-3.3,8.25,8.25,0,0,1,4.69-1.45,7.35,7.35,0,0,1,2.82.6,4.76,4.76,0,0,1,1.47.87,5,5,0,0,1,1.6,2.78,4,4,0,0,1,0,1.78,9.12,9.12,0,0,1-1.69,3.57,1.32,1.32,0,0,0-.34.83,7.85,7.85,0,0,1-2.68,1.05,9.88,9.88,0,0,1-2.54.21l-.91,0-2.44-.69Zm5.56.35a2.12,2.12,0,0,0,1.4-.42,1.49,1.49,0,0,0,.28-2.27,2.78,2.78,0,0,0-1.41-.78,8,8,0,0,1-1.95-.7,2.57,2.57,0,0,0-1.59-.2.93.93,0,0,0-.82.74,2,2,0,0,0,.18,1.5,3.86,3.86,0,0,0,1.47,1.42A4.7,4.7,0,0,0,290,280.31Z"/><path class="cls-7" d="M279.29,257.32a3.92,3.92,0,0,1-2.61-.58,43.42,43.42,0,0,1-5.5-3.71,8.16,8.16,0,0,1-1.9-2.07,4.78,4.78,0,0,1-.36-4.52,4.4,4.4,0,0,1,.48-.76,2.17,2.17,0,0,1,.35.07l3.25,1.34a24.18,24.18,0,0,1,5.52,3,10.4,10.4,0,0,1,2.44,2.38,6.37,6.37,0,0,0,.6.67l-.95,1.07A3.62,3.62,0,0,0,279.29,257.32Z"/><path class="cls-7" d="M279.29,257.32a3.62,3.62,0,0,1,1.32-3.06,5.24,5.24,0,0,1,2.15.25,10.24,10.24,0,0,1,2.59,1.47,15.05,15.05,0,0,1,3,3.37,28.81,28.81,0,0,1,2.13,4,.78.78,0,0,1,0,.29l-.34.09a14.83,14.83,0,0,0-2.12.48,8.6,8.6,0,0,0-2.65,1.54c-.38.33-.83.64-.87,1.22-.14-.33-.28-.66-.41-1a23.37,23.37,0,0,0-2.37-4.37c-.5-.75-1-1.49-1.53-2.24A6,6,0,0,1,279.29,257.32Z"/><path class="cls-12" d="M284.54,267c0-.58.49-.89.87-1.22a8.6,8.6,0,0,1,2.65-1.54,14.83,14.83,0,0,1,2.12-.48l.34-.09a.78.78,0,0,0,0-.29,28.81,28.81,0,0,0-2.13-4,15.05,15.05,0,0,0-3-3.37,10.24,10.24,0,0,0-2.59-1.47,5.24,5.24,0,0,0-2.15-.25c.32-.36.63-.72.95-1.07l.34-.21c.24.17.49.33.73.51a6.73,6.73,0,0,0,2.46,1.24,1.84,1.84,0,0,0,1.71-.22,1,1,0,0,0,.51-.55l.21-.47a10,10,0,0,1,2,2.22,28.65,28.65,0,0,1,4,8.09c.25.8.42,1.63.63,2.45a3.38,3.38,0,0,1-.45,0,10.08,10.08,0,0,0-8,1.87l-.67.48Z"/><path class="cls-15" d="M295,280.69a1.32,1.32,0,0,1,.34-.83,9.12,9.12,0,0,0,1.69-3.57,4,4,0,0,0,0-1.78,5,5,0,0,0-1.6-2.78,4.76,4.76,0,0,0-1.47-.87,7.35,7.35,0,0,0-2.82-.6,8.25,8.25,0,0,0-4.69,1.45,9.94,9.94,0,0,0-3.05,3.3c-.22.39-.44.79-.68,1.17a1.66,1.66,0,0,1-.34.3,3.62,3.62,0,0,1-.24-1.84c.25,0,.3-.27.4-.45.26-.48.5-1,.76-1.44a11.54,11.54,0,0,1,2-2.42,10.76,10.76,0,0,1,1.6-1.33,7.92,7.92,0,0,1,6.59-1,9.67,9.67,0,0,1,3.18,1.5,4.82,4.82,0,0,1,1,.9A7.9,7.9,0,0,1,299.1,273a4,4,0,0,1,.25,1.51,9.91,9.91,0,0,0,0,1.09.64.64,0,0,0-.11.75v0a9.17,9.17,0,0,1-3.23,3.8C295.68,280.35,295.32,280.5,295,280.69Z"/><path class="cls-17" d="M299.34,275.55a9.91,9.91,0,0,1,0-1.09,4,4,0,0,0-.25-1.51,7.9,7.9,0,0,0-1.38-2.53,4.82,4.82,0,0,0-1-.9,9.67,9.67,0,0,0-3.18-1.5,7.92,7.92,0,0,0-6.59,1,10.76,10.76,0,0,0-1.6,1.33,11.54,11.54,0,0,0-2,2.42c-.26.47-.5,1-.76,1.44-.1.18-.15.41-.4.45a5.49,5.49,0,0,1,.37-2.37,8.77,8.77,0,0,1,2.49-3.68l.67-.48a10.08,10.08,0,0,1,8-1.87,3.38,3.38,0,0,0,.45,0A19.81,19.81,0,0,1,296,267a7,7,0,0,1,3.54,4c.07.2.15.39.22.59.06.79.11,1.59.17,2.38-.14.54-.28,1.09-.41,1.63Z"/><path class="cls-12" d="M281.9,253l-.34.21a6.37,6.37,0,0,1-.6-.67,10.4,10.4,0,0,0-2.44-2.38,24.18,24.18,0,0,0-5.52-3l-3.25-1.34a2.17,2.17,0,0,0-.35-.07,3.72,3.72,0,0,1,4.12-1.71,10.12,10.12,0,0,1,1.7.61,31.06,31.06,0,0,1,5.22,3.07l-.29.34a.92.92,0,0,0-.32.63,1.26,1.26,0,0,0-.06,1,4.9,4.9,0,0,0,.91,1.86C281.07,252,281.49,252.49,281.9,253Z"/><path class="cls-7" d="M284.43,280l2,1.28a.89.89,0,0,1,.11.68,6.26,6.26,0,0,0,.45,3.86,2.39,2.39,0,0,0,2.13,1.43c.42,0,.84,0,1.26,0a3.33,3.33,0,0,1,.57.09c0,.36,0,.69,0,1a.33.33,0,0,0,.26.33,6.33,6.33,0,0,1-.94.28,8.11,8.11,0,0,1-3.76-.21,3.15,3.15,0,0,1-2.31-2.64,15.66,15.66,0,0,1-.08-4.16C284.18,281.26,284.33,280.61,284.43,280Z"/><path class="cls-7" d="M299.9,273.92c-.06-.79-.11-1.59-.17-2.38a14,14,0,0,1,4.25,1.95,7.75,7.75,0,0,1,1.29,1.14,3.5,3.5,0,0,1,.92,2.58,7.46,7.46,0,0,1-1.91,4.76h0l-.17.19h0l-.18.18h0l-.21.15-.17,0c-.3-.18-.24-.48-.18-.73.17-.61.24-1.24.39-1.85a5.22,5.22,0,0,0-.59-3.57,1.09,1.09,0,0,0-.14-.23A6.6,6.6,0,0,0,299.9,273.92Z"/><path class="cls-7" d="M299.9,273.92A6.6,6.6,0,0,1,303,276.1a1.09,1.09,0,0,1,.14.23,5.22,5.22,0,0,1,.59,3.57c-.15.61-.22,1.24-.39,1.85-.06.25-.12.55.18.73l0,.13,0,.05h-.07l-.2.09a2.28,2.28,0,0,1-2.51-.8,1.44,1.44,0,0,1-.35-1.43,9.64,9.64,0,0,1,.51-1.25c.14-.3.34-.57.49-.87a.68.68,0,0,0-.23-1,4.29,4.29,0,0,0-.76-.49c-.37-.2-.76-.37-1.14-.55v0l.26-.75C299.62,275,299.76,274.46,299.9,273.92Z"/><path class="cls-7" d="M291.22,288.65a.33.33,0,0,1-.26-.33c0-.32,0-.65,0-1a3.33,3.33,0,0,0-.57-.09c-.42,0-.84,0-1.26,0a2.39,2.39,0,0,1-2.13-1.43,6.26,6.26,0,0,1-.45-3.86.89.89,0,0,0-.11-.68l2.44.69c0,.45-.06.91-.06,1.36a3.45,3.45,0,0,0,.13.7.41.41,0,0,0,.38.33c.3,0,.61,0,.91.05s.78,0,1.16.07a1.62,1.62,0,0,1,1.4,1.36,2.27,2.27,0,0,1-1.17,2.67l-.28.15,0,0Z"/><path class="cls-17" d="M279.83,248.62a.92.92,0,0,1,.32-.63l.29-.34a3.16,3.16,0,0,1,2.3.14,8.88,8.88,0,0,1,4.25,3.8,4.47,4.47,0,0,1,.53,1.9l-.21.47a1,1,0,0,1-.51.55,6.6,6.6,0,0,0-2-3,9.92,9.92,0,0,0-1.17-.84,5.88,5.88,0,0,0-3.39-1.12c-.08,0-.16-.05-.3-.09Z"/><path class="cls-7" d="M303.53,282.61l0-.13.17,0Z"/><path class="cls-7" d="M303.22,282.74l.2-.09Z"/><path class="cls-7" d="M291.32,288.62l.28-.15Z"/><path class="cls-7" d="M304.28,282h0Z"/><path class="cls-7" d="M304.11,282.14h0Z"/><path class="cls-7" d="M303.94,282.31h0Z"/><path class="cls-18" d="M290,280.31a4.7,4.7,0,0,1-2.44-.71,3.86,3.86,0,0,1-1.47-1.42,2,2,0,0,1-.18-1.5.93.93,0,0,1,.82-.74,2.57,2.57,0,0,1,1.59.2,8,8,0,0,0,1.95.7,2.78,2.78,0,0,1,1.41.78,1.49,1.49,0,0,1-.28,2.27A2.12,2.12,0,0,1,290,280.31Z"/><path class="cls-19" d="M279.83,248.62l.07.79c.14,0,.22.1.3.09a5.88,5.88,0,0,1,3.39,1.12,9.92,9.92,0,0,1,1.17.84,6.6,6.6,0,0,1,2,3,1.84,1.84,0,0,1-1.71.22,6.73,6.73,0,0,1-2.46-1.24c-.24-.18-.49-.34-.73-.51-.41-.49-.83-1-1.22-1.46a4.9,4.9,0,0,1-.91-1.86A1.26,1.26,0,0,1,279.83,248.62Z"/><path class="cls-20" d="M299.49,275.55l-.26.75a.64.64,0,0,1,.11-.75Z"/><path class="cls-7" d="M221.41,247.93l-.54-1.08a11.22,11.22,0,0,0-2.17-2.78,1,1,0,0,0-.76-.67,3.61,3.61,0,0,0-.42-.45,5.65,5.65,0,0,0-3.43-1.26l.12-.46h3.48a.61.61,0,0,1,.27,0,3,3,0,0,0,1.26.13H236c.39,0,.78,0,1.18.05l-.81.3a4.25,4.25,0,0,0-.62.12,11,11,0,0,0-7.51,12.42,10.58,10.58,0,0,0,7.29,8.58,10.72,10.72,0,0,0,11.12-2.25,4.43,4.43,0,0,0,.51-.62h0l.2-.19,0,0,.27-.24c.16-.18.34-.35.48-.54a10.63,10.63,0,0,0,2.09-8.15,10.8,10.8,0,0,0-7.49-9c-.48-.18-1-.3-1.47-.45.36,0,.73-.05,1.09-.05h6.36a2.71,2.71,0,0,0,.81,0,4.67,4.67,0,0,1,1.53-.13h16.82a3.37,3.37,0,0,0,.9,0,6.71,6.71,0,0,1,1.89-.15h3.64a10,10,0,0,1,.12,2.89,24.08,24.08,0,0,1-2.22,8.2,37.1,37.1,0,0,1-7.75,11.24c-.82.8-1.73,1.52-2.6,2.27a7.61,7.61,0,0,1-1.07.11l-12-.07c-2.78,0-5.57,0-8.36,0l-.72,0a2.26,2.26,0,0,0-.39-.18c-.77-.16-1.54-.28-2.3-.45a46.45,46.45,0,0,1-5.2-1.56,26.12,26.12,0,0,1-3.93-1.86,35.52,35.52,0,0,1-3.2-2.2,3.42,3.42,0,0,1-1.05-1.12c0-.33,0-.67,0-1a1.14,1.14,0,0,0,.09-1,10.64,10.64,0,0,0-.2-2.52,3.44,3.44,0,0,0-.4-1.47c0-.24,0-.51-.2-.69"/><path class="cls-7" d="M237.13,241.46c-.4,0-.79-.05-1.18-.05H219.22a3,3,0,0,1-1.26-.13.61.61,0,0,0-.27,0h-3.48c0,.18-.08.32-.12.46a3,3,0,0,0-2,1.11,3.12,3.12,0,0,0-.84,1.35,5.7,5.7,0,0,0-.43,2.35,1.43,1.43,0,0,0,0,1.11l.06.89a12.91,12.91,0,0,0,.6,3.09c.1.25.08.56.32.75a2.22,2.22,0,0,0,.06.44,14.89,14.89,0,0,0,1.59,3.38,1.46,1.46,0,0,0,.51.73,1.6,1.6,0,0,0,.08.26,12.28,12.28,0,0,0,2.49,2.84l.93.7a4.53,4.53,0,0,0,2,.86,2.86,2.86,0,0,0,2.32-.42,3.5,3.5,0,0,0,1.58-2.4l.28-.47a3.42,3.42,0,0,0,1.05,1.12,35.52,35.52,0,0,0,3.2,2.2,26.12,26.12,0,0,0,3.93,1.86,46.45,46.45,0,0,0,5.2,1.56c.76.17,1.53.29,2.3.45a2.26,2.26,0,0,1,.39.18l-1,0c-2,0-3.94,0-5.91,0l-2.54,0c-.18,0-.36,0-.54,0h-7.19l-7,0a33.86,33.86,0,0,1-8.18-9.42,32.21,32.21,0,0,1-3.59-8,20.42,20.42,0,0,1-.81-5.37,16.5,16.5,0,0,1,.54-4,2.06,2.06,0,0,1,1.15-.15H228c.36,0,.72,0,1.09,0l.9,0,42.73,0c.24,0,.48,0,.73,0a3.38,3.38,0,0,1,.42.13c.1.47.2.93.29,1.4,0,.26.05.53.07.8h-3.64a6.71,6.71,0,0,0-1.89.15,3.37,3.37,0,0,1-.9,0H250.94a4.67,4.67,0,0,0-1.53.13,2.71,2.71,0,0,1-.81,0h-6.36c-.36,0-.73,0-1.09.05A19.29,19.29,0,0,0,237.13,241.46Z"/><path class="cls-12" d="M273.83,238.84a3.38,3.38,0,0,0-.42-.13c-.25,0-.49,0-.73,0l-42.73,0-.9,0c0-.16-.11-.29-.28-.32s-.31,0-.46,0a23.36,23.36,0,0,1-4.34-.18h-.27a18.39,18.39,0,0,1-3.77-.36,13.39,13.39,0,0,1-4.6-1.59,5.55,5.55,0,0,1-2-1.53c.34,0,.67-.06,1-.06l6.28,0h10l29.59,0H274a.88.88,0,0,1,.74.58,3.61,3.61,0,0,1-.11,3.11A1,1,0,0,1,273.83,238.84Z"/><path class="cls-21" d="M274,234.59H260.21l-29.59,0h-10l-6.28,0c-.33,0-.66,0-1,.06s-.6-.05-.9-.05h-9.1l.91,0h14.17c.36,0,.72-.07,1.08-.1h2.72l7.16,0c3,.11,8.77.06,9.62-.11-.44,0-.74,0-1-.09a17,17,0,0,1-3.14-.86,9.32,9.32,0,0,1-3.39-2.06,4.3,4.3,0,0,1-1.3-3.43c0-.36.12-.72.18-1.07.35-.05.7-.13,1.05-.15s1-.05,1.5-.08c.24,0,.48,0,.72,0l10.68,0c.27,0,.54,0,.81,0,.45,0,.91,0,1.36,0a42.5,42.5,0,0,1,5.17.37,10.71,10.71,0,0,1,5,2,6.88,6.88,0,0,1,2.64,4.12c.1.44.17.89.27,1.39a5.4,5.4,0,0,0,.69.08H274Z"/><path class="cls-12" d="M230.15,265.68l2.54,0c2,0,3.94,0,5.91,0l1,0,.72,0c2.79,0,5.58,0,8.36,0l12,.07a7.61,7.61,0,0,0,1.07-.11,3.39,3.39,0,0,1,.51,1.54,4.49,4.49,0,0,1,0,.9c-.14.77-.38.95-1.18.95l-17.29,0-26,0c-.33,0-.66,0-1-.06h22.74l.09,0,0-.05-1.41-.25a30.91,30.91,0,0,1-5.59-1.48c-.71-.26-1.39-.6-2.08-.9A.49.49,0,0,1,230.15,265.68Z"/><path class="cls-7" d="M230.55,216.26c.61-.16,1.22-.35,1.84-.47a43.93,43.93,0,0,1,10.67-.75,20.09,20.09,0,0,1,5.69,1.12l.91.31a3,3,0,0,0,.11-.57c0-.78,0-1.57,0-2.36a3.55,3.55,0,0,1,.06-.8c0-.11.22-.23.34-.23a.53.53,0,0,1,.34.24.67.67,0,0,1,.07.35,17.79,17.79,0,0,1,0,3.72,5.32,5.32,0,0,1-.8,2.29,3.48,3.48,0,0,1-1.95,1.54,5.38,5.38,0,0,0-.9,0,14.63,14.63,0,0,1-3.23.32c-.7,0-1.39,0-2.09,0a18.1,18.1,0,0,1-3.95-.36,11.54,11.54,0,0,1-4.05-1.47A8.54,8.54,0,0,1,230.55,216.26Z"/><path class="cls-12" d="M203.33,234.6h9.1c.3,0,.6,0,.9.05a5.55,5.55,0,0,0,2,1.53,13.39,13.39,0,0,0,4.6,1.59,18.39,18.39,0,0,0,3.77.36H224a23.36,23.36,0,0,0,4.34.18c.15,0,.31,0,.46,0s.24.16.28.32c-.37,0-.73,0-1.09,0H204.53a2.06,2.06,0,0,0-1.15.15,1.9,1.9,0,0,1-1-1.52,3.62,3.62,0,0,1,.23-2.11A.9.9,0,0,1,203.33,234.6Z"/><path class="cls-12" d="M230.15,265.68a.49.49,0,0,0,.34.49c.69.3,1.37.64,2.08.9a30.91,30.91,0,0,0,5.59,1.48l1.41.25,0,.05-.09,0h-23.8a2.27,2.27,0,0,1-.55-2.06c.07-.41.21-.81.32-1.22l7,0h7.19C229.79,265.64,230,265.67,230.15,265.68Z"/><path class="cls-12" d="M230.55,216.26a8.54,8.54,0,0,0,3,2.93,11.54,11.54,0,0,0,4.05,1.47,18.1,18.1,0,0,0,3.95.36c.7,0,1.39,0,2.09,0a14.63,14.63,0,0,0,3.23-.32,5.38,5.38,0,0,1,.9,0,5.75,5.75,0,0,1-1.84.68l-.86.23c-.45,0-.91,0-1.36.06-.93.08-1.86.21-2.79.29-1.17.1-2.35.16-3.52.24l-4.27,0a1.54,1.54,0,0,0-.43.14c-.32-.06-.65-.13-1-.17a10.76,10.76,0,0,1-2.57-.58,4.89,4.89,0,0,1-2.5-2.14,7.89,7.89,0,0,1-.93-2.9c-.06-.36,0-.52.27-.59s.44.07.54.46.19.75.3,1.19l.69-.32A9.71,9.71,0,0,1,230.55,216.26Z"/><path class="cls-22" d="M229.37,234.46l-7.16,0h-2.72a6.44,6.44,0,0,1,3.44-5.88,11.67,11.67,0,0,1,4.64-1.42,2.26,2.26,0,0,1-.11.43,5.93,5.93,0,0,0-.43,2.73.54.54,0,0,1,0,.18,2.67,2.67,0,0,0,.24,1.31,4.36,4.36,0,0,0,1.17,1.79C228.76,233.89,229.06,234.18,229.37,234.46Z"/><path class="cls-7" d="M237.41,222.15c1.17-.08,2.35-.14,3.52-.24.93-.08,1.86-.21,2.79-.29.45,0,.91,0,1.36-.06,0,1.69,0,3.38,0,5.07-.27,0-.54,0-.81,0l-10.68,0c-.24,0-.48,0-.72,0l0-.32a3.51,3.51,0,0,0,.69.18c1.09,0,2.17,0,3.26,0a2.5,2.5,0,0,0,.49-.1c0-.14.06-.23.07-.31Z"/><path class="cls-23" d="M229.37,234.46c-.31-.28-.61-.57-.93-.84a4.36,4.36,0,0,1-1.17-1.79,2.67,2.67,0,0,1-.24-1.31.54.54,0,0,0,0-.18,5.93,5.93,0,0,1,.43-2.73,2.26,2.26,0,0,0,.11-.43,8.77,8.77,0,0,1,2.74-.34c-.06.35-.15.71-.18,1.07a4.3,4.3,0,0,0,1.3,3.43,9.32,9.32,0,0,0,3.39,2.06,17,17,0,0,0,3.14.86c.29.06.59.05,1,.09C238.14,234.52,232.37,234.57,229.37,234.46Z"/><path class="cls-7" d="M237.41,222.15v3.9c0,.08,0,.17-.07.31a2.5,2.5,0,0,1-.49.1c-1.09,0-2.17,0-3.26,0a3.51,3.51,0,0,1-.69-.18c-.06-1.34-.12-2.68-.19-4a1.54,1.54,0,0,1,.43-.14Z"/><path class="cls-24" d="M237.13,241.46a19.29,19.29,0,0,1,4,0c.49.15,1,.27,1.47.45a10.8,10.8,0,0,1,7.49,9,10.63,10.63,0,0,1-2.09,8.15c-.14.19-.32.36-.48.54l-.27.24,0,0-.2.19h0a1,1,0,0,0-.68.2,12.45,12.45,0,0,1-3.11,1.23,9.7,9.7,0,0,1-2.13.37,2.22,2.22,0,0,0-.63.07,3.49,3.49,0,0,1-1.7,0,2.29,2.29,0,0,0-.36-.07,6.72,6.72,0,0,1-2.13-.37,8.16,8.16,0,0,1-2.23-1,9.51,9.51,0,0,1-4.38-7.81,13.12,13.12,0,0,1,.18-2.16,9.5,9.5,0,0,1,1.24-3.47,15.56,15.56,0,0,1,4.12-4.4c.35-.26.8-.44,1-.87Zm.67,2.09a6.71,6.71,0,0,0-.9.12,9,9,0,1,0,5.55,17.16,8,8,0,0,0,4.05-3.22c.11-.14.24-.27.34-.42a9,9,0,0,0,1.08-7,9,9,0,0,0-7.52-6.74A5.72,5.72,0,0,0,237.8,243.55Z"/><path class="cls-25" d="M236.32,241.76c-.22.43-.67.61-1,.87a15.56,15.56,0,0,0-4.12,4.4,9.5,9.5,0,0,0-1.24,3.47,13.12,13.12,0,0,0-.18,2.16,9.51,9.51,0,0,0,4.38,7.81,8.16,8.16,0,0,0,2.23,1,6.72,6.72,0,0,0,2.13.37,2.29,2.29,0,0,1,.36.07,3.49,3.49,0,0,0,1.7,0,2.22,2.22,0,0,1,.63-.07,9.7,9.7,0,0,0,2.13-.37,12.45,12.45,0,0,0,3.11-1.23,1,1,0,0,1,.68-.2,4.43,4.43,0,0,1-.51.62,10.72,10.72,0,0,1-11.12,2.25,10.58,10.58,0,0,1-7.29-8.58,11,11,0,0,1,7.51-12.42A4.25,4.25,0,0,1,236.32,241.76Z"/><path class="cls-18" d="M237.8,243.55a5.72,5.72,0,0,1,2.6-.08,9,9,0,0,1,7.52,6.74,9,9,0,0,1-1.08,7c-.1.15-.23.28-.34.42-.27.13-.56.23-.81.38a7.67,7.67,0,0,1-3.38,1.25,7.81,7.81,0,0,1-5.18-1.27,7.28,7.28,0,0,1-2-2,6.81,6.81,0,0,1-1.39-4c0-.49,0-1,0-1.46a7.38,7.38,0,0,1,1.08-3.6,9.22,9.22,0,0,1,1.59-2C236.92,244.54,237.35,244,237.8,243.55Zm7.81,7.3h0c-.09-.47-.13-1-.26-1.42a5.6,5.6,0,0,0-2.27-3.17,3,3,0,0,0-1.7-.49,1.86,1.86,0,0,0-1.67,1.62,4,4,0,0,0,.59,2.24,15.74,15.74,0,0,0,1.15,1.73,4.77,4.77,0,0,0,1.84,1.58,1.31,1.31,0,0,0,.8.1,1.91,1.91,0,0,0,1.46-1.64A4.87,4.87,0,0,0,245.61,250.85Zm-2,4.52a1.37,1.37,0,0,0,1.32,1.31,1.41,1.41,0,0,0,1.24-1.42,1.21,1.21,0,0,0-1.28-1.3A1.23,1.23,0,0,0,243.6,255.37Z"/><path class="cls-18" d="M237.8,243.55c-.45.48-.88,1-1.36,1.45a9.22,9.22,0,0,0-1.59,2,7.38,7.38,0,0,0-1.08,3.6c0,.49,0,1,0,1.46a6.81,6.81,0,0,0,1.39,4,7.28,7.28,0,0,0,2,2,7.81,7.81,0,0,0,5.18,1.27,7.67,7.67,0,0,0,3.38-1.25c.25-.15.54-.25.81-.38a8,8,0,0,1-4.05,3.22,9,9,0,1,1-5.55-17.16A6.71,6.71,0,0,1,237.8,243.55Z"/><path class="cls-21" d="M245.61,250.85a4.87,4.87,0,0,1,0,.54,1.91,1.91,0,0,1-1.46,1.64,1.31,1.31,0,0,1-.8-.1,4.77,4.77,0,0,1-1.84-1.58,15.74,15.74,0,0,1-1.15-1.73,4,4,0,0,1-.59-2.24,1.86,1.86,0,0,1,1.67-1.62,3,3,0,0,1,1.7.49,5.6,5.6,0,0,1,2.27,3.17c.13.46.17,1,.26,1.42Z"/><path class="cls-21" d="M243.6,255.37a1.23,1.23,0,0,1,1.28-1.41,1.21,1.21,0,0,1,1.28,1.3,1.41,1.41,0,0,1-1.24,1.42A1.37,1.37,0,0,1,243.6,255.37Z"/><path class="cls-21" d="M290,184.7c-.08-.78-.22-1.56-.24-2.34,0-2.31,0-4.61,0-6.92a3.36,3.36,0,0,1,.11-.62.83.83,0,0,0,1,.75,19.59,19.59,0,0,0,2.17-.06,17.27,17.27,0,0,1,2.26-.15,4.29,4.29,0,0,0,.72,0c1.16-.26,2.34-.14,3.51-.29s2.16-.07,3.25-.18c1.44-.14,2.89,0,4.34-.19a15.06,15.06,0,0,1,1.9,0,5.76,5.76,0,0,1-.15,1.7,22.94,22.94,0,0,1-1.42,4.56c-.27.63-.52,1.28-.78,1.92a9.93,9.93,0,0,1-2.63.54c-.63.1-1.26.15-1.88.23-.78.1-1.55.24-2.32.31-1.05.09-2.11.14-3.16.21a1.22,1.22,0,0,0-.27,0,7.9,7.9,0,0,1-2.06.17,2.27,2.27,0,0,0-.64,0,8.48,8.48,0,0,1-2.25.15A4.52,4.52,0,0,0,290,184.7Z"/><path class="cls-21" d="M306.62,167.17c.21.25.44.48.64.74a18.83,18.83,0,0,1,1.76,2.8,5,5,0,0,1,.21.58c0,.63,0,1.26,0,1.89l-3.36,0a3.42,3.42,0,0,0-.72,0,8.12,8.12,0,0,1-1.9.14,14.52,14.52,0,0,0-2.09,0,16,16,0,0,1-2.08.14,4.65,4.65,0,0,0-1,0,9.91,9.91,0,0,1-2.17.15,4.57,4.57,0,0,0-.64,0c-1.31.25-2.65.14-4,.31a2.56,2.56,0,0,0-1.35.42c.06-1,.08-2,.21-3,.19-1.43.45-2.86.69-4.28a4.27,4.27,0,0,1,.18-.61l4.35-.21a.55.55,0,0,0,.18,0,4.13,4.13,0,0,1,1.44-.13q1.32,0,2.64,0a4.5,4.5,0,0,1,.64,0c.84.1,1.67.25,2.52.3a29.18,29.18,0,0,1,3,.46C306,167.11,306.32,167.14,306.62,167.17Z"/><path class="cls-23" d="M311.17,183.74c-.05.42-.08.84-.16,1.25a20.26,20.26,0,0,1-2,5.59,2.92,2.92,0,0,1-.21.28,1.73,1.73,0,0,0-.86.26c-.3.15-.59.31-.9.43a37,37,0,0,1-5.07,1.63,17.75,17.75,0,0,1-4.82.61c-1.08,0-2.17,0-3.26,0a5.42,5.42,0,0,1-1.7-.14,2.16,2.16,0,0,0-.72,0l-.15-.56a19.29,19.29,0,0,0,3.51-.84c.33-.13.68-.23,1-.34a16.76,16.76,0,0,0,4-1.95c.76-.49,1.47-1.05,2.19-1.6a17.64,17.64,0,0,0,2.83-2.9,3.31,3.31,0,0,0,.32-.74,7.6,7.6,0,0,0,1.5-.19c.93-.19,1.87-.35,2.81-.51Z"/><path class="cls-21" d="M305.18,184.69a3.31,3.31,0,0,1-.32.74,17.64,17.64,0,0,1-2.83,2.9c-.72.55-1.43,1.11-2.19,1.6a16.76,16.76,0,0,1-4,1.95c-.35.11-.7.21-1,.34a19.29,19.29,0,0,1-3.51.84c-.15-.55-.34-1.08-.44-1.64-.28-1.66-.52-3.32-.77-5a2.17,2.17,0,0,1,0-.36,4.18,4.18,0,0,0,1,0,8.78,8.78,0,0,1,1.53-.13l4.07-.2.28,0c.41,0,.83-.1,1.25-.13.21,0,.43,0,.64,0,.93-.11,1.85-.25,2.78-.33A29.4,29.4,0,0,0,305.18,184.69Z"/><path class="cls-23" d="M307.4,193.05a4,4,0,0,1-.28.46,16.45,16.45,0,0,1-11.26,6.35,15.39,15.39,0,0,1-5.24-.33,2.68,2.68,0,0,1-.6-.21.68.68,0,0,1-.38-.75.7.7,0,0,1,.71-.59,3.2,3.2,0,0,1,.62.09c.45.08.9.18,1.35.24a4.08,4.08,0,0,0,.7,0c.07-.37-.15-.61-.26-.89a10.63,10.63,0,0,1-.81-2.21l1.73,0a2.18,2.18,0,0,1,.63.06,3.34,3.34,0,0,0,1.17.12,15.47,15.47,0,0,0,2.8-.15c.58-.12,1.2-.09,1.8-.18a30,30,0,0,0,4.4-1.05C305.46,193.74,306.42,193.39,307.4,193.05Z"/><path class="cls-21" d="M291.36,165.18a10.12,10.12,0,0,1,1-3c.09-.19.26-.38.27-.57.07-.9.86-1,1.43-1.33a.57.57,0,0,1,.65.19,1.11,1.11,0,0,0,.73.32,15.18,15.18,0,0,1,4,1,2.26,2.26,0,0,0,.43.11c.18.29.48.33.76.41a18.27,18.27,0,0,1,3.8,2.54,3.7,3.7,0,0,1,.42.46c-.54-.06-1.08-.11-1.61-.19a25,25,0,0,0-4.14-.34h-3.63l-.72.05-1.25.13-.91,0C292.19,165.07,291.77,165.13,291.36,165.18Z"/><path class="cls-22" d="M305.18,184.69a29.4,29.4,0,0,1-3.49.53c-.93.08-1.85.22-2.78.33-.21,0-.43,0-.64,0-.42,0-.84.09-1.25.13l-.28,0-4.07.2a8.78,8.78,0,0,0-1.53.13,4.18,4.18,0,0,1-1,0L290,184.7a4.52,4.52,0,0,1,1.42-.21,8.48,8.48,0,0,0,2.25-.15,2.27,2.27,0,0,1,.64,0,7.9,7.9,0,0,0,2.06-.17,1.22,1.22,0,0,1,.27,0c1-.07,2.11-.12,3.16-.21.77-.07,1.54-.21,2.32-.31.62-.08,1.25-.13,1.88-.23a9.93,9.93,0,0,0,2.63-.54,7.74,7.74,0,0,0,1.08,0c.92-.18,1.82-.4,2.73-.59a8.65,8.65,0,0,1,.89-.1,4.42,4.42,0,0,1-.18,1.62l-1.68.25c-.94.16-1.88.32-2.81.51A7.6,7.6,0,0,1,305.18,184.69Z"/><path class="cls-22" d="M289.92,174.5a2.56,2.56,0,0,1,1.35-.42c1.32-.17,2.66-.06,4-.31a4.57,4.57,0,0,1,.64,0,9.91,9.91,0,0,0,2.17-.15,4.65,4.65,0,0,1,1,0,16,16,0,0,0,2.08-.14,14.52,14.52,0,0,1,2.09,0,8.12,8.12,0,0,0,1.9-.14,3.42,3.42,0,0,1,.72,0l3.36,0,.88,0,.45,1.43-1.52,0a15.06,15.06,0,0,0-1.9,0c-1.45.18-2.9.05-4.34.19-1.09.11-2.18,0-3.25.18s-2.35,0-3.51.29a4.29,4.29,0,0,1-.72,0,17.27,17.27,0,0,0-2.26.15,19.59,19.59,0,0,1-2.17.06.83.83,0,0,1-1-.75Z"/><path class="cls-26" d="M299,148.77a4.65,4.65,0,0,1,5.13-2.82,3,3,0,0,1,1.43.53c.13.49.26,1,.4,1.48a3.22,3.22,0,0,1-1.17,3.37,3.16,3.16,0,0,1-2.36.72,1.22,1.22,0,0,0-.27,0,1.61,1.61,0,0,1-1.22-.5,5.24,5.24,0,0,1-1.61-2.37C299.3,149,299.13,148.91,299,148.77Zm1.8-.05a1.11,1.11,0,0,0,.26.93,1.24,1.24,0,0,0,1.58.19,3.42,3.42,0,0,0,.79-.73,1.23,1.23,0,0,0,.15-1.36,1.11,1.11,0,0,0-1.18-.64A1.66,1.66,0,0,0,300.82,148.72Z"/><path class="cls-22" d="M307.4,193.05c-1,.34-1.94.69-2.92,1a30,30,0,0,1-4.4,1.05c-.6.09-1.22.06-1.8.18a15.47,15.47,0,0,1-2.8.15,3.34,3.34,0,0,1-1.17-.12,2.18,2.18,0,0,0-.63-.06l-1.73,0-.46-1.6a2.16,2.16,0,0,1,.72,0,5.42,5.42,0,0,0,1.7.14c1.09,0,2.18,0,3.26,0a17.75,17.75,0,0,0,4.82-.61,37,37,0,0,0,5.07-1.63c.31-.12.6-.28.9-.43a1.73,1.73,0,0,1,.86-.26A7.93,7.93,0,0,1,307.4,193.05Z"/><path class="cls-23" d="M309,174.67l1.52,0a8.16,8.16,0,0,1,.58,2.27,17.93,17.93,0,0,1,.25,5.22,8.65,8.65,0,0,0-.89.1c-.91.19-1.81.41-2.73.59a7.74,7.74,0,0,1-1.08,0c.26-.64.51-1.29.78-1.92a22.94,22.94,0,0,0,1.42-4.56A5.76,5.76,0,0,0,309,174.67Z"/><path class="cls-27" d="M299,148.77c.11.14.28.25.33.41a5.24,5.24,0,0,0,1.61,2.37,1.61,1.61,0,0,0,1.22.5,1.22,1.22,0,0,1,.27,0,3.16,3.16,0,0,0,2.36-.72A3.22,3.22,0,0,0,306,148c-.14-.49-.27-1-.4-1.48a3.78,3.78,0,0,1,2,2.09,6.42,6.42,0,0,1-.37,2.49,3.84,3.84,0,0,1-1.81,2.31,6.48,6.48,0,0,1-2,.66,3.36,3.36,0,0,1-1,0c-.35-.06-.69-.21-1.05-.28a2.24,2.24,0,0,1-1.37-1,6.22,6.22,0,0,1-.95-1.64,3.54,3.54,0,0,0-.42-.69A2.67,2.67,0,0,1,299,148.77Z"/><path class="cls-22" d="M291.36,165.18c.41-.05.83-.11,1.25-.15l.91,0,1.25-.13.72-.05h3.63a25,25,0,0,1,4.14.34c.53.08,1.07.13,1.61.19a7.65,7.65,0,0,1,1.75,1.84c-.3,0-.6-.06-.9-.11a29.18,29.18,0,0,0-3-.46c-.85,0-1.68-.2-2.52-.3a4.5,4.5,0,0,0-.64,0q-1.32,0-2.64,0a4.13,4.13,0,0,0-1.44.13.55.55,0,0,1-.18,0l-4.35.21A3.65,3.65,0,0,1,291.36,165.18Z"/><path class="cls-28" d="M298.64,150.4a3.54,3.54,0,0,1,.42.69,6.22,6.22,0,0,0,.95,1.64,2.24,2.24,0,0,0,1.37,1c.36.07.7.22,1.05.28a3.36,3.36,0,0,0,1,0,6.48,6.48,0,0,0,2-.66,3.84,3.84,0,0,0,1.81-2.31,6.42,6.42,0,0,0,.37-2.49,4,4,0,0,1,.47,3,4.78,4.78,0,0,1-4.53,3.85c-.27,0-.54,0-.81,0l-.82-.18c-.24-.11-.49-.22-.73-.35a4.71,4.71,0,0,1-2.57-4.16A1.51,1.51,0,0,1,298.64,150.4Z"/><path class="cls-29" d="M301.88,155.27l.82.18c-.1.44-.17.89-.31,1.32a1.19,1.19,0,0,1-1.54.9c-.37-.07-.74-.17-1.22-.28.07.2.07.33.13.39a8.49,8.49,0,0,0,1,.84,1.43,1.43,0,0,1,.56,1.82c-.22.63-.42,1.26-.63,1.89-.28-.08-.58-.12-.76-.41a9.63,9.63,0,0,0,.62-2.3l-.67-.58c-.43-.42-.87-.84-1.27-1.29a1.53,1.53,0,0,1-.33-.63.57.57,0,0,1,.55-.76,3.37,3.37,0,0,1,.89.09c.32.07.64.2,1,.27a5.52,5.52,0,0,0,.71.1C301.76,156.36,301.68,155.76,301.88,155.27Z"/><path class="cls-23" d="M310.07,173.2l-.88,0c0-.63,0-1.26,0-1.89A5.47,5.47,0,0,1,310.07,173.2Z"/><path class="cls-30" d="M300.82,148.72a1.66,1.66,0,0,1,1.6-1.61,1.11,1.11,0,0,1,1.18.64,1.23,1.23,0,0,1-.15,1.36,3.42,3.42,0,0,1-.79.73,1.24,1.24,0,0,1-1.58-.19A1.11,1.11,0,0,1,300.82,148.72Z"/><path class="cls-21" d="M191.71,182.49c.09.31.19.63.25.95A56.08,56.08,0,0,1,193,191.6c0,.18,0,.36,0,.54a16.59,16.59,0,0,0-1.73,0c-1.32.16-2.64.25-4,.36-1,.09-2,.15-3.08.17l-.18,0a12.33,12.33,0,0,1-1.35.13c-1.33,0-2.67,0-4,0l-2.46,0a1.55,1.55,0,0,0-.49-1,19.88,19.88,0,0,1-2-3.62,11.65,11.65,0,0,1-1-3,5.23,5.23,0,0,1,1.66-.34c.69-.1,1.38-.12,2.07-.22a29,29,0,0,1,3.23-.35l.36,0c.92-.11,1.85-.23,2.78-.31s2-.15,3.06-.21l.09,0c1.32-.17,2.63-.29,4-.34a9.83,9.83,0,0,0,1.07-.15A.82.82,0,0,0,191.71,182.49Z"/><path class="cls-21" d="M189.37,174.46a3.61,3.61,0,0,1,.27.56,61,61,0,0,1,2,6.92,1.43,1.43,0,0,1,0,.36,1.39,1.39,0,0,0-1.54-.51c-.32,0-.65.12-1,.14-1.08.08-2.17.14-3.26.21l-.18,0c-1,.11-2,.23-3.06.32s-1.87.14-2.8.21a2.51,2.51,0,0,0-.27,0l-2.42.3-2.52.31-2.25.24a4.36,4.36,0,0,1-.17-.78,2.45,2.45,0,0,0-.22-1,.82.82,0,0,1,0-.27,15.72,15.72,0,0,1,2-4.36,3.31,3.31,0,0,0,.62-.09c.89-.28,1.77-.59,2.67-.87a30.89,30.89,0,0,1,3.68-.91c.89-.15,1.78-.27,2.68-.39,1.05-.14,2.1-.21,3.15-.29A15.2,15.2,0,0,0,189.37,174.46Z"/><path class="cls-23" d="M175.5,201.24c-.46-.64-.95-1.25-1.37-1.91a18.94,18.94,0,0,1-1.9-4c-.11-.32-.17-.65-.26-1a18.08,18.08,0,0,1,3.89.15,1.68,1.68,0,0,0,.45,0H178a10.7,10.7,0,0,0,1.74,1.69,18.85,18.85,0,0,0,2.94,1.93,19.09,19.09,0,0,0,4.63,1.77,16.58,16.58,0,0,0,4.9.64c.24,0,.48,0,.72,0,0,.24,0,.49-.05.74a1.46,1.46,0,0,0-.36,0c-1.28.32-2.58.58-3.89.79a14.08,14.08,0,0,1-2.59.3c-1,0-2.06,0-3.09,0-.81,0-1.62-.13-2.43-.22-.47-.05-.95-.14-1.42-.23a21.79,21.79,0,0,1-3.06-.78A.48.48,0,0,0,175.5,201.24Z"/><path class="cls-21" d="M193,200.54c-.24,0-.48,0-.72,0a16.58,16.58,0,0,1-4.9-.64,19.09,19.09,0,0,1-4.63-1.77,18.85,18.85,0,0,1-2.94-1.93A10.7,10.7,0,0,1,178,194.5h1.63c.27,0,.54,0,.81,0s.78-.09,1.17-.1c.82,0,1.64,0,2.45,0a2.69,2.69,0,0,0,.64,0,6.27,6.27,0,0,1,1.62-.14c.27,0,.54,0,.81,0,1-.1,2-.23,3-.33s2-.16,3-.24c0,.33.07.66.06,1,0,1.58,0,3.16,0,4.74A9,9,0,0,1,193,200.54Z"/><path class="cls-23" d="M192.65,202.88a8.75,8.75,0,0,1-.45,2.31c-.06.25-.12.51-.18.73.25.23.46.12.65.06.58-.18,1.15-.39,1.72-.6a.82.82,0,0,1,.7,0,.69.69,0,0,1,.13,1.19,3.4,3.4,0,0,1-.81.4,15.64,15.64,0,0,1-10.35.31,16.89,16.89,0,0,1-6.48-3.75,4.81,4.81,0,0,1-.42-.48l1.25.19c.9.13,1.79.27,2.68.42s2,.11,3.06.29a5.18,5.18,0,0,0,2-.11c.7-.16,1.43,0,2.16-.2,1-.26,2.13-.37,3.19-.61A6.6,6.6,0,0,1,192.65,202.88Z"/><path class="cls-21" d="M175.47,175.18c.2-.26.38-.54.6-.79a20.06,20.06,0,0,1,3.1-2.79,1.3,1.3,0,0,0,.71-.51,5.86,5.86,0,0,0,.57-.26,16.24,16.24,0,0,1,3.49-1.47,1.45,1.45,0,0,0,.9-.53.67.67,0,0,1,.83-.17,5.89,5.89,0,0,0,.58.24.92.92,0,0,1,.69.64c.1.24.28.45.41.69.45.79.89,1.57,1.32,2.37a2.47,2.47,0,0,1,.1.43c-.54.05-1.08.13-1.61.14a39.59,39.59,0,0,0-4.22.36,33.56,33.56,0,0,0-4,.73C177.79,174.55,176.63,174.87,175.47,175.18Z"/><path class="cls-22" d="M193.11,193.55c-1,.08-2,.15-3,.24s-2,.23-3,.33c-.27,0-.54,0-.81,0a6.27,6.27,0,0,0-1.62.14,2.69,2.69,0,0,1-.64,0c-.81,0-1.63,0-2.45,0-.39,0-.78.07-1.17.1s-.54,0-.81,0h-3.36a1.68,1.68,0,0,1-.45,0,18.08,18.08,0,0,0-3.89-.15,4.74,4.74,0,0,1-.43-1.65,14.55,14.55,0,0,1,2,.16c.9.06,1.82,0,2.73,0l2.46,0c1.33,0,2.67,0,4,0a12.33,12.33,0,0,0,1.35-.13l.18,0c1,0,2-.08,3.08-.17,1.33-.11,2.65-.2,4-.36a16.59,16.59,0,0,1,1.73,0A3.05,3.05,0,0,1,193.11,193.55Z"/><path class="cls-22" d="M172.4,183.58l2.25-.24,2.52-.31,2.42-.3a2.51,2.51,0,0,1,.27,0c.93-.07,1.87-.13,2.8-.21s2-.21,3.06-.32l.18,0c1.09-.07,2.18-.13,3.26-.21.33,0,.66-.1,1-.14a1.39,1.39,0,0,1,1.54.51l0,.19a.82.82,0,0,1-.69.74,9.83,9.83,0,0,1-1.07.15c-1.33.05-2.64.17-4,.34l-.09,0c-1,.06-2,.12-3.06.21s-1.86.2-2.78.31l-.36,0a29,29,0,0,0-3.23.35c-.69.1-1.38.12-2.07.22a5.23,5.23,0,0,0-1.66.34h-1.49a4,4,0,0,1,.26-1.45C171.81,183.71,172.15,183.86,172.4,183.58Z"/><path class="cls-26" d="M171.84,156.77a4.09,4.09,0,0,1,3.16-1.05,4.36,4.36,0,0,1,3.73,2.18,3.05,3.05,0,0,0-.13.32,17.54,17.54,0,0,1-.68,1.88,3.42,3.42,0,0,1-1.52,1.51,2.93,2.93,0,0,1-2.63-.05,3.41,3.41,0,0,1-1.93-4A2.65,2.65,0,0,0,172,157C172,156.92,171.89,156.84,171.84,156.77Zm3.42,0a1.61,1.61,0,0,0-.37,0,1,1,0,0,0-.81.76,1.5,1.5,0,0,0,.89,1.86,4.23,4.23,0,0,0,.68.24,1.32,1.32,0,0,0,1.47-1.34c-.07-.55-.51-.87-.86-1.24A1.14,1.14,0,0,0,175.26,156.79Z"/><path class="cls-22" d="M192.65,202.88a6.6,6.6,0,0,0-1.16.16c-1.06.24-2.14.35-3.19.61-.73.17-1.46,0-2.16.2a5.18,5.18,0,0,1-2,.11c-1-.18-2-.11-3.06-.29s-1.78-.29-2.68-.42l-1.25-.19a7.57,7.57,0,0,1-1.66-1.82.48.48,0,0,1,.58-.13,21.79,21.79,0,0,0,3.06.78c.47.09,1,.18,1.42.23.81.09,1.62.19,2.43.22,1,0,2.06,0,3.09,0a14.08,14.08,0,0,0,2.59-.3c1.31-.21,2.61-.47,3.89-.79a1.46,1.46,0,0,1,.36,0A5.42,5.42,0,0,1,192.65,202.88Z"/><path class="cls-23" d="M171.25,185.21h1.49a11.65,11.65,0,0,0,1,3,19.88,19.88,0,0,0,2,3.62,1.55,1.55,0,0,1,.49,1c-.91,0-1.83.06-2.73,0a14.55,14.55,0,0,0-2-.16c-.12-.57-.27-1.12-.35-1.69a21.4,21.4,0,0,1,0-5.54A1.06,1.06,0,0,1,171.25,185.21Z"/><path class="cls-22" d="M175.47,175.18c1.16-.31,2.32-.63,3.49-.92a33.56,33.56,0,0,1,4-.73,39.59,39.59,0,0,1,4.22-.36c.53,0,1.07-.09,1.61-.14a3.49,3.49,0,0,1,.6,1.43,15.2,15.2,0,0,1-2.52.2c-1,.08-2.1.15-3.15.29-.9.12-1.79.24-2.68.39a30.89,30.89,0,0,0-3.68.91c-.9.28-1.78.59-2.67.87a3.31,3.31,0,0,1-.62.09A7.35,7.35,0,0,1,175.47,175.18Z"/><path class="cls-27" d="M171.84,156.77c0,.07.14.15.14.21a2.65,2.65,0,0,1-.14.62,3.41,3.41,0,0,0,1.93,4,2.93,2.93,0,0,0,2.63.05,3.42,3.42,0,0,0,1.52-1.51,17.54,17.54,0,0,0,.68-1.88,3.05,3.05,0,0,1,.13-.32,3.29,3.29,0,0,1,.72,1.8c-.09.07-.26.13-.27.2a7.17,7.17,0,0,1-.82,2.1,2.92,2.92,0,0,1-1.91,1.53,6.38,6.38,0,0,1-2.42.16,3.16,3.16,0,0,1-1.72-.73,4.85,4.85,0,0,1-1.68-2.41,6.46,6.46,0,0,1-.25-1.69A3.17,3.17,0,0,1,171.84,156.77Z"/><path class="cls-31" d="M170.38,158.86a6.46,6.46,0,0,0,.25,1.69,4.85,4.85,0,0,0,1.68,2.41,3.16,3.16,0,0,0,1.72.73,6.38,6.38,0,0,0,2.42-.16,2.92,2.92,0,0,0,1.91-1.53,7.17,7.17,0,0,0,.82-2.1c0-.07.18-.13.27-.2a4.59,4.59,0,0,1-1.85,4.63c-.22.17-.45.31-.67.47a1.28,1.28,0,0,0-.79.33l-.9.1a4.78,4.78,0,0,1-5.18-5.55A1.26,1.26,0,0,1,170.38,158.86Z"/><path class="cls-7" d="M176.14,165.13a1.28,1.28,0,0,1,.79-.33,5.14,5.14,0,0,0,.68,1.45,4.59,4.59,0,0,0,.57-.13c.36-.14.72-.32,1.08-.46a3.55,3.55,0,0,1,.78-.25.63.63,0,0,1,.75.76,1.72,1.72,0,0,1-.27.67c-.34.5-.72,1-1.09,1.45-.16.22-.35.41-.54.63a11.26,11.26,0,0,0,1,2.17,1.3,1.3,0,0,1-.71.51l-.94-1.86a1.37,1.37,0,0,1,.29-1.74,9.28,9.28,0,0,0,.71-.82c.1-.13.14-.27,0-.37s-.26-.06-.37,0-.46.16-.68.26a1.15,1.15,0,0,1-1.58-.64C176.45,166,176.31,165.55,176.14,165.13Z"/><path class="cls-23" d="M172.4,183.58c-.25.28-.59.13-.89.18a4.6,4.6,0,0,1,.5-1.92,2.45,2.45,0,0,1,.22,1A4.36,4.36,0,0,0,172.4,183.58Z"/><path class="cls-30" d="M175.26,156.79a1.14,1.14,0,0,1,1,.29c.35.37.79.69.86,1.24a1.32,1.32,0,0,1-1.47,1.34,4.23,4.23,0,0,1-.68-.24,1.5,1.5,0,0,1-.89-1.86,1,1,0,0,1,.81-.76A1.61,1.61,0,0,1,175.26,156.79Z"/><path class="cls-7" d="M235.41,138.61c1.3.08,2.61.13,3.9.24q4.41.38,8.8.82,7.15.72,14.25,1.92c2.78.47,5.57.95,8.33,1.53A80.72,80.72,0,0,1,284.14,147a29.67,29.67,0,0,1,5.18,2.63,15.83,15.83,0,0,1,6.76,8.85,29.06,29.06,0,0,1,1.21,6.8,71.59,71.59,0,0,1,0,8.91,150,150,0,0,1-1.89,16.37c-.44,2.57-.93,5.14-1.5,7.69a63.21,63.21,0,0,1-3.55,11.37,30.66,30.66,0,0,1-2.39,4.49,16.34,16.34,0,0,1-9.05,6.81,24.12,24.12,0,0,1-6.08,1c-.75,0-1.51,0-2.27,0-.12-.21-.34-.22-.55-.25l-2.16-.33a1.66,1.66,0,0,0-.54,0,3.39,3.39,0,0,1-1.27-.06l-9.72-1.49c-.33,0-.66-.07-1-.09s-.66,0-1,0a29.37,29.37,0,0,0-3.52-.38c-.86,0-1.73-.2-2.61-.21s-2-.29-3-.27a12.26,12.26,0,0,1-2-.28,2.22,2.22,0,0,0-.72-.06,4.75,4.75,0,0,1-1.36-.07,22.16,22.16,0,0,0-4.14-.47,2.32,2.32,0,0,1-.45-.06l-15.48-2.38a2.66,2.66,0,0,1-.8-.18,3.77,3.77,0,0,0-1.13-.29,6.58,6.58,0,0,1-1.43-.27,24.22,24.22,0,0,1-2.43-.69,26.11,26.11,0,0,1-3.13-.92,29.34,29.34,0,0,1-2.95-1.13,32.25,32.25,0,0,1-5.93-3.12c-.5-.33-.95-.75-1.44-1.11a18,18,0,0,1-3.27-3.25,19.6,19.6,0,0,1-1.66-2.49,24,24,0,0,1-1.76-4,29.5,29.5,0,0,1-1-3.69c-.26-1.27-.44-2.56-.62-3.85-.26-1.83-.31-3.67-.4-5.51-.06-1.17-.06-2.35,0-3.52,0-.76.1-1.51.15-2.26a.82.82,0,0,0,0-.27,5.23,5.23,0,0,1,.1-1.63c0-.54,0-1.09.08-1.62.38-2.56.78-5.11,1.17-7.66a2.24,2.24,0,0,1,.16-.7,3.79,3.79,0,0,0,.31-1.14,4.51,4.51,0,0,1,.1-.53c.21-.66.48-1.31.63-2a23.77,23.77,0,0,1,1.17-3.42,34.93,34.93,0,0,1,2.27-4.74,32,32,0,0,1,4-5.41,34.18,34.18,0,0,1,4-3.47,11,11,0,0,1,1.23-.76c.62-.39,1.21-.8,1.85-1.15a46.17,46.17,0,0,1,6.76-2.87c.51-.18,1.06-.26,1.58-.43a40.28,40.28,0,0,1,5.28-1.3c1.79-.33,3.58-.62,5.38-.8,2-.19,3.9-.45,5.87-.45C235.28,138.89,235.36,138.76,235.41,138.61ZM221.8,210.38l1.16.17,2.18.22,5.52.61c1.11.12,2.23.23,3.35.32,2.05.17,4.11.3,6.17.48,3.29.31,6.58.63,9.87,1,2.86.3,5.73.61,8.61.73,1.48.06,3,.08,4.45.05a8.32,8.32,0,0,0,2.43-.31.55.55,0,0,0,.18,0,12.13,12.13,0,0,0,8.7-5.84,27.1,27.1,0,0,0,2.4-5.29,64.64,64.64,0,0,0,2.42-9.8,111.65,111.65,0,0,0,1.51-11.82,60.85,60.85,0,0,0,.16-7.27,21.7,21.7,0,0,0-.92-5.55,11.47,11.47,0,0,0-5.05-6.45,24.38,24.38,0,0,0-4.68-2.2,63.78,63.78,0,0,0-8.58-2.38q-5.39-1.12-10.86-1.84a7.2,7.2,0,0,0-.81,0,1.93,1.93,0,0,0-.34-.11l-2.35-.26c-1.84-.2-3.68-.43-5.52-.59-2.11-.19-4.23-.34-6.35-.48a15.6,15.6,0,0,0-2.9-.07c-.33,0-.66-.11-1-.12-2.21-.06-4.42-.13-6.64-.16a65.75,65.75,0,0,0-9,.48,24.88,24.88,0,0,0-5.83,1.38,11.18,11.18,0,0,0-5.86,5,20.32,20.32,0,0,0-1,2,30.79,30.79,0,0,0-1.85,6.46,76.57,76.57,0,0,0-1.14,8.66q-.36,4.08-.43,8.18a66,66,0,0,0,.35,8.9,25.59,25.59,0,0,0,1.41,6.29,12.11,12.11,0,0,0,1.95,3.49,12.76,12.76,0,0,0,4.93,3.63,23.14,23.14,0,0,0,4.08,1.24A70.76,70.76,0,0,0,221.8,210.38Zm70.91-44a7.52,7.52,0,0,0-.12-3.06,9.88,9.88,0,0,0-.72-2.15,23.39,23.39,0,0,0-1.49-2.8,24,24,0,0,0-3.4-4.25,20.32,20.32,0,0,0-4.2-3.17,21.53,21.53,0,0,0-4.84-1.74,3.29,3.29,0,0,0-.63,0,3.37,3.37,0,0,1-.55,0,6.89,6.89,0,0,0-2.95.34,3.84,3.84,0,0,0-1.32.79,2.25,2.25,0,0,0-.51,2.81,2,2,0,0,0,.47.65c.52.37,1,.77,1.55,1.1.87.55,1.79,1,2.66,1.57a18.73,18.73,0,0,1,3.5,3,9.7,9.7,0,0,1,1.55,1.89c.74,1.32,1.48,2.64,2.18,4a18.21,18.21,0,0,0,1.87,2.8,4.81,4.81,0,0,0,1.52,1.28,3.5,3.5,0,0,0,2.07.52,3.13,3.13,0,0,0,2.18-1A4.58,4.58,0,0,0,292.71,166.36ZM290,178.88a1.94,1.94,0,0,0,1.94-.49l.14-.11a2.78,2.78,0,0,0,1.14-2.36,3.25,3.25,0,0,0-1-2.45,2.9,2.9,0,0,0-2.76-.74,3,3,0,0,0-2,2.66,4.31,4.31,0,0,0,.39,1.93A2.47,2.47,0,0,0,290,178.88Z"/><path class="cls-12" d="M235.41,138.61c0,.15-.13.28-.31.28-2,0-3.92.26-5.87.45-1.8.18-3.59.47-5.38.8a40.28,40.28,0,0,0-5.28,1.3c-.52.17-1.07.25-1.58.43a46.17,46.17,0,0,0-6.76,2.87c-.64.35-1.23.76-1.85,1.15a11,11,0,0,0-1.23.76,34.18,34.18,0,0,0-4,3.47,32,32,0,0,0-4,5.41,34.93,34.93,0,0,0-2.27,4.74,23.77,23.77,0,0,0-1.17,3.42c-.15.67-.42,1.32-.63,2a4.51,4.51,0,0,0-.1.53,3.79,3.79,0,0,1-.31,1.14,2.24,2.24,0,0,0-.16.7c-.39,2.55-.79,5.1-1.17,7.66-.08.53,0,1.08-.08,1.62a5.23,5.23,0,0,0-.1,1.63.82.82,0,0,1,0,.27c-.05.75-.14,1.5-.15,2.26,0,1.17,0,2.35,0,3.52.09,1.84.14,3.68.4,5.51.18,1.29.36,2.58.62,3.85a29.5,29.5,0,0,0,1,3.69,24,24,0,0,0,1.76,4,19.6,19.6,0,0,0,1.66,2.49,18,18,0,0,0,3.27,3.25c.49.36.94.78,1.44,1.11a32.25,32.25,0,0,0,5.93,3.12,29.34,29.34,0,0,0,2.95,1.13,26.11,26.11,0,0,0,3.13.92,24.22,24.22,0,0,0,2.43.69,6.58,6.58,0,0,0,1.43.27,3.77,3.77,0,0,1,1.13.29,2.66,2.66,0,0,0,.8.18l15.48,2.38a2.32,2.32,0,0,0,.45.06,22.16,22.16,0,0,1,4.14.47,4.75,4.75,0,0,0,1.36.07,2.22,2.22,0,0,1,.72.06,12.26,12.26,0,0,0,2,.28c1,0,2,.25,3,.27s1.75.23,2.61.21a29.37,29.37,0,0,1,3.52.38c.33,0,.66,0,1,0s.66,0,1,.09l9.72,1.49a3.39,3.39,0,0,0,1.27.06,1.66,1.66,0,0,1,.54,0l2.16.33c.21,0,.43,0,.55.25-.66,0-1.33.07-2,0-2.21-.12-4.43-.24-6.63-.42-2.67-.21-5.32-.48-8-.73s-5.14-.5-7.7-.76c-2.75-.28-5.5-.58-8.25-.77-2.24-.15-4.48-.37-6.71-.59q-4.35-.42-8.7-.87c-2.05-.21-4.1-.45-6.15-.68l-7-.8a65.6,65.6,0,0,1-9-1.69,22.5,22.5,0,0,1-6.41-2.76,16.22,16.22,0,0,1-6.26-7.39,30.12,30.12,0,0,1-1.83-6.37,65.93,65.93,0,0,1-.94-9.41c-.13-3.27-.08-6.55.07-9.83s.4-6.84.75-10.26q.48-4.71,1.33-9.38a43.38,43.38,0,0,1,2.4-8.67,23.06,23.06,0,0,1,2.06-3.94A15.55,15.55,0,0,1,198.3,141a28,28,0,0,1,6.53-1.92,74.11,74.11,0,0,1,9.4-1c3.43-.16,6.85-.13,10.28,0,1.88.05,3.76.16,5.64.25,1.33.06,2.66.1,4,.17C234.57,138.51,235,138.57,235.41,138.61Z"/><path class="cls-18" d="M279.24,192.71a64.64,64.64,0,0,1-2.42,9.8,27.45,27.45,0,0,1-2.4,5.3,12.15,12.15,0,0,1-8.7,5.83c-.05,0-.12,0-.18,0a8.66,8.66,0,0,1-2.43.3c-1.48,0-3,0-4.45-.05-2.88-.11-5.74-.43-8.61-.73-3.3-.35-6.58-.67-9.88-1-2-.2-4.11-.32-6.16-.49-1.12-.09-2.24-.21-3.35-.32l-5.53-.61-2.17-.22c-.39,0-.78-.11-1.16-.17a72.06,72.06,0,0,1-9.27-1.31,22.49,22.49,0,0,1-4.09-1.26,12.74,12.74,0,0,1-4.94-3.62,12.32,12.32,0,0,1-1.94-3.49,25.62,25.62,0,0,1-1.41-6.28,64.65,64.65,0,0,1-.35-8.91c0-2.73.19-5.45.43-8.18a79.42,79.42,0,0,1,1.14-8.67,30.7,30.7,0,0,1,1.85-6.45c.31-.69.65-1.38,1-2a11.26,11.26,0,0,1,5.87-5,24.86,24.86,0,0,1,5.83-1.37,64.25,64.25,0,0,1,9-.48c2.21,0,4.42.09,6.63.16.33,0,.66.07,1,.11a17.54,17.54,0,0,1,2.9.08c2.12.14,4.24.29,6.35.48,1.84.16,3.68.39,5.52.59.79.08,1.57.17,2.35.27a1.33,1.33,0,0,1,.34.1,7.38,7.38,0,0,1,.82,0q5.46.7,10.84,1.84a63.07,63.07,0,0,1,8.59,2.37,26,26,0,0,1,4.68,2.21,11.44,11.44,0,0,1,5.05,6.45,20.86,20.86,0,0,1,.92,5.55,60.89,60.89,0,0,1-.15,7.27A114.7,114.7,0,0,1,279.24,192.71Z"/><path class="cls-7" d="M292.71,166.36a4.58,4.58,0,0,1-1.18,2.6,3.13,3.13,0,0,1-2.18,1,3.5,3.5,0,0,1-2.07-.52,4.81,4.81,0,0,1-1.52-1.28,18.21,18.21,0,0,1-1.87-2.8c-.7-1.34-1.44-2.66-2.18-4a9.7,9.7,0,0,0-1.55-1.89,18.73,18.73,0,0,0-3.5-3c-.87-.54-1.79-1-2.66-1.57-.54-.33-1-.73-1.55-1.1a2,2,0,0,1-.47-.65,2.25,2.25,0,0,1,.51-2.81,3.84,3.84,0,0,1,1.32-.79,6.89,6.89,0,0,1,2.95-.34,3.37,3.37,0,0,0,.55,0,3.29,3.29,0,0,1,.63,0,21.53,21.53,0,0,1,4.84,1.74,20.32,20.32,0,0,1,4.2,3.17,24,24,0,0,1,3.4,4.25,23.39,23.39,0,0,1,1.49,2.8,9.88,9.88,0,0,1,.72,2.15A7.52,7.52,0,0,1,292.71,166.36Z"/><path class="cls-7" d="M290,178.88a2.47,2.47,0,0,1-2.14-1.56,4.31,4.31,0,0,1-.39-1.93,3,3,0,0,1,2-2.66,2.9,2.9,0,0,1,2.76.74,3.25,3.25,0,0,1,1,2.45,2.78,2.78,0,0,1-1.14,2.36l-.14.11A1.94,1.94,0,0,1,290,178.88Z"/><ellipse class="cls-7" cx="217.27" cy="251.32" rx="6.56" ry="11.03" transform="translate(-62.61 72.34) rotate(-16.56)"/><g id="Layer_8" data-name="Layer 8"><path class="cls-21" d="M239.38,190.67l-1.85-.06h-.36c-.51,0-.68.19-.81.7a7.19,7.19,0,0,0,.15,3.93,5.82,5.82,0,0,0,1.05,2,4.68,4.68,0,0,0,6.18,1.17,6.62,6.62,0,0,0,2.88-3.5,9.69,9.69,0,0,0,.42-1.58c.08-.4,0-.56-.37-.72-.75-.32-1.5-.64-2.27-.9A25.48,25.48,0,0,0,239.38,190.67Z"/><path class="cls-21" d="M225.89,158.67a3.21,3.21,0,0,0-2.54-.15,7.65,7.65,0,0,0-2,1,33.08,33.08,0,0,0-5.9,4.92,11.18,11.18,0,0,0-1.53,2,4.07,4.07,0,0,0-.56,1.7,2.7,2.7,0,0,0,.69,2.17c.1-.06.19-.18.29-.18a4.32,4.32,0,0,0,2.92-1.25c1.28-1.13,2.56-2.28,3.86-3.39s2.69-2.25,4-3.36a2.41,2.41,0,0,0,.9-2.65A7,7,0,0,1,225.89,158.67Z"/><path class="cls-21" d="M225.89,158.67a7,7,0,0,0,.12.8,2.41,2.41,0,0,1-.9,2.65c-1.34,1.11-2.7,2.22-4,3.36s-2.58,2.26-3.86,3.39a4.32,4.32,0,0,1-2.92,1.25c-.1,0-.19.12-.29.18a3.61,3.61,0,0,0,4.89,1.3,9.42,9.42,0,0,0,1.49-1c.93-.76,1.84-1.57,2.76-2.34l4.12-3.41a9,9,0,0,0,1.08-1,2.11,2.11,0,0,0,.42-2.36A4.71,4.71,0,0,0,225.89,158.67Z"/><path class="cls-21" d="M271.64,185.41a2.43,2.43,0,0,0-.81-1.57,18.7,18.7,0,0,0-1.67-1.53c-1.65-1.35-3.33-2.68-5-4-.59-.47-1.14-1-1.72-1.47a5.92,5.92,0,0,0-1-.66,2.15,2.15,0,0,0-2.24.06,4.13,4.13,0,0,0-1.76,2,2.06,2.06,0,0,1,.23.37,15,15,0,0,0,2.31,3.76,11.64,11.64,0,0,0,1.49,1.57,20.28,20.28,0,0,0,3.64,2.67,7.54,7.54,0,0,0,3.24,1,3,3,0,0,0,1.93-.61A7.7,7.7,0,0,0,271.64,185.41Z"/><path class="cls-21" d="M271.64,185.41a7.7,7.7,0,0,1-1.32,1.59,3,3,0,0,1-1.93.61,7.54,7.54,0,0,1-3.24-1,20.28,20.28,0,0,1-3.64-2.67,11.64,11.64,0,0,1-1.49-1.57,15,15,0,0,1-2.31-3.76,2.06,2.06,0,0,0-.23-.37,3.75,3.75,0,0,0-.37,3.45,5.41,5.41,0,0,0,1.21,1.9,29.77,29.77,0,0,0,7,5.68,7.77,7.77,0,0,0,2.18.87,3.18,3.18,0,0,0,3.2-1,4.25,4.25,0,0,0,1.12-2.42A1.87,1.87,0,0,0,271.64,185.41Z"/><path class="cls-21" d="M227.43,176.9a19.12,19.12,0,0,1,1.72,6.06,6.61,6.61,0,0,1,.07,1.26c0,.45.1.91,0,1.35a12.32,12.32,0,0,1-1.79,5.34,8.21,8.21,0,0,1-2.49,2.35,11.2,11.2,0,0,1-5,1.63,15,15,0,0,1-3.61-.22,7.52,7.52,0,0,1-2.2-.78,13,13,0,0,1-2.38-1.48,7.58,7.58,0,0,1-1-1,18.28,18.28,0,0,1-2.14-2.81c-.06-.11-.21-.18-.33-.27a12.12,12.12,0,0,1,.93-5.32,13,13,0,0,1,13.12-8.07,11.81,11.81,0,0,1,5.08,1.52A1.27,1.27,0,0,0,227.43,176.9Z"/><path class="cls-21" d="M227.38,176.46a1.27,1.27,0,0,0,.05.44,19.12,19.12,0,0,1,1.72,6.06,6.61,6.61,0,0,1,.07,1.26c0,.45.1.91,0,1.35a12.32,12.32,0,0,1-1.79,5.34,8.21,8.21,0,0,1-2.49,2.35,11.2,11.2,0,0,1-5,1.63,15,15,0,0,1-3.61-.22,7.52,7.52,0,0,1-2.2-.78,13,13,0,0,1-2.38-1.48,7.58,7.58,0,0,1-1-1,18.28,18.28,0,0,1-2.14-2.81c-.06-.11-.21-.18-.33-.27a10.54,10.54,0,0,0,.8,4.15,12.82,12.82,0,0,0,9.21,8.1,13,13,0,0,0,9.61-23.88C227.71,176.61,227.54,176.54,227.38,176.46Z"/><path class="cls-21" d="M269.16,198.86a6.08,6.08,0,0,1-.2.79,10,10,0,0,1-17.9,2.22,8.28,8.28,0,0,1-1.45-4,5.65,5.65,0,0,1-.11-.7,9.91,9.91,0,0,1,4.57-9.18,3,3,0,0,1,.35-.16l.32.33a40.87,40.87,0,0,0,9.58,8.2c.15.1.28.22.42.33a3.4,3.4,0,0,1,.34.12,26.91,26.91,0,0,0,3.74,1.82A2,2,0,0,1,269.16,198.86Z"/><circle class="cls-18" cx="217.54" cy="185.68" r="7.69"/><circle class="cls-18" cx="254.04" cy="195.22" r="5.8"/></g></g></svg>