<svg id="OBJECTS" xmlns="http://www.w3.org/2000/svg" viewBox="0 0 205.98 205.98"><defs><style>.cls-1{fill:#b34100;}.cls-1,.cls-2{stroke:#b34100;stroke-miterlimit:10;stroke-width:3px;}.cls-2{fill:#fcfcfc;}</style></defs><path class="cls-1" d="M95.81,149.62,57.88,129.21A7.44,7.44,0,0,1,54,122.65V58a7.45,7.45,0,0,1,7.44-7.44h34.4V36.18H61.41A21.8,21.8,0,0,0,39.6,58v64.66a21.82,21.82,0,0,0,11.47,19.21l44.74,24.08Z"/><path class="cls-1" d="M166.38,64.14V58a21.8,21.8,0,0,0-21.81-21.81H103v80l49-22v28.46a7.44,7.44,0,0,1-3.91,6.56l-30.74,16.54V117.58L103,124V169.8l51.92-27.94a21.8,21.8,0,0,0,11.47-19.21V72L117.36,94V50.55h27.21A7.45,7.45,0,0,1,152,58V70.57Z"/><path class="cls-1" d="M61.41,50.55h34.4V36.18H61.41A21.8,21.8,0,0,0,39.6,58V93.72L54,100V58A7.45,7.45,0,0,1,61.41,50.55Z"/><path class="cls-2" d="M144.57,36.18H103v80l49-22V100l14.37-6.32V72L117.36,94V50.55h27.21A7.45,7.45,0,0,1,152,58V70.57l14.37-6.43V58A21.8,21.8,0,0,0,144.57,36.18Z"/></svg>