<svg xmlns="http://www.w3.org/2000/svg" viewBox="0 0 210 210"><defs><style>.cls-1{fill:#fff;}.cls-2{fill:#d04f27;}.cls-3{fill:none;stroke:#f15a29;stroke-linecap:round;stroke-linejoin:round;stroke-width:2px;stroke-dasharray:10 10;}</style></defs><g id="Layer_2" data-name="Layer 2"><rect class="cls-1" width="210" height="210"/></g><g id="Layer_3" data-name="Layer 3"><path class="cls-2" d="M87.75,79a40.5,40.5,0,0,1,4.94.88c1.1.33,2.54.88,3,1.76,1.08,2.18,2.92,3.39,4.71,4.76a2.9,2.9,0,0,1,1.18,1.44c.59,2.84,2.75,4.75,4,7.18a9.27,9.27,0,0,1,.86,2.57c.49,2.78-.88,4.47-3.69,4.66a2,2,0,0,1-.42,0,34,34,0,0,0-10.66-.07,31.65,31.65,0,0,1-8,0A67.78,67.78,0,0,0,75.1,102c-2.59.06-5.21,0-7.83.15s-4-1.16-4.19-3.86c-.29-4.18,1.9-7.14,4.85-9.74A14.41,14.41,0,0,0,70,86.32c1.83-2.52,4.49-3.41,7.35-4a20.67,20.67,0,0,0,2.63-1c2.5-.92,5-1.82,7.53-2.73Zm.12,2.77c-4.6.2-6.93,1.42-8.41,4.79a12.41,12.41,0,0,0-.6,8.79,9.21,9.21,0,0,0,1.29,2.61c1.34,1.9,3.36,1.71,5.33,1.49,1.75-.2,1.38-1.79,1.87-2.86,1.13-2.46,2.33-4.89,3.64-7.25.67-1.21,1.7-2.21,2.45-3.39,1-1.6.7-2.61-1.11-3.22A38.83,38.83,0,0,0,87.87,81.73Zm8.3,5.33a62.75,62.75,0,0,0-3.92,5.35A28.08,28.08,0,0,0,90,97.75a1.76,1.76,0,0,0,.67,1.58c1.62.75,3.09,0,4-1.5a52.23,52.23,0,0,1,3.32-5.29C100.07,89.67,99.77,88.49,96.17,87.06ZM77.25,98.8c-2.36-4.27-1.85-8.76-.6-13.37-3.9,1.07-5,2.38-5,6A22.65,22.65,0,0,0,72.51,97C73.25,99.6,74.41,100,77.25,98.8Zm23.38-5.32-3.35,4.86.3.6h5.92c.43-2.27-.88-3.79-2.29-5.26A5.48,5.48,0,0,0,100.63,93.48Zm-32-1.15-.49-.23a16.41,16.41,0,0,0-1.88,3.35c-.33,1.11-.58,2.87,0,3.47s2.32.32,3.7.44Z"/><path class="cls-2" d="M56.06,91.43c-1.6-3.36-3.44-5.84-6.71-7A28.34,28.34,0,0,1,44.24,82a5.88,5.88,0,0,1-2.62-7.25c1-2.65,3.07-3.61,6.53-3.06a9.75,9.75,0,0,0,1.22,0c0-1.23.07-2.4,0-3.57-.13-1.9.68-2.61,2.59-2.6,9.52.06,19,0,28.56,0,4.33,0,4.36,0,4.19,4.4A45.34,45.34,0,0,1,84.15,76c-.12.65-1.05,1.15-1.6,1.73-.37-.71-1-1.42-1-2.13A45,45,0,0,1,82,70.17c.14-1.2-.18-1.82-1.54-1.82q-13.34.06-26.67,0c-1.23,0-1.55.53-1.51,1.66.25,6.45,1.23,12.67,5.21,18a6.73,6.73,0,0,1,1.05,1.81,2,2,0,0,0,2.1,1.6c.58,0,1.12.88,1.68,1.36-.61.44-1.21,1.23-1.83,1.24q-6.61.16-13.23,0c-.61,0-1.21-.81-1.81-1.25.63-.47,1.24-1.32,1.89-1.35C50.15,91.34,53,91.43,56.06,91.43Zm-4.85-9.24a57.79,57.79,0,0,0-1.41-5.91,3,3,0,0,0-3.57-1.87,3.19,3.19,0,0,0-2,1.7,2.72,2.72,0,0,0,1.49,3.49C47.33,80.49,49.05,81.18,51.21,82.19Z"/><path class="cls-2" d="M66.5,61.72c-1.49.06-2.23-1.21-1.34-2.19,2.24-2.46,1.09-4.33-.56-6.42-2.23-2.84-2-5.74.63-8.21.51-.48,1.53-.4,2.32-.58,0,.75.16,1.67-.2,2.22-1.94,3-2,3,.17,5.82,2.38,3.1,2.4,5.89,0,8.5A7.55,7.55,0,0,1,66.5,61.72Z"/><path class="cls-2" d="M57.76,62.37c-.29-1.23-.85-2.21-.57-2.7.73-1.28.34-2.17-.34-3.25-1.26-2-1-4.18.58-5.48a2,2,0,0,1,1.8-.24,1.8,1.8,0,0,1,.34,1.74c-1,1.28-.6,2.26.18,3.4a4,4,0,0,1-.17,5A12.38,12.38,0,0,1,57.76,62.37Z"/><path class="cls-2" d="M76,49.84c.27,1.13.85,2.16.56,2.58-1,1.4-.46,2.42.3,3.6a3.9,3.9,0,0,1-.41,5,2,2,0,0,1-1.75.52,1.77,1.77,0,0,1-.57-1.67c1-1.49.27-2.57-.47-3.81a4,4,0,0,1,.63-5A11,11,0,0,1,76,49.84Z"/></g><g id="Layer_6" data-name="Layer 6"><path class="cls-2" d="M172.3,116.25l5.13-1.33c-.4-1-1.24-2.2-1-2.62.9-1.34,2.11-.3,3,.24,1.85,1,1.87,2.61.17,3.95a12.88,12.88,0,0,0-1.82,1.54c-3.51,4.08-8.06,6-13.28,6.83a70.59,70.59,0,0,1-28.51-.9,15,15,0,0,1-7.3-4c-1.24-1.27-2.64-2.38-4-3.54s-1.47-2.89.2-3.75a22.48,22.48,0,0,1,4.85-1.62c.4-.09,1,.48,1.44.75-.32.51-.54,1.26-1,1.47a25.13,25.13,0,0,1-3.46,1l0,.65,8.55,1.8a62.43,62.43,0,0,1-2.4-7.7,19.81,19.81,0,0,1,.07-6.38,6,6,0,0,0-4.83-6.71c-3.28-.47-4.66-2.92-3.29-5.84a3.19,3.19,0,0,1,3.88-2l1.54.26c.16-.49.33-.94.46-1.4a3.16,3.16,0,0,1,3.62-2.38,3.21,3.21,0,0,1,3,3.13,9,9,0,0,1-.24,2.19c-.54,2.6.76,4.51,2.36,6.27.35.39,1.08.45,1.65.61,6.53,1.85,11.06,5.86,13.33,12.31a3.18,3.18,0,0,1,.26,1.61,5.76,5.76,0,0,1-.93,1.54c-.46-.39-1.24-.72-1.33-1.18-.79-4.48-3.69-7.44-7.22-9.81a12.45,12.45,0,0,0-5-2c-2.6-.37-4.26.93-4.84,3.49a15,15,0,0,0,2.64,12.56,4,4,0,0,0,3.41,1.84c8.53-.13,17.06-.18,25.58-.4a4.22,4.22,0,0,0,2.69-1.53c4-5,3.7-8.66-1-13a22.42,22.42,0,0,0-12.21-5.56,10.67,10.67,0,0,0-7.77,1.57c-.74.5-1.6,1-2.22-.06s.29-1.62,1.07-2.12c4.08-2.58,8.4-2.35,12.79-1.07,4.57,1.34,8.67,3.5,11.74,7.24s4.15,7.91,1,12.48C172.93,115.09,172.78,115.42,172.3,116.25Zm-40.91,2.3-.21.51c1.27.66,2.47,1.66,3.82,1.92a118,118,0,0,0,14.64,2.35,49.21,49.21,0,0,0,20.65-2.57,19.91,19.91,0,0,0,3.09-1.83A173.92,173.92,0,0,1,131.39,118.55Zm5.75-21.42a8.38,8.38,0,0,1-2.34-7.29,3.81,3.81,0,0,0,.07-1.46,4.61,4.61,0,0,0-.71-1.25c-.36.3-.93.53-1.07.91-1,2.7-1.56,3.13-4.32,2.55-1.12-.23-1.65.14-1.87,1.14s.28,1.62,1.35,1.7a7.42,7.42,0,0,1,5.83,3.71c.26.41.58.77.92,1.22Z"/><path class="cls-2" d="M145.05,78.71a6.12,6.12,0,0,1,2-1.55c2.53-.77,4.51,1.4,3.66,4-.59,1.78-1.26,3.52-.17,5.29a5.76,5.76,0,0,0,1.64,1.45c1.33.94,2.77,1.74,4,2.79.37.31.19,1.25.27,1.91-.68-.11-1.58,0-2-.36-1.26-1.15-2.48-2.19-4.33-2a4,4,0,0,0-3.82,2.91,6.06,6.06,0,0,1-.56,1.73c-.3.41-1,.87-1.4.77a1.67,1.67,0,0,1-.85-1.34,7.79,7.79,0,0,1,.68-2.46,4.63,4.63,0,0,0-2.64-6.38,3.41,3.41,0,0,1-.73-6.12C141.84,78.7,143.34,78.91,145.05,78.71Zm3.37.9-.64-.27c-1,2.2-2.42,3.33-4.8,2-.22-.12-1.07.27-1.09.47,0,.41.2,1.15.49,1.24,2.25.75,3.41,2.43,4.28,4.49.15.36.91.46,1.5.73a26.21,26.21,0,0,1-.65-4.61A21.89,21.89,0,0,1,148.42,79.61Z"/></g><g id="Layer_5" data-name="Layer 5"><path class="cls-2" d="M73.55,126.51c-.1-1.8-.83-2.1-2.12-1.81a16.1,16.1,0,0,1-3.83.45c-.6,0-1.19-.64-1.79-1,.48-.43.9-1.12,1.46-1.26,1.47-.38,3-.52,4.66-.78a2.78,2.78,0,0,1-.12-1.09,12.93,12.93,0,0,1,.76-1.65c.51.33,1.27.55,1.48,1,.48,1.07,1,1.72,2.33,1a1.76,1.76,0,0,1,.13-.52c.25-.5.47-1.28.86-1.38a1.76,1.76,0,0,1,1.42.76c.91,1.38,1.58,1.1,2.54,0a2.61,2.61,0,0,1,1.88-.52c.77,0,1.57.63,2.3.53,7.48-1,14.95-2.06,22.44-3.06,1-.14,2.63-.92,2.91.78s-1.52,1.43-2.53,1.58c-7.35,1.07-14.71,2.06-22.06,3.09a12.61,12.61,0,0,0-1.38.33c.57,3.42.7,3.53,3.88,3.54H108.3a4.45,4.45,0,0,1,1.64.1c.41.17.93.7.93,1.08s-.5.91-.91,1.11a3.46,3.46,0,0,1-1.45.1H87.22a2.76,2.76,0,0,1-.08.93c-.26.48-.57,1.23-.94,1.28a1.66,1.66,0,0,1-1.38-.83c-.45-1.22-1.12-1.68-2-1.37l-1.27,2.26c-.59-.48-1.17-1-1.79-1.42s-1.18-.73-2.09-1.27a5.14,5.14,0,0,1-.08,1.32c-.24.49-.52,1.26-.89,1.33a1.66,1.66,0,0,1-1.4-.78c-.42-1.39-1.36-1.51-2.56-1.46a43.05,43.05,0,0,1-5.33,0c-.58-.05-1.1-.8-1.64-1.22.54-.37,1.06-1,1.62-1C69.44,126.43,71.49,126.51,73.55,126.51Zm6.8-3c.49,2.94.78,3.2,2.85,2.54C82.41,125.08,83,122.72,80.35,123.56Zm-4.52.68c.35,2.29.6,2.49,2.53,1.91C78,124.9,77.85,123.35,75.83,124.24Z"/><path class="cls-2" d="M79,151.53h21.38c2.26,0,2.54.39,2.22,2.65A15.31,15.31,0,0,1,98,162.85c-1.8,1.83-3.88,3.38-5.8,5.09-.57.51-1,1.21-1.54,1.71a3,3,0,0,1-1.6.9c-6.82.06-13.63,0-20.45,0a2.38,2.38,0,0,1-1.47-.55c-1-.9-1.83-2-2.88-2.87-3.08-2.49-6-5.12-7.81-8.71a14.57,14.57,0,0,1-1.06-2.73c-1-3.72-.66-4.19,3.1-4.18C65.34,151.55,72.16,151.53,79,151.53Zm-21.42,2.53a14.68,14.68,0,0,0,4.81,8.09c1.88,1.75,4.16,3.07,6,4.87a4.67,4.67,0,0,0,3.79,1.21q6.18,0,12.35,0c1.94,0,3.73.09,5.33-1.57,2.4-2.51,5.3-4.55,7.66-7.09,1.3-1.41,1.93-3.43,3-5.51Z"/><path class="cls-2" d="M82,142.52a12.41,12.41,0,0,1,6.65,4.72c.23.36.61.73.62,1.11a8,8,0,0,1-.34,1.77c-.61-.24-1.49-.3-1.78-.74A9.56,9.56,0,0,0,81.26,145a25.5,25.5,0,0,1,.87,3.33,5.54,5.54,0,0,1-.47,1.86c-.58-.31-1.41-.48-1.69-1a8.54,8.54,0,0,1-.27-7.45c.45-1.27,1.16-2.46,1.48-3.75a34.86,34.86,0,0,0,.26-3.57,8.65,8.65,0,0,1,.73-1.94c.54.46,1.55.92,1.56,1.39a34.36,34.36,0,0,1-.51,5.72A14.41,14.41,0,0,1,82,142.52Z"/><path class="cls-2" d="M79.5,136.26c-.46,1.36-1,3.11-1.67,4.79-1,2.44-1.75,4.82-.42,7.42.19.39-.28,1.12-.45,1.69-.56-.22-1.38-.29-1.63-.71a7.89,7.89,0,0,1-.73-6.55c.42-1.46,1.22-2.82,1.58-4.29s.25-2.85.46-4.26a9,9,0,0,1,.68-1.81c.54.37,1.27.62,1.58,1.13A9.52,9.52,0,0,1,79.5,136.26Z"/><path class="cls-2" d="M70.75,142a2.37,2.37,0,0,1,1.08.11c.42.21,1,.72,1,1.09s-.55.82-1,1.12c-.2.15-.59.06-.89.07A9,9,0,0,0,63.07,149c-.49.8-1,1.8-2.1,1.15s-.42-1.72.08-2.54A11.22,11.22,0,0,1,70.75,142Z"/><path class="cls-2" d="M89.63,143.12a12.08,12.08,0,0,1,8.09,5.44,1.45,1.45,0,0,1-.3,1.4,1.72,1.72,0,0,1-1.59-.11,12.11,12.11,0,0,0-6.6-4.42c-.35-.08-.79-1-.7-1.39S89.34,143.34,89.63,143.12Z"/><path class="cls-2" d="M73.2,147.44a9.43,9.43,0,0,1-1.5,1.14,34.52,34.52,0,0,1-3.84,1.4,2.09,2.09,0,0,1-1.6-.18c-.24-.19-.23-1.05,0-1.45.77-1.51,4.23-2.71,5.72-2A6.58,6.58,0,0,1,73.2,147.44Z"/></g><g id="Layer_4" data-name="Layer 4"><circle class="cls-3" cx="105" cy="105" r="79.56"/></g><g id="Layer_1" data-name="Layer 1"><path class="cls-2" d="M171.47,43.49c-.78,2.55-1.26,5.24-2.39,7.62-4.21,8.85-13.62,13.58-23.51,12-9.21-1.43-16.83-9.35-18.12-18.85a22,22,0,0,1,19.33-24.85c.5-.06,1-.21,1.5-.32h2.32c.5.12,1,.27,1.49.34a21.27,21.27,0,0,1,17.5,13.2,46.56,46.56,0,0,1,1.88,6.56ZM154.9,42.34H157c.71,0,1.42,0,2.12,0a1.77,1.77,0,0,0,1.5-2.86A9.41,9.41,0,0,0,159,37.52c-2.71-2.65-5.47-5.24-8.19-7.89-1.11-1.09-2.1-1-3.15.07-1.73,1.72-3.5,3.4-5.23,5.12-1.37,1.36-2.8,2.67-4,4.15a2.59,2.59,0,0,0-.43,2.26c.25.56,1.27,1,2,1.06a26.23,26.23,0,0,0,3.67,0c0,2.47,0,4.65,0,6.83,0,2,.87,2.8,2.81,2.83s3.86,0,5.79,0a2.3,2.3,0,0,0,2.6-2.6C154.89,47.14,154.9,44.9,154.9,42.34Z"/><path class="cls-1" d="M154.9,42.34c0,2.56,0,4.8,0,7a2.3,2.3,0,0,1-2.6,2.6c-1.93,0-3.86,0-5.79,0s-2.77-.85-2.81-2.83c0-2.18,0-4.36,0-6.83a26.23,26.23,0,0,1-3.67,0c-.73-.11-1.75-.5-2-1.06a2.59,2.59,0,0,1,.43-2.26c1.22-1.48,2.65-2.79,4-4.15,1.73-1.72,3.5-3.4,5.23-5.12,1.05-1,2-1.16,3.15-.07,2.72,2.65,5.48,5.24,8.19,7.89a9.41,9.41,0,0,1,1.57,1.94,1.77,1.77,0,0,1-1.5,2.86c-.7.06-1.41,0-2.12,0Z"/></g></svg>