<svg xmlns="http://www.w3.org/2000/svg" viewBox="0 0 210 210"><defs><style>.cls-1{fill:#fff;}.cls-2{fill:#d04f27;}.cls-3{fill:none;stroke:#f15a29;stroke-linecap:round;stroke-linejoin:round;stroke-width:2px;stroke-dasharray:10 10;}</style></defs><g id="Layer_2" data-name="Layer 2"><rect class="cls-1" width="210" height="210"/></g><g id="Layer_6" data-name="Layer 6"><path class="cls-2" d="M100.1,66.57H84.88c.31,4.88-2.17,8.34-5.56,11-7.91,6.13-8.75,14.33-7.33,23.93,1.87,0,3.87,0,5.86,0,4.79,0,9.57.07,14.35,0,2.86,0,3.78,1.36,3.76,4-.06,8.42-.08,16.85,0,25.27,0,2.89-1.09,4.14-4,4.09-6.59-.1-13.19,0-20.31,0,0,4.55-.19,8.84.16,13.08.07.83,2.26,2.06,3.5,2.1,7.16.2,14.34.11,21.51.11a6.7,6.7,0,0,1,2.7.11,14.9,14.9,0,0,1,2.8,2.27c-1,.72-1.93,2-2.92,2.08-6.6.19-13.21.11-19.81.11-2,0-4.11.09-6.14-.08-3.75-.29-6.22-2.69-6.23-6.41q-.09-29.55,0-59.08c0-4.45,2.45-8,5.38-11.13,2.08-2.25,4.36-4.34,6.31-6.71,1.4-1.7,1.41-3.26.31-5.73-1.29-2.91-1.07-6.87-.39-10.14.61-3,3.9-2.48,6.39-2.48,5.36,0,10.71,0,16.06,0,4,.05,5.66,1.62,5.61,5.61,0,2.83.84,5.79-1.7,8.37-.62.63.29,3.51,1.25,4.79,2,2.61,4.89,4.57,6.61,7.31a53.3,53.3,0,0,1,4.7,10.7c.24.66-1.24,1.93-1.93,2.92-.81-.77-2.25-1.48-2.33-2.31-.47-5.23-3.78-8.63-7.22-12C103,75.09,99.67,71.92,100.1,66.57Zm-8.93,39.77H71.59c0,7.48,0,14.73.06,22,0,.61,1,1.71,1.49,1.73,6,.12,11.93.07,18,.07Zm1.28-44.59v0a71.54,71.54,0,0,0,7.47-.09c.85-.09,1.59-1.24,2.38-1.91-.73-.73-1.44-2.06-2.2-2.09-5.09-.19-10.2-.19-15.3,0-.76,0-1.47,1.37-2.2,2.1.79.67,1.52,1.84,2.37,1.93A71.7,71.7,0,0,0,92.45,61.75Z"/><path class="cls-2" d="M132.85,94.6c7.12,1,7.14,1,7.15,7.85q0,22.88,0,45.74c0,5.08-1.39,6.45-6.5,6.46-7.74,0-15.48,0-23.22,0-4.1,0-5.56-1.48-5.56-5.56,0-16.84,0-33.68-.06-50.52,0-2.68,1-3.66,3.64-3.62,5.68.1,11.37,0,17.06.09a2.94,2.94,0,0,0,3.39-2.48c1.28-4.48,2.8-8.89,4-13.38a4.18,4.18,0,0,1,4-3.52c5-.54,9.93-1.32,14.92-1.67,1.18-.08,2.46,1.19,3.7,1.83-1,.82-2,2.15-3.11,2.37-3.79.73-7.64,1.15-11.49,1.51-2.42.22-3.9,1-4.52,3.64C135.36,87,134.06,90.67,132.85,94.6Zm-11,20a98.51,98.51,0,0,0-10.32.14c-.89.1-2.25,1.89-2.27,2.92-.18,9.89-.08,19.79-.15,29.69,0,2.06.72,2.83,2.77,2.79,4.44-.08,8.87,0,13.31,0,3.28,0,7.94,1,9.48-.7,1.76-1.94.87-6.39.91-9.75.08-7.49,0-15,0-22.57l-2-.09c-1.93-.06-4.39.13-4.55-2.41-.17-2.7,2.29-2,4-2.31.93-.17,2.35-1.23,2.41-2,.25-3.48.11-7,.11-10.35-3.19-1.27-4.4-.14-5.22,2.61q-6.09,20.43-12.54,40.74c-.37,1.18-2.14,2.91-3,2.77-2.27-.39-1.82-2.36-1.27-4.11q2.34-7.49,4.6-15C119.29,123.17,120.39,119.38,121.83,114.56Zm-12.4-15v10.56h13.84l3.2-10.56Z"/></g><g id="Layer_4" data-name="Layer 4"><circle class="cls-3" cx="105" cy="105" r="79.56"/></g><g id="Layer_1" data-name="Layer 1"><path class="cls-2" d="M171.47,43.49c-.78,2.55-1.26,5.24-2.39,7.62-4.21,8.85-13.62,13.58-23.51,12-9.21-1.43-16.83-9.35-18.12-18.85a22,22,0,0,1,19.33-24.85c.5-.06,1-.21,1.5-.32h2.32c.5.12,1,.27,1.49.34a21.27,21.27,0,0,1,17.5,13.2,46.56,46.56,0,0,1,1.88,6.56ZM154.9,42.34H157c.71,0,1.42,0,2.12,0a1.77,1.77,0,0,0,1.5-2.86A9.41,9.41,0,0,0,159,37.52c-2.71-2.65-5.47-5.24-8.19-7.89-1.11-1.09-2.1-1-3.15.07-1.73,1.72-3.5,3.4-5.23,5.12-1.37,1.36-2.8,2.67-4,4.15a2.59,2.59,0,0,0-.43,2.26c.25.56,1.27,1,2,1.06a26.23,26.23,0,0,0,3.67,0c0,2.47,0,4.65,0,6.83,0,2,.87,2.8,2.81,2.83s3.86,0,5.79,0a2.3,2.3,0,0,0,2.6-2.6C154.89,47.14,154.9,44.9,154.9,42.34Z"/><path class="cls-1" d="M154.9,42.34c0,2.56,0,4.8,0,7a2.3,2.3,0,0,1-2.6,2.6c-1.93,0-3.86,0-5.79,0s-2.77-.85-2.81-2.83c0-2.18,0-4.36,0-6.83a26.23,26.23,0,0,1-3.67,0c-.73-.11-1.75-.5-2-1.06a2.59,2.59,0,0,1,.43-2.26c1.22-1.48,2.65-2.79,4-4.15,1.73-1.72,3.5-3.4,5.23-5.12,1.05-1,2-1.16,3.15-.07,2.72,2.65,5.48,5.24,8.19,7.89a9.41,9.41,0,0,1,1.57,1.94,1.77,1.77,0,0,1-1.5,2.86c-.7.06-1.41,0-2.12,0Z"/></g></svg>