<svg id="Layer_1" data-name="Layer 1" xmlns="http://www.w3.org/2000/svg" viewBox="0 0 210 210"><defs><style>.cls-1{fill:#fff;}.cls-2{fill:#d04f27;}</style></defs><rect class="cls-1" width="210" height="210"/><path class="cls-2" d="M68.11,160.81a9.82,9.82,0,0,1-2.35-1.94A7.2,7.2,0,0,1,65,156a16.86,16.86,0,0,1,0-2.37c-2.14.09-4.09-.15-5.48-1.88a5,5,0,0,1-1.19-3.41,4.43,4.43,0,0,1,2.1-4,26,26,0,0,1,4.49-1.5v-6.64c-2.2.17-4.23-.19-5.61-2.1a5.13,5.13,0,0,1-1-3.48c.2-2.9,2.09-4.29,6.58-4.76V119c-2.16,0-4.22-.27-5.6-2.19a5.12,5.12,0,0,1-1-3.48c.19-2.89,2.15-4.35,6.58-4.81v-6.89c-2.13.06-4.14-.24-5.53-2.09a5.14,5.14,0,0,1-1.06-3.45c.14-2.9,2-4.35,6.67-5v-6.9c-2.21.12-4.21-.16-5.61-2a5.19,5.19,0,0,1-1.06-3.45c.14-2.93,2-4.33,6.67-4.93V67l-2-.14a5.08,5.08,0,0,1-4.67-5.31,5.15,5.15,0,0,1,5-4.92c.51,0,1,0,1.69,0,0-.88,0-1.7,0-2.51.05-3,1.69-4.67,4.75-4.67h77.15c3.09,0,4.78,1.67,4.78,4.75q0,50.91,0,101.84a4.75,4.75,0,0,1-3.27,4.82Zm.21-55.7v50.47c0,1.81.11,1.92,1.89,1.92h76.16c1.84,0,1.94-.09,1.94-1.88V54.56c0-1.75-.11-1.87-1.84-1.87H70.2c-1.76,0-1.88.13-1.88,1.94ZM64.92,63.5V59.92c-1.11,0-2.25-.27-2.87.8A2.31,2.31,0,0,0,62,62.61C62.54,63.8,63.75,63.56,64.92,63.5Zm0,83.17c-1.15,0-2.38-.3-3,.89a2.36,2.36,0,0,0,.11,2c.65,1,1.76.84,2.85.67Zm0-13.78v-3.57c-1.17-.06-2.37-.25-2.94.94a2.27,2.27,0,0,0,.1,1.89C62.69,133.19,63.83,133,64.9,132.89Zm0-55.63c-1.14,0-2.36-.28-2.94.9a2.36,2.36,0,0,0,.1,2c.65,1,1.77.85,2.84.68Zm0,17.42c-1.14-.06-2.36-.36-3,.85A2.35,2.35,0,0,0,62,97.42c.62,1.12,1.79.77,2.88.78Zm0,17.31c-1.09,0-2.27-.34-2.88.79a2.37,2.37,0,0,0-.07,1.9c.6,1.2,1.81.9,3,.84Z"/><path class="cls-2" d="M103.32,72.46c-.1-.91-.18-1.81-.29-2.7a3.49,3.49,0,0,1,3.25-4.07,27.15,27.15,0,0,1,4.23,0,3.29,3.29,0,0,1,3.07,3.45c0,1.11-.14,2.23-.22,3.32,11.76,3.28,18.37,10.91,19.88,23.06.41,0,.84,0,1.27,0a2.65,2.65,0,0,1,2.78,2.71c.05,1,.05,2.1,0,3.15a2.56,2.56,0,0,1-2.46,2.67,7.84,7.84,0,0,1-1.19.06q-25.34,0-50.68,0a9.61,9.61,0,0,1-1.51-.12,2.3,2.3,0,0,1-2-2.1,28.2,28.2,0,0,1,0-3.79A2.54,2.54,0,0,1,82,95.54c.47,0,.93,0,1.36,0C84.91,83.39,91.53,75.78,103.32,72.46Zm-20.6,28.22H134l-.09-1.81H98.51a11,11,0,0,1-1.41-.07,1.48,1.48,0,0,1-1.41-1.63,1.56,1.56,0,0,1,1.47-1.61,7.93,7.93,0,0,1,1.09,0h31.41a21.42,21.42,0,0,0-42.75,0c.94,0,1.88,0,2.81,0a1.59,1.59,0,0,1,1.53,1.66,1.51,1.51,0,0,1-1.46,1.59c-.54,0-1.09.06-1.63.06H82.72ZM110.29,69h-4l.34,3c1,0,1.85,0,2.71,0a.85.85,0,0,0,.64-.51C110.17,70.75,110.21,69.92,110.29,69Z"/><path class="cls-2" d="M108.37,116h26.22c.29,0,.58,0,.87,0a1.73,1.73,0,0,1,1.83,1.63,1.75,1.75,0,0,1-1.75,1.71c-.32,0-.65,0-1,0H82.12a8.29,8.29,0,0,1-1.41-.11,1.45,1.45,0,0,1-1.31-1.48,1.51,1.51,0,0,1,1.23-1.68,5.12,5.12,0,0,1,1.3-.1Z"/><path class="cls-2" d="M99.88,141.23h18.05c.46,0,1.08,0,1.35.21.45.42,1,1.11.93,1.63s-.74,1-1.26,1.38c-.31.2-.84.1-1.28.1H82a7.84,7.84,0,0,1-1.19-.07A1.47,1.47,0,0,1,79.4,143a1.54,1.54,0,0,1,1.34-1.7,4.39,4.39,0,0,1,1.09,0Z"/><path class="cls-2" d="M87,128.72c.88-1.57,1.69-3,2.49-4.45a1.94,1.94,0,0,1,1.91-1.18c.76,0,1.26.39,1.26,1.19q0,6,0,12.08c0,.92-.69,1-1.37,1s-1.22-.34-1.21-1.19c0-2,0-4.06,0-6.09a3.69,3.69,0,0,0-.2-1.41c-.56,1-1.06,2-1.68,2.9-.31.46-.82,1-1.29,1.07s-.86-.63-1.14-1.08c-.59-.95-1.08-2-1.72-3.18-.06.48-.12.73-.12,1,0,2.22,0,4.43,0,6.64,0,1-.46,1.38-1.39,1.37s-1.22-.49-1.21-1.39c0-3.74,0-7.47,0-11.21,0-.66,0-1.37.79-1.59a1.75,1.75,0,0,1,2.17.79C85.21,125.49,86.07,127,87,128.72Z"/><path class="cls-2" d="M116.69,131.06c0-2.16,0-4.31,0-6.47,0-1.25.48-1.65,1.66-1.47a1,1,0,0,1,.93,1.09c0,4,0,8,0,12,0,.38-.37,1-.61,1.06a4,4,0,0,1-1.82-.33c-.27-.11-.42-.56-.59-.88l-3.78-7c-.06.55-.11.79-.11,1,0,2,0,4.06,0,6.09,0,.9-.41,1.26-1.23,1.27s-1.38-.32-1.37-1.27c0-3.91,0-7.83,0-11.74,0-.39.36-1.09.58-1.1a4.06,4.06,0,0,1,2,.35c.38.19.59.79.82,1.24,1.09,2.07,2.17,4.16,3.25,6.25Z"/><path class="cls-2" d="M123.74,128.89V125c0-1.56.22-1.88,1.27-1.89s1.32.34,1.32,1.85c0,2.39,0,4.79,0,7.18a13.31,13.31,0,0,0,.07,1.41,1.74,1.74,0,0,0,1.8,1.67c1.24.09,2-.34,2.24-1.4a5,5,0,0,0,.13-1.29c0-2.68,0-5.37,0-8,0-.93.37-1.35,1.26-1.36s1.37.37,1.36,1.38c-.05,2.82,0,5.65,0,8.48,0,1.79-.53,3.36-2.31,4.08a5.32,5.32,0,0,1-5.74-.61,4.29,4.29,0,0,1-1.24-2.53,43.86,43.86,0,0,1,0-5Z"/><path class="cls-2" d="M99.87,131.21v3.93c1.67,0,3.29,0,4.91,0,.86,0,1.34.32,1.34,1.16s-.48,1.13-1.27,1.12c-2.07,0-4.13,0-6.2,0-1,0-1.45-.32-1.43-1.4q.06-5.76,0-11.52c0-1,.36-1.42,1.3-1.42h6.42a1,1,0,0,1,1.18,1.22,1,1,0,0,1-1.21,1.07c-1.65,0-3.31,0-5,0v3.9c.89,0,1.75,0,2.6,0a.93.93,0,0,1,1.07,1.06c0,.65-.42.94-1.08.93C101.64,131.2,100.81,131.21,99.87,131.21Z"/><path class="cls-2" d="M130.93,144.56c-1.41,0-2.83,0-4.24,0s-2-.63-2-1.66.72-1.65,2-1.66c2.86,0,5.73,0,8.59,0,1.24,0,2,.66,2,1.66s-.75,1.63-2,1.66C133.83,144.59,132.38,144.56,130.93,144.56Z"/><circle class="cls-1" cx="149.36" cy="61.29" r="24.55"/><path class="cls-2" d="M171.47,63.49c-.78,2.55-1.26,5.24-2.39,7.62-4.21,8.85-13.62,13.58-23.51,12-9.21-1.43-16.83-9.35-18.12-18.85a22,22,0,0,1,19.33-24.85c.5-.06,1-.21,1.5-.32h2.32c.5.12,1,.27,1.49.34a21.27,21.27,0,0,1,17.5,13.2,46.56,46.56,0,0,1,1.88,6.56ZM154.9,62.34H157c.71,0,1.42,0,2.12,0a1.77,1.77,0,0,0,1.5-2.86A9.41,9.41,0,0,0,159,57.52c-2.71-2.65-5.47-5.24-8.19-7.89-1.11-1.09-2.1-1-3.15.07-1.73,1.72-3.5,3.4-5.23,5.12-1.37,1.36-2.8,2.67-4,4.15a2.59,2.59,0,0,0-.43,2.26c.25.56,1.27,1,2,1.06a26.23,26.23,0,0,0,3.67,0c0,2.47,0,4.65,0,6.83,0,2,.87,2.8,2.81,2.83s3.86,0,5.79,0a2.3,2.3,0,0,0,2.6-2.6C154.89,67.14,154.9,64.9,154.9,62.34Z"/><path class="cls-1" d="M154.9,62.34c0,2.56,0,4.8,0,7a2.3,2.3,0,0,1-2.6,2.6c-1.93,0-3.86,0-5.79,0s-2.77-.85-2.81-2.83c0-2.18,0-4.36,0-6.83a26.23,26.23,0,0,1-3.67,0c-.73-.11-1.75-.5-2-1.06a2.59,2.59,0,0,1,.43-2.26c1.22-1.48,2.65-2.79,4-4.15,1.73-1.72,3.5-3.4,5.23-5.12,1.05-1,2-1.16,3.15-.07,2.72,2.65,5.48,5.24,8.19,7.89a9.41,9.41,0,0,1,1.57,1.94,1.77,1.77,0,0,1-1.5,2.86c-.7.06-1.41,0-2.12,0Z"/></svg>