<svg xmlns="http://www.w3.org/2000/svg" viewBox="0 0 210 210"><defs><style>.cls-1{fill:#fff;}.cls-2{fill:#d04f27;}</style></defs><g id="Layer_2" data-name="Layer 2"><rect class="cls-1" width="210" height="210"/></g><g id="Layer_1" data-name="Layer 1"><path class="cls-2" d="M105,155c-16,0-32.06.05-48.09,0-7.85,0-12.68-4.67-12.37-11.64.19-4.45,3.51-9,7.86-9.65,3-.42,3.31-1.81,3.66-4.25C59.29,106.78,73.18,91.31,94.6,86.1c1.65-.41,4.69,1,4.62-2.75,0-2.13-.22-4-1.69-5.83-3.26-4.11-2.62-9.2,1.18-12.66a9.62,9.62,0,0,1,12.56,0,9.32,9.32,0,0,1,1.3,12.73c-.62.89-1.55,1.51-1.75,2.77-.63,3.79.05,4.78,4.19,5.7,20.84,4.61,36.92,21.47,39,44.16.21,2.29,1,3,3.21,3.42,4.88.87,8.26,5.41,8.27,10.48a10.58,10.58,0,0,1-8.3,10.47,28.65,28.65,0,0,1-5.56.45Q128.32,155.06,105,155Zm-.38-21.9h42.46c1.72,0,3.43.45,3.17-2.51a45.7,45.7,0,0,0-45.64-41.71c-23.15.09-43,18.62-44.91,41.71-.24,2.93,1.47,2.52,3.2,2.52Zm.74,4H58.44c-1.24,0-2.49,0-3.72.1a6.46,6.46,0,0,0-6.2,5.46c-.76,3.27.76,5.77,3.56,7.5,1.69,1.05,3.59.8,5.43.8q47.49,0,95,0a22,22,0,0,0,3.35-.16A6.83,6.83,0,0,0,160.29,140c-1.84-2.55-4.41-2.89-7.24-2.89Q129.2,137.17,105.37,137.13Zm-6-64.77c.31.75.44,2.16,1.19,2.7,2.76,2,2.7,4.76,2.56,7.6-.07,1.51-.06,2.6,2.05,2.53s1.69-1.33,1.67-2.51c0-2.84,0-5.41,2.53-7.63,1.92-1.69,1.54-4.32.07-6.47s-3.89-2.6-6.27-1.92C100.62,67.39,99.6,69.5,99.38,72.36Z"/><path class="cls-2" d="M66.84,77.68A10.77,10.77,0,0,1,68.71,71c2.55-4.14,3.7-8.33.9-12.85-.63-1-.83-2.11.42-2.87,1.49-.91,2.3.12,3,1.19a12.9,12.9,0,0,1,.25,14c-2.62,4.49-3.79,8.8-.7,13.47A1.64,1.64,0,0,1,72,86.56a1.89,1.89,0,0,1-2.82-.82C67.7,83.24,66.6,80.66,66.84,77.68Z"/><path class="cls-2" d="M151.89,77.46c-.14-2.53.92-4.85,2.28-7.11,2.3-3.82,3.15-7.77.65-11.87-.69-1.15-1.15-2.34.31-3.19,1.73-1,2.49.44,3.15,1.57,2.84,4.84,2.51,9.78-.31,14.39-2.56,4.2-3.15,8.23-.52,12.5.69,1.13.78,2.19-.46,2.84s-2.26,0-3-1.22A13.84,13.84,0,0,1,151.89,77.46Z"/><path class="cls-2" d="M146.81,65.52a14.51,14.51,0,0,1-2.53,8.54c-2.23,3.58-2.6,7.13-.44,10.85.78,1.34,1.54,2.91-.39,3.78-1.66.74-2.37-.77-3-2-2.42-4.47-2.74-9.06-.07-13.44s3.89-8.82.93-13.54a1.7,1.7,0,0,1,.5-2.57c1.16-.83,2.14-.28,2.8.79A12.16,12.16,0,0,1,146.81,65.52Z"/><path class="cls-2" d="M61.77,65.32a15.15,15.15,0,0,1-2.67,8.93c-2.15,3.48-2.4,6.92-.39,10.52.72,1.3,1.7,2.84-.18,3.83s-2.57-.77-3.25-2c-2.37-4.47-2.61-9,.07-13.42s3.86-8.57.93-13.18a1.83,1.83,0,0,1,.63-2.85c1.27-.78,2.12,0,2.73,1C61,60.42,62,62.79,61.77,65.32Z"/><path class="cls-2" d="M118.67,99.32c3.52.12,12.06,6.71,13.13,10.18.29,1,.51,2-.6,2.63a1.74,1.74,0,0,1-2.56-.69,20,20,0,0,0-10.9-8.49,1.88,1.88,0,0,1,.93-3.63Z"/><path class="cls-2" d="M171.47,63.49c-.78,2.55-1.26,5.24-2.39,7.62-4.21,8.85-13.62,13.58-23.51,12-9.21-1.43-16.83-9.35-18.12-18.85a22,22,0,0,1,19.33-24.85c.5-.06,1-.21,1.5-.32h2.32c.5.12,1,.27,1.49.34a21.27,21.27,0,0,1,17.5,13.2,46.56,46.56,0,0,1,1.88,6.56ZM154.9,62.34H157c.71,0,1.42,0,2.12,0a1.77,1.77,0,0,0,1.5-2.86A9.41,9.41,0,0,0,159,57.52c-2.71-2.65-5.47-5.24-8.19-7.89-1.11-1.09-2.1-1-3.15.07-1.73,1.72-3.5,3.4-5.23,5.12-1.37,1.36-2.8,2.67-4,4.15a2.59,2.59,0,0,0-.43,2.26c.25.56,1.27,1,2,1.06a26.23,26.23,0,0,0,3.67,0c0,2.47,0,4.65,0,6.83,0,2,.87,2.8,2.81,2.83s3.86,0,5.79,0a2.3,2.3,0,0,0,2.6-2.6C154.89,67.14,154.9,64.9,154.9,62.34Z"/><path class="cls-1" d="M154.9,62.34c0,2.56,0,4.8,0,7a2.3,2.3,0,0,1-2.6,2.6c-1.93,0-3.86,0-5.79,0s-2.77-.85-2.81-2.83c0-2.18,0-4.36,0-6.83a26.23,26.23,0,0,1-3.67,0c-.73-.11-1.75-.5-2-1.06a2.59,2.59,0,0,1,.43-2.26c1.22-1.48,2.65-2.79,4-4.15,1.73-1.72,3.5-3.4,5.23-5.12,1.05-1,2-1.16,3.15-.07,2.72,2.65,5.48,5.24,8.19,7.89a9.41,9.41,0,0,1,1.57,1.94,1.77,1.77,0,0,1-1.5,2.86c-.7.06-1.41,0-2.12,0Z"/></g></svg>