<svg xmlns="http://www.w3.org/2000/svg" viewBox="0 0 211.36 169"><defs><style>.cls-1{fill:#d14d00;}</style></defs><g id="Layer_2" data-name="Layer 2"><g id="Doodle"><path class="cls-1" d="M109.88,24.56s0,0,0,0c2.45,3.06,7.79,7.38,12.06,5.73,4.43-1.72,2.43-7.21.43-10-2.49-3.49-7.3-7.87-12-6.88-5.6,1.17-3.09,7.77-.79,10.79A1.53,1.53,0,0,0,109.88,24.56Zm2.8-7.14c2.81.74,5.29,3.25,6.83,5.6.79,1.2,2.48,4.14-.18,3.59-2.49-.52-4.68-2.53-6.4-4.36h0a9.36,9.36,0,0,1-2.05-3.71C110.63,17,111.44,17.09,112.68,17.42Z"/><path class="cls-1" d="M45.82,69.91c17.82,9,36.76,14.69,56.82,15.28,1.4,0,1.78-2.28.34-2.5-19-2.94-38.23-7.09-55.85-15C45.64,67,44.31,69.14,45.82,69.91Z"/><path class="cls-1" d="M74.89,26.84a1.83,1.83,0,0,0,.5-.16c4.1-.9,10.91-3.49,11.55-8.15.69-4.94-5.74-5.37-9.1-5-4.57.58-11.83,2.77-13.42,7.82C62.51,27.52,71.32,27.43,74.89,26.84ZM68.43,22c.11-.73,1.94-1.79,2.49-2.13a18.29,18.29,0,0,1,9.19-2.59c.56,0,2.42-.11,2.8.49.49.79-1.61,2.13-2.17,2.5a21.62,21.62,0,0,1-6.66,2.75h-.23C73.1,23.19,68.1,24.15,68.43,22Z"/><path class="cls-1" d="M81.11,35c-.47,4.56,4.84,8.23,8.58,9.89a2.27,2.27,0,0,0,.49.26c3.49,1.3,10.25,1.83,10-3.66-.19-4.9-5.83-8.38-9.91-9.74C87.11,30.64,81.57,30.45,81.11,35Zm8.16.52c2.42.83,5.48,2.5,6.65,4.93,1.45,3-3.29,1.45-4.7.92h-.06c-2-1-4.25-2.35-5.47-4.29C83.81,34,87.42,34.85,89.27,35.48Z"/><path class="cls-1" d="M209.25,76.53c-5-6.24-12.82-1.55-18.75-4.11,8.31-25-11.46-45.62-31.6-57.36C131.8-.74,99.54-3.28,69.27,3.6,51.39,7.66,31.46,18.05,23.08,35.32A30.21,30.21,0,0,1,15,34.08c-2.52-.74-4.77-1.64-7.43-.81C3.21,34.63.48,39.22.06,43.51A15.34,15.34,0,0,0,1,49.88c.84,2.79-.45,4.63-.45,7.47a11.48,11.48,0,0,0,4.72,9.32c-1.45,4.1-1.57,8.15.81,11.62,1.83,2.67,4.69,3,7.72,2.67a7.13,7.13,0,0,1,.9,4.62c-.8,3.88-1.15,7,1.87,10-5.61,13.4-2.89,28.43,6.12,40,10.86,13.89,28.81,21.85,45.2,27a136,136,0,0,0,59.81,5.11c16.39-2.28,33.55-6.86,45.47-19.1a35.78,35.78,0,0,0,9.9-22.5c.24-3.3.32-9.63-1.31-14.25q.63.1,1.26.18c3.08.4,6.35.72,9.28-.54a10.84,10.84,0,0,0,6.06-6.71c.57-1.88.12-4.25.86-6,.92-2.18,4.25-3.58,6-5C210.18,89.77,213.87,82.33,209.25,76.53Zm-169.88-51c7.12-6.66,16.11-10.94,25.39-13.69,25.71-7.61,55.3-7.24,80,3.65,18.46,8.16,41.63,23.66,40.7,46.41-.28,6.73-2.44,14-8,18.26C171.15,85,162.25,87,154.55,88.24a156.69,156.69,0,0,1-17.88,1.81,2.87,2.87,0,0,0-1.41.06,219.66,219.66,0,0,1-34-1.56,3.5,3.5,0,0,0-.64,0A206.13,206.13,0,0,1,57.13,77.81C45.27,73.35,27.9,66.05,26.34,51.41,25.32,41.82,32.71,31.78,39.37,25.55ZM162.48,113.9c-1.42.37-4-3.17-4.78-4.13-3.28-4-6.88-9.43-11.14-13.65,3-.3,6-.67,9-1.14a82.16,82.16,0,0,0,13.64-3.18c-1,4.55-1.62,9.16-3.06,13.63C165.68,106.83,164.08,113.49,162.48,113.9Zm2.64,8.13c-.9,2.93-4.91,3.38-7.47,3.22a1.35,1.35,0,0,1,0-2.69,7.73,7.73,0,0,0,3.09-.76,11.68,11.68,0,0,1,2.85-1.31C164.47,120.36,165.43,121,165.12,122Zm-25.77-10-.23,0c-4,.8-6.14.07-9.36-2.08-1.93-1.3-3.61-2.18-6-2a12.11,12.11,0,0,0-4.82,1.36c1.35-2.44,3-4.25,6.9-3.44,2.7.57,5.11,2.06,8,1.65,3.69-.54,5.36-4.2,8.66-5.15l.21.2c1.66,1.74,3.25,3.57,4.8,5.43h0C144.39,108.06,142,110.38,139.35,112.05Zm.68,12.43c-1.78,5.68-13.11,5.75-17.49,3.81-1.23-.55-.33-2.42.88-2.1,2.73.71,5.89-.12,8.57-.75,2.34-.55,4.07-2.11,6.3-2.71A1.43,1.43,0,0,1,140,124.48ZM110.17,117a5.15,5.15,0,0,1-3,.61c-4.22-.33-6.68-.82-10.95.27-2.17.56-4.42,1.62-6.37-.48-1.09-1.18-1.47-4.16-2.1-5.65l0-.09a30.36,30.36,0,0,0,8,.16A22.82,22.82,0,0,0,114,96.58a205.33,205.33,0,0,0,22.19.28c1.06,1,2.18,1.89,3.29,2.82a14.07,14.07,0,0,0-2.25,1.69c-5.51,4.95-8.46.39-14.2.91-2.7.24-4.62,1.93-6,4.16C114.67,110.25,113.13,113.74,110.17,117Zm3.8,10.18c-2.32,1.83-6.21.87-8.53-.53a1.34,1.34,0,0,1,1-2.45,18.82,18.82,0,0,0,3.56.69,12.5,12.5,0,0,1,3.41.31C114.18,125.46,114.73,126.57,114,127.17Zm-59.16-28-.29-.08.41,0a28.63,28.63,0,0,0,17.54-9.16c1.55.4,3.1.79,4.66,1.15C71.13,96.47,62.63,101.09,54.81,99.19Zm10.43,14c-2.86,1.28-7.87,0-9.18-3A1.23,1.23,0,0,1,58,108.7a6.72,6.72,0,0,0,3.43,1.82c1.31.25,2.59.14,3.82.73A1.16,1.16,0,0,1,65.24,113.24ZM22.16,82.4a7.83,7.83,0,0,0-1-2.62c2.42,1.48,2.24,5.41,4.85,7.18,2.22,1.5,4.69,1.13,7,1.74-2.43.55-4.34,2-7,2.66Q22.6,92.8,20.88,88.8c.15-.46.31-.92.47-1.38C21.49,85.62,22.44,84.33,22.16,82.4Zm4.51-.58a23.29,23.29,0,0,0-1.73-3,91.8,91.8,0,0,1,12.3-.2,24.17,24.17,0,0,0-1.41,6.51,10.16,10.16,0,0,0-1.27-.5C31.5,83.73,28.44,85.22,26.67,81.82Zm11,22.54a9.16,9.16,0,0,0,5.47,4.13c2,.61,4.1.68,6,1.82a1.2,1.2,0,0,1-.29,2.17c-5.13,1.71-12-2-13.58-7.09A1.34,1.34,0,0,1,37.68,104.36ZM44,92.63a7.55,7.55,0,0,1-.74-1.44c-1.49-4,.08-7.64,1.3-11.34l.85.41c-1.1,3.51-2.18,9.23,1.93,9.55,2.14.17,4.17-1.75,5.71-3,.83-.67,1.78-1.4,2.64-2.22l.55.21c-1.67,2.59-2.79,6.51.41,7.7,1.81.67,4.09-.34,5.66-1.19a18.6,18.6,0,0,0,4-3.12l2.67.78a25,25,0,0,1-12.83,6A17.39,17.39,0,0,1,44,92.63Zm3.45-8.58a16.57,16.57,0,0,1,.47-2.64c1.47.65,2.94,1.28,4.43,1.88-.95.86-1.94,1.68-3,2.45-.49.37-1.28,1.29-2,.66C47.15,86.16,47.44,84.34,47.47,84.05Zm10.3,4.44L58,88a14.52,14.52,0,0,1,1-2.18q1.62.57,3.27,1.11a11.65,11.65,0,0,1-2.39,1.58c-.43.19-1.4.74-1.84.62C57.56,89.31,57.48,89.11,57.77,88.49ZM68,118.32a33.6,33.6,0,0,0,5.54,1.92c2,.4,4,.47,5.91,1,1,.28,1.17,2,0,2.21-4,.6-9.63-.09-12.67-3.07C66,119.58,66.82,117.85,68,118.32Zm9.84-19.26A20.19,20.19,0,0,0,83,92.36c4.94,1,9.9,1.83,14.84,2.5C92.93,101,85,104.44,77.86,99.06Zm23.49-3.65q2.93.34,5.87.62c-3.07,4.56-6.58,8.32-12.89,8.94a21.58,21.58,0,0,1-4.4,0A19.24,19.24,0,0,0,101.35,95.41Zm39.84,22.14a1.55,1.55,0,0,1,1.85-1,11.27,11.27,0,0,0,2.66,0c.89-.08,1.78-.39,2.57.19a1.28,1.28,0,0,1,.44,1.67c-.58,1.09-1.9,1.17-3,1.24a14.35,14.35,0,0,1-3.46-.26A1.51,1.51,0,0,1,141.19,117.55ZM10.3,40.28c2.09-.11,4.74,1.13,7,1.38a14.88,14.88,0,0,0,3.34,0c-.22.73-.41,1.47-.59,2.22a28.54,28.54,0,0,0-.51,3.05c-.92.93-2,2-3.05,3.18-.21-.34-.44-.68-.7-1C15.07,48.18,7.52,41.6,10.3,40.28ZM7.45,57.35c0-1.74,1.13-3.24,1.29-5,.31-3.21-2.47-5.6-1.7-8.88H7c0,.14.09.28.15.41a14.42,14.42,0,0,0,3.2,4.44,16.49,16.49,0,0,1,3.33,4.86,64.77,64.77,0,0,0-5.25,7A4.8,4.8,0,0,1,7.45,57.35Zm8.88,15.8c-.73.14-2.92,1-3.57.81-2.1-.78-1.34-2.69-.9-4.24a25.24,25.24,0,0,1,3.33-6.49,71,71,0,0,1,5.2-6.92c1.81,6,5.95,11.2,11.05,15.41A69.79,69.79,0,0,0,16.33,73.15ZM175,132.44c-2.16,7.1-7.07,12.45-13.05,16.65-11.31,7.94-25.5,10.9-39,12.36-30.2,3.26-65.88-3.87-89.33-24.3-11-9.6-16.61-24.94-10.83-38.67l.24,0a11.48,11.48,0,0,0,.44,6.83c1.48,3.51,5.11,5.15,7.41,8,4.53,5.71,10.44,6,17.14,7.67,7.26,1.77,12.82,7.31,20.35,8.45,4.93.75,9.83.33,14.75,1.41,4.63,1,9.07,2.67,13.59,4.06,9.34,2.89,18,.36,27.49.66,4,.13,8,.9,11.95.74,4.25-.18,7.54-2,11.51-3.2,4.46-1.3,9.14-.2,13.64-1.29a18.54,18.54,0,0,0,9-5.23,24.25,24.25,0,0,0,5.55-10,50,50,0,0,1,.43,5A30.7,30.7,0,0,1,175,132.44Zm-1.13-30.67a40.73,40.73,0,0,0,.74-12.12c5.44-2.58,10.17-6.21,13.32-11.45A14.24,14.24,0,0,0,194.8,80c.64,0,1.43,0,2.29-.11-1.22,3.06-1.24,7.17-4.66,8-1.62.4-3.14-.36-4.82.4a7.66,7.66,0,0,0-2.8,2.38C181.59,94.89,180.75,103.89,173.84,101.77Zm30.3-17.44c-1,3.64-5.43,5.17-8,7.36a10.72,10.72,0,0,0-3.9,6.72c-.79,4.45-.91,7.24-6.1,7a26.52,26.52,0,0,1-6.39-1.4,11.43,11.43,0,0,0,5.81-6.61c.47-1.23.72-2.87,1.49-3.94,2.47-3.45,3.52-2,6.11-2.36a5.55,5.55,0,0,0,3-1.1,8.33,8.33,0,0,0,2.45-3.88c.27-.79.26-1.77.6-2.51a7.66,7.66,0,0,1,3.52-3.43C204,80.77,204.77,82,204.14,84.33Z"/><path class="cls-1" d="M18.33,63a10.69,10.69,0,0,0-2.41,2.43A8.49,8.49,0,0,0,14,68.26a1.19,1.19,0,0,0,1.72,1.33,8.67,8.67,0,0,0,2.43-2.4,10.86,10.86,0,0,0,1.95-2.82C20.51,63.37,19.17,62.49,18.33,63Z"/><path class="cls-1" d="M150.78,39.79a1.86,1.86,0,0,0,.52-.17c3.48-1.67,8.57-6.36,4.11-9.95-4-3.24-11-1.27-14.82,1.23-2.74,1.77-5.59,5.58-2.61,8.53C141.11,42.52,147.06,41.32,150.78,39.79Zm-8.22-5.51a12.86,12.86,0,0,1,8.54-2.2c4.23.63.13,3.25-1.78,4.16l-.06,0a15.8,15.8,0,0,1-6,1C140.27,37.15,140.1,35.94,142.56,34.28Z"/><path class="cls-1" d="M163.21,99.45a84.49,84.49,0,0,0-2.81,8.45,1.29,1.29,0,0,0,2.34,1,20.56,20.56,0,0,0,2.64-9.15C165.45,98.42,163.62,98.35,163.21,99.45Z"/><path class="cls-1" d="M176.47,69.17a1.32,1.32,0,0,0,2.41,1c6.46-9.85.65-21.9-6.73-29.32-.94-1-2.74.32-1.91,1.48C176.26,50.67,178.7,59,176.47,69.17Z"/><path class="cls-1" d="M119.26,40.45c-3.28.43-8.12,2.51-6.79,6.71s7.68,5.49,11.67,5.43a2,2,0,0,0,.56,0c3.66-.31,10.42-2.45,7.92-7.52C130.4,40.62,123.58,39.87,119.26,40.45Zm9.59,6c.5,2-3.09,2.16-4.15,2.25a1.06,1.06,0,0,0-.2,0c-2.31-.16-12.23-2.34-6.14-4.17a13.35,13.35,0,0,1,8.08.39C127,45.19,128.68,45.79,128.85,46.46Z"/><path class="cls-1" d="M170,131.12c-1.75,1.76-3.09,4.12-4.59,6.11a62.28,62.28,0,0,1-5.3,6.19c-1,1,.33,2.84,1.53,2a47.34,47.34,0,0,0,7.26-6.21c1.91-2.11,3.88-4.48,3.37-7.46A1.37,1.37,0,0,0,170,131.12Z"/></g></g></svg>