<svg xmlns="http://www.w3.org/2000/svg" viewBox="0 0 211.64 198.81"><defs><style>.cls-1{fill:#d14d00;}</style></defs><g id="Layer_2" data-name="Layer 2"><g id="Doodle"><path class="cls-1" d="M196.53,81.45C185.59,63.59,170.44,48.5,154,35.62c-16.8-13.19-35.36-24.7-55.86-31.09-29.9-9.31-74.74-6.4-82.67,29.22a3.39,3.39,0,0,0-.49.56C9.19,42.52,3.79,50.55,1.38,60.54S.07,81.12,1.8,91c3.5,20.11,15.84,38.42,29.3,53.33,24.32,26.95,59.75,49.6,96.37,53.87a72.83,72.83,0,0,0,29-2.08c10.85-3.21,19.79-9.87,28.48-16.89l.26-.26c13-4,21.57-24.19,24.57-35.35C215.4,122.78,207.46,99.29,196.53,81.45ZM156,189.13a64.46,64.46,0,0,1-24.19,2.64c-17-1.14-33.48-7.44-48.35-15.38-30.51-16.28-61.4-43.48-72.57-77.2-3.31-10-5-22.08-3.67-32.56.92-7.15,3.69-13.31,7.23-19.16a32.09,32.09,0,0,0,8.87,20.7c8,8.22,18.58,13.24,24.21,23.69,5,9.27,3.6,20.56,8.82,29.75,5.34,9.41,15.8,11.73,25.77,12.81a3.8,3.8,0,0,0,.83,0c5.29.55,10.75,1.07,15.58,3.46,5.5,2.73,8.92,7.15,12,12.32,4.61,7.79,10.43,14.7,19.55,17.13a28.93,28.93,0,0,0,11.42.64c4.91-.67,8.93-2.89,13.56-4.35,2.46-.77,4.45-1.16,6.3.83,1.4,1.49,2.19,3.94,3.26,5.66a20.35,20.35,0,0,0,8.87,7.91c.46.21.92.38,1.37.55C169.06,182.94,162.94,186.88,156,189.13Zm48.79-55.27c-.79,9.69-5.11,20-10.44,28-2.45,3.69-5.5,7.83-9.59,9.85-5.4,2.66-11.21-.33-14.24-5.06-4.2-6.56-6.83-12.35-15.9-10.06-4.43,1.13-8.31,3.6-12.84,4.44a21.63,21.63,0,0,1-13.59-1.67c-9.47-4.68-11.69-15.48-19-22.28s-16.58-8.37-26.25-9.34a3.81,3.81,0,0,0-.79-.17c-9.52-1-18.48-3.64-21.64-13.65-2.35-7.43-2.44-15.38-5.61-22.59-3.54-8.06-9.81-14.26-16.65-19.6-7.21-5.63-14.6-11-16.5-20.5-1.78-8.95,0-19.68,4.88-27.38,4.23-6.66,11.27-11.08,18.59-13.64,15.36-5.39,32.41-4.35,47.87,0,18.59,5.18,35.58,15.05,51,26.43C159.82,48.2,174.65,61.87,186,77.88a109.54,109.54,0,0,1,13.45,24.75C203,112.14,205.61,123.66,204.78,133.86Z"/><path class="cls-1" d="M159.59,106.81c-2.88-.12-5.63-.25-8.31-.49-.53-2.48-1.29-5.08-2-7.45a13.83,13.83,0,0,0-5-7.11c-5.92-4.61-13.92-4.5-18.92-10.5-4.67-5.6-8.61-9.11-15.69-11.36-6.77-2.16-14.33-2.93-19.16-8.75a1.6,1.6,0,0,0-.26-.26,19.8,19.8,0,0,1-.18-9.35c.57-2.67-3.46-3.82-4.11-1.13-4.53,18.82,11,34.88,24.62,45.35a104.82,104.82,0,0,0,23.23,13.58c8.16,3.41,18.71,6.71,27,2.09C163.07,110.19,162,106.91,159.59,106.81Zm-43.43-15.5A101.1,101.1,0,0,1,99.71,76c-1.54-1.78-3-3.55-4.39-5.37a63.11,63.11,0,0,0,6.56,2.76c3.46,1.29,7.12,2.28,10.42,3.93,3.65,1.83,5.75,4.55,8.28,7.65,4.82,5.9,11,6.79,17.41,10.06,4.44,2.26,5.12,5.11,6.15,9.53l.18.75a45.4,45.4,0,0,1-9.37-3A101.32,101.32,0,0,1,116.16,91.31Z"/><path class="cls-1" d="M49.74,31.28c-10,3-5.71,13.29-2.85,20,2.56,6,7.24,15.66,15.5,10.42,6.35-4,4.55-12.62,2.1-18.68C63.54,35.92,57.42,29,49.74,31.28Zm10,24.11c-4.16,1.69-5.34-4.15-6.52-6.9S47.37,38.11,53.56,38c2.77-.06,4.74,2.55,6.37,5C61.4,46.24,64.52,53.44,59.74,55.39Z"/><path class="cls-1" d="M179.25,116.74c-6-2.48-14.16-1-16.52,5.69a9.23,9.23,0,0,0,1.89,9.44c2.91,2.92,7.44,3,11.26,3.42,6.47.73,18.5,2.46,18-7.86C193.6,120.18,185.49,117.57,179.25,116.74ZM187.11,127c-1,3.81-7.49,1.78-10.29,1.47-3.13-.35-10.29-.56-6.49-5.21,1.61-2,4.29-2.31,6.82-2.53C180.51,121,188.44,122,187.11,127Z"/><path class="cls-1" d="M88.85,94.55q-.9-.42-1.83-.81c-3.33-1.37-8.12-3.69-11.7-2s-5.58,6.64-5.88,10.21c-.43,5.21,3,7.92,7.29,10,7.69,3.68,18.37,7.41,22.28-2.78C101.9,101.53,95.67,96.43,88.85,94.55Zm3.71,13.22c-3,2.9-10.08-.8-13-2.24-2.23-1.1-4.26-3-3.26-5.86,1.39-4,4.8-2.16,7.29-1.49a28.38,28.38,0,0,1,9.8,4.52C94.41,104.17,94.46,105.89,92.56,107.77Z"/><path class="cls-1" d="M152.28,70.29c-3.62.31-7,4.22-8.25,7.4-1.75,4.42.59,7.74,3.73,10.65s7.14,6.27,11.36,7.17c4,.87,7.2-1.74,9.3-4.92,3.49-5.25-.49-10.77-5.35-14-.33-.31-.67-.61-1-.91C159.55,73.5,155.86,70,152.28,70.29Zm10.78,16.88c-2.38,3.77-8.32-1.84-10.39-3.74-1.49-1.37-3.29-3.64-1.52-5.72s4.12-.31,5.79.75a25.94,25.94,0,0,1,6.78,5.85A4.08,4.08,0,0,1,163.06,87.17Z"/><path class="cls-1" d="M83.13,26.15c-1.88,4.05.18,7.32,2.71,10.47s5.74,6.85,9.53,8.19,6.91-.46,9.45-3.1c4.38-4.54,1.46-10.65-2.8-14.56-.52-.65-1-1.29-1.58-1.91-2.2-2.49-5-5.92-8.66-5.73C88.33,19.69,84.52,23.15,83.13,26.15Zm12.64,2A25.79,25.79,0,0,1,101.49,35a3,3,0,0,1-1.7,2.63c-2.16,1.27-3.45-.18-5.06-1.66a26,26,0,0,1-4.23-4.61c-1-1.51-1.58-5,1-5.7C93.13,25.25,94.68,27.21,95.77,28.16Z"/><path class="cls-1" d="M144.74,125.05c-2-3-4.33-7.27-8.26-7.74-3.46-.4-7.6,2.55-9.35,5.35a7.47,7.47,0,0,0-1.16,4.93,7.42,7.42,0,0,0-4.2,1c-1.49.86-1,3.68.94,3.46,1.49-.17,3,1.07,4.42,2a27.78,27.78,0,0,1,2.68,2c4.09,6.47,10.21,13.16,17.71,7.08,5.12-4.15,2.66-10.71-1.16-15.52C145.85,126.79,145.31,125.91,144.74,125.05Zm-2,13.72c-3.36,1.06-6.95-6-8.33-8.39-1.11-1.91-2.51-4.59-.12-6.35,2.24-1.66,3.6,1.07,4.82,2.51a32.59,32.59,0,0,1,6,9.69A2.93,2.93,0,0,1,142.76,138.77Z"/><path class="cls-1" d="M129.87,58.76c7.65-1,18.64-3.41,16.17-13.41-1.71-6.94-9-7.29-15.2-5.46-1.2.16-2.38.37-3.53.61-3.61.75-8.33,1.36-9.86,5.24-1.23,3.12-.18,7.57,1.8,10.18C121.94,59.48,125.84,59.31,129.87,58.76Zm-7-10.35c.36-1.57,3.85-2.11,5.08-2.49a32.57,32.57,0,0,1,10.41-1.65,2.86,2.86,0,0,1,1.36,2.06c.74,4.5-9.37,5.76-12.29,5.78C125.65,52.12,122.17,51.38,122.87,48.41Z"/><path class="cls-1" d="M69.25,30.73c1-1.75,2-3.25,1.92-5.4a7.91,7.91,0,0,0-2.44-5.24c-3.31-3.27-7.68-2.48-11.72-4C54.78,15.25,53.19,19,55.38,20c2.71,1.24,6,1.89,8.32,3.84a2.21,2.21,0,0,1,1,2.61,6.32,6.32,0,0,0,.46,4.32C65.92,32.4,68.37,32.18,69.25,30.73Z"/><path class="cls-1" d="M72.27,77.26c.59,1.9.42,3.83,1.37,5.63a2,2,0,0,0,2.7.7c3.45-1.67,3.1-6.52,1.33-9.31-1.54-2.42-5-4.72-8-4.52a2.07,2.07,0,0,0-1,3.83C70.46,74.63,71.61,75.15,72.27,77.26Z"/><path class="cls-1" d="M75,63.15c.82,1,1.28,2.19,2.4,3A2,2,0,0,0,80.28,65a6.42,6.42,0,0,0-2.39-6.1A5.34,5.34,0,0,0,72,58.29c-2.2,1.15-.67,4.66,1.68,4l.14,0h.07l.22.12A2.38,2.38,0,0,1,75,63.15Z"/><path class="cls-1" d="M104.89,110.16c-1.53,1.24.12,4,2,3.35h.06c.24.26.64.44.9.68a15.89,15.89,0,0,1,1.52,1.55,4.89,4.89,0,0,1,.76,1.17c.36.85.93,2.07,1.15,2.5a2.65,2.65,0,0,0,4.11.53c3-2.81.9-7.14-1.75-9.42a7.78,7.78,0,0,0-4.66-2A6.71,6.71,0,0,0,104.89,110.16Z"/><path class="cls-1" d="M147.21,60.4c1.69.19,3.5,1.93,4.59,3.11,1.37,1.5,2,3.27,3.95,4.2a2.11,2.11,0,0,0,2.49-.32c2.6-3,.52-6.9-2.24-9s-5.86-2.37-9.29-1.7C144.42,57.09,145.24,60.18,147.21,60.4Z"/><path class="cls-1" d="M189.45,141.05c-1.46-1.27-3-1.26-4.72-1.45-2.13-.23-2.57,2.78-1,3.77a1.73,1.73,0,0,0,.28.14.21.21,0,0,0,0,.07,3.87,3.87,0,0,0,.74,1.1,7.71,7.71,0,0,1,1.44,1.78,2.85,2.85,0,0,1,.3,1.22,7.6,7.6,0,0,1-.26,2.1,2,2,0,0,0,2.26,2.94c1.55-.48,2.83-1,3.54-2.62a7.51,7.51,0,0,0,.05-5.06A9.16,9.16,0,0,0,189.45,141.05Z"/><path class="cls-1" d="M170.22,101.52c3.25.82,5.07,4,6.09,6.93.55,1.56,3.06,1.86,3.47,0,1.23-5.53-3.32-10.1-8.39-11.19C168.63,96.66,167.44,100.82,170.22,101.52Z"/><path class="cls-1" d="M184.58,88.32c5.33,11,8.52,22.15,11.17,34a1.33,1.33,0,0,0,2.6-.35c.22-12.4-4.42-24.94-11.72-34.89A1.19,1.19,0,0,0,184.58,88.32Z"/><path class="cls-1" d="M180.45,82.42l.05.07v0a4.77,4.77,0,0,0,.26.66,1.36,1.36,0,0,0,.93.9,1.43,1.43,0,0,0,1.59-.64l0-.06a2.08,2.08,0,0,0,.2-2,2.66,2.66,0,0,0-1.65-1.51,1.49,1.49,0,0,0-1.67.68,1.53,1.53,0,0,0,.18,1.73A1.21,1.21,0,0,1,180.45,82.42Zm-.13-.31q-.09-.24,0,.06S180.32,82.13,180.32,82.11Z"/><path class="cls-1" d="M101.81,126.24a1.16,1.16,0,0,0-.3,2.27c4.28,1.14,7.33,3.62,10.14,6.93,2.42,2.85,5.23,5.72,7,9a1.25,1.25,0,0,0,2.27-1C118.73,135.89,110.4,125.9,101.81,126.24Z"/><path class="cls-1" d="M37,62.85a18.89,18.89,0,0,1-6.92-7.35C28.5,52.58,28,49.31,26.5,46.37a1.28,1.28,0,0,0-2.37.64C24,54.29,28.86,62.92,36,65.1A1.24,1.24,0,0,0,37,62.85Z"/><path class="cls-1" d="M25.67,43.1A1.63,1.63,0,1,0,24,41.47,1.65,1.65,0,0,0,25.67,43.1Z"/><path class="cls-1" d="M69.84,12.12a74.67,74.67,0,0,1,24,4.41c1.26.43,2.13-1.59.91-2.16a51.5,51.5,0,0,0-25-4.6A1.18,1.18,0,0,0,69.84,12.12Z"/><path class="cls-1" d="M25.44,106C22.1,100.6,20,94.68,17,89.18c-.68-1.22-2.36-.34-2.14.9C17,102.43,26.61,115.67,36,123.65a1.22,1.22,0,0,0,1.73-1.73A130.79,130.79,0,0,1,25.44,106Z"/><path class="cls-1" d="M36.93,106.84c-.74-1.1-2.84-.45-2.29,1,3.71,9.5,10.77,18.45,18.14,25.4a1.15,1.15,0,0,0,1.63-1.63C47.86,123.68,42.67,115.27,36.93,106.84Z"/><path class="cls-1" d="M143.8,179c-12.49-1.71-24-4.61-35.33-10.23a1.51,1.51,0,0,0-1.52,2.61c10.88,6.44,23.83,10.36,36.54,9.9C144.73,181.2,145.16,179.15,143.8,179Z"/><path class="cls-1" d="M155.82,176.35c-4.87-1.84-10.58-2.64-15.7-3.56a1.25,1.25,0,0,0-.66,2.4c4.86,1.9,10.76,3.69,16,3.56A1.23,1.23,0,0,0,155.82,176.35Z"/><path class="cls-1" d="M91.23,80.33c-.92-1.14-2.91.38-2,1.57,5.41,7.47,12.06,14.63,19.94,19.53,1.19.73,2.61-1,1.52-2C103.64,93.46,97,87.55,91.23,80.33Z"/><path class="cls-1" d="M114.65,104.3c.65-.09.86-.85.79-1.39-.11-.79-.91-1.12-1.48-1.49-1.14-.73-2.5,1-1.46,1.89a5.49,5.49,0,0,0,.84.75A1.72,1.72,0,0,0,114.65,104.3Z"/></g></g></svg>