<svg xmlns="http://www.w3.org/2000/svg" viewBox="0 0 211.34 195.49"><defs><style>.cls-1{fill:#d14d00;}</style></defs><g id="Layer_2" data-name="Layer 2"><g id="Doodle"><path class="cls-1" d="M93.51,116c-14.86-3.06-35.81-1.83-45.09,12.26-10.8,16.38,8.67,31.66,22.09,37.23a3.59,3.59,0,0,0,.89.24c13.2,5,29.94,6.25,43.25,1.31,10.62-3.94,19.23-13.36,15.69-25.28C125.89,126.75,107.39,118.85,93.51,116Zm17,45.2c-12.07,3.62-25.9,2.18-37.65-2a3.91,3.91,0,0,0-.54-.28c-9.15-3.8-26.41-15.54-17.86-27.31,8.11-11.16,26-11.43,38.09-8.78,11.06,2.43,27,8.42,31,20.37C126.75,152.45,118.55,158.79,110.52,161.2Z"/><path class="cls-1" d="M211.18,44.93c-.58-4.5-2.23-10.36-6.34-12.93a11.49,11.49,0,0,0-10.3-.94c2.24-3.29,4-7,3-11-2.34-9.73-15.66-16.78-23.13-8.4-8.56,9.6-15.42,21.77-21.82,32.92.41-1.39.83-2.77,1.25-4.15,1.72-5.52,5.48-12.49,3.1-18.29C154.8,17,149.42,14.83,144.27,14c-5.49-.87-9.39-.2-12,5a87.6,87.6,0,0,0-4.46,10.49,13.13,13.13,0,0,0-6.63-9.72c-4.33-2.58-11.6-5.37-16.25-2.19-2.2,1.51-3.57,4-4.52,6.86-4.51-3.59-12.07-5.56-16.24-3.81.46-2.51.86-5,1.08-7.53C86.13,2.69,74.76-1.1,66,.27c-5.89.92-8.46,6-9.79,11.8a13.37,13.37,0,0,0-3.58-4.14c-6.61-4.91-24.58-2.46-24.28,8,.15,5.19,2.11,10.68,3.7,15.88a81.86,81.86,0,0,0-14.5-8.24c-6.8-2.86-11.83,0-15,6.47C-.35,35.91-2,44.2,4.62,48.18c3.67,2.19,7.94,3.4,11.7,5.48a58.46,58.46,0,0,1,5,3.11,3.51,3.51,0,0,0-.91,2.06c-.8,8-.26,15.94-.42,23.93-.15,7.31-.11,14.61.06,21.92.37,15.69.81,31.39,2.31,47,.9,9.29,1.15,22.37,11.18,26.72,4.78,2.08,10.29,3,15.35,4.07,18.19,4,36.58,7.26,55,10.1,6.86,1,13.76,2.14,20.69,2.72a24,24,0,0,0,5.22.08c6.44-.83,8.94-6.43,11.85-11.55,8.91-15.72,15.88-32.63,22.91-49.24,7.28-17.22,13.89-34.7,20-52.36a2.83,2.83,0,0,0-.7-3.18c2.93-2.92,5.9-5.81,9-8.54,4.32-3.79,9.41-6.89,13.41-11A17,17,0,0,0,211.18,44.93ZM167.46,77.19c-1.79-.45-3.59-.85-5.41-1.18,5-7,9.95-14,15.49-20.61,2.33-2.78,7.18-9.55,12.33-14,.24,3.61,2.82,8.08,4.07,10.81a12.26,12.26,0,0,0,1.68,2.86C185.37,60.69,174.72,68.07,167.46,77.19Zm33.07-39.35c3.87,1.87,4.59,8.41,3.22,12.83a7.2,7.2,0,0,1-2.39,1.41c-2.81,1-3.15,0-4.26-2.47-.93-2.06-1.76-4.16-2.61-6.26-.48-1.21-1.13-2.64-.45-4a7.55,7.55,0,0,1,1.54-1.58A6.21,6.21,0,0,1,200.53,37.84Zm-23.64-18c1.71-2.38,3.37-5.33,6.6-5,2.38.27,5.42,3.05,6.51,5.19,2.47,4.9-3.95,11.06-6.39,15-2.18,3.52-4.65,7-6.8,10.54a221.87,221.87,0,0,0-22.62,29.61,31.25,31.25,0,0,0-11.37,2.43C151.1,62.17,159,46.58,168.69,31.8Q172.67,25.76,176.89,19.85Zm-41.65,9.51c.92-2.23,1.73-5.55,3.26-7.47,1.7-2.14,4.77-1.23,7.19-.52,3.13.92,5.53,2.83,4.92,6.33a62.49,62.49,0,0,1-2.16,7.15q-2.5,8.11-5,16.22c-3.22,10.39-7.15,20.86-9.64,31.48-2.36,1.52-4.68,3.13-7,4.75a121.88,121.88,0,0,0-3.58-19.13c.58-3,1.56-6.09,2.2-8.67,1.27-5.12,2.69-10.23,4.29-15.26S133.23,34.26,135.24,29.36ZM90.87,62.23c.48.93.93,1.88,1.39,2.82-1.68,11-3.74,22.42-4.13,33.62A30.82,30.82,0,0,1,83.71,97c.4-13.07,2.74-25.36,5.51-37.86C89.78,60.21,90.35,61.23,90.87,62.23Zm6.33,14a164.77,164.77,0,0,1,7.12,22.92,30.91,30.91,0,0,1-10.68.64C95.09,92,96.05,84.08,97.2,76.21ZM111,96.87a164.79,164.79,0,0,0-8.12-25.23c-1.81-4.38-3.79-8.7-6-12.91-2-3.81-5.16-7.94-2.72-11.64,3.26,8.35,7.26,16.43,10.52,24.79,3,7.83,6.75,15.73,8.32,24.05C112.31,96.26,111.63,96.57,111,96.87Zm5.16-2.62c-1.59-7.87-5.09-15.38-8.18-22.73-3.72-8.85-7.18-18-11.69-26.53,10.23-7.69,15.2,9.3,17.65,16.34,1.37,4,2.53,8,3.53,12a10.35,10.35,0,0,0,.52,2.18c1.22,5.2,2.19,10.47,3,15.78C119.34,92.33,117.74,93.32,116.11,94.25Zm4.33-66.82c3,3.8.68,10.53-.08,14.82-.65,3.6-1.42,7.17-2.26,10.73-.28-.7-.56-1.4-.86-2.1-1.78-4.25-3.61-9.09-7.38-12,.8-2.9,1.24-5.89,2-8.82.53-2.17,1.25-4.32,1.8-6.49C116.44,24.29,119.34,26,120.44,27.43ZM106.14,31c.38-1.6.66-5.43,1.88-6.67a3.65,3.65,0,0,1,2-1,36.42,36.42,0,0,0-.9,4.07,52,52,0,0,0-1.6,10.09,12.66,12.66,0,0,0-2.7-.92Q105.48,33.77,106.14,31ZM98.59,32c-.28,1.59-.53,3.1-.83,4.4a2.2,2.2,0,0,0,0,.36,15.45,15.45,0,0,0-2.37.82c-4.18,1.8-8,5.35-9,10a12.38,12.38,0,0,0,.75,7A185.55,185.55,0,0,0,81.3,79.71a238.17,238.17,0,0,1-.84-25.52c.16-6.13.55-12.27,1.19-18.38A25,25,0,0,1,85,29.11C89,23.5,94.19,29,98.59,32ZM78.43,11.24c.43,2.32-1,6-1.44,8.3-.88,4.94-1.58,9.92-2.13,14.91a188.1,188.1,0,0,0,2.35,58.46,27,27,0,0,1-3.62-3.7c-.51-.63-1-1.28-1.43-1.95a291.74,291.74,0,0,1-1.58-37.11c.33-14.33,1.35-28.41,3-42.64C75.71,7.92,78,8.76,78.43,11.24ZM63.24,13.69c.55-2.25.93-4.75,3-6a7.34,7.34,0,0,1,4.71-.59c-2.75,14.21-3.33,28.59-3.68,43-.23,9.14-.72,18.76-.14,28.18-.85-1.65-1.7-3.3-2.62-4.9,1.25-12-.75-25-2.62-36.79q-.62-3.89-1.26-7.75A3.29,3.29,0,0,0,61,27.71C61.73,23,62.14,18.3,63.24,13.69Zm-10.83,5.7c2.11,7.63,3,15.93,4.12,23.76,1,7.31,1.19,14.6,1.48,21.9a25.26,25.26,0,0,0-2.36-1.91c0-8.36-1.76-17-3.13-25.18a231.5,231.5,0,0,0-5.67-25.15C49.44,13.6,51.36,15.63,52.41,19.39ZM36,14.81c1-1.21,1.64-1.3,3.06-1.67a19.31,19.31,0,0,1,4.68-.73c2,8.45,3.81,17,5.21,25.53,1.23,7.54,1.57,15.22,2.52,22.79a24.21,24.21,0,0,0-3.58-1.33,32.51,32.51,0,0,0-5.58-1c.15-10.38-2.05-20.64-4.49-30.68-.67-2.76-1.41-5.51-2.06-8.29C35.33,17.49,34.65,16.49,36,14.81ZM12.55,29.14c2.16-.18,5.08,2.11,6.88,3.16A144.86,144.86,0,0,1,34.35,42a3.48,3.48,0,0,0,.36.22c.23,1.05.44,2.09.65,3.14a82.1,82.1,0,0,0-9.46-6.51A68,68,0,0,0,9.77,31.21,4,4,0,0,1,12.55,29.14ZM11,43.47c-4.57-1.92-4.67-4.37-3-8.68.14-.35.3-.76.49-1.2a113.84,113.84,0,0,1,15,7.69,84.21,84.21,0,0,1,8.41,6.15c1.56,1.32,2.94,2.83,4.5,4.11.31,2.15.58,4.32.77,6.5A43.81,43.81,0,0,1,30,57.09,45.72,45.72,0,0,0,18.34,47,56.28,56.28,0,0,0,11,43.47ZM128.88,188.64Zm14-22.08c-3,6.31-6.06,13-10.09,18.79-1.13,1.6-2.13,2.76-4,3.3l-.18,0c-.78,0-1.58,0-2.36-.07-5.8-.32-11.59-1.26-17.32-2.12q-25.72-3.82-51.22-9.1c-6.19-1.27-12.42-2.54-18.51-4.28a23.76,23.76,0,0,1-3.77-1.29c-5-3.3-5.31-10.85-5.85-16.19-1.68-16.42-2.26-32.88-2.69-49.37-.18-7.32-.33-14.64-.16-22,.18-7.69-.29-15.39.24-23.07.36.17.72.32,1.07.47l.14.1a1.74,1.74,0,0,0,1.07.37c4.65,1.69,9.54,2.29,14.68,3.39,8.2,1.74,12.34,7.09,16.13,14.18,3.23,6,6.11,12.35,11.15,17.13a36.88,36.88,0,0,0,18,9.22,38.61,38.61,0,0,0,19.06-1,4,4,0,0,0,2.11-.69C117.23,102,123.64,98,130,93.58c6.71-4.74,14.06-10.65,22.51-11.64,7.55-.89,15.29,1,22.81,2.45a3,3,0,0,0,1.11.5A814.39,814.39,0,0,1,142.87,166.56Zm32.87-87.12-4.22-1.17c7.53-8.7,17.63-15.54,27.23-21.65a4.34,4.34,0,0,0,.51,0c-1.93,1.62-4.08,3-6,4.57A85.38,85.38,0,0,0,175.74,79.44Z"/><path class="cls-1" d="M32.75,90.7c0-1.71-2.51-1.67-2.64,0-1.11,14-1,29,1.73,42.79a1.18,1.18,0,0,0,2.31-.31C33.26,118.92,32.3,105,32.75,90.7Z"/><path class="cls-1" d="M114.14,136.56c-1.45-.9-2.77,1.37-1.33,2.29,2.26,1.43,3.42,3.38,4.85,5.55a1.23,1.23,0,0,0,2.24-1C119.18,140.54,116.61,138.08,114.14,136.56Z"/><path class="cls-1" d="M158.51,111.64c-3.28,8.73-6.6,17.42-10.5,25.9-3.51,7.64-8.18,14.88-11.32,22.65-.48,1.18,1.37,2.24,2.15,1.26,5.54-6.93,9.3-15.79,12.92-23.84A176.16,176.16,0,0,0,161,112.34C161.49,110.69,159.09,110.09,158.51,111.64Z"/><path class="cls-1" d="M132.44,67.34a56.09,56.09,0,0,0,3.72-11.07c.24-1.23-1.56-2.21-2.18-.91a56.82,56.82,0,0,0-3.59,11.12C130.11,67.65,131.92,68.56,132.44,67.34Z"/><path class="cls-1" d="M132.49,54.85a15.45,15.45,0,0,0,2-5.71c.1-1.17-1.49-1.37-2-.56A15.19,15.19,0,0,0,130.49,54C130.27,55.17,131.87,56,132.49,54.85Z"/><path class="cls-1" d="M160.6,55.49a25,25,0,0,0,2.05-4.38c.4-1.17-1.49-2-2-.85-.64,1.37-1.23,2.78-1.94,4.12S159.9,56.74,160.6,55.49Z"/><path class="cls-1" d="M167.14,51.35a8.29,8.29,0,0,0,1.73-2,5.69,5.69,0,0,0,1.1-2.28A1.14,1.14,0,0,0,168.08,46a9.42,9.42,0,0,0-1.36,1.84c-.4.62-.9,1.19-1.24,1.85C165,50.65,166.09,52.14,167.14,51.35Z"/><path class="cls-1" d="M185.79,55.17c-1.31.91-2.41,2-3.8,2.87a1.08,1.08,0,0,0,1.08,1.86,13.23,13.23,0,0,0,4.05-3,1.14,1.14,0,0,0,.09-1.45A1.08,1.08,0,0,0,185.79,55.17Z"/><path class="cls-1" d="M44.42,43.46c.14,1.43,2.31,1.49,2.28,0,0-.61,0-1.22,0-1.83s-.17-1.22-.24-1.84a1.17,1.17,0,0,0-1.15-1.14,1.16,1.16,0,0,0-1.15,1.14c0,.62-.07,1.22,0,1.84S44.36,42.84,44.42,43.46Z"/><path class="cls-1" d="M43.08,35a2.79,2.79,0,0,0-.57-2.81,1.13,1.13,0,0,0-1.88.49,6.51,6.51,0,0,0-.07,2A1.29,1.29,0,0,0,43.08,35Z"/><path class="cls-1" d="M84.35,42.4A1.34,1.34,0,0,0,86,41.48a15.24,15.24,0,0,0,.76-2.74,1.16,1.16,0,0,0-.66-1.34,1.13,1.13,0,0,0-1.41.47,16.93,16.93,0,0,0-1.23,2.91A1.32,1.32,0,0,0,84.35,42.4Z"/><path class="cls-1" d="M90.08,37.07a16.39,16.39,0,0,0,.82-1.48,5.81,5.81,0,0,0,.7-1.67,1.15,1.15,0,0,0-1.67-1.28,4.85,4.85,0,0,0-2.1,3.83C87.74,37.74,89.47,38,90.08,37.07Z"/></g></g></svg>