<svg xmlns="http://www.w3.org/2000/svg" viewBox="0 0 151.79 264.71"><defs><style>.cls-1{fill:#d14d00;}</style></defs><g id="Layer_2" data-name="Layer 2"><g id="Doodle"><path class="cls-1" d="M149.86,88.79c-5.19-7.92-16.34-11.61-24.89-14.64a20,20,0,0,0-7.62-7.33c-8.33-4.43-18.36-6-27.58-7.47-1-9.21-2.6-18.4-4-27.51-.91-5.73-1.82-11.47-2.91-17.17C82,10.11,80.9,5.33,76.74,2.61,71.62-.73,64.69.05,58.87.15,52.78.27,46.67.23,40.59.4c-8,.21-11.09,7.66-10,15,1,6.68,6,8.05,11.89,8,3.82,0,7.64-.14,11.46-.2,1.27,0,3.39-.41,4.61,0,2.48.85,2.69,4.56,3.09,6.72,1.68,8.89,3,17.85,3.93,26.85-7.83-.49-16.4-1-23.91,1.32a22.9,22.9,0,0,0-8.66,5h-.15C24.67,64,15.14,64.88,8,69.43.65,74.14,0,83.21,0,91.24,0,94.74-.18,98.9,1.76,102a17.83,17.83,0,0,0,5.22,5q.9,42.56,3,85.06c.67,13.18,1.28,26.38,2.19,39.54.71,10.24,6.26,16.84,14.91,22.07,19.05,11.53,47.13,14.92,67.85,6.14,9.19-3.9,15.28-10,18.53-19.47,3.48-10.15,5.6-21,7.87-31.5,6.3-29,13.27-57.93,19.4-87,3.19-1.36,6-3.28,7.53-6.13,2.16-3.91,2.38-9.71,3-14.07S152.4,92.65,149.86,88.79ZM11,77.25c1.29-2.25,3.83-3.77,6.8-4.84a53.05,53.05,0,0,1,9.32-1.8c-.3.55-.59,1.1-.86,1.67-3.07,6.56,2.88,10.28,8.26,12.45,8.35,3.35,17.47,5.21,26.3,6.71a228.36,228.36,0,0,0,47.63,3.45c7-.29,23.17-.24,20.34-11.31-.08-.3-.17-.6-.25-.91l1.33.5c7.94,3.68,18.78,10.27,8.34,15.27s-23.77,5-35,5.13a230.2,230.2,0,0,1-44.16-3.69C45.24,97.36,30.34,94.15,18,87.12,14.86,85.33,8.51,81.68,11,77.25ZM45.28,65a30.43,30.43,0,0,1,5.39-.66,136.53,136.53,0,0,1,15.67,0l.06.62-1.15-.26a2,2,0,0,0-1,3.78,69.43,69.43,0,0,0,14.61,3.84c4,.62,8.66,1.51,12.47,0a1.79,1.79,0,0,0,0-3.42c-.28-.12-.57-.2-.86-.3a3.56,3.56,0,0,0,.07-.94c0-.18,0-.36,0-.54q6.87,1.21,13.63,3c2.85.76,7.35,1.44,9.65,3.39,1.14,1,2.08.47,0,1.56-1.19.63-3.27.55-4.58.64-2.37.17-4.77.27-7.14.36a161.24,161.24,0,0,1-21.53-.85,172.29,172.29,0,0,1-21.78-3.47c-4.38-1-9.62-1.71-13.68-3.69C42,66.44,42.56,65.63,45.28,65Zm38.28,2.57c-1.38-.06-2.76-.11-4.07-.26-2-.23-4.06-.56-6.07-.93a.85.85,0,0,0,0-.16Q72.27,52.69,70.2,39.31c-.8-5.32-.9-13.27-4-18.42,1.57-.31,3.13-.67,4.7-1.07A33,33,0,0,1,76.6,19c.78,4.3,1.49,8.62,2.18,12.94C80.65,43.71,82.8,55.62,83.56,67.53ZM74.18,10a13.17,13.17,0,0,1,1.67,4.9c-3-.08-6.48,1-9.52,2.2,1.07-1.28,2.3-2.49,3.29-3.53A33.62,33.62,0,0,1,74.18,10ZM70.43,7.46a26.53,26.53,0,0,0-4.37,4.18c-.76.88-1.7,1.95-2.53,3.12a27,27,0,0,1,1.28-8A24.43,24.43,0,0,1,70.43,7.46ZM48.71,16.38c-2.67.05-5.36.15-8,.09-3.6-.08-4.46-3.62-2.88-6.95,1.36-2.85,4-2.18,6.76-2.2,3,0,6.06-.09,9.09-.14,2.21,0,4.61-.23,7-.34a26.3,26.3,0,0,0-.59,9.57C56.45,15.61,52,16.31,48.71,16.38Zm-10.2,51c1.82,4,12.07,6.28,14.62,6.91a181.28,181.28,0,0,0,47.06,5.61c2.34-.05,14.9.19,18.34-3.25a9.35,9.35,0,0,1,.85,1.45c.75,1.58,3.46,6.43,3.19,7.81,0-.11-2.54.79-3.67,1a51.36,51.36,0,0,1-7.82.93,178,178,0,0,1-20.79,0c-16.17-.83-32.45-3.06-48-7.72-3.14-.94-10.48-2.06-8.92-6.29A15.66,15.66,0,0,1,38.51,67.38ZM71.15,257.54a81.88,81.88,0,0,1-34.93-6.92,41.89,41.89,0,0,1-12.43-8.15c-4-4.07-4.58-8.27-4.84-13.72-.59-12.25-1.44-24.5-2.06-36.75q-.9-17.83-1.56-35.68c18.36,37.79,53.56,66.65,88.45,88.59a19.86,19.86,0,0,1-2,2.44C94.43,255.21,81.44,257.41,71.15,257.54Zm47.06-67c-1.62,7.59-3.16,15.2-4.88,22.77-18.78-13.42-37-27.58-53-44.27A276.3,276.3,0,0,1,37,141.15c-3.91-5.33-7.8-10.71-11.37-16.27-2.45-3.84-4.67-7.83-6.95-11.77A146.06,146.06,0,0,0,37.06,119a254.28,254.28,0,0,0,61,8.29,153.08,153.08,0,0,0,29.15-2.14c1.81-.33,3.9-.68,6-1.14C128.46,146.28,123,168.35,118.21,190.59Zm13.34-73.32c-19.19,4.6-39.43,3.63-58.88,1.43a235.78,235.78,0,0,1-30.18-5.38c-9.07-2.25-18.43-4.72-26.71-9.15-4.39-2.35-8.19-4.23-8.81-9.53a40.16,40.16,0,0,1,.39-11.79c2.34,4.6,7.89,7.46,12.32,9.57A131.32,131.32,0,0,0,45.11,101a234.91,234.91,0,0,0,57.38,6.55,161.47,161.47,0,0,0,23.86-1.78c5.55-.89,11.82-2.07,16.5-5.4a14.32,14.32,0,0,0,2-1.71,48.13,48.13,0,0,1-2.18,12.55C141.22,115.37,135.38,116.35,131.55,117.27Z"/><path class="cls-1" d="M123.92,137c-5.49,21-10.9,42.28-14.92,63.64a1.29,1.29,0,0,0,2.49.68c5.87-20.92,10.44-42.39,14.84-63.66C126.65,136.14,124.33,135.47,123.92,137Z"/><path class="cls-1" d="M22.76,227.69a16.28,16.28,0,0,0,2.72,12.54c.69.93,2.49.76,2.41-.65A36.77,36.77,0,0,0,25,227.4,1.21,1.21,0,0,0,22.76,227.69Z"/><path class="cls-1" d="M23,222.67v0a1.81,1.81,0,0,0,0,.23l0,0a2.45,2.45,0,0,0,.08.29.16.16,0,0,0,0,.07,1.63,1.63,0,1,0,1-2.45A1.61,1.61,0,0,0,23,222v0s0,0,0,.07l0,.14A1.85,1.85,0,0,0,23,222.67Z"/><path class="cls-1" d="M38.05,107.92a134.87,134.87,0,0,1-14.74-4.53c-1.44-.54-2,1.72-.63,2.28a80.24,80.24,0,0,0,14.77,4.44C38.86,110.38,39.48,108.28,38.05,107.92Z"/><path class="cls-1" d="M73.88,27.34c1.16,7.41,2.43,14.8,3.52,22.23.17,1.22,2.21.93,2.15-.29a113.44,113.44,0,0,0-3.26-22.61C75.88,25.08,73.63,25.78,73.88,27.34Z"/></g></g></svg>