<svg xmlns="http://www.w3.org/2000/svg" viewBox="0 0 272.28 174.05"><defs><style>.cls-1{fill:#d14d00;}</style></defs><g id="Layer_2" data-name="Layer 2"><g id="Doodle"><path class="cls-1" d="M132.68,140a33.76,33.76,0,0,1-6.59.07c-2.24-.3-4.15-1.4-6.32-1.88a1.3,1.3,0,0,0-1.25,2.15c3.32,3.72,10.57,4,14.78,2A1.24,1.24,0,0,0,132.68,140Z"/><path class="cls-1" d="M129,104.2a1.68,1.68,0,0,0,0,3.35A1.68,1.68,0,0,0,129,104.2Z"/><path class="cls-1" d="M116.54,97.79a1.75,1.75,0,0,0,0,3.5A1.75,1.75,0,0,0,116.54,97.79Z"/><path class="cls-1" d="M114.27,107.32a1.42,1.42,0,1,0,1.41,1.42A1.44,1.44,0,0,0,114.27,107.32Z"/><path class="cls-1" d="M137.93,97a30.14,30.14,0,0,0-12.63-8.41c-7.77-3.85-16.46-5-23.94,1a26,26,0,0,0-9.11,16c-1,6.87,2.65,12.22,7.43,16.8a27.77,27.77,0,0,0,33.7,3.6A19,19,0,0,0,137.93,97Zm-21.64,26c-5.67-.5-10.2-3.65-13.86-7.84-4.67-5.34-3.81-11,0-16.6a14.08,14.08,0,0,1,13.54-6.51,34.24,34.24,0,0,1,4.66,1.48c2.07.9,4.07,1.94,6.09,2.94,3.41,2,6.53,4.78,8.16,8.37C140.17,116.61,126.14,123.87,116.29,123Z"/><path class="cls-1" d="M123,98.77a1.61,1.61,0,1,0,1.61,1.61A1.63,1.63,0,0,0,123,98.77Z"/><path class="cls-1" d="M123,103.84a1.77,1.77,0,0,0-2.17.71l0,.07A1.74,1.74,0,1,0,124,106l0-.07A1.76,1.76,0,0,0,123,103.84Z"/><path class="cls-1" d="M122.77,116.61a1.62,1.62,0,1,0-2,2l-.18-.06a1.56,1.56,0,0,0,2.12-2.12A1.21,1.21,0,0,1,122.77,116.61Z"/><path class="cls-1" d="M172.33,75.09h0a1.91,1.91,0,0,0,1.84-1.4v0a2,2,0,0,0-.71-2.07,1.94,1.94,0,0,0-2.39,0,2,2,0,0,0-.7,2.07A2,2,0,0,0,172.33,75.09Z"/><path class="cls-1" d="M179.71,76.15a1.61,1.61,0,1,0-1.6-1.61A1.63,1.63,0,0,0,179.71,76.15Z"/><path class="cls-1" d="M115.6,135.25l-.12-.05a1.9,1.9,0,1,0-1.92,3.28l.11.08a1.92,1.92,0,1,0,1.93-3.31Z"/><path class="cls-1" d="M166,73.65a2,2,0,0,0-2,.68,1.89,1.89,0,0,0-.14,2.1.75.75,0,0,0,.07.12,2,2,0,0,0,3.23.2,1.92,1.92,0,0,0,.35-1.71,1.94,1.94,0,0,0-1.37-1.37Z"/><path class="cls-1" d="M185.88,82.56A1.85,1.85,0,1,0,184,80.71,1.87,1.87,0,0,0,185.88,82.56Z"/><path class="cls-1" d="M81.58,102.56c1.3.42,3.08.68,3.82-.76a1.37,1.37,0,0,0-.07-1.49,2.14,2.14,0,0,0-2-.93A10.47,10.47,0,0,1,80,98.5a1.3,1.3,0,0,0-1.45,1.9A5.81,5.81,0,0,0,81.58,102.56Z"/><path class="cls-1" d="M164.71,70.18c2.54,0,2.54-3.94,0-3.94S162.17,70.18,164.71,70.18Z"/><path class="cls-1" d="M90,122.83c-4-.87-8,.56-11.4-2.09-1-.75-2.43.72-1.7,1.69,1.67,2.25,4.06,3.21,6.81,3.62a42.94,42.94,0,0,1,5.77.74c1.92.56,3.12,2.07,5,2.55.75.19,1.8-.39,1.69-1.29C95.84,125,92.85,123.45,90,122.83Z"/><path class="cls-1" d="M102.3,78.43c1.66.1,3.2-.51,4.85-.49,2.86,0,4.46,2.23,6.83,3.52a1.46,1.46,0,0,0,2-2,10,10,0,0,0-6.78-5.37,8.6,8.6,0,0,0-4.24.37c-2.69.73-4.67.54-6.87-1.42-1-.94-2.87.27-2,1.57A7.89,7.89,0,0,0,102.3,78.43Z"/><path class="cls-1" d="M177.38,84.34a1.8,1.8,0,0,0,0-3.6A1.8,1.8,0,0,0,177.38,84.34Z"/><path class="cls-1" d="M104.37,30.71a34.13,34.13,0,0,1-7.25,5c-1,.49-.55,2.22.56,2.09a11.13,11.13,0,0,0,8.55-5.69A1.19,1.19,0,0,0,104.37,30.71Z"/><path class="cls-1" d="M96.71,12.31h.13a1.51,1.51,0,0,0,0-3h-.13a1.52,1.52,0,1,0,0,3Z"/><path class="cls-1" d="M101.85,12.48c5.1,2.09,7.05,7.18,10.34,11.15.81,1,2.24-.09,2-1.16-1.29-5.75-5.89-11-11.7-12.3A1.2,1.2,0,0,0,101.85,12.48Z"/><path class="cls-1" d="M123.05,46.43a83.51,83.51,0,0,0,9.38,4.18c1.28.43,2-1.48.9-2.14a79.4,79.4,0,0,0-9-4.21C122.87,43.63,121.57,45.72,123.05,46.43Z"/><path class="cls-1" d="M111.74,53.78c-4.06,4.76-4.06,15.67,3.55,16.8a8.06,8.06,0,0,0,1.47.08c.41,3.12,3,6.12,6,7.48,5.44,2.54,11.09-.78,14.47-5.13a13,13,0,0,0,1.47-14.37c-2.66-4.87-8-7.7-13-4.44a2.09,2.09,0,0,0-.94,1.65C121.54,51.69,115.76,49.06,111.74,53.78Zm4.68,4.43c.67-1.19,1.58-2,2.85-1.29,1.74.93,2.9,2.9,4.57,4,1.25.79,3.27-.56,2.67-2q-.17-.39-.36-.78a2,2,0,0,0,1.17,0c6.37-2.05,8.38,7.32,5.43,11.1-1.62,2.08-4.29,4-7,2.94a4.59,4.59,0,0,1-2.61-2.67,2.78,2.78,0,0,0,.86-.67c2.36-2.79-1.7-5.32-4.18-5.28-1.24,0-3.1,1-3.84,0C115.1,62.32,115.76,59.37,116.42,58.21Z"/><path class="cls-1" d="M22.19,109.1c-1.48-.19-1.83,2.35-.36,2.62,11.59,2.12,21.94,10.78,24.35,22.65.3,1.49,2.39,1,2.5-.34C49.76,120.28,34.05,110.62,22.19,109.1Z"/><path class="cls-1" d="M257.69,129c-10.67-10.15-22.32-19.34-33.91-28.42q-10-7.83-20.22-15.44c0-.07,0-.14,0-.22.86-6.29-8.42-13.4-12.5-17a97,97,0,0,0-20.64-14.39,13.6,13.6,0,0,0-12.1-.31c-9-6-18.15-12.5-27.89-17.16A23.36,23.36,0,0,0,122,33.68c2.32-4.44,2.35-9.8,1.12-14.64C119.57,5.16,107.58-1.61,93.77.33c-14,2-25.75,8.23-33.83,19.85C55.81,26.12,52,31.52,46.1,35.9,40.51,40.07,34.25,43.73,30,49.35c-4.63,6-4.8,13.11-5.88,20.33C22.74,78.63,16.28,84.87,11,91.82c-5,6.55-9.58,13.69-10.71,22-1.07,7.93,1,16,4.18,23.24,3.15,7.05,8.13,13.14,15.17,16.57,6.32,3.08,13.3,3.9,20.21,4.55,38.58,3.67,76.57,12.54,115.29,15.1,19.94,1.32,40,.78,59.88-.45,9.82-.6,19.63-1.37,29.44-2.17,7.22-.58,16.14-.27,22.06-5.15C280,154.37,266.76,137.64,257.69,129ZM242,128c1.31-.84,3.08-.15,4.14.79a4.9,4.9,0,0,1,1.38,4.12,1.21,1.21,0,0,1-2.37.32,6.75,6.75,0,0,0-1-2.18c-.5-.63-1.06-.59-1.8-.71C241.15,130.17,241.16,128.55,242,128ZM157.73,62.54a15.74,15.74,0,0,1,1.06-1.24c5.06-5.22,10.58-.67,15.5,2.49a96.16,96.16,0,0,1,11.89,9q2.7,2.42,5.21,5c.93,1,5.06,4.58,5,5.81-.09,2.61-11.34,4.89-13.4,5.28-5.19,1-10.94,1-15.6-1.84-4.38-2.65-9.82-8.13-11.18-13.15C155.11,69.75,156,66.07,157.73,62.54ZM122.34,40.41c3.93.69,7.41,3,10.77,5,6.61,3.95,13.1,8.08,19.54,12.3a16.59,16.59,0,0,0-3.58,11.87,16.54,16.54,0,0,0,.19,4.7c1.35,7.3,7.36,13.61,13.22,17.78,6.77,4.83,15.39,5.08,23.26,3.34,3.48-.77,9.56-2.1,13.66-4.8,12.48,9.31,24.8,18.84,36.78,28.79-3.12,1.86-4.24,6.82-4,10.47.33,5.61,3.14,10.68,8.64,12.65,5.19,1.85,11.93-.1,14.68-5.1a6.42,6.42,0,0,0,.3-.66,51,51,0,0,1,6,6.86c.17,2.93-6,3.76-8.3,4a23.44,23.44,0,0,0-9,2.79c-4,2.1-7.62,4.35-12.29,4.24-4.48-.1-8.77-1.91-13-3.31-7.5-2.5-14.41-3.29-22.05-.88-8.5,2.68-16.43,5.73-25.4,2.79-8-2.61-12.47-10.36-21.2-11.27-8.45-.88-16.19,3.54-24.53,3.36-8.19-.18-13-8.59-21.62-7.41-5.85.8-13.79,9.09-19.29,4.92-2.4-1.81-3.89-4.63-5.84-6.87a20,20,0,0,0-8.23-5.56c-3.16-1.21-7.63-1.22-10.41-3.13-2.44-1.68-1.31-4.13-.4-6.51s2.09-4.55,2.83-6.94c1.09-3.51,1.2-7.25,2-10.82C67,94.49,74.16,90.22,79.58,84c4.84-5.56,6.55-12,8.53-18.94,2.52-8.84,7.53-13.57,15.52-17.68,1.75-.9,3.55-1.78,5.34-2.71a3.11,3.11,0,0,0,.78-.38l.41-.25c1.11-.6,2.21-1.23,3.27-1.9A13.92,13.92,0,0,1,122.34,40.41ZM265,155.23c-2,9.58-17.08,8.22-24.47,8.81-9.48.76-19,1.48-28.47,2a462.13,462.13,0,0,1-56.93.27c-37.49-2.48-74.24-11.12-111.58-14.75-7.31-.72-15.12-1-21.71-4.62C14.17,142.77,10.09,134.5,8,126.3c-4-15.9,5.59-25.6,14-36.69,1.1-1,2.24-2,3.44-2.86,4.09-3,8.54-3.89,13.41-4.9a1.4,1.4,0,0,0,0-2.69,17.09,17.09,0,0,0-10.89,1.45c3.55-6.57,2.71-14,4.59-21,2-7.51,8.75-11.73,14.72-16,1.06-.76,2.1-1.54,3.11-2.33,1.66-.91,3.37-1.76,5.15-2.52,5-2.1,10.34-2.66,15.3-4.61a1.42,1.42,0,0,0-.38-2.77A26.7,26.7,0,0,0,59.3,32.88C60.09,32,60.87,31,61.61,30c3.75-5.14,6.83-10.85,12-14.8C83.43,7.6,104.9,1.43,113.3,13.86c3.71,5.49,5.7,13.77.71,19s-12.38,7.33-18.34,10.94A29.33,29.33,0,0,0,83,58.31c-2.77,7-3.26,14.83-8.36,20.78-4.42,5.17-10.39,9.07-13.74,15.14-3.46,6.27-2.76,13.62-5.43,20.12-1.68,4.09-4.2,8.53-3,13.11,1.47,5.8,7.44,7,12.43,8.33,3.71,1,6.91,2.17,9.49,5.13,2,2.24,3.48,4.82,5.72,6.81,4.47,4,9.88,4,15.17,1.66,3-1.34,5.95-3.72,9.2-4.4,4.66-1,7.76,2.36,11.48,4.52,6.57,3.8,13.76,2.94,20.85,1.27,4-.94,8-2.17,12.16-2,5.38.26,8.58,4,12.69,7a31.89,31.89,0,0,0,20.63,5.61c7.92-.5,14.76-4.84,22.53-5.59,8.13-.78,15.52,4,23.34,5.35,7.65,1.29,13.15-1.41,19.74-4.86,5.3-2.78,12.72-1.09,17.14-5.52A11.4,11.4,0,0,1,265,155.23Z"/><path class="cls-1" d="M16.22,124.3a1.23,1.23,0,0,0,2.12,1.24,3.21,3.21,0,0,1,.67-.7c-1.08,3.68,2.39,9.51,4.74,11.48a1.3,1.3,0,0,0,2-1.57,54.77,54.77,0,0,1-2.34-5.66,6.11,6.11,0,0,1-.1-4.08,25.06,25.06,0,0,1,6.54,6c2.94,3.75,4.84,8.25,2.86,12.94a1.34,1.34,0,0,0,2.1,1.62C46.53,135.45,21.07,112.87,16.22,124.3Z"/><path class="cls-1" d="M70.09,76.41c2.65-2.11,5.16-6.45,4.08-10a1.26,1.26,0,0,0-2.28-.3,38.29,38.29,0,0,0-1.63,4.34A31.28,31.28,0,0,1,68,74.76C67.08,76.17,69,77.31,70.09,76.41Z"/><path class="cls-1" d="M173.61,151.76c3.84,1.29,8.38,1.6,12.18,0,1.12-.47,1.16-2.43-.32-2.34a47.52,47.52,0,0,1-11.18-.15A1.29,1.29,0,0,0,173.61,151.76Z"/><path class="cls-1" d="M188.24,102.44c1.75,1.17,3.64,1,5.63.71a9.8,9.8,0,0,1,3.95-.29,14.35,14.35,0,0,0,3.15.77,1.44,1.44,0,0,0,1.38-1.8c-.81-2.15-2.89-2.9-5.08-3.06a8.73,8.73,0,0,0-3.58.51c-1.56.56-2.77,1.56-4.49.89C187.82,99.64,187.14,101.7,188.24,102.44Z"/><path class="cls-1" d="M184.32,141.81c4.7-.71,7.71,1.72,12.1,2.48,4.05.69,8.47-.33,12.48-1,1.35-.24,1-2,0-2.4a12.47,12.47,0,0,0-6.41-.66,17.73,17.73,0,0,1-9.14-1.07c-3.83-1.48-6.35-1.55-10.06.25C181.82,140.09,183,142,184.32,141.81Z"/><path class="cls-1" d="M204.33,132.5a12.65,12.65,0,0,0,6,2.74c3.88.45,8-1.77,10.19-4.9s2.37-7.58-.87-10.23a9.77,9.77,0,0,0-3.91-1.82c1-3.44-1.63-8.09-5.22-9.68-6.34-2.8-16.32-2.5-21.12,3C180.27,122.12,194.76,140.82,204.33,132.5Zm-11-15.68c1.72-3.48,5.79-3.9,9.27-3.95a13.18,13.18,0,0,1,5.21.73c1.77.74,2.22,1.72,2.17,2.91a33.65,33.65,0,0,0-4.75-1.81,2.09,2.09,0,0,0-2,3.46c2,2.38,5.27,3,8,4.33,1.65.78,4.93,1.87,4.09,3.88-1,2.46-4,2.67-5.85,1.52-2.9-1.79-5.44-4-8.57-5.35a1.92,1.92,0,0,0-2.61,2.6,15.51,15.51,0,0,0,1.45,2.55,4.65,4.65,0,0,1-4.05-1.06C193.19,124.3,191.79,120,193.37,116.82Z"/><path class="cls-1" d="M228.21,152.14c3.13.42,6.9.12,9.58-1.72a1.5,1.5,0,0,0-.35-2.71c-1.63-.39-2.83.44-4.33,1a10.79,10.79,0,0,1-4.9.66C226.4,149.14,226.46,151.91,228.21,152.14Z"/><path class="cls-1" d="M164.14,138.68c6.75,1,12.88-2.09,14-9.33,1-7.08-4.62-13.36-11.1-15.34a13,13,0,0,0-13.81,4.52,9.14,9.14,0,0,0-3,7.16C150.23,133.23,157.48,137.7,164.14,138.68Zm-2.59-15.62c2.29-2.64,5.69-.42,7.14,1.87s1.71,6.41-1.7,6.8a1.28,1.28,0,0,1-1.22-1.6c.28-1.16.76-2,.18-3.12-.46-.93-1.59-2.49-2.76-1.83A1.36,1.36,0,0,1,161.55,123.06Z"/><path class="cls-1" d="M139.1,88c2.94,2.8,7.31,2.63,10.28,5.47a1.24,1.24,0,0,0,2.06-1.2c-1-5-7.47-3.52-10.5-6.11C139.69,85,137.88,86.78,139.1,88Z"/><path class="cls-1" d="M134.08,132.66c-1,.87.09,2.32,1.21,2.08,4.15-.88,7.36,1.95,11.39,1.89a1.38,1.38,0,0,0,1-2.32C144.73,130.89,137.59,129.63,134.08,132.66Z"/><path class="cls-1" d="M157.66,104.55c1.77,1.33,3.87,1.15,6,.81,1.57-.25,2.93-.62,4.44,0a25.22,25.22,0,0,1,3.64,2.49c.92.65,2.48-.44,2-1.54a7.7,7.7,0,0,0-5.52-4.83c-3-.69-6.7,2.58-9.26.85C157.56,101.46,156.39,103.6,157.66,104.55Z"/></g></g></svg>