<svg xmlns="http://www.w3.org/2000/svg" viewBox="0 0 237.13 133.71"><defs><style>.cls-1{fill:#d14d00;}</style></defs><g id="Layer_2" data-name="Layer 2"><g id="Doodle"><path class="cls-1" d="M211.18,14c-12.38-2.14-24.51,1.4-36.77,2.61-14.32,1.42-29,.12-43.14-2.15-13.4-2.16-26.62-5.31-39.8-8.56C79,2.82,66.32-.55,53.37.08,41.79.64,32,3.92,25.62,14A41.26,41.26,0,0,0,19.9,41.76a35.85,35.85,0,0,0-12.7,9.1C-1.82,61-2,74.48,4.71,86c11.88,20.29,36.14,31.73,57.72,38.36,23.81,7.31,49.25,10.06,74.1,9.21,24.21-.83,51.12-4.42,70.93-19.47,8.5-6.46,16.58-15.43,18.59-25.76C238.58,64.76,247.86,20.32,211.18,14Zm19,27.09c1.75,11.11-.92,23-5.26,33.67a31.76,31.76,0,0,0-2.73-5.86,3.53,3.53,0,0,0,.63-1.17c3.27-10.26,1.39-21.3-5.89-29.4-8.5-9.48-20.55-11.09-32.58-10-.54-.69-1.1-1.37-1.69-2a24.85,24.85,0,0,0-4-3.55c5.73-.76,11.43-1.67,17.24-2.23C211.79,19,227.47,23.64,230.21,41.08ZM193.59,52A35.44,35.44,0,0,0,193,48.4a56.18,56.18,0,0,0-4.53-13.52c8.36-.32,16.49,1,22.75,7.36a22.38,22.38,0,0,1,5.87,20.1A38.07,38.07,0,0,0,193.59,52ZM181,47.79a19.13,19.13,0,0,0-3.39-9.65c-3.78-5.24-10.27-8.78-16.8-7-6.23,1.68-10.59,6.88-13.94,12.09-7.44,11.57-15,29.12-31.94,26.36-19-3.12-15.31-28.87-26.42-40.13C83.07,24,76,22.84,69.4,27.11c-7.85,5.12-9.79,13.81-13.65,21.72-1.13,1.86-2.84,3.76-5.11,2.61-2-1-1.44-2.3-1-4.06a63,63,0,0,1,3-8.88c2.3-5.48,5.45-10.91,10-14.84,11.56-10,27.61-3.31,34.37,8.9,5.45,9.82,5.47,31.86,20.84,32.29,14.48.4,19.81-17.92,26.73-27.27,4.92-6.64,12.27-12.46,21-11.88s14.25,7.47,17.35,15a54.84,54.84,0,0,1,2.89,9.72c.36,1.73,1,3.94.68,5.72-.4,2.36-4.5,6.16-6.39,2.82-.74-1.3.5-4.67.69-6A24.44,24.44,0,0,0,181,47.79ZM148,55.69c3.33-6.12,6.68-13.17,12.48-16.37,5-2.76,10.27.55,12.19,5.51,1.19,3.07.62,5.84.12,8.68A175.58,175.58,0,0,1,148,55.69Zm-58.32-8C82,45.87,74.37,44,66.7,42.09c3.12-6.56,7.5-12.68,13.85-9.42C85.74,35.34,88,41.53,89.7,47.66ZM46,35.16c-.38.9-.82,1.89-1.27,2.93a63,63,0,0,0-12.59.36c.06-6,4.75-11.12,10-13.76a22.17,22.17,0,0,1,11.3-2A51.25,51.25,0,0,0,46,35.16Zm81.61,15.76a26.41,26.41,0,0,1-2.9,3.29h0c-4.25-.53-8.48-1.2-12.7-1.93a39.35,39.35,0,0,1-2.25-5.94c-1.34-4.22-2.48-8.39-4-12.38a264.18,264.18,0,0,0,29.91,4C133,42.31,130.66,46.84,127.57,50.92Zm-95.67-34C38.06,7.75,48.61,6.55,59,6.91c11.73.41,23.11,3.75,34.44,6.52C105,16.27,116.69,19,128.49,20.9c6.7,1.11,13.44,2,20.21,2.51A35,35,0,0,0,141.08,30c-.38.44-.74.88-1.09,1.33a258.13,258.13,0,0,1-38.17-5.1,33.69,33.69,0,0,0-2.29-3.16A31.72,31.72,0,0,0,79.78,11.57a26.34,26.34,0,0,0-19.93,5c-8.18-1.3-16.49-1.18-23.62,3.64a25.44,25.44,0,0,0-9.71,11.64A33.21,33.21,0,0,1,31.9,16.94Zm167.68,94.33c-17.79,11.45-40.32,14.47-61.06,15.36a229.12,229.12,0,0,1-63.18-5.87c-18.49-4.45-37.41-11.49-52.1-23.91-9.88-8.36-21.09-22-14.83-35.62,6-13,20.79-16.77,33.89-16.4-.93,3.72-1,7.45,1.22,10.32,5.28,6.79,13.88,4.42,18.17-1.72a3.81,3.81,0,0,0,.54-.81,4.06,4.06,0,0,0,.38-.83c.41-.93.86-2.06,1.36-3.31,9.27,2.25,18.5,4.6,27.8,6.7.27.86.55,1.69.85,2.45,5.63,14.36,19.2,23.62,34.62,18,6.9-2.51,12.23-7.29,16.51-13.08a174.78,174.78,0,0,0,28.91-2.11c1.55,5.88,8.6,8.77,14.2,6.23a10.93,10.93,0,0,0,6.49-7.86c11.9,1.09,23.06,8.27,25.91,20.58C222.4,93,209.94,104.6,199.58,111.27Z"/><path class="cls-1" d="M124.19,118.55c-11.82-1.18-23.68-.89-35.46-2.69s-23.28-4.44-34-9.58c-1.53-.74-2.88,1.53-1.35,2.29,21.36,10.57,47,15.51,70.77,12.7A1.36,1.36,0,0,0,124.19,118.55Z"/><path class="cls-1" d="M208,68.77c-1.29-.94-2.78,1.09-1.67,2.17,5.42,5.28,6.39,12.38,6,19.57a1.25,1.25,0,0,0,2.32.62C219,83.18,214.77,73.69,208,68.77Z"/><path class="cls-1" d="M14,74.38c-.74-2.8-.66-5.64-1.05-8.49-.15-1.12-1.85-1.2-2.34-.3C7.48,71.3,11,79,14.2,83.93a1.28,1.28,0,0,0,2.33-1C15.77,80.07,14.75,77.27,14,74.38Z"/></g></g></svg>