<svg id="Layer_1" data-name="Layer 1" xmlns="http://www.w3.org/2000/svg" viewBox="0 0 330 440"><defs><style>.cls-1{fill:#f05023;}.cls-2{fill:#ae3324;}.cls-3{fill:#da912d;}.cls-4{fill:#e1b541;}.cls-5{fill:#da8f2d;}.cls-6{fill:#785e65;}.cls-7{fill:#db912e;}.cls-8{fill:#031f1e;}.cls-9{fill:#e1b53e;}.cls-10{fill:#c28539;}.cls-11{fill:#e2b740;}.cls-12{fill:#db8f2c;}.cls-13{fill:#e0a637;}.cls-14{fill:#e0b440;}.cls-15{fill:#d88e2d;}.cls-16{fill:#e4b63e;}.cls-17{fill:#e1a637;}.cls-18{fill:#dc9431;}.cls-19{fill:#524a60;}.cls-20{fill:#ead154;}.cls-21{fill:#dc9330;}</style></defs><path class="cls-1" d="M229.59,406.78c1.71,0,3.41-.13,5.12-.16,3.21-.05,6.42,0,9.63-.12a3.24,3.24,0,0,1,2.71,1.15,13.72,13.72,0,0,1,.93,1.09,20,20,0,0,1,3.86,12.67c-.89,0-1.78,0-2.67,0-6.11.11-12.21.23-18.31.32-4.59.06-9.19.08-13.79.09-3.22,0-6.44,0-9.67-.06a.78.78,0,0,0-.6-.74c-.66-.15-1.33-.3-2-.47a26.69,26.69,0,0,1-7.5-3.28A22.62,22.62,0,0,1,192,412.2a9.84,9.84,0,0,1-2.34-4.73l2.94-.19c.68,0,1.37.09,2,.08,4.6-.1,9.19-.23,13.79-.31C215.46,406.94,222.52,406.87,229.59,406.78Z"/><path class="cls-2" d="M209.67,308.09a34.27,34.27,0,0,1,.56,9,13.35,13.35,0,0,1-4.45-.62,30,30,0,0,1-7.34-2.6c-.46-.24-.94-.63-1.53-.26-.06.12-.18.24-.18.36a14.22,14.22,0,0,0,.23,4.69,4.52,4.52,0,0,1,.11,1.43q0,14.92,0,29.86a13.81,13.81,0,0,1-4.41-.85,7.87,7.87,0,0,1-1.69-4.95c-.05-1.16-.07-2.33-.07-3.49q0-14.37.05-28.74c0-3.29.06-6.57,0-9.85a9,9,0,0,1,1.76-5.54l.31-.37,0,0,.38-.37,0,0,.72-.5h0l.85-.39h0l.39.14c.14,1.48.35,3,.42,4.45a2.16,2.16,0,0,0,1.2,2c1.43.79,2.85,1.6,4.3,2.36,1.75.91,3.54,1.76,5.31,2.66C207.65,307,208.66,307.54,209.67,308.09Z"/><path class="cls-1" d="M210.28,358.41c.08,1,.21,1.91.24,2.86.07,2.74.11,5.48.15,8.21.09,5.88.19,11.77.25,17.65,0,1.36-.13,2.73-.19,4.09-2.5-.1-5-.22-7.51-.31-1.35-.05-2.71-.05-4.07-.06q0-4.74,0-9.46c0-.61-.07-1.23-.12-1.84-.08-.81-.22-1.62-.26-2.43-.18-4.16.18-8.32-.35-12.5a62.9,62.9,0,0,1-.06-8,2.17,2.17,0,0,1,.09-.81,6.53,6.53,0,0,0,.29-2.84,8.07,8.07,0,0,1,.44-2.81l3.64-.17c.23.64.46,1.28.7,1.92a14.31,14.31,0,0,0,2.25,4.11A5.7,5.7,0,0,0,210.28,358.41Z"/><path class="cls-2" d="M207.4,421.75c3.23,0,6.45.06,9.67.06,4.6,0,9.2,0,13.79-.09,6.1-.09,12.2-.21,18.31-.32.89,0,1.78,0,2.67,0A8.28,8.28,0,0,1,251,426a1.19,1.19,0,0,1-1.12.76l-1.23,0-62.95.92c-2.33,0-4.66.12-7,.15-1.61,0-1.86-.17-2.35-1.71a10.38,10.38,0,0,1-.65-3.82c.82,0,1.65-.07,2.47-.07,6.59,0,13.18,0,19.77-.11,3.08,0,6.16-.23,9.24-.35Z"/><path class="cls-2" d="M199.15,350.15a8.07,8.07,0,0,0-.44,2.81,6.53,6.53,0,0,1-.29,2.84,2.17,2.17,0,0,0-.09.81,62.9,62.9,0,0,0,.06,8c.53,4.18.17,8.34.35,12.5,0,.81.18,1.62.26,2.43.05.61.12,1.23.12,1.84q0,4.73,0,9.46c-1.65.19-3.35-.11-5,.47l-3.18.09c-.07-1.78-.18-3.56-.23-5.34-.25-9.51-.67-19-.3-28.55a22.05,22.05,0,0,1,.85-5.88,4.67,4.67,0,0,1,1.33-2.5,13.81,13.81,0,0,0,4.41.85Z"/><path class="cls-1" d="M199.15,350.15l-2.09-.16q0-14.94,0-29.86a4.52,4.52,0,0,0-.11-1.43,14.22,14.22,0,0,1-.23-4.69c0-.12.12-.24.18-.36.59-.37,1.07,0,1.53.26a30,30,0,0,0,7.34,2.6,13.35,13.35,0,0,0,4.45.62c0,1.69.1,3.38.09,5.07,0,2.78,0,5.56-.08,8.34-2.72-.39-4.6.86-5.9,3.12a15.39,15.39,0,0,0-1.1,2.41,22.39,22.39,0,0,0-1,10.08c.15,1.28.37,2.55.56,3.83Z"/><path class="cls-2" d="M207.4,421.75l-.2,0c-3.08.12-6.16.31-9.24.35-6.59.08-13.18.07-19.77.11-.82,0-1.65,0-2.47.07a28.14,28.14,0,0,1,.35-10.78,20.82,20.82,0,0,1,.81-2.54,2,2,0,0,1,2.15-1.51c.82,0,1.64-.05,2.46-.08l2.64,0,5.48,0A9.84,9.84,0,0,0,192,412.2a22.62,22.62,0,0,0,5.36,5.06,26.69,26.69,0,0,0,7.5,3.28c.66.17,1.33.32,2,.47A.78.78,0,0,1,207.4,421.75Z"/><path class="cls-1" d="M194.18,391.32c1.62-.58,3.32-.28,5-.47,1.36,0,2.72,0,4.07.06,2.5.09,5,.21,7.51.31.73.18,1.46.34,2.18.53,3.29.86,5.32,2.86,5.77,6.33a11.25,11.25,0,0,1,0,4.05,24.18,24.18,0,0,0-6-1c-5.67-.19-11.35-.07-17,0-.2,0-.41.06-.61.09l-.37-.17a7.31,7.31,0,0,1,1.36-.28c1.5,0,3,0,4.5,0a4.91,4.91,0,0,0,1.67-.12,3.58,3.58,0,0,0-.52-.47,19.63,19.63,0,0,1-3.94-2.51,28.15,28.15,0,0,1-1.88-2.11A5.12,5.12,0,0,1,194.18,391.32Z"/><path class="cls-2" d="M210.66,330.81a6.09,6.09,0,0,1,3.07,2.61,14.86,14.86,0,0,1,2.29,5,26.57,26.57,0,0,1,.38,12,13.31,13.31,0,0,1-1.53,4.24,14.45,14.45,0,0,1-1.25,1.58c-.26-.07-.6-.07-.77-.24a28,28,0,0,1-3-3.1,13.11,13.11,0,0,1-2.42-7.09,30.58,30.58,0,0,1,.29-8.59,13.86,13.86,0,0,1,1.93-4.91C210,331.87,210.34,331.34,210.66,330.81Z"/><path class="cls-3" d="M210.66,330.81c-.32.53-.63,1.06-1,1.57a13.86,13.86,0,0,0-1.93,4.91,30.58,30.58,0,0,0-.29,8.59,13.11,13.11,0,0,0,2.42,7.09,28,28,0,0,0,3,3.1c.17.17.51.17.77.24a4.88,4.88,0,0,1-3.34,2.1,5.7,5.7,0,0,1-4.54-2.4,14.31,14.31,0,0,1-2.25-4.11c-.24-.64-.47-1.28-.7-1.92-.19-1.28-.41-2.55-.56-3.83a22.39,22.39,0,0,1,1-10.08,15.39,15.39,0,0,1,1.1-2.41c1.3-2.26,3.18-3.51,5.9-3.12Z"/><path class="cls-4" d="M195,401.24c.2,0,.41-.08.61-.09,5.67-.12,11.35-.24,17,0a24.18,24.18,0,0,1,6,1c1.6,1.06,1.9,2.71,1.91,4.51a9.44,9.44,0,0,0,3.11.17c.95,0,1.91,0,2.86,0h3.06c-7.08.09-14.14.16-21.21.27-4.6.08-9.19.21-13.79.31-.68,0-1.37-.05-2-.08.45-.43,1-.31,1.56-.32l7,0,1.14-.06c-.34-.29-.47-.47-.63-.51a13.74,13.74,0,0,1-4.41-2.53A4.72,4.72,0,0,1,195,401.24Z"/><path class="cls-1" d="M194.18,391.32a5.12,5.12,0,0,0,1.63,4.24,28.15,28.15,0,0,0,1.88,2.11,19.63,19.63,0,0,0,3.94,2.51,3.58,3.58,0,0,1,.52.47,4.91,4.91,0,0,1-1.67.12c-1.5,0-3,0-4.5,0a7.31,7.31,0,0,0-1.36.28c-1.22.06-2.44.06-3.65.18-2.68.26-5.43.17-7.91,1.48a13.65,13.65,0,0,1-.08-5.29,5.85,5.85,0,0,1,3.93-4.83c1-.38,2.1-.58,3.15-.88.32-.09.63-.21.94-.32Z"/><path class="cls-1" d="M209.67,308.09c-1-.55-2-1.11-3-1.63-1.77-.9-3.56-1.75-5.31-2.66-1.45-.76-2.87-1.57-4.3-2.36a2.16,2.16,0,0,1-1.2-2c-.07-1.49-.28-3-.42-4.45l4.11-.1a10.64,10.64,0,0,1,4.54,2.62A16.61,16.61,0,0,1,209.67,308.09Z"/><path class="cls-5" d="M183.06,402.73c2.48-1.31,5.23-1.22,7.91-1.48,1.21-.12,2.43-.12,3.65-.18l.37.17a4.72,4.72,0,0,0,2.2,2.6,13.74,13.74,0,0,0,4.41,2.53c.16,0,.29.22.63.51l-1.14.06-7,0c-.54,0-1.11-.11-1.56.32l-2.94.19-5.48,0-2.64,0C181.28,405.6,181.53,404,183.06,402.73Z"/><path class="cls-6" d="M199.51,294.92l-4.11.1-.39-.14A5,5,0,0,1,199.51,294.92Z"/><path class="cls-6" d="M194.17,295.26l-.72.5Z"/><path class="cls-6" d="M195,294.88l-.85.39A.71.71,0,0,1,195,294.88Z"/><path class="cls-6" d="M193,296.2l-.31.37Z"/><path class="cls-6" d="M193.41,295.79l-.38.37Z"/><path class="cls-1" d="M53.53,386a4.1,4.1,0,0,1,.26-.77A21.35,21.35,0,0,1,61.61,377c.53-.32,1.09-.58,1.64-.85a4.15,4.15,0,0,1,4.09.17c6.1,3.26,12.25,6.43,18.39,9.61.79.41,1.6.77,2.41,1.16.46.29.9.61,1.38.86q4.73,2.48,9.46,4.93c1.64.84,3.3,1.64,5,2.46,3.15,1.67,6.3,3.33,9.44,5,.72.38,1.41.83,2.11,1.24-.63.51-1.24,1.05-1.9,1.53a21.48,21.48,0,0,1-10.86,3.81,15,15,0,0,1-3.48-.1c-1.94-.27-3.86-.71-5.8-1-.21,0-.46.22-.69.33-1.3-.59-2.63-1.13-3.9-1.78-5.3-2.72-10.57-5.48-15.85-8.21l-18.6-9.59C54.1,386.38,53.82,386.19,53.53,386Z"/><path class="cls-2" d="M161.17,298.59a3.27,3.27,0,0,1,1.16,2.33,8.57,8.57,0,0,1-.64,5q-9,18-18,36c-.58,1.16-1.25,2.29-1.94,3.39a5,5,0,0,1-2.56,2.27,6.39,6.39,0,0,1-4.44-.77,4.74,4.74,0,0,1,.85-2.5q6.65-13.09,13.31-26.18c.24-.49.59-.92.84-1.4a7.63,7.63,0,0,0,1.22-2.84c-.42,0-.76-.07-1.1-.07a30.1,30.1,0,0,1-9.09-1.2c-1.18-.33-2.38-.6-3.57-.89l.14-.39.18-.34a32.73,32.73,0,0,1,3.84-6.67l.37-.47.22-.33h9.88a21.21,21.21,0,0,0,4.49-.36,2.72,2.72,0,0,0,1.95-1.28c.53-.88,1.14-1.71,1.69-2.58A1.38,1.38,0,0,1,161.17,298.59Z"/><path class="cls-1" d="M103.82,377.43c.28-.69.52-1.42.86-2.08q6.72-13,13.47-25.92a11.33,11.33,0,0,1,.67-1,6.4,6.4,0,0,0,6.08-.65,31,31,0,0,0,2.8-2.06c.59-.47,1.11-1,1.66-1.53l3,1.76a11.35,11.35,0,0,1-1.26,4.08,94.51,94.51,0,0,1-4.23,8.64c-1.92,3.22-3.63,6.56-5.39,9.88-1.95,3.68-3.84,7.39-5.78,11.08-.47.9-1,1.78-1.52,2.66a2.57,2.57,0,0,1-.4-.08Z"/><path class="cls-2" d="M53.53,386c.29.18.57.37.87.53L73,396.13c5.28,2.73,10.55,5.49,15.85,8.21,1.27.65,2.6,1.19,3.9,1.78a5.82,5.82,0,0,0,.79.62q4.18,2.19,8.38,4.36l17.9,9.21c.42.22.83.47,1.25.71a12.35,12.35,0,0,1-2.48,3.26c-1,.9-1.22.94-2.36.4-.62-.3-1.22-.62-1.83-.94L54.13,392.45c-2.24-1.16-2.37-1.4-1.76-3.86A5.27,5.27,0,0,1,53.53,386Z"/><path class="cls-2" d="M114.19,382.26c.51-.88,1-1.76,1.52-2.66,1.94-3.69,3.83-7.4,5.78-11.08,1.76-3.32,3.47-6.66,5.39-9.88a94.51,94.51,0,0,0,4.23-8.64,11.35,11.35,0,0,0,1.26-4.08l2.42.91a6.39,6.39,0,0,0,4.44.77,4.9,4.9,0,0,0-.25,1.17,12.23,12.23,0,0,1-.95,5,55.84,55.84,0,0,1-2.28,5.27c-4,7.84-8.15,15.65-12.23,23.47q-1.09,2.08-2.17,4.19l-2.61-1.59c-.27-.2-.51-.42-.79-.59Z"/><path class="cls-1" d="M134.79,346.83l-2.42-.91-3-1.76c.34-.51.67-1,1-1.52A25,25,0,0,0,135,332.43a10.58,10.58,0,0,0-.21-5.69,4.1,4.1,0,0,0-3.28-3,1.42,1.42,0,0,0-.14-.36q2.32-4.79,4.67-9.56c.27-.55.62-1.06.93-1.59l.27-.45h0c1.19.29,2.39.56,3.57.89a30.1,30.1,0,0,0,9.09,1.2c.34,0,.68,0,1.1.07a7.63,7.63,0,0,1-1.22,2.84c-.25.48-.6.91-.84,1.4q-6.67,13.08-13.31,26.18A4.74,4.74,0,0,0,134.79,346.83Z"/><path class="cls-2" d="M121.07,421c-.42-.24-.83-.49-1.25-.71l-17.9-9.21q-4.2-2.16-8.38-4.36a5.82,5.82,0,0,1-.79-.62c.23-.11.48-.36.69-.33,1.94.33,3.86.77,5.8,1a15,15,0,0,0,3.48.1,21.48,21.48,0,0,0,10.86-3.81c.66-.48,1.27-1,1.9-1.53.91.43,1.82.85,2.72,1.29l4.32,2.12c.84.46,1.66.95,2.52,1.38a1.68,1.68,0,0,1,1,1.82,20.31,20.31,0,0,1-.41,2.83A29.1,29.1,0,0,1,121.07,421Z"/><path class="cls-1" d="M114.19,382.26l3.76,2.26c.28.17.52.39.79.59-1.71,2.46-4.35,3.34-7,4.12a21,21,0,0,1-5.06.48c-.56-.24-1.13-.47-1.68-.73-2.59-1.24-5.16-2.52-7.77-3.72a15.07,15.07,0,0,0-5.51-1.5,39.67,39.67,0,0,1,1.82-3.63,6.69,6.69,0,0,1,7.12-3.29c1.07.16,2.13.39,3.2.59l10,4.75A2.57,2.57,0,0,0,114.19,382.26Z"/><path class="cls-2" d="M131.4,323.34a1.42,1.42,0,0,1,.14.36c-.55.38-.42.95-.44,1.49a26.38,26.38,0,0,1-.15,3.67,30.2,30.2,0,0,1-3.9,9.39,18.65,18.65,0,0,1-3.67,4.11,9.72,9.72,0,0,1-6.61,2.82,7.51,7.51,0,0,1-.31-4.44,24.47,24.47,0,0,1,8.07-14.62A9.64,9.64,0,0,1,131.4,323.34Z"/><path class="cls-3" d="M116.77,345.18a9.72,9.72,0,0,0,6.61-2.82,18.65,18.65,0,0,0,3.67-4.11,30.2,30.2,0,0,0,3.9-9.39,26.38,26.38,0,0,0,.15-3.67c0-.54-.11-1.11.44-1.49a4.1,4.1,0,0,1,3.28,3,10.58,10.58,0,0,1,.21,5.69,25,25,0,0,1-4.64,10.21c-.36.49-.69,1-1,1.52-.55.51-1.07,1.06-1.66,1.53a31,31,0,0,1-2.8,2.06,6.4,6.4,0,0,1-6.08.65C118,347.44,116.9,346.6,116.77,345.18Z"/><path class="cls-1" d="M106.64,389.71a21,21,0,0,0,5.06-.48c2.69-.78,5.33-1.66,7-4.12l2.61,1.59c.88.74,1.82,1.44,2.65,2.24a6,6,0,0,1,1.56,7.11,11.87,11.87,0,0,1-2.29,4.05,20.68,20.68,0,0,0-2.33-2.26,47.41,47.41,0,0,0-7.57-4.37c-.65-.37-1.28-.76-1.93-1.12Z"/><path class="cls-4" d="M106.64,389.71l4.8,2.64c.65.36,1.28.75,1.93,1.12A9.09,9.09,0,0,1,108,395c-1,0-1.92,0-2.88,0a5.22,5.22,0,0,0-1.14.31c-1.65-.82-3.31-1.62-5-2.46q-4.74-2.44-9.46-4.93c-.48-.25-.92-.57-1.38-.86.09-.25.16-.51.26-.76a3.75,3.75,0,0,1,3.28-2.57,15.07,15.07,0,0,1,5.51,1.5c2.61,1.2,5.18,2.48,7.77,3.72C105.51,389.24,106.08,389.47,106.64,389.71Z"/><path class="cls-1" d="M161.17,298.59a1.38,1.38,0,0,0-1.16.73c-.55.87-1.16,1.7-1.69,2.58a2.72,2.72,0,0,1-1.95,1.28,21.21,21.21,0,0,1-4.49.36H142a16.54,16.54,0,0,1,12.1-7.31,8.22,8.22,0,0,1,6.58,1.72A3.79,3.79,0,0,1,161.17,298.59Z"/><path class="cls-3" d="M103.93,395.34a5.22,5.22,0,0,1,1.14-.31c1,0,1.92,0,2.88,0a9.09,9.09,0,0,0,5.42-1.54,47.41,47.41,0,0,1,7.57,4.37,20.68,20.68,0,0,1,2.33,2.26,4.56,4.56,0,0,1-.74,4.9l-4.33-2.12c-.9-.44-1.81-.86-2.72-1.29-.7-.41-1.39-.86-2.11-1.24C110.23,398.67,107.08,397,103.93,395.34Z"/><path class="cls-1" d="M141.78,303.88l-.37.47Z"/><path class="cls-1" d="M137.57,311l-.18.34Z"/><path class="cls-1" d="M137.27,311.74l-.27.45Z"/><path class="cls-5" d="M21.49,227.44a22.22,22.22,0,0,1,9.43-8.81c.42-.22.85-.42,1.28-.63a3.35,3.35,0,0,0,.79-.1,19,19,0,0,1,8.35-1.15c.27,0,.54,0,.81,0l1,.07c.77.27,1.54.51,2.3.79a13.14,13.14,0,0,1,5.71,3.76,3.15,3.15,0,0,0-.33.93c-.05,2.12-.1,4.22-.36,6.34a25.55,25.55,0,0,1-2.2,7.21,9.68,9.68,0,0,1-1.63,2.59c-2.23,2.53-4.65,4.82-7.91,6.06A18.57,18.57,0,0,1,34,245.58a11.35,11.35,0,0,1-6.13-1.37,8.38,8.38,0,0,1-4.52-4.54c-.14-.38-.42-.72-.53-1.11a18.77,18.77,0,0,1-.77-3.17c-.1-.95-.3-1.89-.38-2.82a17.44,17.44,0,0,1,.33-3,6.3,6.3,0,0,0,0-1.44C21.88,227.86,21.64,227.66,21.49,227.44Zm16.33-6.51a11.42,11.42,0,0,0-6.76,1.88c-1.73,1.16-1.87,2.94-1.63,4.78.19,1.4,1.49,1.68,2.52,2.17a3.28,3.28,0,0,0,2.21.06,23.74,23.74,0,0,1,6-1.15,5.29,5.29,0,0,0,2-.57c2.27-1,2.67-2.94,1-4.78A7.8,7.8,0,0,0,37.82,220.93Z"/><path class="cls-1" d="M79.15,255.58a4.89,4.89,0,0,1,3.41-1.66,22.78,22.78,0,0,1,3.69-.22,109,109,0,0,1,12.88,1,24.16,24.16,0,0,1,5.16,1.33,11.17,11.17,0,0,1,5.41,4.22,9.42,9.42,0,0,1,1.71,6.8l-3,.43-3.23.47a36.17,36.17,0,0,1-5.24.69c-4.23,0-8.47.42-12.68-.34a27.22,27.22,0,0,1-4.57-1c-1.21-.45-2.39-1-3.58-1.51.17-.81.34-1.62.52-2.43A10,10,0,0,0,79.15,255.58Z"/><path class="cls-1" d="M79.15,255.58a10,10,0,0,1,.46,7.76,3.74,3.74,0,0,0-2.12.68,8.79,8.79,0,0,1-3.33.93,24.33,24.33,0,0,1-10.9-1.42,50.48,50.48,0,0,1-12.9-7.11,5,5,0,0,1-.75-1c.92-.69,1.78-1.25,2.55-1.91a17.69,17.69,0,0,0,5.07-7.6c.35-1,.55-2.09.83-3.14a58.16,58.16,0,0,0,9.58,6.25c1.65.82,3.3,1.64,5,2.41A22.28,22.28,0,0,1,79.15,255.58Z"/><path class="cls-2" d="M58.06,242.8c-.28,1-.48,2.12-.83,3.14a17.69,17.69,0,0,1-5.07,7.6c-.77.66-1.63,1.22-2.55,1.91a5,5,0,0,0,.75,1,50.48,50.48,0,0,0,12.9,7.11A24.33,24.33,0,0,0,74.16,265a8.79,8.79,0,0,0,3.33-.93,3.74,3.74,0,0,1,2.12-.68c-.18.81-.35,1.62-.52,2.43-.22.4-.44.8-.65,1.2a23.26,23.26,0,0,0-5.46-.34,9,9,0,0,0-3.71.91,3.11,3.11,0,0,0-2.07,2.31c-.59.82-.14,1.62,0,2.43a21.42,21.42,0,0,1-5.64-1.78,65,65,0,0,1-21.26-15.05c-.23-.25-.42-.53-.63-.8.32-.14.63-.28.94-.4a22.92,22.92,0,0,0,13.66-13.1c.18-.43.43-.84.65-1.25Z"/><path class="cls-5" d="M21.49,227.44c.15.22.39.42.43.66a6.3,6.3,0,0,1,0,1.44,17.44,17.44,0,0,0-.33,3c.08.93.28,1.87.38,2.82a18.77,18.77,0,0,0,.77,3.17c.11.39.39.73.53,1.11a8.38,8.38,0,0,0,4.52,4.54A11.35,11.35,0,0,0,34,245.58a18.57,18.57,0,0,0,4.77-1.11c3.26-1.24,5.68-3.53,7.91-6.06a9.68,9.68,0,0,0,1.63-2.59,25.55,25.55,0,0,0,2.2-7.21c.26-2.12.31-4.22.36-6.34a3.15,3.15,0,0,1,.33-.93,6.41,6.41,0,0,1,2.15,2.83c0,2.47,0,4.94,0,7.41a11.19,11.19,0,0,1-.13,1.83,28,28,0,0,1-1.5,5.32,19.09,19.09,0,0,1-4,6.61A19.74,19.74,0,0,1,40.28,250a24.31,24.31,0,0,1-6.4,1.32,15,15,0,0,1-7.55-1.55,13.46,13.46,0,0,1-6.61-6.2,16.9,16.9,0,0,0-1.09-1.7l-.47-1.23c0-1.09,0-2.18.08-3.27A19.39,19.39,0,0,1,21.49,227.44Z"/><path class="cls-5" d="M18.63,241.9a16.9,16.9,0,0,1,1.09,1.7,13.46,13.46,0,0,0,6.61,6.2,15,15,0,0,0,7.55,1.55,24.31,24.31,0,0,0,6.4-1.32,19.74,19.74,0,0,0,7.37-4.69,19.09,19.09,0,0,0,4-6.61,28,28,0,0,0,1.5-5.32,11.19,11.19,0,0,0,.13-1.83c0-2.47,0-4.94,0-7.41a13.12,13.12,0,0,1,2.43,6.62,19.48,19.48,0,0,1-.51,7.71c-.12.46-.19.93-.29,1.4s-.47.82-.65,1.25a22.92,22.92,0,0,1-13.66,13.1c-.31.12-.62.26-.94.4-.87.14-1.74.32-2.61.43a16.51,16.51,0,0,1-14-4.22,4,4,0,0,0-.32-.26l-2.94-4.16C19.38,244.94,18.55,243.54,18.63,241.9Z"/><path class="cls-2" d="M78.44,267c.21-.4.43-.8.65-1.2,1.19.51,2.37,1.06,3.58,1.51a27.22,27.22,0,0,0,4.57,1c4.21.76,8.45.32,12.68.34a36.17,36.17,0,0,0,5.24-.69l3.23-.47,3-.43a8.29,8.29,0,0,1-5.3,7.79,10.5,10.5,0,0,1-2.75.76,67.56,67.56,0,0,1-15.11.23,5.62,5.62,0,0,1-.79-.18,3.37,3.37,0,0,0-.69-4.19,8.81,8.81,0,0,0-4.26-3.08C81.2,267.8,79.8,267.43,78.44,267Z"/><path class="cls-1" d="M19.83,246.44l2.94,4.16a24.23,24.23,0,0,1-2.38.57,29.59,29.59,0,0,1-10,.27,9.31,9.31,0,0,1-7.46-6,19.18,19.18,0,0,1-1.11-9.86A4.19,4.19,0,0,1,3,232.84a13.39,13.39,0,0,1,.83,1.59c.54,1.47,1,3,1.54,4.43A10.8,10.8,0,0,0,13.15,246a12.61,12.61,0,0,0,3.62.44C17.79,246.4,18.81,246.44,19.83,246.44Z"/><path class="cls-1" d="M43.16,216.79l-1-.07c-.37-.41-.86-.34-1.34-.35l-3.33,0c-.39-.74-.74-1.4-1.08-2.06a17.76,17.76,0,0,0-4-5.43,5.75,5.75,0,0,0-3.07-1.53,6.52,6.52,0,0,0-4.86,1.18c-.64.49-1.38.85-2,1.22-.3-.12-.46-.14-.54-.23a10.67,10.67,0,0,1-.89-1.12,1.44,1.44,0,0,0-1.19-.69,13.84,13.84,0,0,1,1.32-1.52,19,19,0,0,1,7.12-3.91c3.45-1,6.37-.24,8.56,2.66a40.9,40.9,0,0,1,2.9,4.45A31.31,31.31,0,0,1,43.16,216.79Z"/><path class="cls-1" d="M19.89,207.68a1.44,1.44,0,0,1,1.19.69,10.67,10.67,0,0,0,.89,1.12c.08.09.24.11.54.23.59-.37,1.33-.73,2-1.22a6.52,6.52,0,0,1,4.86-1.18,5.75,5.75,0,0,1,3.07,1.53,17.76,17.76,0,0,1,4,5.43c.34.66.69,1.32,1.08,2.06l3.33,0c.48,0,1-.06,1.34.35-.27,0-.54,0-.81,0A19,19,0,0,0,33,217.9a3.35,3.35,0,0,1-.79.1c-.61-1.14-1.16-2.32-1.86-3.4s-1.23-1.08-2.28-.58c-.55.26-1.06.62-1.59.92a18.36,18.36,0,0,1-1.81.95,3.76,3.76,0,0,1-4.32-.9,5.24,5.24,0,0,1-.78-6.87l.33-.44Z"/><path class="cls-1" d="M19.83,246.44c-1,0-2,0-3.06,0a12.61,12.61,0,0,1-3.62-.44,10.8,10.8,0,0,1-7.74-7.15c-.56-1.46-1-3-1.54-4.43A13.39,13.39,0,0,0,3,232.84a3.74,3.74,0,0,1,2.87-1.68,5.5,5.5,0,0,1,3.59.44,4,4,0,0,1,2.12,3.3,20.82,20.82,0,0,1,.09,3.06c-.06,2.54.41,2.87,3,3a26.89,26.89,0,0,0,3.46-.28l.47,1.23C18.55,243.54,19.38,244.94,19.83,246.44Z"/><path class="cls-7" d="M86.77,271.46a3.37,3.37,0,0,1,.69,4.19c-1.66,1.82-3.86,2.32-6.16,2.4a20.43,20.43,0,0,1-10.85-2.66,8.44,8.44,0,0,1-3.22-3.11c-.17-.81-.62-1.61,0-2.43.61.27,1.24.52,1.85.81,1,.46,1.92,1,2.92,1.4a19.07,19.07,0,0,0,7.78,1.19,11.5,11.5,0,0,0,5.1-1.15A14,14,0,0,1,86.77,271.46Z"/><path class="cls-1" d="M19.89,207.68l-.33.44Z"/><path class="cls-8" d="M37.82,220.93a7.8,7.8,0,0,1,5.34,2.39c1.66,1.84,1.26,3.8-1,4.78a5.29,5.29,0,0,1-2,.57,23.74,23.74,0,0,0-6,1.15,3.28,3.28,0,0,1-2.21-.06c-1-.49-2.33-.77-2.52-2.17-.24-1.84-.1-3.62,1.63-4.78A11.42,11.42,0,0,1,37.82,220.93Z"/><path class="cls-9" d="M86.77,271.46a14,14,0,0,0-1.92.64,11.5,11.5,0,0,1-5.1,1.15A19.07,19.07,0,0,1,72,272.06c-1-.41-2-.94-2.92-1.4-.61-.29-1.24-.54-1.85-.81a3.11,3.11,0,0,1,2.07-2.31,9,9,0,0,1,3.71-.91,23.26,23.26,0,0,1,5.46.34c1.36.46,2.76.83,4.07,1.41A8.81,8.81,0,0,1,86.77,271.46Z"/><path class="cls-5" d="M278,331c-.48-.55-1-1.1-1.46-1.67a12.65,12.65,0,0,1-3.17-6.21,3.48,3.48,0,0,0,.75-.67c.55-.86,1-1.77,1.56-2.65a22.37,22.37,0,0,1,6.89-7.46A18.48,18.48,0,0,1,293.16,309a16.34,16.34,0,0,1,6.37,1.34,10.57,10.57,0,0,1,3.32,2,11.25,11.25,0,0,1,3.63,6.28,9.14,9.14,0,0,1,0,4,20.72,20.72,0,0,1-3.83,8.08,3,3,0,0,0-.77,1.87,17.77,17.77,0,0,1-6.07,2.38,23,23,0,0,1-5.73.48l-2.06,0-5.53-1.58Zm12.58.79a4.72,4.72,0,0,0,3.17-.95,3.35,3.35,0,0,0,.62-5.13,6.39,6.39,0,0,0-3.17-1.77,17.59,17.59,0,0,1-4.41-1.58,5.91,5.91,0,0,0-3.6-.45,2.07,2.07,0,0,0-1.86,1.68,4.65,4.65,0,0,0,.4,3.38,8.87,8.87,0,0,0,3.33,3.22A10.5,10.5,0,0,0,290.55,331.76Z"/><path class="cls-1" d="M266.33,279.75a8.89,8.89,0,0,1-5.9-1.31A98.5,98.5,0,0,1,248,270a18.61,18.61,0,0,1-4.31-4.67,10,10,0,0,1,.27-12,4.1,4.1,0,0,1,.79.16l7.37,3a55.53,55.53,0,0,1,12.48,6.91,23.2,23.2,0,0,1,5.53,5.39,13.55,13.55,0,0,0,1.35,1.5l-2.14,2.42A8.21,8.21,0,0,0,266.33,279.75Z"/><path class="cls-1" d="M266.33,279.75a8.21,8.21,0,0,1,3-6.93,12.2,12.2,0,0,1,4.86.58,23.06,23.06,0,0,1,5.85,3.32,34.39,34.39,0,0,1,6.78,7.62,64.76,64.76,0,0,1,4.84,9,2.62,2.62,0,0,1,.09.66c-.29.07-.54.15-.79.2a34.51,34.51,0,0,0-4.78,1.08,19.15,19.15,0,0,0-6,3.49c-.86.75-1.88,1.44-2,2.76-.31-.75-.63-1.49-.93-2.24a53.65,53.65,0,0,0-5.35-9.89c-1.14-1.7-2.32-3.37-3.48-5.06A13.8,13.8,0,0,1,266.33,279.75Z"/><path class="cls-2" d="M278.22,301.56c.09-1.32,1.11-2,2-2.76a19.15,19.15,0,0,1,6-3.49,34.51,34.51,0,0,1,4.78-1.08c.25-.05.5-.13.79-.2a2.62,2.62,0,0,0-.09-.66,64.76,64.76,0,0,0-4.84-9,34.39,34.39,0,0,0-6.78-7.62,23.06,23.06,0,0,0-5.85-3.32,12.2,12.2,0,0,0-4.86-.58l2.14-2.42.76-.48c.55.39,1.11.76,1.65,1.16a15.29,15.29,0,0,0,5.58,2.8c1.32.3,2.67.5,3.86-.48a2.17,2.17,0,0,0,1.15-1.26c.17-.35.32-.7.48-1.05a22.31,22.31,0,0,1,4.48,5,65,65,0,0,1,9,18.29c.57,1.82,1,3.7,1.43,5.55a5.78,5.78,0,0,1-1,0,22.79,22.79,0,0,0-18.11,4.23l-1.5,1.08Z"/><path class="cls-5" d="M301.84,332.62a3,3,0,0,1,.77-1.87,20.72,20.72,0,0,0,3.83-8.08,9.14,9.14,0,0,0,0-4,11.25,11.25,0,0,0-3.63-6.28,10.57,10.57,0,0,0-3.32-2,16.34,16.34,0,0,0-6.37-1.34,18.48,18.48,0,0,0-10.62,3.27,22.37,22.37,0,0,0-6.89,7.46c-.52.88-1,1.79-1.56,2.65a3.48,3.48,0,0,1-.75.67,8.29,8.29,0,0,1-.56-4.15c.57-.1.69-.62.91-1,.59-1.09,1.14-2.19,1.73-3.26a25.45,25.45,0,0,1,4.62-5.47,22.7,22.7,0,0,1,3.61-3c4.64-3.08,9.66-3.53,14.91-2.22a21.73,21.73,0,0,1,7.2,3.39,11.4,11.4,0,0,1,2.28,2,17.72,17.72,0,0,1,3.12,5.72,8.94,8.94,0,0,1,.56,3.42c-.07.82,0,1.64,0,2.46a1.46,1.46,0,0,0-.24,1.69v.09a20.93,20.93,0,0,1-7.31,8.59C303.43,331.85,302.61,332.2,301.84,332.62Z"/><path class="cls-7" d="M311.7,321c0-.82-.05-1.64,0-2.46a8.94,8.94,0,0,0-.56-3.42,17.72,17.72,0,0,0-3.12-5.72,11.4,11.4,0,0,0-2.28-2,21.73,21.73,0,0,0-7.2-3.39c-5.25-1.31-10.27-.86-14.91,2.22a22.7,22.7,0,0,0-3.61,3,25.45,25.45,0,0,0-4.62,5.47c-.59,1.07-1.14,2.17-1.73,3.26-.22.4-.34.92-.91,1a12.79,12.79,0,0,1,.85-5.37,19.82,19.82,0,0,1,5.64-8.33l1.5-1.08a22.79,22.79,0,0,1,18.11-4.23,5.78,5.78,0,0,0,1,0c1.39.56,2.84,1,4.18,1.68a16,16,0,0,1,8,8.95c.16.45.34.9.51,1.34l.36,5.39L312,321Z"/><path class="cls-2" d="M272.24,269.92l-.76.48a13.55,13.55,0,0,1-1.35-1.5,23.2,23.2,0,0,0-5.53-5.39,55.53,55.53,0,0,0-12.48-6.91l-7.37-3a4.1,4.1,0,0,0-.79-.16,8.44,8.44,0,0,1,9.34-3.87,22.84,22.84,0,0,1,3.84,1.38,68.94,68.94,0,0,1,11.8,6.95c-.22.25-.43.52-.66.77a2.11,2.11,0,0,0-.72,1.42,2.82,2.82,0,0,0-.12,2.36,11.24,11.24,0,0,0,2.05,4.21C270.36,267.76,271.32,268.83,272.24,269.92Z"/><path class="cls-1" d="M278,331l4.48,2.89a2,2,0,0,1,.25,1.55,14.36,14.36,0,0,0,1,8.74,5.43,5.43,0,0,0,4.83,3.22c.94.1,1.91,0,2.86,0a9.14,9.14,0,0,1,1.28.21c0,.81.06,1.55.07,2.29a.73.73,0,0,0,.59.73,16.79,16.79,0,0,1-2.13.65,18.48,18.48,0,0,1-8.52-.49,7.12,7.12,0,0,1-5.22-6,35.66,35.66,0,0,1-.18-9.4C277.41,333.93,277.74,332.45,278,331Z"/><path class="cls-1" d="M313,317.31l-.36-5.39a32,32,0,0,1,9.61,4.42,16.48,16.48,0,0,1,2.9,2.57,7.83,7.83,0,0,1,2.09,5.83,16.93,16.93,0,0,1-4.32,10.78v0c-.13.14-.27.28-.4.43v0l-.42.4,0,0-.49.35-.38.05c-.68-.43-.54-1.09-.39-1.66.36-1.39.53-2.81.87-4.18.71-2.94-.12-5.52-1.33-8.08a2.82,2.82,0,0,0-.31-.53A15,15,0,0,0,313,317.31Z"/><path class="cls-1" d="M313,317.31a15,15,0,0,1,7.13,4.93,2.82,2.82,0,0,1,.31.53c1.21,2.56,2,5.14,1.33,8.08-.34,1.37-.51,2.79-.87,4.18-.15.57-.29,1.23.39,1.65,0,.1,0,.19-.07.29l-.09.12-.15,0-.46.2c-2.33.77-4.14-.19-5.67-1.81a3.22,3.22,0,0,1-.8-3.24,20.45,20.45,0,0,1,1.15-2.83c.32-.68.77-1.3,1.11-2a1.54,1.54,0,0,0-.51-2.31,11.38,11.38,0,0,0-1.71-1.11c-.85-.45-1.73-.82-2.59-1.23v-.09L312,321Z"/><path class="cls-1" d="M293.34,350.63a.73.73,0,0,1-.59-.73c0-.74,0-1.48-.07-2.29a9.14,9.14,0,0,0-1.28-.21c-.95,0-1.92.07-2.86,0a5.43,5.43,0,0,1-4.83-3.22,14.36,14.36,0,0,1-1-8.74,2,2,0,0,0-.25-1.55l5.53,1.58c-.05,1-.14,2-.13,3.06a6.78,6.78,0,0,0,.27,1.6,1,1,0,0,0,.88.74c.68.07,1.36.07,2,.11.88.05,1.77.05,2.64.17a3.65,3.65,0,0,1,3.16,3.06c.62,2.56-.28,4.57-2.64,6l-.63.34-.1.09Z"/><path class="cls-7" d="M267.56,260.07a2.11,2.11,0,0,1,.72-1.42c.23-.25.44-.52.66-.77a7.09,7.09,0,0,1,5.2.32,20.08,20.08,0,0,1,9.62,8.58,10.16,10.16,0,0,1,1.2,4.31c-.16.35-.31.7-.48,1.05a2.17,2.17,0,0,1-1.15,1.26,14.9,14.9,0,0,0-4.6-6.9,23,23,0,0,0-2.66-1.91,13.15,13.15,0,0,0-7.66-2.52,2.37,2.37,0,0,1-.68-.22C267.68,261.27,267.62,260.67,267.56,260.07Z"/><path class="cls-1" d="M321.18,337c0-.1.05-.19.07-.29l.38,0Z"/><path class="cls-1" d="M320.48,337.27l.46-.2Z"/><path class="cls-1" d="M293.57,350.56l.63-.34Z"/><path class="cls-1" d="M322.89,335.5v0Z"/><path class="cls-1" d="M322.5,335.91v0Z"/><path class="cls-1" d="M322.12,336.29l0,0Z"/><path class="cls-8" d="M290.55,331.76a10.5,10.5,0,0,1-5.52-1.6,8.87,8.87,0,0,1-3.33-3.22,4.65,4.65,0,0,1-.4-3.38,2.07,2.07,0,0,1,1.86-1.68,5.91,5.91,0,0,1,3.6.45,17.59,17.59,0,0,0,4.41,1.58,6.39,6.39,0,0,1,3.17,1.77,3.35,3.35,0,0,1-.62,5.13A4.72,4.72,0,0,1,290.55,331.76Z"/><path class="cls-9" d="M267.56,260.07c.06.6.12,1.2.17,1.78a2.37,2.37,0,0,0,.68.22,13.15,13.15,0,0,1,7.66,2.52,23,23,0,0,1,2.66,1.91,14.9,14.9,0,0,1,4.6,6.9c-1.19,1-2.54.78-3.86.48a15.29,15.29,0,0,1-5.58-2.8c-.54-.4-1.1-.77-1.65-1.16-.92-1.09-1.88-2.16-2.75-3.28a11.24,11.24,0,0,1-2.05-4.21A2.82,2.82,0,0,1,267.56,260.07Z"/><path class="cls-10" d="M312,321l-.57,1.68a1.46,1.46,0,0,1,.24-1.69Z"/><path class="cls-1" d="M135.38,258.51c-.4-.81-.81-1.62-1.21-2.44a25.22,25.22,0,0,0-4.92-6.29,2.23,2.23,0,0,0-1.71-1.51,7.85,7.85,0,0,0-1-1,12.64,12.64,0,0,0-7.74-2.85c.08-.32.16-.63.27-1H127a1.56,1.56,0,0,1,.61.08,6.83,6.83,0,0,0,2.84.31h37.85c.89,0,1.78.07,2.67.11l-1.83.68a10.82,10.82,0,0,0-1.4.27,24.91,24.91,0,0,0-17,28.11c1.72,9.53,7.3,16.23,16.49,19.42s17.72,1.28,25.15-5.1a9.74,9.74,0,0,0,1.15-1.4h0l.45-.45,0,.05.6-.54c.37-.41.77-.79,1.09-1.22a24,24,0,0,0,4.72-18.43c-1.57-10-7.29-16.91-16.92-20.38-1.09-.39-2.22-.67-3.33-1,.81,0,1.63-.13,2.45-.13,4.8,0,9.6,0,14.4,0a6.6,6.6,0,0,0,1.84-.09,10.35,10.35,0,0,1,3.45-.31l38.05,0a7.37,7.37,0,0,0,2.05-.07,14.62,14.62,0,0,1,4.27-.32c2.75,0,5.49,0,8.23,0a22.5,22.5,0,0,1,.28,6.55,54.43,54.43,0,0,1-5,18.55,83.42,83.42,0,0,1-17.54,25.42c-1.85,1.82-3.91,3.44-5.87,5.15a20.06,20.06,0,0,1-2.42.25c-9,0-18.09-.12-27.13-.17-6.3,0-12.6,0-18.91,0-.54,0-1.09-.05-1.64-.07a4.22,4.22,0,0,0-.89-.41c-1.73-.35-3.48-.62-5.2-1a102.52,102.52,0,0,1-11.76-3.52,57.71,57.71,0,0,1-8.88-4.22,73.72,73.72,0,0,1-7.25-5,7.62,7.62,0,0,1-2.37-2.52c0-.77.06-1.54.1-2.31a2.65,2.65,0,0,0,.2-2.17,24.38,24.38,0,0,0-.46-5.72,7.74,7.74,0,0,0-.91-3.32c-.1-.53.09-1.15-.44-1.55"/><path class="cls-1" d="M171,243.86c-.89,0-1.78-.11-2.67-.11H130.43a6.83,6.83,0,0,1-2.84-.31,1.56,1.56,0,0,0-.61-.08h-7.87c-.11.41-.19.72-.27,1a6.64,6.64,0,0,0-4.62,2.52,6.77,6.77,0,0,0-1.91,3,12.88,12.88,0,0,0-1,5.32,3.2,3.2,0,0,0-.1,2.52c0,.67.09,1.34.14,2a28.67,28.67,0,0,0,1.36,7c.21.57.17,1.26.72,1.68a4.64,4.64,0,0,0,.12,1,34.28,34.28,0,0,0,3.6,7.65,3.35,3.35,0,0,0,1.17,1.67,2.18,2.18,0,0,0,.18.58,27.39,27.39,0,0,0,5.63,6.42l2.11,1.6a10.3,10.3,0,0,0,4.44,1.94,6.56,6.56,0,0,0,5.26-.95,7.89,7.89,0,0,0,3.57-5.44l.64-1.05a7.62,7.62,0,0,0,2.37,2.52,73.72,73.72,0,0,0,7.25,5,57.71,57.71,0,0,0,8.88,4.22,102.52,102.52,0,0,0,11.76,3.52c1.72.4,3.47.67,5.2,1a4.22,4.22,0,0,1,.89.41c-.75,0-1.5.07-2.25.07H160.91c-1.92,0-3.84,0-5.75.06-.41,0-.82-.09-1.23-.09H137.67l-15.84-.05a77,77,0,0,1-18.51-21.32,73.82,73.82,0,0,1-8.12-18.13,46,46,0,0,1-1.83-12.16A37.54,37.54,0,0,1,94.59,238a4.63,4.63,0,0,1,2.6-.34h53c.82,0,1.64-.08,2.46-.11s1.37.06,2.05.06l96.66.07c.55,0,1.1,0,1.65,0a4.26,4.26,0,0,1,1,.3c.22,1.05.46,2.1.65,3.16.1.59.11,1.2.16,1.8-2.74,0-5.48,0-8.23,0a14.62,14.62,0,0,0-4.27.32,7.37,7.37,0,0,1-2.05.07l-38.05,0a10.35,10.35,0,0,0-3.45.31,6.6,6.6,0,0,1-1.84.09c-4.8,0-9.6,0-14.4,0-.82,0-1.64.08-2.45.13A43.35,43.35,0,0,0,171,243.86Z"/><path class="cls-2" d="M254,238a4.26,4.26,0,0,0-1-.3c-.55-.05-1.1,0-1.65,0l-96.66-.07c-.68,0-1.37,0-2.05-.06a.8.8,0,0,0-.64-.72,8.61,8.61,0,0,0-1,0c-3.28-.13-6.57.3-9.83-.41a3.1,3.1,0,0,0-.61,0,40.86,40.86,0,0,1-8.54-.81,30.41,30.41,0,0,1-10.4-3.59c-1.63-1-3.41-1.8-4.51-3.47.75-.05,1.5-.13,2.25-.13,4.73,0,9.47.07,14.21.08q11.32,0,22.65,0l66.94-.07q15.56,0,31.1,0a2,2,0,0,1,1.68,1.3,8.13,8.13,0,0,1-.24,7A2.2,2.2,0,0,1,254,238Z"/><path class="cls-11" d="M254.27,228.33q-15.54,0-31.1,0l-66.94.07q-11.32,0-22.65,0c-4.74,0-9.48-.06-14.21-.08-.75,0-1.5.08-2.25.13s-1.37-.12-2.05-.12H94.49c.69,0,1.37-.06,2.05-.06l32.07,0c.81,0,1.62-.15,2.43-.23h6.15l16.21,0c6.79.25,19.85.15,21.77-.24a23,23,0,0,1-2.34-.19,40.35,40.35,0,0,1-7.1-2,20.94,20.94,0,0,1-7.66-4.66,9.64,9.64,0,0,1-2.94-7.77c.07-.81.26-1.61.4-2.41.79-.12,1.57-.28,2.36-.35,1.14-.09,2.28-.11,3.41-.17.54,0,1.09.1,1.63.1l24.15,0c.61,0,1.22-.05,1.84-.08,1,0,2.05.08,3.08.1a89.59,89.59,0,0,1,11.69.83,24.2,24.2,0,0,1,11.37,4.41,15.58,15.58,0,0,1,6,9.31c.22,1,.39,2,.61,3.15.52.06,1,.17,1.56.18h10.91Z"/><path class="cls-2" d="M155.16,298.67c1.91,0,3.83-.06,5.75-.06h13.38c.75,0,1.5-.05,2.25-.07.55,0,1.1.07,1.64.07,6.31,0,12.61,0,18.91,0,9,0,18.09.13,27.13.17a20.06,20.06,0,0,0,2.42-.25,7.6,7.6,0,0,1,1.15,3.48,10.65,10.65,0,0,1-.1,2c-.32,1.73-.85,2.14-2.66,2.14l-39.13-.08q-29.44,0-58.9-.09c-.75,0-1.5-.09-2.25-.14H175l1.23,0a.62.62,0,0,0,.19-.07.41.41,0,0,0,.08-.12c-1.07-.19-2.12-.39-3.19-.56a70,70,0,0,1-12.65-3.35c-1.61-.59-3.15-1.35-4.71-2A1.11,1.11,0,0,1,155.16,298.67Z"/><path class="cls-2" d="M94.49,228.34h20.58c.68,0,1.37.08,2.05.12,1.1,1.67,2.88,2.5,4.51,3.47a30.41,30.41,0,0,0,10.4,3.59,40.86,40.86,0,0,0,8.54.81,3.1,3.1,0,0,1,.61,0c3.26.71,6.55.28,9.83.41a8.61,8.61,0,0,1,1,0,.8.8,0,0,1,.64.72c-.82,0-1.64.11-2.46.11h-53a4.63,4.63,0,0,0-2.6.34,4.34,4.34,0,0,1-2.24-3.44,8.27,8.27,0,0,1,.53-4.79A2.08,2.08,0,0,1,94.49,228.34Z"/><path class="cls-2" d="M155.16,298.67a1.11,1.11,0,0,0,.77,1.1c1.56.69,3.1,1.45,4.71,2a70,70,0,0,0,12.65,3.35c1.07.17,2.12.37,3.19.56a.41.41,0,0,1-.08.12.62.62,0,0,1-.19.07l-1.23,0H122.35a5.22,5.22,0,0,1-1.25-4.65c.17-.94.48-1.84.73-2.76l15.84.05h16.26C154.34,298.58,154.75,298.64,155.16,298.67Z"/><path class="cls-12" d="M153.4,228l-16.21,0H131c.17-5.85,2.57-10.42,7.79-13.3a26.37,26.37,0,0,1,10.51-3.21c-.09.32-.13.66-.25,1a13.18,13.18,0,0,0-1,6.17,2.8,2.8,0,0,1,0,.41,5.94,5.94,0,0,0,.54,3,9.84,9.84,0,0,0,2.64,4C152,226.73,152.7,227.39,153.4,228Z"/><path class="cls-1" d="M171.58,200.18c2.66-.18,5.32-.32,8-.55,2.1-.17,4.2-.46,6.31-.66,1-.09,2-.09,3.07-.13,0,3.83,0,7.65,0,11.48-.62,0-1.23.09-1.84.08l-24.15,0c-.54,0-1.09-.06-1.63-.1l.09-.72a6.3,6.3,0,0,0,1.55.39c2.46,0,4.92,0,7.38,0a6,6,0,0,0,1.12-.24,4.58,4.58,0,0,0,.14-.71C171.59,206.06,171.58,203.12,171.58,200.18Z"/><path class="cls-13" d="M153.4,228c-.7-.63-1.38-1.29-2.11-1.89a9.84,9.84,0,0,1-2.64-4,5.94,5.94,0,0,1-.54-3,2.8,2.8,0,0,0,0-.41,13.18,13.18,0,0,1,1-6.17c.12-.31.16-.65.25-1a19.89,19.89,0,0,1,6.19-.77c-.14.8-.33,1.6-.4,2.41a9.64,9.64,0,0,0,2.94,7.77,20.94,20.94,0,0,0,7.66,4.66,40.35,40.35,0,0,0,7.1,2,23,23,0,0,0,2.34.19C173.25,228.17,160.19,228.27,153.4,228Z"/><path class="cls-1" d="M191.59,188.84c-1.39-.35-2.76-.78-4.16-1.05a99.83,99.83,0,0,0-24.15-1.7,45.31,45.31,0,0,0-12.87,2.54l-2.06.69a6.12,6.12,0,0,1-.25-1.27c0-1.78.08-3.56.1-5.34a8,8,0,0,0-.14-1.83,1,1,0,0,0-.77-.51,1.22,1.22,0,0,0-.77.54,1.56,1.56,0,0,0-.17.79,39.41,39.41,0,0,0,0,8.41,12.15,12.15,0,0,0,1.8,5.2,7.94,7.94,0,0,0,4.42,3.48,12.57,12.57,0,0,1,2,.08,32,32,0,0,0,7.3.74c1.58,0,3.16,0,4.73,0a40.1,40.1,0,0,0,8.94-.8,26.22,26.22,0,0,0,9.16-3.32A19.28,19.28,0,0,0,191.59,188.84Z"/><path class="cls-2" d="M191.59,188.84a19.28,19.28,0,0,1-6.81,6.65,26.22,26.22,0,0,1-9.16,3.32,40.1,40.1,0,0,1-8.94.8c-1.57,0-3.15,0-4.73,0a32,32,0,0,1-7.3-.74,12.57,12.57,0,0,0-2-.08,13.05,13.05,0,0,0,4.15,1.53c.65.19,1.31.35,2,.52,1,0,2.05,0,3.07.13,2.1.2,4.2.49,6.31.66,2.65.23,5.32.37,8,.55,3.21,0,6.43-.05,9.65,0a3.26,3.26,0,0,1,1,.31c.74-.13,1.47-.29,2.21-.37a24.43,24.43,0,0,0,5.8-1.33,11,11,0,0,0,5.67-4.83,17.89,17.89,0,0,0,2.1-6.56c.14-.81-.08-1.19-.6-1.34s-1,.15-1.24,1-.42,1.7-.66,2.7l-1.58-.72A21.75,21.75,0,0,0,191.59,188.84Z"/><path class="cls-1" d="M171.58,200.18c0,2.94,0,5.88,0,8.81a4.58,4.58,0,0,1-.14.71,6,6,0,0,1-1.12.24c-2.46,0-4.92,0-7.38,0a6.3,6.3,0,0,1-1.55-.39q-.21-4.55-.43-9.1a3.26,3.26,0,0,1,1-.31C165.14,200.13,168.36,200.16,171.58,200.18Z"/><path class="cls-14" d="M171,243.86a43.35,43.35,0,0,1,9.11,0c1.11.33,2.24.61,3.33,1,9.63,3.47,15.35,10.33,16.92,20.38a24,24,0,0,1-4.72,18.43c-.32.43-.72.81-1.09,1.22l-.6.54,0-.05-.45.45h0a2.24,2.24,0,0,0-1.54.45,28.11,28.11,0,0,1-7,2.79,21.23,21.23,0,0,1-4.82.82,6.06,6.06,0,0,0-1.42.16,7.88,7.88,0,0,1-3.86,0,2.48,2.48,0,0,0-.8-.16,15,15,0,0,1-4.82-.85,18.22,18.22,0,0,1-5-2.2,21.51,21.51,0,0,1-9.92-17.66,29.58,29.58,0,0,1,.41-4.88,21.57,21.57,0,0,1,2.8-7.87,35.66,35.66,0,0,1,9.32-10c.81-.58,1.82-1,2.31-2Zm1.52,4.73a16.81,16.81,0,0,0-2,.27A20.45,20.45,0,1,0,183,287.7a18.14,18.14,0,0,0,9.16-7.29,8.56,8.56,0,0,0,.75-1,20.26,20.26,0,0,0,2.45-15.79,20.43,20.43,0,0,0-17-15.24A13.17,13.17,0,0,0,172.47,248.59Z"/><path class="cls-15" d="M169.12,244.54c-.49,1-1.5,1.38-2.31,2a35.66,35.66,0,0,0-9.32,10,21.57,21.57,0,0,0-2.8,7.87,29.58,29.58,0,0,0-.41,4.88,21.51,21.51,0,0,0,9.92,17.66,18.22,18.22,0,0,0,5,2.2,15,15,0,0,0,4.82.85,2.48,2.48,0,0,1,.8.16,7.88,7.88,0,0,0,3.86,0,6.06,6.06,0,0,1,1.42-.16,21.23,21.23,0,0,0,4.82-.82,28.11,28.11,0,0,0,7-2.79,2.24,2.24,0,0,1,1.54-.45,9.74,9.74,0,0,1-1.15,1.4c-7.43,6.38-15.89,8.32-25.15,5.1s-14.77-9.89-16.49-19.42a24.91,24.91,0,0,1,17-28.11A10.82,10.82,0,0,1,169.12,244.54Z"/><path class="cls-8" d="M172.47,248.59a13.17,13.17,0,0,1,5.89-.17,20.43,20.43,0,0,1,17,15.24,20.26,20.26,0,0,1-2.45,15.79,8.56,8.56,0,0,1-.75,1,16.33,16.33,0,0,0-1.84.87,17.19,17.19,0,0,1-7.63,2.8A17.59,17.59,0,0,1,171,281.23a17,17,0,0,1-4.47-4.48,15.56,15.56,0,0,1-3.14-8.95c0-1.1,0-2.2,0-3.29a16.72,16.72,0,0,1,2.45-8.16,20.86,20.86,0,0,1,3.59-4.47C170.47,250.84,171.45,249.69,172.47,248.59Zm17.66,16.52.12,0c-.19-1.07-.3-2.16-.59-3.2a12.54,12.54,0,0,0-5.13-7.18,6.76,6.76,0,0,0-3.85-1.11,4.15,4.15,0,0,0-3.76,3.66,9.22,9.22,0,0,0,1.32,5.08,35.45,35.45,0,0,0,2.61,3.91,10.9,10.9,0,0,0,4.16,3.57,3.12,3.12,0,0,0,1.8.23,4.36,4.36,0,0,0,3.32-3.71C190.17,265.93,190.13,265.52,190.13,265.11Zm-4.53,10.22a3.1,3.1,0,0,0,3,3,3.2,3.2,0,0,0,2.81-3.21,2.72,2.72,0,0,0-2.91-2.94A2.76,2.76,0,0,0,185.6,275.33Z"/><path class="cls-8" d="M172.47,248.59c-1,1.1-2,2.25-3.08,3.29a20.86,20.86,0,0,0-3.59,4.47,16.72,16.72,0,0,0-2.45,8.16c0,1.09,0,2.19,0,3.29a15.56,15.56,0,0,0,3.14,8.95,17,17,0,0,0,4.47,4.48,17.59,17.59,0,0,0,11.73,2.85,17.19,17.19,0,0,0,7.63-2.8,16.33,16.33,0,0,1,1.84-.87A18.14,18.14,0,0,1,183,287.7a20.45,20.45,0,1,1-12.56-38.84A16.81,16.81,0,0,1,172.47,248.59Z"/><path class="cls-11" d="M190.13,265.11c0,.41,0,.82,0,1.23a4.36,4.36,0,0,1-3.32,3.71,3.12,3.12,0,0,1-1.8-.23,10.9,10.9,0,0,1-4.16-3.57,35.45,35.45,0,0,1-2.61-3.91,9.22,9.22,0,0,1-1.32-5.08,4.15,4.15,0,0,1,3.76-3.66,6.76,6.76,0,0,1,3.85,1.11,12.54,12.54,0,0,1,5.13,7.18c.29,1,.4,2.13.59,3.2Z"/><path class="cls-11" d="M185.6,275.33a2.76,2.76,0,0,1,2.88-3.17,2.72,2.72,0,0,1,2.91,2.94,3.2,3.2,0,0,1-2.81,3.21A3.1,3.1,0,0,1,185.6,275.33Z"/><path class="cls-11" d="M57.22,117.45c.18-1.77.51-3.53.53-5.3.07-5.22,0-10.44,0-15.65a7.48,7.48,0,0,0-.25-1.4,1.89,1.89,0,0,1-2.18,1.69,40.26,40.26,0,0,1-4.92-.14,39.58,39.58,0,0,0-5.1-.33,9.79,9.79,0,0,1-1.63-.07c-2.62-.58-5.3-.31-7.94-.66-2.43-.33-4.9-.16-7.36-.4-3.25-.32-6.54,0-9.81-.43a34.42,34.42,0,0,0-4.31,0,12.74,12.74,0,0,0,.35,3.84,51,51,0,0,0,3.2,10.32c.61,1.44,1.18,2.89,1.77,4.34,1.89.87,4,.91,6,1.24,1.41.23,2.84.33,4.26.51,1.75.22,3.49.54,5.25.7,2.37.22,4.75.32,7.13.47a3.08,3.08,0,0,1,.61,0,17.49,17.49,0,0,0,4.68.37,6.19,6.19,0,0,1,1.43,0A18.93,18.93,0,0,0,54,117,10.65,10.65,0,0,1,57.22,117.45Z"/><path class="cls-11" d="M19.67,77.79c-.49.55-1,1.08-1.45,1.66a41.64,41.64,0,0,0-4,6.34,11.38,11.38,0,0,0-.49,1.31l.09,4.28,7.61.06a6.39,6.39,0,0,1,1.64.06,18.17,18.17,0,0,0,4.29.31,33.71,33.71,0,0,1,4.72.12,37.09,37.09,0,0,0,4.7.31,11.3,11.3,0,0,1,2.26.07,23.68,23.68,0,0,0,4.9.35,9.85,9.85,0,0,1,1.44.07c3,.55,6,.31,9,.69a5.87,5.87,0,0,1,3.07.94c-.15-2.24-.2-4.5-.49-6.72-.42-3.25-1-6.47-1.55-9.7a9.71,9.71,0,0,0-.4-1.37l-9.85-.48a1.4,1.4,0,0,1-.41-.06,9.69,9.69,0,0,0-3.26-.29h-6a11.57,11.57,0,0,0-1.44.07c-1.89.23-3.78.56-5.69.69a65.31,65.31,0,0,0-6.68,1C21,77.65,20.35,77.71,19.67,77.79Z"/><path class="cls-13" d="M9.37,115.28c.12.94.18,1.89.36,2.82a45.81,45.81,0,0,0,4.48,12.64,7.24,7.24,0,0,0,.48.65,3.59,3.59,0,0,1,1.93.59c.68.33,1.34.7,2,1a85.59,85.59,0,0,0,11.47,3.69A40,40,0,0,0,41,138c2.46-.1,4.92,0,7.39,0a12.2,12.2,0,0,0,3.85-.32,5.22,5.22,0,0,1,1.63,0l.33-1.27a44,44,0,0,1-7.93-1.89c-.76-.29-1.55-.52-2.33-.78a38.19,38.19,0,0,1-9-4.4c-1.71-1.13-3.31-2.39-4.94-3.63a39.45,39.45,0,0,1-6.41-6.57,6.35,6.35,0,0,1-.71-1.66,17,17,0,0,1-3.41-.44c-2.11-.42-4.23-.78-6.35-1.14C11.91,115.63,10.64,115.47,9.37,115.28Z"/><path class="cls-11" d="M22.93,117.43a6.35,6.35,0,0,0,.71,1.66,39.45,39.45,0,0,0,6.41,6.57c1.63,1.24,3.23,2.5,4.94,3.63a38.19,38.19,0,0,0,9,4.4c.78.26,1.57.49,2.33.78a44,44,0,0,0,7.93,1.89c.33-1.23.77-2.45,1-3.71.64-3.75,1.19-7.51,1.76-11.27a3.7,3.7,0,0,0,0-.81,8.9,8.9,0,0,1-2.25,0,18.41,18.41,0,0,0-3.47-.29c-3.07-.14-6.14-.3-9.22-.46l-.61-.06c-1-.11-1.89-.22-2.84-.31-.48-.05-1,0-1.44-.07-2.1-.24-4.19-.54-6.3-.73A69.7,69.7,0,0,1,22.93,117.43Z"/><path class="cls-13" d="M17.91,136.35a9,9,0,0,0,.63,1c6.59,8.15,15,13.15,25.46,14.37A35.23,35.23,0,0,0,55.85,151a6.25,6.25,0,0,0,1.36-.47,1.55,1.55,0,0,0,.87-1.7,1.6,1.6,0,0,0-1.6-1.33,6.84,6.84,0,0,0-1.42.2c-1,.18-2,.41-3,.55a10.68,10.68,0,0,1-1.6,0,3.26,3.26,0,0,1,.59-2,25.38,25.38,0,0,0,1.83-5l-3.91,0a4.49,4.49,0,0,0-1.43.12,7,7,0,0,1-2.64.27,33.81,33.81,0,0,1-6.35-.33c-1.31-.28-2.7-.2-4.06-.41a70.22,70.22,0,0,1-9.95-2.36C22.29,137.9,20.11,137.1,17.91,136.35Z"/><path class="cls-11" d="M54.2,73.28a23.79,23.79,0,0,0-2.26-6.77,4,4,0,0,1-.61-1.28c-.15-2-1.94-2.27-3.23-3a1.27,1.27,0,0,0-1.48.44,2.36,2.36,0,0,1-1.65.7,34.87,34.87,0,0,0-9.1,2.31,8.4,8.4,0,0,1-1,.24c-.39.65-1.07.74-1.71.93a41.28,41.28,0,0,0-8.61,5.74,11.61,11.61,0,0,0-.94,1c1.21-.14,2.43-.24,3.64-.42a57.67,57.67,0,0,1,9.36-.78c2.74,0,5.48,0,8.21,0,.55,0,1.09.05,1.64.1,1,.08,1.89.2,2.84.28.68.06,1.37,0,2,.11C52.31,73,53.25,73.17,54.2,73.28Z"/><path class="cls-12" d="M22.93,117.43a69.7,69.7,0,0,0,7.88,1.2c2.11.19,4.2.49,6.3.73.47.06,1,0,1.44.07,1,.09,1.89.2,2.84.31l.61.06c3.08.16,6.15.32,9.22.46a18.41,18.41,0,0,1,3.47.29,8.9,8.9,0,0,0,2.25,0c.09-1,.19-2.08.28-3.13A11,11,0,0,0,54,117a18.93,18.93,0,0,1-5.09-.34,6.19,6.19,0,0,0-1.43,0,17.49,17.49,0,0,1-4.68-.37,3.08,3.08,0,0,0-.61,0c-2.38-.15-4.76-.25-7.13-.47-1.76-.16-3.5-.48-5.25-.7-1.42-.18-2.85-.28-4.26-.51-2-.33-4.07-.37-6-1.24a15.32,15.32,0,0,1-2.45-.09c-2.06-.39-4.11-.89-6.17-1.32-.65-.13-1.34-.15-2-.22a10.29,10.29,0,0,0,.41,3.66c1.27.19,2.54.35,3.8.57,2.12.36,4.24.72,6.35,1.14A17,17,0,0,0,22.93,117.43Z"/><path class="cls-12" d="M57.45,94.36a5.87,5.87,0,0,0-3.07-.94c-3-.38-6-.14-9-.69A9.85,9.85,0,0,0,44,92.66a23.68,23.68,0,0,1-4.9-.35,11.3,11.3,0,0,0-2.26-.07,37.09,37.09,0,0,1-4.7-.31,33.71,33.71,0,0,0-4.72-.12,18.17,18.17,0,0,1-4.29-.31,6.39,6.39,0,0,0-1.64-.06l-7.61-.06-2,0c-.35,1.09-.69,2.17-1,3.25l3.43.08a34.42,34.42,0,0,1,4.31,0c3.27.4,6.56.11,9.81.43,2.46.24,4.93.07,7.36.4,2.64.35,5.32.08,7.94.66a9.79,9.79,0,0,0,1.63.07,39.58,39.58,0,0,1,5.1.33,40.26,40.26,0,0,0,4.92.14,1.89,1.89,0,0,0,2.18-1.69C57.5,94.85,57.47,94.61,57.45,94.36Z"/><path class="cls-16" d="M36.11,37.08a12,12,0,0,1-3.64,5.36,3.63,3.63,0,0,1-2.76,1.13,3.21,3.21,0,0,0-.62,0A7.16,7.16,0,0,1,23.75,42a7.35,7.35,0,0,1-2.65-7.64c.33-1.11.61-2.23.91-3.34a6.57,6.57,0,0,1,3.23-1.2c5.29-1,10.47,2.52,11.61,6.38C36.6,36.47,36.22,36.73,36.11,37.08Zm-6.94-4.67a2.48,2.48,0,0,0-2.67,1.44,2.71,2.71,0,0,0,.34,3.07,7.43,7.43,0,0,0,1.79,1.66,2.8,2.8,0,0,0,3.57-.44,2.47,2.47,0,0,0,.58-2.09A3.74,3.74,0,0,0,29.17,32.41Z"/><path class="cls-12" d="M17.91,136.35c2.2.75,4.38,1.55,6.6,2.24a70.22,70.22,0,0,0,10,2.36c1.36.21,2.75.13,4.06.41a33.81,33.81,0,0,0,6.35.33,7,7,0,0,0,2.64-.27,4.49,4.49,0,0,1,1.43-.12l3.91,0,1-3.63a5.22,5.22,0,0,0-1.63,0,12.2,12.2,0,0,1-3.85.32c-2.47,0-4.93-.07-7.39,0a40,40,0,0,1-10.9-1.38A85.59,85.59,0,0,1,18.66,133c-.7-.27-1.36-.64-2-1a3.59,3.59,0,0,0-1.93-.59A17.42,17.42,0,0,0,17.91,136.35Z"/><path class="cls-13" d="M14.27,94.75l-3.43-.08A18.29,18.29,0,0,0,9.52,99.8,40.75,40.75,0,0,0,9,111.62c.67.07,1.36.09,2,.22,2.06.43,4.11.93,6.17,1.32a15.32,15.32,0,0,0,2.45.09c-.59-1.45-1.16-2.9-1.77-4.34a51,51,0,0,1-3.2-10.32A12.74,12.74,0,0,1,14.27,94.75Z"/><path class="cls-17" d="M36.85,36.16c-.25.31-.63.57-.74.92a12,12,0,0,1-3.64,5.36,3.63,3.63,0,0,1-2.76,1.13,3.21,3.21,0,0,0-.62,0A7.16,7.16,0,0,1,23.75,42a7.35,7.35,0,0,1-2.65-7.64c.33-1.11.61-2.23.91-3.34a8.49,8.49,0,0,0-4.5,4.71,14.26,14.26,0,0,0,.85,5.65,8.64,8.64,0,0,0,4.07,5.22,14.69,14.69,0,0,0,4.45,1.49A7.45,7.45,0,0,0,29.14,48c.8-.13,1.57-.46,2.37-.64a5.05,5.05,0,0,0,3.11-2.23,14.77,14.77,0,0,0,2.16-3.71,7.44,7.44,0,0,1,.94-1.56A6,6,0,0,0,36.85,36.16Z"/><path class="cls-12" d="M54.2,73.28c-1-.11-1.89-.24-2.84-.33-.68-.06-1.37,0-2-.11-1-.08-1.89-.2-2.84-.28-.55,0-1.09-.1-1.64-.1-2.73,0-5.47,0-8.21,0a57.67,57.67,0,0,0-9.36.78c-1.21.18-2.43.28-3.64.42a17,17,0,0,0-3.95,4.17c.68-.08,1.36-.14,2-.25a65.31,65.31,0,0,1,6.68-1c1.91-.13,3.8-.46,5.69-.69a11.57,11.57,0,0,1,1.44-.07h6a9.69,9.69,0,0,1,3.26.29,1.4,1.4,0,0,0,.41.06l9.85.48A8.71,8.71,0,0,0,54.2,73.28Z"/><path class="cls-18" d="M37.72,39.85a7.44,7.44,0,0,0-.94,1.56,14.77,14.77,0,0,1-2.16,3.71,5.05,5.05,0,0,1-3.11,2.23c-.8.18-1.57.51-2.37.64a7.45,7.45,0,0,1-2.26.06,14.69,14.69,0,0,1-4.45-1.49,8.64,8.64,0,0,1-4.07-5.22,14.26,14.26,0,0,1-.85-5.65,9.06,9.06,0,0,0-1.05,6.87A10.81,10.81,0,0,0,26.7,51.28c.61,0,1.22,0,1.84,0l1.84-.4c.55-.27,1.12-.5,1.65-.8a10.68,10.68,0,0,0,5.83-9.42A3.84,3.84,0,0,0,37.72,39.85Z"/><path class="cls-19" d="M30.38,50.87l-1.84.4a30.15,30.15,0,0,0,.69,3,2.67,2.67,0,0,0,3.48,2c.85-.16,1.69-.38,2.76-.63-.14.46-.15.76-.3.9A19.26,19.26,0,0,1,33,58.44a3.24,3.24,0,0,0-1.27,4.13c.49,1.41,1,2.84,1.43,4.27.63-.19,1.31-.28,1.7-.93-.49-1.69-1.3-3.3-1.4-5.2.5-.44,1-.86,1.51-1.33,1-1,2-1.89,2.89-2.9a3.62,3.62,0,0,0,.74-1.43,1.3,1.3,0,0,0-1.24-1.73,8.61,8.61,0,0,0-2,.21c-.73.16-1.44.44-2.17.62-.52.12-1.06.14-1.6.21C30.65,53.32,30.84,52,30.38,50.87Z"/><path class="cls-13" d="M11.87,91.42l2,0-.09-4.28A12.26,12.26,0,0,0,11.87,91.42Z"/><path class="cls-20" d="M32.78,36.05a3.74,3.74,0,0,0-3.61-3.64,2.48,2.48,0,0,0-2.67,1.44,2.71,2.71,0,0,0,.34,3.07,7.43,7.43,0,0,0,1.79,1.66,2.8,2.8,0,0,0,3.57-.44A2.47,2.47,0,0,0,32.78,36.05Z"/><path class="cls-11" d="M279.64,112.44c-.19.72-.43,1.43-.57,2.16a126,126,0,0,0-2.4,18.46c0,.41,0,.81,0,1.22a39.06,39.06,0,0,1,3.91.08c3,.37,6,.58,9,.83,2.33.19,4.65.33,7,.39.14,0,.27,0,.41,0,1,.11,2,.28,3.06.3,3,.05,6,.05,9.06.05,1.85,0,3.71-.06,5.56-.09a3.5,3.5,0,0,1,1.1-2.35,42.36,42.36,0,0,0,4.61-8.19,26,26,0,0,0,2.22-6.77,12.33,12.33,0,0,0-3.75-.76c-1.55-.23-3.13-.27-4.67-.5a64,64,0,0,0-7.31-.79c-.28,0-.55,0-.82-.07-2.09-.24-4.19-.52-6.29-.71-2.31-.2-4.62-.32-6.93-.47l-.21,0c-3-.39-5.95-.66-8.95-.78a16.6,16.6,0,0,1-2.42-.35A1.85,1.85,0,0,1,279.64,112.44Z"/><path class="cls-11" d="M284.94,94.27a10.63,10.63,0,0,0-.62,1.27,139.55,139.55,0,0,0-4.56,15.66,4.35,4.35,0,0,0-.05.81c.86-1.3,2.14-1.32,3.48-1.15.74.09,1.48.27,2.22.32,2.46.18,4.92.32,7.37.47l.41,0c2.31.24,4.62.51,6.93.72,2.11.19,4.22.31,6.34.47.2,0,.4.09.6.11l5.49.67c1.89.23,3.79.48,5.69.7,1.69.2,3.39.37,5.09.55a9.36,9.36,0,0,0,.39-1.77,5.35,5.35,0,0,1,.5-2.17,2.36,2.36,0,0,0-.05-.6,35.35,35.35,0,0,0-4.56-9.88,8.12,8.12,0,0,1-1.41-.19c-2-.64-4-1.36-6-2a66.36,66.36,0,0,0-8.34-2.06c-2-.34-4-.62-6.06-.89-2.37-.31-4.75-.48-7.12-.67A33.14,33.14,0,0,1,284.94,94.27Z"/><path class="cls-13" d="M316.31,154.86c1-1.43,2.15-2.83,3.11-4.32a43,43,0,0,0,4.31-9.09c.25-.71.38-1.46.57-2.19-2.93.07-5.88-.35-8.79.35a4.33,4.33,0,0,1-1,0h-3.91a22.63,22.63,0,0,1-3.95,3.81A40.78,40.78,0,0,1,300,147.8a43,43,0,0,1-10.47,4,38.08,38.08,0,0,1-11.08,1.45c-.55,0-1.1,0-1.64,0,0,.56.07,1.11.11,1.67a3.21,3.21,0,0,1,.82,0c2.91.71,5.84,1.29,8.8,1.78a32.09,32.09,0,0,0,5.87.67c2.33-.07,4.66,0,7,0,1.84-.07,3.67-.29,5.49-.5,1.08-.12,2.15-.32,3.22-.52a48.39,48.39,0,0,0,6.92-1.76A1.08,1.08,0,0,1,316.31,154.86Z"/><path class="cls-11" d="M276.79,153.28c.54,0,1.09,0,1.64,0a38.08,38.08,0,0,0,11.08-1.45,43,43,0,0,0,10.47-4,40.78,40.78,0,0,0,6.65-4.37,22.63,22.63,0,0,0,3.95-3.81h-3.7c-.61,0-1.22-.05-1.84-.1-.88-.07-1.76-.21-2.64-.24-1.85-.05-3.7,0-5.55-.07a5.23,5.23,0,0,1-1.43-.07,13.68,13.68,0,0,0-3.66-.32c-.62,0-1.24,0-1.85-.05-2.23-.23-4.46-.52-6.7-.74s-4.49-.37-6.73-.55c-.05.75-.15,1.5-.15,2.25,0,3.57,0,7.14.09,10.71A25.26,25.26,0,0,0,276.79,153.28Z"/><path class="cls-13" d="M277.51,158.58a20.29,20.29,0,0,0,1,5.22c.14.58.28,1.16.41,1.67-.56.52-1.05.26-1.47.12-1.3-.41-2.6-.87-3.88-1.35a1.88,1.88,0,0,0-1.59,0,1.57,1.57,0,0,0-.3,2.71,7.83,7.83,0,0,0,1.84.89,35.38,35.38,0,0,0,23.42.72,38.31,38.31,0,0,0,14.66-8.51,11.86,11.86,0,0,0,.94-1.06l-2.83.42c-2,.3-4.05.61-6.06,1-2.3.39-4.63.23-6.93.64a11.57,11.57,0,0,1-4.48-.24c-1.59-.36-3.25-.07-4.89-.47-2.38-.58-4.84-.83-7.23-1.37A15.69,15.69,0,0,0,277.51,158.58Z"/><path class="cls-11" d="M316.38,95.92c-.45-.6-.85-1.23-1.35-1.79a44.7,44.7,0,0,0-7-6.31,2.82,2.82,0,0,1-1.6-1.17c-.43-.19-.89-.34-1.3-.57a34.87,34.87,0,0,0-7.89-3.33,3.37,3.37,0,0,1-2.05-1.21,1.49,1.49,0,0,0-1.86-.39,13.64,13.64,0,0,1-1.32.55,2.12,2.12,0,0,0-1.57,1.44,12,12,0,0,1-.93,1.57c-1,1.78-2,3.56-3,5.36a4.17,4.17,0,0,0-.23,1c1.22.11,2.43.31,3.65.32a87.06,87.06,0,0,1,9.54.82,74.31,74.31,0,0,1,9,1.64C311.14,94.48,313.75,95.22,316.38,95.92Z"/><path class="cls-12" d="M276.48,137.47c2.24.18,4.49.34,6.73.55s4.47.51,6.7.74c.61.06,1.23,0,1.85.05a13.68,13.68,0,0,1,3.66.32,5.23,5.23,0,0,0,1.43.07c1.85,0,3.7,0,5.55.07.88,0,1.76.17,2.64.24.62.05,1.23.09,1.84.1h7.61a4.33,4.33,0,0,0,1,0c2.91-.7,5.86-.28,8.79-.35a10.8,10.8,0,0,0,1-3.74,33.7,33.7,0,0,0-4.49.37c-2.05.13-4.11,0-6.17,0-1.85,0-3.71.09-5.56.09-3,0-6,0-9.06-.05-1,0-2-.19-3.06-.3-.14,0-.27,0-.41,0-2.32-.06-4.64-.2-7-.39-3-.25-6-.46-9-.83a39.06,39.06,0,0,0-3.91-.08A6.89,6.89,0,0,0,276.48,137.47Z"/><path class="cls-12" d="M323.33,114.92c-1.7-.18-3.4-.35-5.09-.55-1.9-.22-3.8-.47-5.69-.7l-5.49-.67c-.2,0-.4-.09-.6-.11-2.12-.16-4.23-.28-6.34-.47-2.31-.21-4.62-.48-6.93-.72l-.41,0c-2.45-.15-4.91-.29-7.37-.47-.74-.05-1.48-.23-2.22-.32-1.34-.17-2.62-.15-3.48,1.15l-.07.43a1.85,1.85,0,0,0,1.57,1.67,16.6,16.6,0,0,0,2.42.35c3,.12,6,.39,8.95.78l.21,0c2.31.15,4.62.27,6.93.47,2.1.19,4.2.47,6.29.71.27,0,.54.06.82.07a64,64,0,0,1,7.31.79c1.54.23,3.12.27,4.67.5a12.33,12.33,0,0,1,3.75.76l3.37,0a8.72,8.72,0,0,0-.57-3.28C324.68,115.22,323.91,115.55,323.33,114.92Z"/><path class="cls-16" d="M324.29,54.74a5.49,5.49,0,0,0,.31,1.39c1.28,3.31-1.14,7.57-4.37,9a6.66,6.66,0,0,1-6,.11,7.55,7.55,0,0,1-3.44-3.42,38.68,38.68,0,0,1-1.52-4.23c-.09-.26-.2-.5-.3-.75a9.9,9.9,0,0,1,8.44-4.93,9.35,9.35,0,0,1,7.15,2.39C324.5,54.42,324.27,54.59,324.29,54.74Zm-9.68.21c-.8.84-1.79,1.57-1.94,2.81a3,3,0,0,0,3.31,3,12.37,12.37,0,0,0,1.55-.54,3.4,3.4,0,0,0,2-4.22,2.22,2.22,0,0,0-1.84-1.72,3.78,3.78,0,0,0-.82,0A2.54,2.54,0,0,0,314.61,55Z"/><path class="cls-12" d="M277.51,158.58a15.69,15.69,0,0,1,2.63.36c2.39.54,4.85.79,7.23,1.37,1.64.4,3.3.11,4.89.47a11.57,11.57,0,0,0,4.48.24c2.3-.41,4.63-.25,6.93-.64,2-.35,4-.66,6.06-1l2.83-.42a17,17,0,0,0,3.75-4.14,1.08,1.08,0,0,0-1.31-.28,48.39,48.39,0,0,1-6.92,1.76c-1.07.2-2.14.4-3.22.52-1.82.21-3.65.43-5.49.5-2.32.08-4.65,0-7,0a32.09,32.09,0,0,1-5.87-.67c-3-.49-5.89-1.07-8.8-1.78a3.21,3.21,0,0,0-.82,0A12.44,12.44,0,0,0,277.51,158.58Z"/><path class="cls-13" d="M325.93,118.6l-3.37,0a26,26,0,0,1-2.22,6.77,42.36,42.36,0,0,1-4.61,8.19,3.5,3.5,0,0,0-1.1,2.35c2.06,0,4.12.14,6.17,0a33.7,33.7,0,0,1,4.49-.37c.26-1.27.6-2.54.78-3.82a47.78,47.78,0,0,0,.06-12.53A2.42,2.42,0,0,0,325.93,118.6Z"/><path class="cls-12" d="M316.38,95.92c-2.63-.7-5.24-1.44-7.88-2.1a74.31,74.31,0,0,0-9-1.64,87.06,87.06,0,0,0-9.54-.82c-1.22,0-2.43-.21-3.65-.32a7.84,7.84,0,0,0-1.36,3.23,33.14,33.14,0,0,0,5.71.45c2.37.19,4.75.36,7.12.67,2,.27,4,.55,6.06.89a66.36,66.36,0,0,1,8.34,2.06c2,.61,4,1.33,6,2a8.12,8.12,0,0,0,1.41.19A16.38,16.38,0,0,0,316.38,95.92Z"/><path class="cls-17" d="M324.61,54.26c-.11.16-.34.33-.32.48a5.49,5.49,0,0,0,.31,1.39c1.28,3.31-1.14,7.57-4.37,9a6.66,6.66,0,0,1-6,.11,7.55,7.55,0,0,1-3.44-3.42,38.68,38.68,0,0,1-1.52-4.23c-.09-.26-.2-.5-.3-.75a7.43,7.43,0,0,0-1.63,4.09c.2.15.57.28.6.46a16.43,16.43,0,0,0,1.86,4.74,6.58,6.58,0,0,0,4.32,3.46,14.44,14.44,0,0,0,5.47.35,7,7,0,0,0,3.9-1.65,10.8,10.8,0,0,0,3.79-5.45,13.75,13.75,0,0,0,.58-3.81A7.17,7.17,0,0,0,324.61,54.26Z"/><path class="cls-21" d="M327.91,59a13.75,13.75,0,0,1-.58,3.81,10.8,10.8,0,0,1-3.79,5.45,7,7,0,0,1-3.9,1.65,14.44,14.44,0,0,1-5.47-.35,6.58,6.58,0,0,1-4.32-3.46A16.43,16.43,0,0,1,308,61.35c0-.18-.4-.31-.6-.46-.76,4.35.82,7.77,4.19,10.47.48.38,1,.71,1.5,1.06a2.87,2.87,0,0,1,1.79.76l2,.23a10.82,10.82,0,0,0,11.73-12.56A2.85,2.85,0,0,0,327.91,59Z"/><path class="cls-1" d="M314.87,73.18a2.87,2.87,0,0,0-1.79-.76,11.16,11.16,0,0,1-1.53,3.28,9.24,9.24,0,0,1-1.28-.28c-.83-.32-1.63-.72-2.46-1a8.52,8.52,0,0,0-1.75-.57,1.43,1.43,0,0,0-1.7,1.73A4,4,0,0,0,305,77c.78,1.13,1.62,2.21,2.46,3.29.38.48.8.93,1.23,1.43a26.15,26.15,0,0,1-2.23,4.89,2.82,2.82,0,0,0,1.6,1.17l2.12-4.23a3.06,3.06,0,0,0-.65-3.92,20.58,20.58,0,0,1-1.61-1.87c-.22-.27-.31-.6-.1-.83s.6-.14.84-.06a14.29,14.29,0,0,1,1.54.58A2.61,2.61,0,0,0,313.74,76C314.18,75.12,314.5,74.13,314.87,73.18Z"/><path class="cls-13" d="M323.33,114.92c.58.63,1.35.3,2,.4a10.3,10.3,0,0,0-1.14-4.34,5.35,5.35,0,0,0-.5,2.17A9.36,9.36,0,0,1,323.33,114.92Z"/><path class="cls-20" d="M316.87,54.31a2.54,2.54,0,0,0-2.26.64c-.8.84-1.79,1.57-1.94,2.81a3,3,0,0,0,3.31,3,12.37,12.37,0,0,0,1.55-.54,3.4,3.4,0,0,0,2-4.22,2.22,2.22,0,0,0-1.84-1.72A3.78,3.78,0,0,0,316.87,54.31Z"/><path class="cls-1" d="M195.35,16.72c4.4.67,8.67,1.93,13,3,4,1,7.89,2.29,11.76,3.64a92.42,92.42,0,0,1,11.38,4.71c1.1.56,2.29.93,3.37,1.51A101.68,101.68,0,0,1,249,38.35c1.3,1,2.49,2.13,3.74,3.2a25.41,25.41,0,0,1,2.49,2.13,76.38,76.38,0,0,1,7.63,9.11,71.45,71.45,0,0,1,7,13.46,77.25,77.25,0,0,1,3.45,11.38,50.66,50.66,0,0,1,1.45,8.05c.11,1.56.49,3.09.73,4.64a10.12,10.12,0,0,1,0,1.23,8.24,8.24,0,0,0,.29,2.65,5.17,5.17,0,0,1,.12,1.63c0,5.84,0,11.68,0,17.52,0,1.22-.28,2.44-.38,3.66s.16,2.48-.34,3.67a2,2,0,0,0-.07.61c-.15,1.7-.22,3.41-.46,5.1-.36,2.63-.75,5.27-1.29,7.87-.84,4.08-1.57,8.19-2.78,12.18-.85,2.82-1.69,5.64-2.71,8.4a67.58,67.58,0,0,1-3.47,7.9,52.41,52.41,0,0,1-5.3,8.3,42.49,42.49,0,0,1-4.57,5,40.5,40.5,0,0,1-8.43,6.15c-1.21.64-2.35,1.42-3.6,2a72.51,72.51,0,0,1-14.33,5,71,71,0,0,1-7,1.51c-2.44.28-4.82,1-7.29,1-1.84.68-3.8.22-5.68.72a14.31,14.31,0,0,1-3.28.1,8.82,8.82,0,0,0-2.65.27,6.23,6.23,0,0,1-1.84.13H165a4.42,4.42,0,0,1-1,0c-3.12-.73-6.29-.24-9.43-.38a10.18,10.18,0,0,1-3.05-.31,5,5,0,0,0-1.64-.1,28.36,28.36,0,0,1-4.52-.06c-2.26-.38-4.53-.12-6.75-.43-2-.28-4-.07-5.92-.41-2.67-.47-5.33-.23-8-.36-.74,0-1.48-.18-2.23-.25s-1.5-.14-2.25-.14H97.94a7.66,7.66,0,0,1-2.85-.29,3.28,3.28,0,0,0-1.22-.11H88.93c-.48,0-1,0-1.33.38-1.69-.27-3.39-.48-5.06-.82a54.87,54.87,0,0,1-13.25-4.4A37,37,0,0,1,51.4,166.77a67.31,67.31,0,0,1-3.8-10.87,142.91,142.91,0,0,1-4-26.64c-.41-5.89-.63-11.8-.72-17.71a338.12,338.12,0,0,1,1.4-37.25,159.7,159.7,0,0,1,3-19.95,65.44,65.44,0,0,1,5-14.78A35.92,35.92,0,0,1,70.41,22.09,67.87,67.87,0,0,1,82.9,18a184.68,184.68,0,0,1,31.41-4c6.38-.35,12.76-.46,19.15-.56q16.28-.26,32.53.59c6.66.34,13.3.76,19.95,1.2,2.94.19,5.87.53,8.81.8C194.82,16.34,194.94,16.66,195.35,16.72Zm26.38,164.69a53,53,0,0,0,9.56-1.39,28.76,28.76,0,0,0,12.29-6.43,28.19,28.19,0,0,0,5.55-7.11,59.3,59.3,0,0,0,5.31-13.58,149.67,149.67,0,0,0,3.84-19.79c.82-6.13,1.45-12.27,1.85-18.44a178.63,178.63,0,0,0,.42-19.77,69.23,69.23,0,0,0-1.92-15.09,48.81,48.81,0,0,0-1.6-4.88,25.38,25.38,0,0,0-11.41-13.09,55.83,55.83,0,0,0-12.56-5.07,145.63,145.63,0,0,0-19.92-4.17c-5-.69-9.93-1.3-14.9-1.92A21.34,21.34,0,0,0,196,50.6a35.78,35.78,0,0,0-6.52-.82q-7.17-.66-14.36-1.12c-4.17-.26-8.36-.4-12.54-.58-1.78-.08-3.56-.15-5.35-.21a4.56,4.56,0,0,0-.8.12c-.61-.07-1.22-.19-1.83-.2q-12.45-.28-24.9.4a143.16,143.16,0,0,0-20,2.36,56.36,56.36,0,0,0-11.23,3.32,26,26,0,0,0-13.5,12.69,49.11,49.11,0,0,0-4,12.09A135.7,135.7,0,0,0,78.83,95a260.73,260.73,0,0,0-.69,27,144.56,144.56,0,0,0,2.07,22.74,61.39,61.39,0,0,0,3.54,12.66c3.32,8.08,9.29,13.25,17.45,16a1.75,1.75,0,0,0,.4,0,18.58,18.58,0,0,0,5.32,1.52q5,.87,10,1.43c6.48.72,13,1,19.51,1.32q11.22.54,22.41,1.21c4.66.28,9.31.7,14,1,2.54.18,5.07.32,7.61.44,4.18.19,8.37.35,12.55.53,1.65.07,3.29.18,4.94.25.88,0,1.78,0,2.67,0A161,161,0,0,0,221.73,181.41ZM58.84,64.59a7.06,7.06,0,0,0,4.54,2.9A8,8,0,0,0,68.19,67,11.15,11.15,0,0,0,72,64.69a41.49,41.49,0,0,0,5.13-5.62c2-2.74,4.14-5.45,6.24-8.15a22.3,22.3,0,0,1,4.12-3.7,41.37,41.37,0,0,1,8.86-5.56c2.14-.92,4.35-1.68,6.49-2.6,1.32-.56,2.56-1.29,3.84-1.94A4.49,4.49,0,0,0,108,35.84a5.09,5.09,0,0,0-.19-6.46,8.11,8.11,0,0,0-2.68-2.21,15,15,0,0,0-6.48-1.78,9.83,9.83,0,0,1-1.21-.19A5.83,5.83,0,0,0,96,25.06a47.59,47.59,0,0,0-11.43,2.22,46,46,0,0,0-10.47,5.63A55.18,55.18,0,0,0,65,41.24,50.37,50.37,0,0,0,60.76,47a22.13,22.13,0,0,0-2.36,4.56,17.11,17.11,0,0,0-1.32,6.81A10.33,10.33,0,0,0,58.84,64.59Zm5.32,20a10,10,0,0,0,1.55-4.19c.32-1.93-1-5.64-3.53-6.64a6.58,6.58,0,0,0-6.42.73,7.29,7.29,0,0,0-3.11,5.13,6.31,6.31,0,0,0,1.74,5.66,2.65,2.65,0,0,1,.29.29,4.34,4.34,0,0,0,4.15,1.76A5.57,5.57,0,0,0,64.16,84.55Z"/><path class="cls-2" d="M194.75,16c.07.35.19.67.6.73,4.4.67,8.67,1.93,13,3,4,1,7.89,2.29,11.76,3.64a92.42,92.42,0,0,1,11.38,4.71c1.1.56,2.29.93,3.37,1.51A101.68,101.68,0,0,1,249,38.35c1.3,1,2.49,2.13,3.74,3.2a25.41,25.41,0,0,1,2.49,2.13,76.38,76.38,0,0,1,7.63,9.11,71.45,71.45,0,0,1,7,13.46,77.25,77.25,0,0,1,3.45,11.38,50.66,50.66,0,0,1,1.45,8.05c.11,1.56.49,3.09.73,4.64a10.12,10.12,0,0,1,0,1.23,8.24,8.24,0,0,0,.29,2.65,5.17,5.17,0,0,1,.12,1.63c0,5.84,0,11.68,0,17.52,0,1.22-.28,2.44-.38,3.66s.16,2.48-.34,3.67a2,2,0,0,0-.07.61c-.15,1.7-.22,3.41-.46,5.1-.36,2.63-.75,5.27-1.29,7.87-.84,4.08-1.57,8.19-2.78,12.18-.85,2.82-1.69,5.64-2.71,8.4a67.58,67.58,0,0,1-3.47,7.9,52.41,52.41,0,0,1-5.3,8.3,42.49,42.49,0,0,1-4.57,5,40.5,40.5,0,0,1-8.43,6.15c-1.21.64-2.35,1.42-3.6,2a72.51,72.51,0,0,1-14.33,5,71,71,0,0,1-7,1.51c-2.44.28-4.82,1-7.29,1-1.84.68-3.8.22-5.68.72a14.31,14.31,0,0,1-3.28.1,8.82,8.82,0,0,0-2.65.27,6.23,6.23,0,0,1-1.84.13H165a4.42,4.42,0,0,1-1,0c-3.12-.73-6.29-.24-9.43-.38a10.18,10.18,0,0,1-3.05-.31,5,5,0,0,0-1.64-.1,28.36,28.36,0,0,1-4.52-.06c-2.26-.38-4.53-.12-6.75-.43-2-.28-4-.07-5.92-.41-2.67-.47-5.33-.23-8-.36-.74,0-1.48-.18-2.23-.25s-1.5-.14-2.25-.14H97.94a7.66,7.66,0,0,1-2.85-.29,3.28,3.28,0,0,0-1.22-.11H88.93c-.48,0-1,0-1.33.38,1.48.26,3,.6,4.45.75,5,.49,10,1,15,1.34,6,.44,12.06.76,18.09,1.11,5.83.33,11.66.63,17.49.94,6.23.32,12.48.59,18.7,1.12,5.07.43,10.14.69,15.21,1q9.89.57,19.75,1.05c4.67.22,9.33.4,14,.58,5.28.21,10.57.42,15.85.59a147.14,147.14,0,0,0,20.78-.66,50.94,50.94,0,0,0,15.27-4,36.44,36.44,0,0,0,16.53-14.37A67.55,67.55,0,0,0,285,166.16a149.52,149.52,0,0,0,5.34-20.71c1.41-7.28,2.42-14.63,3.22-22q1.26-11.58,1.85-23.21c.35-7.15.46-14.29.24-21.43a97.58,97.58,0,0,0-2.4-20.22A50.77,50.77,0,0,0,290,49.06a35.06,35.06,0,0,0-13.07-15A62,62,0,0,0,263,27.51a166,166,0,0,0-20.7-5.37c-7.6-1.54-15.28-2.65-23-3.62-4.22-.53-8.46-.92-12.69-1.38-3-.32-6-.68-9-1C196.67,16.05,195.7,16,194.75,16Z"/><path class="cls-8" d="M157,48.48c4.11.67,8.15,1.69,12.18,2.72,5,1.28,9.85,2.83,14.72,4.47a114.89,114.89,0,0,1,11.46,4.5c3.48,1.61,7,3.23,10.36,5a75.9,75.9,0,0,1,8.45,5.44,60,60,0,0,1,8.5,7.73,34.26,34.26,0,0,1,3.84,5.32,47.23,47.23,0,0,1,4.73,10,80,80,0,0,1,2.21,8.1c.47,2,.85,4,1.15,6,.26,1.75.38,3.52.51,5.29a10.85,10.85,0,0,0,.33,3.05,4.23,4.23,0,0,1,.09,1.43q0,2.37,0,4.74a6.91,6.91,0,0,1-.32,2.85,2.4,2.4,0,0,0-.08.81,63.2,63.2,0,0,1-4.24,20,39.21,39.21,0,0,1-5,9.18,28.81,28.81,0,0,1-10.23,8.69A62.4,62.4,0,0,1,204,168.16c-4.53,1.32-9.17,2.11-13.76,3.14-2,.44-4,.61-6.06.93-1.21.2-2.4.48-3.61.66-1.49.22-3,.37-4.46.57-1.69.22-3.37.46-5.06.69-.41,0-.81.11-1.22.13a7.39,7.39,0,0,0-2.64.31,3.5,3.5,0,0,1-1.22.1,10.38,10.38,0,0,0-3.46.34,5.2,5.2,0,0,1-1.43.08,14.75,14.75,0,0,0-4.49.35,4.6,4.6,0,0,1-1.44.06c-6.72,0-13.45,0-20.18,0a21.13,21.13,0,0,1-2.23-.25c-.54-.06-1.09-.13-1.63-.14h-4.74a7.88,7.88,0,0,1-2.85-.29,4.15,4.15,0,0,0-1.42-.11,15.85,15.85,0,0,1-4.7-.37,5.21,5.21,0,0,0-1.43-.05,9.16,9.16,0,0,1-3.25-.32,3.85,3.85,0,0,0-1.23-.09,8.3,8.3,0,0,1-2.84-.31,4.5,4.5,0,0,0-1.43-.1,13.16,13.16,0,0,1-2.64-.28,3.53,3.53,0,0,0-3,.23,1.75,1.75,0,0,1-.4,0c-8.16-2.8-14.13-8-17.45-16a61.39,61.39,0,0,1-3.54-12.66,144.56,144.56,0,0,1-2.07-22.74,260.73,260.73,0,0,1,.69-27A135.7,135.7,0,0,1,81,78.65a49.11,49.11,0,0,1,4-12.09,26,26,0,0,1,13.5-12.69,56.36,56.36,0,0,1,11.23-3.32,143.16,143.16,0,0,1,20-2.36q12.44-.69,24.9-.4c.61,0,1.22.13,1.83.2C156.61,48.16,156.79,48.44,157,48.48ZM91,80.78a5.15,5.15,0,0,0,6.06,3,10.41,10.41,0,0,0,5.78-4.35c1.17-1.61,2.21-3.3,3.32-5a42.67,42.67,0,0,1,4.36-5.43,11.49,11.49,0,0,1,4.08-2.68c1-.4,1.93-.71,2.88-1.09a11,11,0,0,0,1.29-.63,4.14,4.14,0,0,0,2.11-5.06,3.41,3.41,0,0,0-1.11-1.68,9.5,9.5,0,0,0-3.51-1.59c-3.17-.71-6.11.13-8.94,1.33a31.53,31.53,0,0,0-11,8,24.18,24.18,0,0,0-4.93,7.5,10.9,10.9,0,0,0-.84,4.52A6.29,6.29,0,0,0,91,80.78Zm2.71,5.5a1.13,1.13,0,0,0-.57-.21c-1.93-.23-3.66,0-5,1.68-1.48,1.83-1.76,3.71-.5,5.68A3.4,3.4,0,0,0,91,95.06a5.59,5.59,0,0,0,3.32-1.47,4.16,4.16,0,0,0,1.56-3.8C96.2,88.11,94.82,87.26,93.69,86.28Z"/><path class="cls-8" d="M156.41,48c.2.17.38.45.6.49,4.11.67,8.15,1.69,12.18,2.72,5,1.28,9.85,2.83,14.72,4.47a114.89,114.89,0,0,1,11.46,4.5c3.48,1.61,7,3.23,10.36,5a75.9,75.9,0,0,1,8.45,5.44,60,60,0,0,1,8.5,7.73,34.26,34.26,0,0,1,3.84,5.32,47.23,47.23,0,0,1,4.73,10,80,80,0,0,1,2.21,8.1c.47,2,.85,4,1.15,6,.26,1.75.38,3.52.51,5.29a10.85,10.85,0,0,0,.33,3.05,4.23,4.23,0,0,1,.09,1.43q0,2.37,0,4.74a6.91,6.91,0,0,1-.32,2.85,2.4,2.4,0,0,0-.08.81,63.2,63.2,0,0,1-4.24,20,39.21,39.21,0,0,1-5,9.18,28.81,28.81,0,0,1-10.23,8.69A62.4,62.4,0,0,1,204,168.16c-4.53,1.32-9.17,2.11-13.76,3.14-2,.44-4,.61-6.06.93-1.21.2-2.4.48-3.61.66-1.49.22-3,.37-4.46.57-1.69.22-3.37.46-5.06.69-.41,0-.81.11-1.22.13a7.39,7.39,0,0,0-2.64.31,3.5,3.5,0,0,1-1.22.1,10.38,10.38,0,0,0-3.46.34,5.2,5.2,0,0,1-1.43.08,14.75,14.75,0,0,0-4.49.35,4.6,4.6,0,0,1-1.44.06c-6.72,0-13.45,0-20.18,0a21.13,21.13,0,0,1-2.23-.25c-.54-.06-1.09-.13-1.63-.14h-4.74a7.88,7.88,0,0,1-2.85-.29,4.15,4.15,0,0,0-1.42-.11,15.85,15.85,0,0,1-4.7-.37,5.21,5.21,0,0,0-1.43-.05,9.16,9.16,0,0,1-3.25-.32,3.85,3.85,0,0,0-1.23-.09,8.3,8.3,0,0,1-2.84-.31,4.5,4.5,0,0,0-1.43-.1,13.16,13.16,0,0,1-2.64-.28,3.53,3.53,0,0,0-3,.23,18.58,18.58,0,0,0,5.32,1.52q5,.87,10,1.43c6.48.72,13,1,19.51,1.32q11.22.54,22.41,1.21c4.66.28,9.31.7,14,1,2.54.18,5.07.32,7.61.44,4.18.19,8.37.35,12.55.53,1.65.07,3.29.18,4.94.25.88,0,1.78,0,2.67,0a7.83,7.83,0,0,1,1.16-.28c1.56-.19,3.13-.26,4.67-.54,2.34-.44,4.68-.94,7-1.56,5-1.35,10-2.79,14.49-5.6a31,31,0,0,0,6.78-5.26c1.42-1.57,2.64-3.31,3.91-5a31.14,31.14,0,0,0,3.11-5.77,67.79,67.79,0,0,0,3.79-10.62,92.4,92.4,0,0,0,2.59-12,42.2,42.2,0,0,0,.71-5.47,10.13,10.13,0,0,1,.14-1.22c.09-.74.19-1.49.26-2.23a6.25,6.25,0,0,1,0-1.23c.62-2.09.29-4.23.38-6.34a6.58,6.58,0,0,1,.09-1.84,10.71,10.71,0,0,0,.31-3.47q0-3.7,0-7.41a4.51,4.51,0,0,0-.07-1.43,14.1,14.1,0,0,1-.33-4.29c0-.68,0-1.37-.09-2.05-.21-1.62-.5-3.23-.73-4.85-.18-1.28-.24-2.58-.52-3.85a50.85,50.85,0,0,0-2.84-9.82,32.1,32.1,0,0,0-3.6-6.44c-1.38-1.82-3.09-3.29-4.62-5a22.25,22.25,0,0,0-3.8-3.11,60.51,60.51,0,0,0-12.13-6.44,102.93,102.93,0,0,0-11.62-4c-3.75-1-7.5-2-11.33-2.73a4.11,4.11,0,0,1-2.3-.74,35.78,35.78,0,0,0-6.52-.82q-7.17-.66-14.36-1.12c-4.17-.26-8.36-.4-12.54-.58-1.78-.08-3.56-.15-5.35-.21A4.56,4.56,0,0,0,156.41,48Z"/><path class="cls-8" d="M196,50.6a4.11,4.11,0,0,0,2.3.74c3.83.7,7.58,1.71,11.33,2.73a102.93,102.93,0,0,1,11.62,4,60.51,60.51,0,0,1,12.13,6.44,22.25,22.25,0,0,1,3.8,3.11c1.53,1.67,3.24,3.14,4.62,5a32.1,32.1,0,0,1,3.6,6.44,50.85,50.85,0,0,1,2.84,9.82c.28,1.27.34,2.57.52,3.85.23,1.62.52,3.23.73,4.85.09.68.06,1.37.09,2.05a14.1,14.1,0,0,0,.33,4.29,4.51,4.51,0,0,1,.07,1.43q0,3.7,0,7.41a10.71,10.71,0,0,1-.31,3.47,6.58,6.58,0,0,0-.09,1.84c-.09,2.11.24,4.25-.38,6.34a6.25,6.25,0,0,0,0,1.23c-.07.74-.17,1.49-.26,2.23a10.13,10.13,0,0,0-.14,1.22,42.2,42.2,0,0,1-.71,5.47,92.4,92.4,0,0,1-2.59,12,67.79,67.79,0,0,1-3.79,10.62,31.14,31.14,0,0,1-3.11,5.77c-1.27,1.69-2.49,3.43-3.91,5a31,31,0,0,1-6.78,5.26c-4.47,2.81-9.46,4.25-14.49,5.6-2.3.62-4.64,1.12-7,1.56-1.54.28-3.11.35-4.67.54a7.83,7.83,0,0,0-1.16.28,161,161,0,0,0,21.18.24,53,53,0,0,0,9.56-1.39,28.76,28.76,0,0,0,12.29-6.43,28.19,28.19,0,0,0,5.55-7.11,59.3,59.3,0,0,0,5.31-13.58,149.67,149.67,0,0,0,3.84-19.79c.82-6.13,1.45-12.27,1.85-18.44a178.63,178.63,0,0,0,.42-19.77,69.23,69.23,0,0,0-1.92-15.09,48.81,48.81,0,0,0-1.6-4.88,25.38,25.38,0,0,0-11.41-13.09,55.83,55.83,0,0,0-12.56-5.07,145.63,145.63,0,0,0-19.92-4.17c-5-.69-9.93-1.3-14.9-1.92A21.34,21.34,0,0,0,196,50.6Z"/><path class="cls-1" d="M57.08,58.38a10.33,10.33,0,0,0,1.76,6.21,7.06,7.06,0,0,0,4.54,2.9A8,8,0,0,0,68.19,67,11.15,11.15,0,0,0,72,64.69a41.49,41.49,0,0,0,5.13-5.62c2-2.74,4.14-5.45,6.24-8.15a22.3,22.3,0,0,1,4.12-3.7,41.37,41.37,0,0,1,8.86-5.56c2.14-.92,4.35-1.68,6.49-2.6,1.32-.56,2.56-1.29,3.84-1.94A4.49,4.49,0,0,0,108,35.84a5.09,5.09,0,0,0-.19-6.46,8.11,8.11,0,0,0-2.68-2.21,15,15,0,0,0-6.48-1.78,9.83,9.83,0,0,1-1.21-.19A5.83,5.83,0,0,0,96,25.06a47.59,47.59,0,0,0-11.43,2.22,46,46,0,0,0-10.47,5.63A55.18,55.18,0,0,0,65,41.24,50.37,50.37,0,0,0,60.76,47a22.13,22.13,0,0,0-2.36,4.56A17.11,17.11,0,0,0,57.08,58.38Z"/><path class="cls-1" d="M58.83,87.29a5.57,5.57,0,0,0,5.33-2.74,10,10,0,0,0,1.55-4.19c.32-1.93-1-5.64-3.53-6.64a6.58,6.58,0,0,0-6.42.73,7.29,7.29,0,0,0-3.11,5.13,6.31,6.31,0,0,0,1.74,5.66,2.65,2.65,0,0,1,.29.29A4.34,4.34,0,0,0,58.83,87.29Z"/><path class="cls-8" d="M90.48,77.69a6.29,6.29,0,0,0,.5,3.09,5.15,5.15,0,0,0,6.06,3,10.41,10.41,0,0,0,5.78-4.35c1.17-1.61,2.21-3.3,3.32-5a42.67,42.67,0,0,1,4.36-5.43,11.49,11.49,0,0,1,4.08-2.68c1-.4,1.93-.71,2.88-1.09a11,11,0,0,0,1.29-.63,4.14,4.14,0,0,0,2.11-5.06,3.41,3.41,0,0,0-1.11-1.68,9.5,9.5,0,0,0-3.51-1.59c-3.17-.71-6.11.13-8.94,1.33a31.53,31.53,0,0,0-11,8,24.18,24.18,0,0,0-4.93,7.5A10.9,10.9,0,0,0,90.48,77.69Z"/><path class="cls-8" d="M95.84,89.79c.36-1.68-1-2.53-2.15-3.51a1.13,1.13,0,0,0-.57-.21c-1.93-.23-3.66,0-5,1.68-1.48,1.83-1.76,3.71-.5,5.68A3.4,3.4,0,0,0,91,95.06a5.59,5.59,0,0,0,3.32-1.47A4.16,4.16,0,0,0,95.84,89.79Z"/><path class="cls-11" d="M139.05,67.06c-1.23-1.06-2.65-.94-4.07-.59a11.71,11.71,0,0,0-2.09.84l-17.22,8.23c-1.29.62-2.59,1.24-3.84,1.94a13.79,13.79,0,0,0-2.35,1.65,7.46,7.46,0,0,0-2.5,7.76c.45.16.89.33,1.34.48a9.16,9.16,0,0,0,2.14.68,21.2,21.2,0,0,0,7.72-.64A59,59,0,0,0,129,83a25.64,25.64,0,0,0,6.46-4.65,11.59,11.59,0,0,0,3.6-8.83C139,68.71,139.05,67.89,139.05,67.06Z"/><path class="cls-11" d="M139.05,67.06c0,.83,0,1.65,0,2.47a11.59,11.59,0,0,1-3.6,8.83A25.64,25.64,0,0,1,129,83a59,59,0,0,1-10.8,4.4,21.2,21.2,0,0,1-7.72.64,9.16,9.16,0,0,1-2.14-.68c-.45-.15-.89-.32-1.34-.48a7.94,7.94,0,0,0,2,4.44,6.71,6.71,0,0,0,5,2.55,17.16,17.16,0,0,0,5.7-.65,54.22,54.22,0,0,0,7.54-2.72A74.71,74.71,0,0,0,137.48,85a17.51,17.51,0,0,0,3.63-3,9,9,0,0,0,2.26-7.81,11.75,11.75,0,0,0-2.07-5.11A4.51,4.51,0,0,0,139.05,67.06Z"/><path class="cls-11" d="M240.06,97.31a6.27,6.27,0,0,0-3.64-2.15c-1.84-.52-3.73-.91-5.61-1.26-4.58-.85-9.18-1.63-13.76-2.47-1.62-.3-3.22-.67-4.82-1-4.52-1-6.77,1.26-7.72,4.76a8.51,8.51,0,0,0-.32,3.25,36.62,36.62,0,0,0,5.57,3.82,40.59,40.59,0,0,0,11.39,3.92c2.14.42,4.31.67,6.48.88a19.69,19.69,0,0,0,7.08-.9,6.49,6.49,0,0,0,4.83-4.58A13.12,13.12,0,0,0,240.06,97.31Z"/><path class="cls-11" d="M240.06,97.31a13.12,13.12,0,0,1-.52,4.25,6.49,6.49,0,0,1-4.83,4.58,19.69,19.69,0,0,1-7.08.9c-2.17-.21-4.34-.46-6.48-.88a40.59,40.59,0,0,1-11.39-3.92,36.62,36.62,0,0,1-5.57-3.82,8.65,8.65,0,0,0,3.79,8.13,15.59,15.59,0,0,0,4.43,2.12,76.43,76.43,0,0,0,13,2.91,46.39,46.39,0,0,0,8,.43,14.06,14.06,0,0,0,4.22-.78,6.91,6.91,0,0,0,4.53-4.7A9.07,9.07,0,0,0,240.83,98,4.41,4.41,0,0,0,240.06,97.31Z"/><path class="cls-11" d="M161.75,134.26c0-.68.12-1.37.1-2a.83.83,0,0,0-.77-.83.88.88,0,0,0-1,.6,3.57,3.57,0,0,0-.18.8,16.08,16.08,0,0,0,2.95,11.9,10.87,10.87,0,0,0,7.13,4.5,10.53,10.53,0,0,0,8.51-2.24,15.89,15.89,0,0,0,6-11.95,1.07,1.07,0,0,0-.92-1.3,1,1,0,0,0-.79.5,14.75,14.75,0,0,0-.42,2.22,14.42,14.42,0,0,1-1.93,5.39,11.92,11.92,0,0,1-3.94,4.14,8.58,8.58,0,0,1-10.66-.87,11.69,11.69,0,0,1-3.31-5.14A14.74,14.74,0,0,1,161.75,134.26Z"/><path class="cls-11" d="M138.26,104.69a42.77,42.77,0,0,1,3.39,9.23,19.5,19.5,0,0,1,.71,4.44c0,.94.33,1.88.37,2.83a31.41,31.41,0,0,1-.83,6.69A19.14,19.14,0,0,1,133,140.62a27,27,0,0,1-11,3.85,22.39,22.39,0,0,1-7.16-.16,27.46,27.46,0,0,1-11.73-5.16,42.45,42.45,0,0,1-4.83-4.75c-.61-.64-1-1.46-1.58-2.14-.19-.23-.58-.3-.88-.44a27.87,27.87,0,0,1,2-15.12,29.54,29.54,0,0,1,32.06-17.77,21,21,0,0,1,6.67,2C137.12,102.2,137.65,103.46,138.26,104.69ZM116.41,104a17.85,17.85,0,0,0-9.78,10.31,8.82,8.82,0,0,0-.6,3.83,4.92,4.92,0,0,0,1.71,3.61,3.3,3.3,0,0,0,3.42.78,6.33,6.33,0,0,0,3.43-2.48,27.92,27.92,0,0,1,4.29-5c1.27-1.26,2.57-2.48,3.81-3.77a10.25,10.25,0,0,0,1.35-1.79,3.91,3.91,0,0,0-.36-4.62,4.18,4.18,0,0,0-2.84-1.5,7.75,7.75,0,0,0-1.28,0A6,6,0,0,0,116.41,104ZM102,129.09c.62,2.62,2.78,3.5,5,2.25a4.12,4.12,0,0,0,1.68-4.8,3,3,0,0,0-3.48-2.18,3.29,3.29,0,0,0-3.17,2.69,7,7,0,0,0-.07,1h0A5,5,0,0,0,102,129.09Z"/><path class="cls-11" d="M136.55,101c.57,1.24,1.1,2.5,1.71,3.73a42.77,42.77,0,0,1,3.39,9.23,19.5,19.5,0,0,1,.71,4.44c0,.94.33,1.88.37,2.83a31.41,31.41,0,0,1-.83,6.69A19.14,19.14,0,0,1,133,140.62a27,27,0,0,1-11,3.85,22.39,22.39,0,0,1-7.16-.16,27.46,27.46,0,0,1-11.73-5.16,42.45,42.45,0,0,1-4.83-4.75c-.61-.64-1-1.46-1.58-2.14-.19-.23-.58-.3-.88-.44a24.48,24.48,0,0,0,2.68,9.2c4.54,9,11.82,14.52,21.72,16.23A29.55,29.55,0,0,0,136.94,101,1.28,1.28,0,0,0,136.55,101Z"/><path class="cls-8" d="M119.56,103.35a6,6,0,0,0-3.15.61,17.85,17.85,0,0,0-9.78,10.31,8.82,8.82,0,0,0-.6,3.83,4.92,4.92,0,0,0,1.71,3.61,3.3,3.3,0,0,0,3.42.78,6.33,6.33,0,0,0,3.43-2.48,27.92,27.92,0,0,1,4.29-5c1.27-1.26,2.57-2.48,3.81-3.77a10.25,10.25,0,0,0,1.35-1.79,3.91,3.91,0,0,0-.36-4.62,4.18,4.18,0,0,0-2.84-1.5A7.75,7.75,0,0,0,119.56,103.35Z"/><path class="cls-8" d="M101.94,128.07a5,5,0,0,0,0,1c.62,2.62,2.78,3.5,5,2.25a4.12,4.12,0,0,0,1.68-4.8,3,3,0,0,0-3.48-2.18,3.29,3.29,0,0,0-3.17,2.69,7,7,0,0,0-.07,1Z"/><path class="cls-11" d="M221.64,119.65a26.89,26.89,0,0,1,3,6.5,24.18,24.18,0,0,1,1.36,9.68,14.72,14.72,0,0,1-.48,3c-1.47,5.19-4.36,9.25-9.43,11.52a15,15,0,0,1-5.36,1.21c-1.44.07-2.88,0-4.33,0a20,20,0,0,1-7.18-1.49,14.8,14.8,0,0,1-6.13-4,14,14,0,0,1-1-1.3,1.3,1.3,0,0,0-1-.59,22.39,22.39,0,0,1,9.4-23.38,21.9,21.9,0,0,1,20.61-2.48A6.41,6.41,0,0,0,221.64,119.65Zm-21.27,16.78a2.91,2.91,0,0,0,3.27.41,4.49,4.49,0,0,0,2.11-1.58c1.37-2.31,3.29-4.2,4.85-6.37a11.1,11.1,0,0,0,1.43-2.7,3.77,3.77,0,0,0-4.21-4.89,8.58,8.58,0,0,0-3.94,1.66,14,14,0,0,0-5.4,8.49c0,.27,0,.55-.07.87A5.66,5.66,0,0,0,200.37,136.43Zm-1.8,9a3.78,3.78,0,0,0,3.54-3.57,3.32,3.32,0,1,0-3.54,3.57Z"/><path class="cls-11" d="M221.1,118.33a6.41,6.41,0,0,0,.54,1.32,26.89,26.89,0,0,1,3,6.5,24.18,24.18,0,0,1,1.36,9.68,14.72,14.72,0,0,1-.48,3c-1.47,5.19-4.36,9.25-9.43,11.52a15,15,0,0,1-5.36,1.21c-1.44.07-2.88,0-4.33,0a20,20,0,0,1-7.18-1.49,14.8,14.8,0,0,1-6.13-4,14,14,0,0,1-1-1.3,1.3,1.3,0,0,0-1-.59A21.7,21.7,0,0,0,205.82,161a22.7,22.7,0,0,0,15.68-42.6A1.67,1.67,0,0,0,221.1,118.33Z"/><path class="cls-8" d="M198.41,132.32a5.66,5.66,0,0,0,2,4.11,2.91,2.91,0,0,0,3.27.41,4.49,4.49,0,0,0,2.11-1.58c1.37-2.31,3.29-4.2,4.85-6.37a11.1,11.1,0,0,0,1.43-2.7,3.77,3.77,0,0,0-4.21-4.89,8.58,8.58,0,0,0-3.94,1.66,14,14,0,0,0-5.4,8.49C198.43,131.72,198.44,132,198.41,132.32Z"/><path class="cls-8" d="M195.49,142.27a3.18,3.18,0,0,0,3.08,3.14,3.78,3.78,0,0,0,3.54-3.57,3.32,3.32,0,0,0-6.62.43Z"/><ellipse class="cls-1" cx="126.02" cy="266.17" rx="14.84" ry="24.96" transform="translate(-70.63 46.95) rotate(-16.56)"/></svg>